<svg width="51" height="51" viewBox="0 0 51 51" fill="none" xmlns="http://www.w3.org/2000/svg">
<circle cx="25.5" cy="25.5" r="25.5" fill="#EDF1F4"/>
<g opacity="0.7">
<path fill-rule="evenodd" clip-rule="evenodd" d="M38.0075 28.6857C37.8117 28.8807 37.5558 28.9777 37.2998 28.9777C37.0439 28.9777 36.7879 28.8807 36.5932 28.6857L32.1386 24.2371C31.2895 24.698 30.3329 24.983 29.3001 24.983C25.9918 24.983 23.3008 22.2952 23.3008 18.9915C23.3008 15.6878 25.9918 13 29.3001 13C32.6084 13 35.3004 15.6878 35.3004 18.9915C35.3004 20.5374 34.6941 21.9353 33.7275 23.0002L38.0075 27.2728C38.3979 27.6628 38.3979 28.2947 38.0075 28.6857ZM29.3001 14.9968C27.0939 14.9968 25.3002 16.7887 25.3002 18.9915C25.3002 21.1943 27.0939 22.9862 29.3001 22.9862C31.5063 22.9862 33.2999 21.1943 33.2999 18.9915C33.2999 16.7887 31.5063 14.9968 29.3001 14.9968ZM28.3004 26.9808C28.8524 26.9808 29.3001 27.4278 29.3001 27.9798V35.9681C29.3001 36.52 28.8524 36.967 28.3004 36.967H23.3008C22.7477 36.967 22.3 36.52 22.3 35.9681V27.9798C22.3 27.4278 22.7477 26.9808 23.3008 26.9808H28.3004ZM24.3005 34.9702L27.3789 35.0022V29.0027L24.3005 28.9777V34.9702ZM20.3006 36.967H15.3C14.748 36.967 14.3003 36.52 14.3003 35.9681V21.9873C14.3003 21.4353 14.748 20.9883 15.3 20.9883H20.3006C20.8527 20.9883 21.3003 21.4353 21.3003 21.9873V35.9681C21.3003 36.52 20.8527 36.967 20.3006 36.967ZM19.3491 23.0032L16.3007 22.9862V34.9702L19.3491 35.0022V23.0032ZM31.3005 30.9755H36.3001C36.8532 30.9755 37.2998 31.4225 37.2998 31.9734V36.0011C37.2998 36.553 36.8532 37 36.3001 37H31.3005C30.7475 37 30.2998 36.553 30.2998 36.0011V31.9734C30.2998 31.4225 30.7475 30.9755 31.3005 30.9755ZM32.3002 35.0022H35.4088V33.0023L32.3002 32.9723V35.0022Z" fill="#000FF8"/>
</g>
</svg>
