<svg width="51" height="51" viewBox="0 0 51 51" fill="none" xmlns="http://www.w3.org/2000/svg">
<circle cx="25.5" cy="25.5" r="25.5" fill="#EDF1F4"/>
<g opacity="0.7">
<path fill-rule="evenodd" clip-rule="evenodd" d="M38.6275 36.9777H15.3585C14.7335 36.9777 14.2283 36.4243 14.2283 35.7424V15.9777C14.2283 15.2958 14.7335 14.7424 15.3585 14.7424C15.9835 14.7424 16.4887 15.2958 16.4887 15.9777V34.5071H38.6275C39.2525 34.5071 39.7577 35.0605 39.7577 35.7424C39.7577 36.4243 39.2525 36.9777 38.6275 36.9777ZM37.7433 25.0365C37.1182 25.0365 36.613 24.4831 36.613 23.8012V22.6758L30.4534 28.4447C30.0058 28.8647 29.3368 28.8375 28.9197 28.3804L26.2445 25.4565L21.3835 29.7071C21.1744 29.89 20.9258 29.9777 20.6782 29.9777C20.346 29.9777 20.0182 29.8183 19.7944 29.5144C19.4045 28.982 19.4836 28.2038 19.9707 27.7776L25.6218 22.8364C26.0716 22.4436 26.7192 22.4819 27.1272 22.9278L29.7787 25.8246L34.5753 21.3306H34.3526C33.7276 21.3306 33.2224 20.7772 33.2224 20.0953C33.2224 19.4134 33.7276 18.86 34.3526 18.86H37.7433C38.2439 18.86 38.5841 19.222 38.7039 19.7136C38.7096 19.7334 38.7084 19.7544 38.713 19.7754C38.7344 19.8791 38.7604 19.9817 38.7604 20.0953V23.8012C38.7604 24.4831 38.3671 25.0365 37.7433 25.0365Z" fill="#000FF8"/>
</g>
</svg>
