<svg width="313" height="472" viewBox="0 0 313 472" fill="none" xmlns="http://www.w3.org/2000/svg">
<g filter="url(#filter0_d)">
<path d="M115.884 388.285H54.3998C53.8119 388.285 53.3354 388.761 53.3354 389.35V395.707C53.3354 396.295 53.8119 396.772 54.3998 396.772H115.884C116.472 396.772 116.948 396.295 116.948 395.707V389.35C116.948 388.761 116.472 388.285 115.884 388.285Z" fill="#FF5000"/>
<path d="M125.414 379.797H63.9295C63.3417 379.797 62.8652 380.274 62.8652 380.862V387.219C62.8652 387.808 63.3417 388.284 63.9295 388.284H125.414C126.002 388.284 126.478 387.808 126.478 387.219V380.862C126.478 380.274 126.002 379.797 125.414 379.797Z" fill="#662D91"/>
<path d="M117.996 371.31H56.5121C55.9242 371.31 55.4478 371.787 55.4478 372.375V378.732C55.4478 379.321 55.9242 379.797 56.5121 379.797H117.996C118.584 379.797 119.061 379.321 119.061 378.732V372.375C119.061 371.787 118.584 371.31 117.996 371.31Z" fill="url(#paint0_linear)"/>
<path d="M126.478 362.823H64.994C64.4062 362.823 63.9297 363.299 63.9297 363.888V370.245C63.9297 370.833 64.4062 371.31 64.994 371.31H126.478C127.066 371.31 127.543 370.833 127.543 370.245V363.888C127.543 363.299 127.066 362.823 126.478 362.823Z" fill="#FF5000"/>
<path d="M59.7049 362.823H121.189C121.777 362.823 122.253 362.346 122.253 361.758V355.4C122.253 354.812 121.777 354.335 121.189 354.335H59.7049C59.1171 354.335 58.6406 354.812 58.6406 355.4V361.758C58.6406 362.346 59.1171 362.823 59.7049 362.823Z" fill="#662D91"/>
<path opacity="0.2" d="M59.6882 362.823H68.9068C68.6268 362.818 68.3615 362.705 68.165 362.505C67.9686 362.306 67.8588 362.038 67.8588 361.758V355.4C67.8588 355.12 67.9686 354.853 68.165 354.653C68.3615 354.453 68.6268 354.34 68.9068 354.335H59.6882C59.4066 354.335 59.1348 354.447 58.935 354.647C58.7369 354.846 58.6239 355.118 58.6239 355.4V361.708C58.6173 361.853 58.6403 361.997 58.691 362.131C58.7402 362.265 58.8187 362.39 58.917 362.493C59.0169 362.598 59.1364 362.68 59.269 362.737C59.4017 362.793 59.5441 362.823 59.6882 362.823Z" fill="#113355"/>
<path opacity="0.2" d="M64.8299 371.31H84.6588C84.3772 371.31 84.1053 371.197 83.9056 370.999C83.7058 370.799 83.5945 370.527 83.5945 370.245V363.888C83.5945 363.606 83.7058 363.334 83.9056 363.134C84.1053 362.934 84.3772 362.823 84.6588 362.823H64.8299C64.5483 362.823 64.2765 362.934 64.0767 363.134C63.877 363.334 63.7656 363.606 63.7656 363.888V370.245C63.7656 370.527 63.877 370.799 64.0767 370.999C64.2765 371.197 64.5483 371.31 64.8299 371.31Z" fill="#113355"/>
<path opacity="0.2" d="M56.5121 379.732H86.9349C86.6532 379.732 86.3814 379.62 86.1817 379.42C85.9819 379.22 85.8705 378.948 85.8705 378.666V372.309C85.8705 372.027 85.9819 371.755 86.1817 371.555C86.3814 371.357 86.6532 371.244 86.9349 371.244H56.5121C56.2304 371.244 55.9586 371.357 55.7589 371.555C55.5591 371.755 55.4478 372.027 55.4478 372.309V378.666C55.4478 378.948 55.5591 379.22 55.7589 379.42C55.9586 379.62 56.2304 379.732 56.5121 379.732Z" fill="#113355"/>
<path opacity="0.2" d="M63.9295 388.284H83.7584C83.4768 388.284 83.205 388.173 83.0052 387.973C82.8071 387.773 82.6941 387.501 82.6941 387.219V380.862C82.6941 380.58 82.8071 380.308 83.0052 380.108C83.205 379.91 83.4768 379.797 83.7584 379.797H63.9295C63.7904 379.797 63.6512 379.825 63.5218 379.879C63.3925 379.931 63.2762 380.01 63.1763 380.108C63.0781 380.208 62.9995 380.325 62.9471 380.454C62.8931 380.583 62.8652 380.723 62.8652 380.862V387.219C62.8652 387.359 62.8931 387.498 62.9471 387.627C62.9995 387.757 63.0781 387.873 63.1763 387.973C63.2762 388.071 63.3925 388.15 63.5218 388.204C63.6512 388.257 63.7904 388.284 63.9295 388.284Z" fill="#113355"/>
<path opacity="0.2" d="M54.3834 396.772H63.6183C63.3367 396.772 63.0649 396.659 62.8651 396.461C62.6653 396.261 62.554 395.989 62.554 395.707V389.35C62.554 389.068 62.6653 388.796 62.8651 388.596C63.0649 388.398 63.3367 388.285 63.6183 388.285H54.3834C54.1034 388.289 53.8381 388.403 53.6416 388.602C53.4451 388.801 53.3354 389.069 53.3354 389.35V395.707C53.3354 395.987 53.4451 396.256 53.6416 396.454C53.8381 396.654 54.1034 396.767 54.3834 396.772Z" fill="#113355"/>
<path d="M124.661 411.975H63.1766C62.5888 411.975 62.1123 412.452 62.1123 413.04V419.397C62.1123 419.985 62.5888 420.462 63.1766 420.462H124.661C125.249 420.462 125.725 419.985 125.725 419.397V413.04C125.725 412.452 125.249 411.975 124.661 411.975Z" fill="url(#paint1_linear)"/>
<path d="M133.143 403.487H71.6585C71.0707 403.487 70.5942 403.964 70.5942 404.552V410.91C70.5942 411.498 71.0707 411.975 71.6585 411.975H133.143C133.731 411.975 134.207 411.498 134.207 410.91V404.552C134.207 403.964 133.731 403.487 133.143 403.487Z" fill="#FF5000"/>
<path d="M66.3695 403.487H127.854C128.442 403.487 128.918 403.011 128.918 402.422V396.065C128.918 395.477 128.442 395 127.854 395H66.3695C65.7817 395 65.3052 395.477 65.3052 396.065V402.422C65.3052 403.011 65.7817 403.487 66.3695 403.487Z" fill="#662D91"/>
<path opacity="0.2" d="M66.353 403.487H75.5716C75.2916 403.482 75.0263 403.369 74.8298 403.169C74.6334 402.971 74.5236 402.702 74.5236 402.422V396.065C74.5236 395.785 74.6334 395.518 74.8298 395.318C75.0263 395.118 75.2916 395.005 75.5716 395H66.353C66.0714 395 65.7996 395.111 65.5998 395.311C65.4017 395.511 65.2887 395.783 65.2887 396.065V402.373C65.2821 402.517 65.3051 402.661 65.3558 402.796C65.4049 402.93 65.4835 403.055 65.5818 403.158C65.6817 403.263 65.8012 403.345 65.9338 403.402C66.0665 403.458 66.2089 403.487 66.353 403.487Z" fill="#113355"/>
<path opacity="0.2" d="M71.4945 411.975H91.3233C91.0417 411.975 90.7699 411.861 90.5701 411.663C90.3704 411.463 90.259 411.191 90.259 410.91V404.552C90.259 404.27 90.3704 403.998 90.5701 403.798C90.7699 403.599 91.0417 403.487 91.3233 403.487H71.4945C71.2129 403.487 70.941 403.599 70.7413 403.798C70.5415 403.998 70.4302 404.27 70.4302 404.552V410.91C70.4302 411.191 70.5415 411.463 70.7413 411.663C70.941 411.861 71.2129 411.975 71.4945 411.975Z" fill="#113355"/>
<path opacity="0.2" d="M63.1766 420.396H93.5994C93.3178 420.396 93.046 420.285 92.8462 420.085C92.6464 419.885 92.5351 419.613 92.5351 419.331V412.974C92.5351 412.692 92.6464 412.42 92.8462 412.22C93.046 412.022 93.3178 411.909 93.5994 411.909H63.1766C62.895 411.909 62.6232 412.022 62.4234 412.22C62.2236 412.42 62.1123 412.692 62.1123 412.974V419.331C62.1123 419.613 62.2236 419.885 62.4234 420.085C62.6232 420.285 62.895 420.396 63.1766 420.396Z" fill="#113355"/>
<path opacity="0.2" d="M70.5941 428.949H90.423C90.1413 428.949 89.8695 428.838 89.6698 428.638C89.4716 428.438 89.3587 428.166 89.3587 427.884V421.527C89.3587 421.245 89.4716 420.973 89.6698 420.773C89.8695 420.575 90.1413 420.462 90.423 420.462H70.5941C70.4549 420.462 70.3157 420.49 70.1864 420.544C70.057 420.596 69.9408 420.675 69.8409 420.773C69.7427 420.873 69.664 420.989 69.6116 421.119C69.5576 421.248 69.5298 421.387 69.5298 421.527V427.884C69.5298 428.023 69.5576 428.163 69.6116 428.292C69.664 428.421 69.7427 428.538 69.8409 428.638C69.9408 428.736 70.057 428.815 70.1864 428.869C70.3157 428.921 70.4549 428.949 70.5941 428.949Z" fill="#113355"/>
<path opacity="0.2" d="M61.0479 437.437H70.2829C70.0012 437.437 69.7294 437.324 69.5297 437.125C69.3299 436.925 69.2185 436.653 69.2185 436.372V430.014C69.2185 429.732 69.3299 429.46 69.5297 429.261C69.7294 429.062 70.0012 428.949 70.2829 428.949H61.0479C60.7679 428.954 60.5027 429.067 60.3062 429.267C60.1097 429.465 60 429.734 60 430.014V436.372C60 436.652 60.1097 436.921 60.3062 437.119C60.5027 437.319 60.7679 437.432 61.0479 437.437Z" fill="#113355"/>
<path d="M153.566 411.406H88.4562C87.8337 411.406 87.3291 411.911 87.3291 412.534V419.266C87.3291 419.889 87.8337 420.394 88.4562 420.394H153.566C154.189 420.394 154.693 419.889 154.693 419.266V412.534C154.693 411.911 154.189 411.406 153.566 411.406Z" fill="#FF5000"/>
<path d="M163.658 402.418H98.5475C97.925 402.418 97.4204 402.923 97.4204 403.546V410.278C97.4204 410.901 97.925 411.406 98.5475 411.406H163.658C164.28 411.406 164.785 410.901 164.785 410.278V403.546C164.785 402.923 164.28 402.418 163.658 402.418Z" fill="#662D91"/>
<path d="M155.803 393.43H90.693C90.0705 393.43 89.5659 393.935 89.5659 394.558V401.291C89.5659 401.913 90.0705 402.418 90.693 402.418H155.803C156.426 402.418 156.93 401.913 156.93 401.291V394.558C156.93 393.935 156.426 393.43 155.803 393.43Z" fill="url(#paint2_linear)"/>
<path d="M164.785 384.442H99.6749C99.0524 384.442 98.5479 384.947 98.5479 385.57V392.303C98.5479 392.925 99.0524 393.43 99.6749 393.43H164.785C165.408 393.43 165.912 392.925 165.912 392.303V385.57C165.912 384.947 165.408 384.442 164.785 384.442Z" fill="#FF5000"/>
<path d="M94.0739 384.442H159.184C159.807 384.442 160.311 383.938 160.311 383.315V376.582C160.311 375.96 159.807 375.455 159.184 375.455H94.0739C93.4514 375.455 92.9468 375.96 92.9468 376.582V383.315C92.9468 383.938 93.4514 384.442 94.0739 384.442Z" fill="#662D91"/>
<path opacity="0.45" d="M96.108 384H123C122.183 383.995 121.409 383.875 120.836 383.663C120.263 383.453 119.943 383.168 119.943 382.871V376.129C119.943 375.832 120.263 375.549 120.836 375.337C121.409 375.125 122.183 375.005 123 375H96.108C95.2864 375 94.4935 375.118 93.9107 375.33C93.3328 375.542 93.0032 375.831 93.0032 376.129V382.819C92.9841 382.971 93.051 383.124 93.199 383.267C93.3423 383.409 93.5716 383.541 93.8582 383.651C94.1496 383.762 94.4983 383.849 94.8852 383.91C95.2721 383.969 95.6876 384 96.108 384Z" fill="#113355"/>
<path opacity="0.2" d="M99.5011 393.43H120.499C120.201 393.43 119.913 393.311 119.702 393.101C119.49 392.889 119.372 392.601 119.372 392.303V385.57C119.372 385.272 119.49 384.984 119.702 384.772C119.913 384.56 120.201 384.442 120.499 384.442H99.5011C99.2029 384.442 98.915 384.56 98.7035 384.772C98.4919 384.984 98.374 385.272 98.374 385.57V392.303C98.374 392.601 98.4919 392.889 98.7035 393.101C98.915 393.311 99.2029 393.43 99.5011 393.43Z" fill="#113355"/>
<path opacity="0.2" d="M90.693 402.349H122.91C122.612 402.349 122.324 402.231 122.112 402.019C121.901 401.807 121.783 401.519 121.783 401.221V394.488C121.783 394.19 121.901 393.902 122.112 393.69C122.324 393.48 122.612 393.361 122.91 393.361H90.693C90.3948 393.361 90.1069 393.48 89.8954 393.69C89.6838 393.902 89.5659 394.19 89.5659 394.488V401.221C89.5659 401.519 89.6838 401.807 89.8954 402.019C90.1069 402.231 90.3948 402.349 90.693 402.349Z" fill="#113355"/>
<path opacity="0.2" d="M98.5477 411.406H119.546C119.248 411.406 118.96 411.288 118.748 411.076C118.539 410.865 118.419 410.577 118.419 410.278V403.546C118.419 403.248 118.539 402.959 118.748 402.748C118.96 402.538 119.248 402.418 119.546 402.418H98.5477C98.4003 402.418 98.253 402.448 98.116 402.505C97.979 402.56 97.8559 402.644 97.7501 402.748C97.6461 402.854 97.5628 402.977 97.5073 403.114C97.4501 403.251 97.4207 403.398 97.4207 403.546V410.278C97.4207 410.426 97.4501 410.573 97.5073 410.71C97.5628 410.847 97.6461 410.971 97.7501 411.076C97.8559 411.181 97.979 411.264 98.116 411.321C98.253 411.377 98.4003 411.406 98.5477 411.406Z" fill="#113355"/>
<path opacity="0.2" d="M88.8344 420H105C104.507 420 104.031 419.88 103.682 419.67C103.332 419.458 103.137 419.169 103.137 418.871V412.129C103.137 411.831 103.332 411.542 103.682 411.33C104.031 411.12 104.507 411 105 411H88.8344C88.3443 411.005 87.8799 411.125 87.536 411.337C87.192 411.547 87 411.832 87 412.129V418.871C87 419.168 87.192 419.453 87.536 419.663C87.8799 419.875 88.3443 419.995 88.8344 420Z" fill="#113355"/>
<path d="M270.251 409.721H205.141C204.519 409.721 204.014 410.226 204.014 410.849V417.581C204.014 418.204 204.519 418.709 205.141 418.709H270.251C270.874 418.709 271.379 418.204 271.379 417.581V410.849C271.379 410.226 270.874 409.721 270.251 409.721Z" fill="#FF5000"/>
<path d="M280.343 400.733H215.233C214.61 400.733 214.105 401.238 214.105 401.861V408.593C214.105 409.216 214.61 409.721 215.233 409.721H280.343C280.965 409.721 281.47 409.216 281.47 408.593V401.861C281.47 401.238 280.965 400.733 280.343 400.733Z" fill="#662D91"/>
<path d="M278.882 384.259H217.397C216.809 384.259 216.333 384.736 216.333 385.324V391.681C216.333 392.269 216.809 392.746 217.397 392.746H278.882C279.469 392.746 279.946 392.269 279.946 391.681V385.324C279.946 384.736 279.469 384.259 278.882 384.259Z" fill="#FF5000"/>
<path d="M212.108 384.259H273.592C274.18 384.259 274.657 383.782 274.657 383.194V376.837C274.657 376.248 274.18 375.771 273.592 375.771H212.108C211.52 375.771 211.044 376.248 211.044 376.837V383.194C211.044 383.782 211.52 384.259 212.108 384.259Z" fill="#662D91"/>
<path opacity="0.2" d="M212.091 384.259H221.31C221.03 384.254 220.765 384.141 220.568 383.941C220.372 383.743 220.262 383.474 220.262 383.194V376.837C220.262 376.556 220.372 376.289 220.568 376.089C220.765 375.889 221.03 375.776 221.31 375.771H212.091C211.81 375.771 211.538 375.883 211.338 376.083C211.14 376.283 211.027 376.555 211.027 376.837V383.145C211.02 383.289 211.043 383.433 211.094 383.567C211.143 383.702 211.222 383.826 211.32 383.93C211.42 384.034 211.539 384.116 211.672 384.174C211.805 384.229 211.947 384.259 212.091 384.259Z" fill="#113355"/>
<path opacity="0.2" d="M217.233 392.746H237.062C236.78 392.746 236.509 392.633 236.309 392.435C236.109 392.235 235.998 391.963 235.998 391.681V385.324C235.998 385.042 236.109 384.77 236.309 384.57C236.509 384.37 236.78 384.259 237.062 384.259H217.233C216.952 384.259 216.68 384.37 216.48 384.57C216.28 384.77 216.169 385.042 216.169 385.324V391.681C216.169 391.963 216.28 392.235 216.48 392.435C216.68 392.633 216.952 392.746 217.233 392.746Z" fill="#113355"/>
<path opacity="0.2" d="M211.843 418.688H221.599C221.302 418.688 221.015 418.569 220.804 418.359C220.593 418.148 220.475 417.861 220.475 417.563V410.846C220.475 410.548 220.593 410.261 220.804 410.05C221.015 409.84 221.302 409.721 221.599 409.721H211.843C211.547 409.726 211.266 409.846 211.059 410.057C210.851 410.266 210.735 410.55 210.735 410.846V417.563C210.735 417.859 210.851 418.143 211.059 418.352C211.266 418.563 211.547 418.683 211.843 418.688Z" fill="#113355"/>
<path d="M277.281 392.245H212.171C211.549 392.245 211.044 392.75 211.044 393.373V400.105C211.044 400.728 211.549 401.233 212.171 401.233H277.281C277.904 401.233 278.408 400.728 278.408 400.105V393.373C278.408 392.75 277.904 392.245 277.281 392.245Z" fill="url(#paint3_linear)"/>
<path opacity="0.55" d="M212.171 401.163H244.388C244.09 401.163 243.802 401.045 243.59 400.834C243.379 400.622 243.261 400.334 243.261 400.035V393.303C243.261 393.005 243.379 392.717 243.59 392.505C243.802 392.295 244.09 392.175 244.388 392.175H212.171C211.873 392.175 211.585 392.295 211.373 392.505C211.162 392.717 211.044 393.005 211.044 393.303V400.035C211.044 400.334 211.162 400.622 211.373 400.834C211.585 401.045 211.873 401.163 212.171 401.163Z" fill="#113355"/>
<path d="M278.939 384.295H217.455C216.867 384.295 216.39 384.772 216.39 385.36V391.717C216.39 392.306 216.867 392.782 217.455 392.782H278.939C279.527 392.782 280.003 392.306 280.003 391.717V385.36C280.003 384.772 279.527 384.295 278.939 384.295Z" fill="#113355" fill-opacity="0.25"/>
<path d="M212.166 384.295H273.65C274.238 384.295 274.714 383.818 274.714 383.23V376.873C274.714 376.284 274.238 375.808 273.65 375.808H212.166C211.578 375.808 211.101 376.284 211.101 376.873V383.23C211.101 383.818 211.578 384.295 212.166 384.295Z" fill="#113355" fill-opacity="0.25"/>
<path d="M277.339 392.281H212.228C211.606 392.281 211.101 392.786 211.101 393.409V400.142C211.101 400.765 211.606 401.269 212.228 401.269H277.339C277.961 401.269 278.466 400.765 278.466 400.142V393.409C278.466 392.786 277.961 392.281 277.339 392.281Z" fill="#113355" fill-opacity="0.25"/>
<path d="M262.087 367.036H206.028C205.492 367.036 205.057 367.542 205.057 368.166V374.907C205.057 375.53 205.492 376.036 206.028 376.036H262.087C262.623 376.036 263.057 375.53 263.057 374.907V368.166C263.057 367.542 262.623 367.036 262.087 367.036Z" fill="#113355" fill-opacity="0.25"/>
<path d="M268.469 358.833H206.985C206.397 358.833 205.921 359.31 205.921 359.898V366.255C205.921 366.843 206.397 367.32 206.985 367.32H268.469C269.057 367.32 269.534 366.843 269.534 366.255V359.898C269.534 359.31 269.057 358.833 268.469 358.833Z" fill="#113355" fill-opacity="0.25"/>
<path d="M261.052 350.346H199.567C198.98 350.346 198.503 350.823 198.503 351.411V357.768C198.503 358.357 198.98 358.833 199.567 358.833H261.052C261.64 358.833 262.116 358.357 262.116 357.768V351.411C262.116 350.823 261.64 350.346 261.052 350.346Z" fill="#113355" fill-opacity="0.25"/>
<path d="M269.534 341.858H208.049C207.462 341.858 206.985 342.335 206.985 342.923V349.281C206.985 349.869 207.462 350.346 208.049 350.346H269.534C270.121 350.346 270.598 349.869 270.598 349.281V342.923C270.598 342.335 270.121 341.858 269.534 341.858Z" fill="#113355" fill-opacity="0.25"/>
<path d="M202.455 342.244H263.939C264.527 342.244 265.004 341.768 265.004 341.179V334.822C265.004 334.234 264.527 333.757 263.939 333.757H202.455C201.867 333.757 201.391 334.234 201.391 334.822V341.179C201.391 341.768 201.867 342.244 202.455 342.244Z" fill="#113355" fill-opacity="0.25"/>
<path d="M212.237 403.951H147.127C146.505 403.951 146 404.456 146 405.079V411.812C146 412.434 146.505 412.939 147.127 412.939H212.237C212.86 412.939 213.364 412.434 213.364 411.812V405.079C213.364 404.456 212.86 403.951 212.237 403.951Z" fill="#FF5000"/>
<path d="M222.329 394.963H157.219C156.596 394.963 156.092 395.468 156.092 396.091V402.823C156.092 403.446 156.596 403.951 157.219 403.951H222.329C222.952 403.951 223.456 403.446 223.456 402.823V396.091C223.456 395.468 222.952 394.963 222.329 394.963Z" fill="#662D91"/>
<path d="M214.474 385.976H149.364C148.741 385.976 148.237 386.481 148.237 387.104V393.836C148.237 394.459 148.741 394.964 149.364 394.964H214.474C215.097 394.964 215.601 394.459 215.601 393.836V387.104C215.601 386.481 215.097 385.976 214.474 385.976Z" fill="url(#paint4_linear)"/>
<path d="M223.456 376.988H158.346C157.724 376.988 157.219 377.493 157.219 378.116V384.848C157.219 385.471 157.724 385.976 158.346 385.976H223.456C224.079 385.976 224.583 385.471 224.583 384.848V378.116C224.583 377.493 224.079 376.988 223.456 376.988Z" fill="#FF5000"/>
<path opacity="0.35" d="M158.172 385.976H179.17C178.872 385.976 178.584 385.856 178.373 385.646C178.161 385.434 178.043 385.146 178.043 384.848V378.116C178.043 377.817 178.161 377.529 178.373 377.317C178.584 377.106 178.872 376.988 179.17 376.988H158.172C157.874 376.988 157.586 377.106 157.375 377.317C157.163 377.529 157.045 377.817 157.045 378.116V384.848C157.045 385.146 157.163 385.434 157.375 385.646C157.586 385.856 157.874 385.976 158.172 385.976Z" fill="#113355"/>
<path opacity="0.2" d="M149.364 394.894H181.581C181.283 394.894 180.995 394.776 180.783 394.564C180.572 394.353 180.454 394.065 180.454 393.766V387.034C180.454 386.736 180.572 386.448 180.783 386.236C180.995 386.026 181.283 385.906 181.581 385.906H149.364C149.066 385.906 148.778 386.026 148.566 386.236C148.355 386.448 148.237 386.736 148.237 387.034V393.766C148.237 394.065 148.355 394.353 148.566 394.564C148.778 394.776 149.066 394.894 149.364 394.894Z" fill="#113355"/>
<path opacity="0.55" d="M157.219 403.951H178.217C177.919 403.951 177.631 403.833 177.42 403.622C177.21 403.41 177.09 403.122 177.09 402.823V396.091C177.09 395.793 177.21 395.505 177.42 395.293C177.631 395.083 177.919 394.963 178.217 394.963H157.219C157.071 394.963 156.924 394.993 156.787 395.05C156.65 395.106 156.527 395.189 156.421 395.293C156.317 395.399 156.234 395.522 156.178 395.659C156.121 395.796 156.092 395.944 156.092 396.091V402.823C156.092 402.971 156.121 403.118 156.178 403.255C156.234 403.392 156.317 403.516 156.421 403.622C156.527 403.726 156.65 403.809 156.787 403.866C156.924 403.922 157.071 403.951 157.219 403.951Z" fill="#113355"/>
<path opacity="0.2" d="M150.178 413H187C185.877 413 184.793 412.88 183.997 412.67C183.2 412.458 182.756 412.169 182.756 411.871V405.129C182.756 404.831 183.2 404.542 183.997 404.33C184.793 404.12 185.877 404 187 404H150.178C149.062 404.005 148.004 404.125 147.221 404.337C146.437 404.547 146 404.832 146 405.129V411.871C146 412.168 146.437 412.453 147.221 412.663C148.004 412.875 149.062 412.995 150.178 413Z" fill="#113355"/>
<path opacity="0.2" d="M214.384 411.665H223.37C223.096 411.665 222.832 411.555 222.637 411.362C222.443 411.168 222.334 410.903 222.334 410.629V404.442C222.334 404.168 222.443 403.904 222.637 403.709C222.832 403.516 223.096 403.406 223.37 403.406H214.384C214.112 403.411 213.853 403.521 213.662 403.715C213.471 403.908 213.364 404.17 213.364 404.442V410.629C213.364 410.901 213.471 411.163 213.662 411.356C213.853 411.55 214.112 411.66 214.384 411.665Z" fill="#113355"/>
<path d="M227.962 418.677H162.852C162.23 418.677 161.725 419.182 161.725 419.805V426.537C161.725 427.16 162.23 427.665 162.852 427.665H227.962C228.585 427.665 229.089 427.16 229.089 426.537V419.805C229.089 419.182 228.585 418.677 227.962 418.677Z" fill="url(#paint5_linear)"/>
<path opacity="0.2" d="M162.852 427.595H195.069C194.771 427.595 194.483 427.477 194.272 427.266C194.06 427.054 193.942 426.766 193.942 426.468V419.735C193.942 419.437 194.06 419.149 194.272 418.937C194.483 418.727 194.771 418.608 195.069 418.608H162.852C162.554 418.608 162.266 418.727 162.055 418.937C161.843 419.149 161.725 419.437 161.725 419.735V426.468C161.725 426.766 161.843 427.054 162.055 427.266C162.266 427.477 162.554 427.595 162.852 427.595Z" fill="#113355"/>
<path d="M262.03 367H205.97C205.434 367 205 367.506 205 368.129V374.871C205 375.494 205.434 376 205.97 376H262.03C262.566 376 263 375.494 263 374.871V368.129C263 367.506 262.566 367 262.03 367Z" fill="#FF5000"/>
<path d="M238.431 367H205.569C205.255 367 205 367.506 205 368.129V374.871C205 375.494 205.255 376 205.569 376H238.431C238.745 376 239 375.494 239 374.871V368.129C239 367.506 238.745 367 238.431 367Z" fill="#111111" fill-opacity="0.35"/>
<path d="M268.412 358.797H206.928C206.34 358.797 205.863 359.273 205.863 359.862V366.219C205.863 366.807 206.34 367.284 206.928 367.284H268.412C269 367.284 269.476 366.807 269.476 366.219V359.862C269.476 359.273 269 358.797 268.412 358.797Z" fill="#662D91"/>
<path d="M260.994 350.31H199.51C198.922 350.31 198.446 350.787 198.446 351.375V357.732C198.446 358.32 198.922 358.797 199.51 358.797H260.994C261.582 358.797 262.059 358.32 262.059 357.732V351.375C262.059 350.787 261.582 350.31 260.994 350.31Z" fill="url(#paint6_linear)"/>
<path d="M269.476 341.822H207.992C207.404 341.822 206.928 342.299 206.928 342.887V349.245C206.928 349.833 207.404 350.31 207.992 350.31H269.476C270.064 350.31 270.541 349.833 270.541 349.245V342.887C270.541 342.299 270.064 341.822 269.476 341.822Z" fill="#FF5000"/>
<path d="M202.703 341.822H264.187C264.775 341.822 265.251 341.346 265.251 340.757V334.4C265.251 333.812 264.775 333.335 264.187 333.335H202.703C202.115 333.335 201.638 333.812 201.638 334.4V340.757C201.638 341.346 202.115 341.822 202.703 341.822Z" fill="#662D91"/>
<path opacity="0.2" d="M202.686 341.822H211.905C211.625 341.817 211.36 341.704 211.163 341.505C210.967 341.306 210.857 341.038 210.857 340.757V334.4C210.857 334.12 210.967 333.853 211.163 333.653C211.36 333.453 211.625 333.34 211.905 333.335H202.686C202.405 333.335 202.133 333.446 201.933 333.646C201.735 333.846 201.622 334.118 201.622 334.4V340.708C201.615 340.852 201.638 340.997 201.689 341.131C201.738 341.265 201.817 341.39 201.915 341.493C202.015 341.598 202.134 341.68 202.267 341.737C202.4 341.793 202.542 341.822 202.686 341.822Z" fill="#113355"/>
<path opacity="0.2" d="M207.828 350.31H227.657C227.375 350.31 227.103 350.196 226.904 349.998C226.704 349.798 226.593 349.526 226.593 349.245V342.887C226.593 342.605 226.704 342.333 226.904 342.133C227.103 341.934 227.375 341.822 227.657 341.822H207.828C207.546 341.822 207.275 341.934 207.075 342.133C206.875 342.333 206.764 342.605 206.764 342.887V349.245C206.764 349.526 206.875 349.798 207.075 349.998C207.275 350.196 207.546 350.31 207.828 350.31Z" fill="#113355"/>
<path opacity="0.2" d="M199.51 358.731H229.933C229.651 358.731 229.379 358.62 229.18 358.42C228.98 358.22 228.869 357.948 228.869 357.666V351.309C228.869 351.027 228.98 350.755 229.18 350.555C229.379 350.357 229.651 350.244 229.933 350.244H199.51C199.228 350.244 198.957 350.357 198.757 350.555C198.557 350.755 198.446 351.027 198.446 351.309V357.666C198.446 357.948 198.557 358.22 198.757 358.42C198.957 358.62 199.228 358.731 199.51 358.731Z" fill="#113355"/>
<path opacity="0.2" d="M206.928 367.284H226.756C226.475 367.284 226.203 367.173 226.003 366.973C225.805 366.773 225.692 366.501 225.692 366.219V359.862C225.692 359.58 225.805 359.308 226.003 359.108C226.203 358.91 226.475 358.797 226.756 358.797H206.928C206.788 358.797 206.649 358.825 206.52 358.879C206.391 358.931 206.274 359.01 206.174 359.108C206.076 359.208 205.998 359.324 205.945 359.454C205.891 359.583 205.863 359.722 205.863 359.862V366.219C205.863 366.358 205.891 366.498 205.945 366.627C205.998 366.756 206.076 366.873 206.174 366.973C206.274 367.071 206.391 367.15 206.52 367.204C206.649 367.256 206.788 367.284 206.928 367.284Z" fill="#113355"/>
<path fill-rule="evenodd" clip-rule="evenodd" d="M229.089 164.82L256.135 157.573L272.867 220.016L268.867 333.335H248.867L245.017 224.261L229.089 164.82Z" fill="black"/>
<path d="M232.014 167.035L204.014 167.035L208.014 333.335H228.014L232.014 167.035Z" fill="black"/>
<path d="M284.599 331.495C284.599 330.632 283.999 329.886 283.157 329.699L248.304 321.965L248.445 333.335H282.759C283.775 333.335 284.599 332.511 284.599 331.495Z" fill="#A76F50"/>
<path d="M192.104 331.495C192.104 330.632 192.703 329.886 193.545 329.699L228.399 321.965L228.258 333.335H193.944C192.928 333.335 192.104 332.511 192.104 331.495Z" fill="#A76F50"/>
<path fill-rule="evenodd" clip-rule="evenodd" d="M168.913 206.94L141.867 199.693L125.135 262.136L129.135 375.455H149.135L152.985 266.381L168.913 206.94Z" fill="#2F347A"/>
<path d="M166.988 209.155L194.988 209.155L190.988 371.455H170.988L166.988 209.155Z" fill="#2F347A"/>
<path d="M113.403 368.138C113.403 363.72 116.985 360.138 121.403 360.138H149.556V375.455H117.403C115.194 375.455 113.403 373.664 113.403 371.455V368.138Z" fill="black"/>
<path d="M192.104 368.585C192.104 364.355 188.675 360.927 184.446 360.927H177.53C173.3 360.927 169.872 364.355 169.872 368.585C169.872 372.814 173.3 376.243 177.53 376.243H184.446C188.675 376.243 192.104 372.814 192.104 368.585Z" fill="black"/>
<path d="M59.6565 197.597C59.4774 191.773 64.15 186.954 69.9769 186.954H77.2458C83.0727 186.954 87.7453 191.773 87.5661 197.597L83.0114 345.638C82.8551 350.717 78.6927 354.753 73.6113 354.753C68.53 354.753 64.3675 350.717 64.2113 345.638L59.6565 197.597Z" fill="#431268"/>
<path d="M63.2012 311.85H84.0217L82.9947 345.99C82.8478 350.872 78.8481 354.753 73.9642 354.753H73.2587C68.3748 354.753 64.3751 350.872 64.2282 345.99L63.2012 311.85Z" fill="#F1DDCE"/>
<path d="M64.0813 341.562H83.1482L83.109 345.873C83.0642 350.811 79.0481 354.791 74.1094 354.791H73.1164C68.1748 354.791 64.1574 350.807 64.1167 345.865L64.0813 341.562Z" fill="#2B2B2B"/>
<path d="M92.2342 197.597C92.055 191.773 96.7277 186.954 102.555 186.954H109.823C115.65 186.954 120.323 191.773 120.144 197.597L115.589 345.638C115.433 350.717 111.27 354.753 106.189 354.753C101.108 354.753 96.9452 350.717 96.7889 345.638L92.2342 197.597Z" fill="#431268"/>
<path d="M95.7788 311.85H116.599L115.572 345.99C115.425 350.872 111.426 354.753 106.542 354.753H105.836C100.952 354.753 96.9527 350.872 96.8058 345.99L95.7788 311.85Z" fill="#F1DDCE"/>
<path d="M96.6555 341.562H115.722L115.683 345.873C115.638 350.811 111.622 354.791 106.684 354.791H105.691C100.749 354.791 96.7316 350.807 96.6909 345.865L96.6555 341.562Z" fill="#2B2B2B"/>
<circle cx="89.8504" cy="54.4352" r="27.1752" fill="#212529"/>
<path d="M78.9409 75.2566H100.761C100.761 75.2566 100.81 85.116 102.562 91.0156C104.773 98.4614 112.895 106.775 112.895 106.775H66.8074C66.8074 106.775 73.3384 97.1699 75.7077 91.0156C78.0769 84.8613 78.9409 75.2566 78.9409 75.2566Z" fill="#F1DDCE"/>
<path d="M89.851 84.8172C77.7888 84.8172 68.0105 66.1963 68.0106 54.1341C68.0106 42.072 77.7888 32.2937 89.851 32.2937C101.913 32.2937 111.691 42.072 111.691 54.1341C111.691 66.1963 101.913 84.8172 89.851 84.8172Z" fill="#F6E5D9"/>
<path d="M48.0884 111.639C47.1708 103.035 53.9141 95.5347 62.5666 95.5347H117.135C125.788 95.5347 132.531 103.035 131.614 111.639L122.586 196.286C121.796 203.688 115.551 209.302 108.108 209.302H71.5944C64.1507 209.302 57.9056 203.688 57.1162 196.286L48.0884 111.639Z" fill="#662D91"/>
<path fill-rule="evenodd" clip-rule="evenodd" d="M123.147 203.178C122.128 203.082 121.283 202.464 120.852 201.614C120.404 201.915 119.853 202.068 119.273 202.014C117.939 201.888 116.959 200.705 117.085 199.37L117.678 193.071C117.683 193.017 117.69 192.965 117.698 192.913C118.201 189.043 121.684 186.238 125.6 186.607C129.603 186.984 132.542 190.535 132.165 194.538C132.02 196.076 131.407 197.458 130.479 198.554C130.478 198.637 130.474 198.72 130.466 198.804C130.317 200.385 128.915 201.545 127.335 201.396C126.922 201.357 126.538 201.233 126.198 201.042C125.85 202.383 124.571 203.312 123.147 203.178Z" fill="#F1DDCE"/>
<path fill-rule="evenodd" clip-rule="evenodd" d="M87.0922 44.4258C93.7934 44.4258 99.2258 38.9934 99.2258 32.2923C99.2258 25.5911 93.7934 20.1587 87.0922 20.1587C82.261 20.1587 78.0893 22.9822 76.1373 27.0691C75.1233 26.7944 74.0567 26.6478 72.9558 26.6478C66.2546 26.6478 60.8222 32.0801 60.8222 38.7813C60.8222 39.7912 60.9456 40.7722 61.178 41.7101C56.2947 43.2796 52.7607 47.8591 52.7607 53.264C52.7607 59.9652 58.1931 65.3976 64.8943 65.3976C71.5955 65.3976 77.0279 59.9652 77.0279 53.264C77.0279 52.2542 76.9045 51.2732 76.672 50.3352C79.8658 49.3087 82.4824 46.9948 83.9107 44.0044C84.9247 44.2792 85.9913 44.4258 87.0922 44.4258Z" fill="#212529"/>
<path d="M139.503 146.584C140.399 141.045 136.426 135.902 130.84 135.37L129.841 135.275C124.216 134.74 119.324 139.104 119.217 144.754L118.349 190.399C118.28 194.038 121.019 197.119 124.641 197.476C128.308 197.838 131.625 195.284 132.214 191.646L139.503 146.584Z" fill="#F1DDCE"/>
<path d="M119.387 109.559L128.588 143.901" stroke="#662D91" stroke-width="24.2671" stroke-linecap="round"/>
<path fill-rule="evenodd" clip-rule="evenodd" d="M102.487 90.7581C98.9267 89.9452 94.5856 89.4678 89.9006 89.4678C84.454 89.4678 79.472 90.113 75.6415 91.1807C75.1148 92.5206 74.3991 94.0154 73.6016 95.5343H68.2411C68.0893 95.8718 68.0107 96.217 68.0107 96.5681C68.0107 100.49 77.8112 103.668 89.9006 103.668C101.99 103.668 111.791 100.49 111.791 96.5681C111.791 96.217 111.712 95.8718 111.56 95.5343H104.497C103.689 94.0419 103.005 92.5099 102.561 91.013C102.536 90.9288 102.511 90.8439 102.487 90.7581Z" fill="#F1DDCE"/>
<path d="M55.4681 185.298C66.3941 191.606 80.3682 187.857 86.6806 176.924C92.9929 165.99 89.2529 152.014 78.3268 145.705C67.4008 139.397 53.4267 143.147 47.1143 154.08C40.802 165.013 44.542 178.99 55.4681 185.298Z" fill="#FF5000"/>
<path d="M56.6916 183.179C53.196 181.164 50.3777 178.156 48.5914 174.537C46.8061 170.919 46.1332 166.85 46.6606 162.847C47.1864 158.844 48.8868 155.087 51.5476 152.05C54.2087 149.014 57.7085 146.834 61.6068 145.786C65.5046 144.74 69.6257 144.872 73.447 146.168C77.2672 147.463 80.6179 149.864 83.0742 153.066C85.5305 156.267 86.9821 160.125 87.2449 164.154C87.5083 168.182 86.5713 172.199 84.5525 175.695C81.8427 180.377 77.387 183.794 72.165 185.197C66.943 186.6 61.3778 185.874 56.6916 183.179ZM76.5091 148.854C73.2165 146.951 69.4341 146.067 65.6387 146.315C61.8423 146.563 58.2055 147.932 55.1874 150.248C52.1682 152.564 49.9026 155.724 48.6792 159.327C47.4542 162.93 47.3264 166.815 48.3097 170.489C49.2929 174.164 51.3434 177.464 54.2035 179.971C57.062 182.479 60.6019 184.081 64.3731 184.575C68.1436 185.07 71.9765 184.435 75.3881 182.749C78.7991 181.064 81.6334 178.405 83.5343 175.108C86.0738 170.69 86.7608 165.447 85.4433 160.526C84.1274 155.606 80.9141 151.408 76.5091 148.854Z" fill="#FF1900"/>
<path d="M72.6599 155.638L52.7352 167.011L72.6711 178.521L72.6599 155.638ZM60.6284 167.072L68.6541 162.577L68.7974 171.734L60.6284 167.072Z" fill="white"/>
<path d="M26.0561 140.314C23.8603 135.15 26.487 129.206 31.7833 127.353L32.7303 127.021C38.064 125.155 43.858 128.222 45.3147 133.681L57.0828 177.792C58.021 181.308 56.099 184.955 52.668 186.169C49.1934 187.398 45.3621 185.713 43.9198 182.321L26.0561 140.314Z" fill="#F1DDCE"/>
<path d="M60.8247 108.336L35.6851 133.476" stroke="#662D91" stroke-width="24.2671" stroke-linecap="round"/>
<path fill-rule="evenodd" clip-rule="evenodd" d="M60.4814 194.483C61.7469 194.041 62.4149 192.658 61.9734 191.392L57.9135 179.753C57.8901 179.687 57.8642 179.622 57.8358 179.558C56.4031 175.956 52.371 174.09 48.6751 175.38C44.8787 176.704 42.8747 180.855 44.199 184.651C44.7078 186.11 45.6338 187.304 46.7966 188.146C46.8171 188.227 46.8413 188.307 46.8692 188.387C47.392 189.886 49.0308 190.677 50.5294 190.154C50.9214 190.018 51.2649 189.805 51.5493 189.538C52.208 190.757 53.6725 191.353 55.0232 190.882C55.5585 190.695 56.0036 190.366 56.3307 189.952L57.3908 192.991C57.8322 194.256 59.2159 194.924 60.4814 194.483Z" fill="#F1DDCE"/>
<path d="M219.93 64.1863H240.721C240.721 64.1863 240.768 72.4334 242.437 77.3684C244.544 83.5966 252.283 90.5505 252.283 90.5505H208.369C208.369 90.5505 214.592 82.5163 216.849 77.3684C219.107 72.2205 219.93 64.1863 219.93 64.1863Z" fill="#F1DDCE"/>
<path d="M230.326 73.1985C220.237 73.1985 211.042 56.6075 211.042 46.5177C211.042 36.428 220.237 27.2336 230.326 27.2336C240.416 27.2336 249.61 36.428 249.61 46.5177C249.61 56.6075 240.416 73.1985 230.326 73.1985Z" fill="#F6E5D9"/>
<path d="M195.393 94.6202C194.625 87.4234 200.266 81.1492 207.503 81.1492H253.149C260.387 81.1492 266.027 87.4234 265.26 94.6202L257.708 165.426C257.048 171.617 251.824 176.314 245.597 176.314H215.055C208.828 176.314 203.604 171.617 202.944 165.426L195.393 94.6202Z" fill="#9E1F63"/>
<path d="M257.556 158.63C266.696 153.353 269.824 141.662 264.544 132.517C259.264 123.371 247.575 120.235 238.435 125.512C229.296 130.788 226.168 142.479 231.448 151.625C236.728 160.77 248.417 163.907 257.556 158.63Z" fill="#FF5000"/>
<path d="M256.533 156.857C253.611 158.547 250.254 159.331 246.885 159.111C243.517 158.891 240.288 157.677 237.608 155.62C234.929 153.565 232.919 150.762 231.831 147.564C230.744 144.367 230.629 140.92 231.501 137.657C232.373 134.396 234.192 131.466 236.729 129.24C239.266 127.014 242.406 125.591 245.753 125.151C249.099 124.711 252.501 125.273 255.53 126.767C258.558 128.261 261.075 130.62 262.764 133.545C265.022 137.466 265.634 142.123 264.466 146.492C263.298 150.862 260.445 154.59 256.533 156.857ZM239.956 128.145C237.2 129.734 234.978 132.105 233.57 134.958C232.162 137.812 231.632 141.019 232.048 144.174C232.463 147.33 233.805 150.293 235.903 152.686C238.001 155.08 240.761 156.798 243.835 157.622C246.908 158.447 250.156 158.342 253.168 157.318C256.18 156.296 258.822 154.402 260.757 151.877C262.693 149.352 263.835 146.31 264.041 143.133C264.247 139.958 263.506 136.792 261.912 134.036C259.775 130.349 256.263 127.658 252.148 126.555C248.033 125.45 243.648 126.022 239.956 128.145Z" fill="#FF1900"/>
<path d="M243.261 133.771L243.166 152.962L259.842 143.334L243.261 133.771ZM246.512 147.269L246.612 139.575L253.305 143.301L246.512 147.269Z" fill="white"/>
<path d="M284.588 136.119C287.819 132.629 287.373 127.123 283.623 124.199L283.25 123.908C279.466 120.957 273.962 121.915 271.396 125.969L257.406 148.079C255.77 150.664 256.357 154.067 258.765 155.955C261.206 157.869 264.707 157.59 266.814 155.314L284.588 136.119Z" fill="#9E1F63"/>
<path fill-rule="evenodd" clip-rule="evenodd" d="M254.334 159.639C253.658 159.113 253.339 158.296 253.418 157.502C252.967 157.512 252.509 157.373 252.125 157.074C251.24 156.386 251.081 155.11 251.769 154.226L255.02 150.049C255.052 150.007 255.086 149.966 255.121 149.928C257.219 147.442 260.924 147.037 263.513 149.052C266.167 151.118 266.645 154.944 264.579 157.598C263.785 158.618 262.731 159.317 261.584 159.673C261.546 159.731 261.506 159.787 261.463 159.843C260.647 160.891 259.137 161.079 258.089 160.264C257.816 160.051 257.601 159.791 257.447 159.504C256.599 160.294 255.279 160.374 254.334 159.639Z" fill="#F1DDCE"/>
<path d="M255.645 92.7894L276.951 128.732" stroke="#9E1F63" stroke-width="20.299" stroke-linecap="round"/>
<path d="M184.108 125.907C183.452 121.259 186.861 117.025 191.542 116.674L192.379 116.612C197.092 116.259 201.11 119.991 201.105 124.717L201.063 162.906C201.06 165.95 198.717 168.48 195.683 168.718C192.609 168.959 189.878 166.768 189.447 163.715L184.108 125.907Z" fill="#9E1F63"/>
<path fill-rule="evenodd" clip-rule="evenodd" d="M194.051 171.197C193.764 171.351 193.44 171.449 193.094 171.474C191.77 171.572 190.617 170.578 190.519 169.254C190.514 169.184 190.512 169.114 190.513 169.045C189.756 168.112 189.266 166.947 189.171 165.659C188.923 162.305 191.441 159.385 194.795 159.137C198.078 158.894 200.946 161.302 201.298 164.55C201.303 164.59 201.307 164.631 201.31 164.672L201.747 170.575C201.83 171.693 200.991 172.667 199.872 172.749C199.249 172.795 198.671 172.555 198.267 172.139C197.864 172.643 197.261 172.984 196.567 173.035C195.374 173.123 194.319 172.325 194.051 171.197Z" fill="#F1DDCE"/>
<path d="M204.741 91.8433L193.957 119.559" stroke="#9E1F63" stroke-width="20.299" stroke-linecap="round"/>
<path d="M229.563 91.5894L214.844 81.148L244.282 81.148L229.563 91.5894Z" fill="#F1DDCE"/>
<path d="M244.294 81.1455L229.569 91.5843L237.716 100.789L247.872 81.1455L244.294 81.1455Z" fill="#7C194E"/>
<path d="M214.836 81.1455L229.561 91.5843L221.415 100.789L211.259 81.1455L214.836 81.1455Z" fill="#7C194E"/>
<path fill-rule="evenodd" clip-rule="evenodd" d="M216.252 30.682C218.922 27.8314 221.763 26.9315 226.063 26.1544C229.245 25.5793 231.237 25.5458 234.409 26.1544C238.552 26.9491 240.794 28.2145 243.781 30.682C244.254 31.0733 244.761 31.4185 245.249 31.7509C246.246 32.4291 247.163 33.0539 247.558 33.9069C248.51 34.6762 249.43 36.1336 249.994 37.9296C250.594 39.8413 250.055 41.1911 249.597 42.3353C249.347 42.9627 249.121 43.5282 249.121 44.0907C247.709 44.5337 245.812 42.4936 244.883 39.534C244.706 38.9713 244.577 38.4159 244.494 37.8823C243.577 38.1178 242.551 38.2698 241.536 38.4202C241.258 38.4615 240.98 38.5027 240.706 38.5455C238.915 38.8244 237.56 38.4288 236.159 38.0199C234.973 37.6739 233.755 37.3184 232.213 37.3541C230.376 37.3966 229.009 37.8549 227.647 38.3115C226.255 38.7785 224.867 39.2437 222.988 39.2604C222.231 39.2671 221.463 39.3082 220.705 39.3488L220.705 39.3489C219.094 39.4352 217.526 39.5192 216.21 39.2651C216.172 39.4043 216.131 39.5442 216.087 39.6845C215.158 42.6442 213.26 44.6843 211.849 44.2412C211.849 43.6363 211.615 43.0514 211.359 42.4121C210.905 41.2781 210.382 39.9728 210.976 38.0802C211.536 36.2979 212.446 34.8491 213.39 34.0752C213.909 33.1387 214.771 32.2368 215.664 31.3021L215.664 31.302C215.86 31.0971 216.057 30.8907 216.252 30.682Z" fill="black"/>
<circle cx="151.702" cy="81.1708" r="13.4213" fill="black"/>
<circle cx="151.702" cy="81.1708" r="13.4213" fill="black"/>
<circle cx="151.702" cy="81.1708" r="13.4213" fill="black"/>
<circle cx="174.924" cy="86.9775" r="13.4213" fill="black"/>
<circle cx="174.924" cy="86.9775" r="13.4213" fill="black"/>
<circle cx="174.924" cy="86.9775" r="13.4213" fill="black"/>
<path d="M153.777 100.969H176.47C176.47 100.969 176.521 110.405 178.343 116.051C180.642 123.176 189.089 131.132 189.089 131.132H141.158C141.158 131.132 147.95 121.94 150.414 116.051C152.878 110.161 153.777 100.969 153.777 100.969Z" fill="#F1DDCE"/>
<path d="M165.124 110.117C148.458 110.117 144.223 92.2968 144.223 80.7535C144.223 69.2102 153.58 59.8525 165.124 59.8525C176.667 59.8525 186.025 69.2102 186.025 80.7535C186.025 92.2968 181.79 110.117 165.124 110.117Z" fill="#F6E5D9"/>
<path d="M125.157 135.786C124.279 127.553 130.732 120.375 139.013 120.375H191.234C199.514 120.375 205.968 127.553 205.089 135.786L196.45 216.793C195.695 223.876 189.718 229.249 182.595 229.249H147.652C140.528 229.249 134.552 223.876 133.797 216.793L125.157 135.786Z" fill="#FF7654"/>
<path d="M193.856 207.156C204.313 201.12 207.892 187.744 201.851 177.281C195.81 166.818 182.437 163.23 171.981 169.267C161.525 175.304 157.946 188.679 163.987 199.142C170.027 209.605 183.4 213.193 193.856 207.156Z" fill="#FF5000"/>
<path d="M192.686 205.129C189.343 207.061 185.502 207.958 181.648 207.707C177.794 207.455 174.1 206.066 171.035 203.713C167.969 201.362 165.67 198.155 164.425 194.496C163.182 190.838 163.05 186.895 164.047 183.163C165.045 179.431 167.127 176.079 170.029 173.532C172.931 170.986 176.524 169.358 180.352 168.854C184.181 168.351 188.073 168.993 191.538 170.703C195.002 172.412 197.883 175.111 199.815 178.457C202.398 182.943 203.098 188.271 201.762 193.27C200.426 198.269 197.161 202.534 192.686 205.129ZM173.721 172.28C170.567 174.098 168.025 176.81 166.415 180.074C164.804 183.339 164.198 187.008 164.674 190.618C165.149 194.228 166.683 197.618 169.084 200.356C171.484 203.095 174.642 205.06 178.158 206.003C181.674 206.947 185.39 206.826 188.837 205.656C192.283 204.486 195.304 202.319 197.518 199.43C199.733 196.542 201.04 193.061 201.275 189.427C201.511 185.794 200.663 182.173 198.84 179.02C196.394 174.801 192.377 171.723 187.669 170.461C182.961 169.197 177.945 169.851 173.721 172.28Z" fill="#FF1900"/>
<path d="M177.501 178.716L177.393 200.671L196.472 189.657L177.501 178.716ZM181.22 194.159L181.335 185.356L188.993 189.619L181.22 194.159Z" fill="white"/>
<path fill-rule="evenodd" clip-rule="evenodd" d="M194.165 210.857C193.273 210.448 192.705 209.621 192.586 208.715C192.086 208.845 191.54 208.809 191.035 208.577C189.869 208.041 189.358 206.663 189.894 205.497L192.35 200.15C192.359 200.129 192.369 200.109 192.378 200.088C192.388 200.067 192.397 200.047 192.407 200.026L192.421 199.995C192.439 199.956 192.458 199.919 192.477 199.882C194.149 196.532 198.191 195.091 201.617 196.665C205.114 198.272 206.646 202.408 205.04 205.905C204.423 207.247 203.433 208.3 202.25 208.997C202.223 209.073 202.192 209.147 202.158 209.221C201.524 210.602 199.891 211.207 198.511 210.572C198.15 210.407 197.842 210.173 197.596 209.893C196.857 210.994 195.409 211.429 194.165 210.857Z" fill="#F1DDCE"/>
<path fill-rule="evenodd" clip-rule="evenodd" d="M136.002 211.362C136.894 210.953 137.462 210.126 137.581 209.221C138.081 209.35 138.627 209.315 139.133 209.083C140.298 208.547 140.809 207.168 140.274 206.003L137.847 200.721C137.828 200.678 137.809 200.635 137.789 200.592C136.183 197.096 132.047 195.563 128.55 197.17C125.054 198.776 123.521 202.912 125.128 206.409C125.744 207.751 126.734 208.804 127.918 209.501C127.945 209.577 127.975 209.652 128.009 209.726C128.643 211.106 130.276 211.711 131.657 211.077C132.017 210.911 132.325 210.678 132.571 210.398C133.31 211.499 134.759 211.934 136.002 211.362Z" fill="#F1DDCE"/>
<path d="M227.101 166.397C229.728 161.714 227.849 155.785 223.004 153.47L222.137 153.056C217.258 150.725 211.427 153.038 209.472 158.08L193.678 198.815C192.418 202.062 193.867 205.732 197.004 207.244C200.181 208.775 204.001 207.572 205.727 204.496L227.101 166.397Z" fill="#F1DDCE"/>
<path d="M103.359 166.397C100.732 161.714 102.611 155.785 107.456 153.47L108.323 153.056C113.202 150.725 119.033 153.038 120.988 158.08L136.782 198.815C138.042 202.062 136.593 205.732 133.456 207.244C130.279 208.775 126.459 207.572 124.733 204.496L103.359 166.397Z" fill="#F1DDCE"/>
<path d="M194.239 133.398L218.297 157.457" stroke="#FF7654" stroke-width="23.2233" stroke-linecap="round"/>
<path d="M136.22 133.398L112.162 157.457" stroke="#FF7654" stroke-width="23.2233" stroke-linecap="round"/>
<path d="M169.167 131.502C168.294 132.365 167.857 132.796 167.408 133.074C165.981 133.954 164.19 133.998 162.723 133.187C162.26 132.932 161.803 132.522 160.89 131.703L148.252 120.366L180.433 120.366L169.167 131.502Z" fill="#F1DDCE"/>
<path d="M138.566 60.9436C141.992 58.6886 144.96 58.6574 148.971 59.5153C155.648 60.9436 153.658 54.3241 159.153 53.1269C164.029 52.0643 170.538 53.413 175.494 54.0067C182.341 54.8271 185 59.7857 188.959 65.432C192.51 70.4955 197.351 74.4542 194.876 80.1217C192.637 85.2485 187.45 87.8033 182.023 86.4465C176.595 85.0896 178.278 77.9708 173.658 74.8171C166.924 70.2217 160.796 71.3753 152.847 73.1849C146.802 74.5614 144.12 80.4121 138.566 77.6564C133.992 75.3874 132.354 73.0674 133.465 68.0843C134.211 64.7396 135.703 62.8277 138.566 60.9436Z" fill="black"/>
<path d="M210.549 411H149.064C148.476 411 148 411.477 148 412.065V418.422C148 419.011 148.476 419.487 149.064 419.487H210.549C211.136 419.487 211.613 419.011 211.613 418.422V412.065C211.613 411.477 211.136 411 210.549 411Z" fill="#662D91"/>
<path d="M51.2381 446H122.762C123.446 446 124 445.494 124 444.871V438.129C124 437.506 123.446 437 122.762 437H51.2381C50.5543 437 50 437.506 50 438.129V444.871C50 445.494 50.5543 446 51.2381 446Z" fill="#662D91"/>
<path opacity="0.2" d="M53.5224 446H84C83.0743 445.995 82.1973 445.875 81.5477 445.663C80.8981 445.453 80.5354 445.168 80.5354 444.871V438.129C80.5354 437.832 80.8981 437.549 81.5477 437.337C82.1973 437.125 83.0743 437.005 84 437H53.5224C52.5912 437 51.6926 437.118 51.0322 437.33C50.3772 437.542 50.0036 437.831 50.0036 438.129V444.819C49.982 444.971 50.0578 445.124 50.2256 445.267C50.388 445.409 50.6478 445.541 50.9726 445.651C51.3028 445.762 51.698 445.849 52.1365 445.91C52.575 445.969 53.046 446 53.5224 446Z" fill="#113355"/>
<path d="M125.795 429H56.2046C55.5393 429 55 429.506 55 430.129V436.871C55 437.494 55.5393 438 56.2046 438H125.795C126.461 438 127 437.494 127 436.871V430.129C127 429.506 126.461 429 125.795 429Z" fill="#FF5000"/>
<path d="M88.4311 429H55.5689C55.2547 429 55 429.506 55 430.129V436.871C55 437.494 55.2547 438 55.5689 438H88.4311C88.7453 438 89 437.494 89 436.871V430.129C89 429.506 88.7453 429 88.4311 429Z" fill="#111111" fill-opacity="0.35"/>
<path d="M131.966 420.462H70.4818C69.894 420.462 69.4175 420.939 69.4175 421.527V427.884C69.4175 428.472 69.894 428.949 70.4818 428.949H131.966C132.554 428.949 133.03 428.472 133.03 427.884V421.527C133.03 420.939 132.554 420.462 131.966 420.462Z" fill="#662D91"/>
<path opacity="0.2" d="M66.2402 403.487H75.4588C75.1788 403.482 74.9135 403.369 74.7171 403.17C74.5206 402.971 74.4109 402.703 74.4109 402.422V396.065C74.4109 395.785 74.5206 395.518 74.7171 395.318C74.9135 395.118 75.1788 395.005 75.4588 395H66.2402C65.9586 395 65.6868 395.111 65.487 395.311C65.2889 395.511 65.1759 395.783 65.1759 396.065V402.373C65.1693 402.517 65.1923 402.662 65.243 402.796C65.2922 402.93 65.3708 403.055 65.469 403.158C65.5689 403.263 65.6884 403.345 65.821 403.402C65.9537 403.458 66.0961 403.487 66.2402 403.487Z" fill="#113355"/>
<path opacity="0.2" d="M70.8845 428.949H98.2158C97.8276 428.949 97.453 428.838 97.1776 428.638C96.9045 428.438 96.7488 428.166 96.7488 427.884V421.527C96.7488 421.245 96.9045 420.973 97.1776 420.773C97.453 420.575 97.8276 420.462 98.2158 420.462H70.8845C70.6926 420.462 70.5008 420.49 70.3225 420.544C70.1442 420.596 69.984 420.675 69.8463 420.773C69.7109 420.873 69.6025 420.989 69.5303 421.119C69.4558 421.248 69.4175 421.387 69.4175 421.527V427.884C69.4175 428.023 69.4558 428.163 69.5303 428.292C69.6025 428.421 69.7109 428.538 69.8463 428.638C69.984 428.736 70.1442 428.815 70.3225 428.869C70.5008 428.921 70.6926 428.949 70.8845 428.949Z" fill="#113355"/>
<path d="M124.138 440H189.862C190.491 440 191 439.494 191 438.871V432.129C191 431.506 190.491 431 189.862 431H124.138C123.509 431 123 431.506 123 432.129V438.871C123 439.494 123.509 440 124.138 440Z" fill="#662D91"/>
<path opacity="0.2" d="M127.937 440H162C160.965 439.995 159.985 439.875 159.259 439.663C158.533 439.453 158.128 439.168 158.128 438.871V432.129C158.128 431.832 158.533 431.549 159.259 431.337C159.985 431.125 160.965 431.005 162 431H127.937C126.896 431 125.892 431.118 125.154 431.33C124.422 431.542 124.004 431.831 124.004 432.129V438.819C123.98 438.971 124.065 439.124 124.252 439.267C124.434 439.409 124.724 439.541 125.087 439.651C125.456 439.762 125.898 439.849 126.388 439.91C126.878 439.969 127.404 440 127.937 440Z" fill="#113355"/>
<path d="M189.584 422.665H133.525C132.989 422.665 132.554 423.171 132.554 423.794V430.536C132.554 431.159 132.989 431.665 133.525 431.665H189.584C190.12 431.665 190.554 431.159 190.554 430.536V423.794C190.554 423.171 190.12 422.665 189.584 422.665Z" fill="#FF5000"/>
<path d="M165.985 422.665H133.123C132.809 422.665 132.554 423.171 132.554 423.794V430.536C132.554 431.159 132.809 431.665 133.123 431.665H165.985C166.3 431.665 166.554 431.159 166.554 430.536V423.794C166.554 423.171 166.3 422.665 165.985 422.665Z" fill="#111111" fill-opacity="0.35"/>
<path d="M184.966 414.462H123.482C122.894 414.462 122.417 414.939 122.417 415.527V421.884C122.417 422.472 122.894 422.949 123.482 422.949H184.966C185.554 422.949 186.03 422.472 186.03 421.884V415.527C186.03 414.939 185.554 414.462 184.966 414.462Z" fill="#662D91"/>
<path opacity="0.2" d="M123.477 423H151C150.609 423 150.232 422.882 149.955 422.67C149.68 422.458 149.523 422.17 149.523 421.871V415.129C149.523 414.831 149.68 414.542 149.955 414.33C150.232 414.12 150.609 414 151 414H123.477C123.284 414 123.091 414.03 122.911 414.087C122.732 414.143 122.57 414.226 122.432 414.33C122.295 414.436 122.186 414.559 122.114 414.697C122.039 414.834 122 414.982 122 415.129V421.871C122 422.018 122.039 422.166 122.114 422.303C122.186 422.441 122.295 422.564 122.432 422.67C122.57 422.774 122.732 422.858 122.911 422.915C123.091 422.971 123.284 423 123.477 423Z" fill="#113355"/>
<path d="M266.249 437.751C278.323 437.751 288.11 427.957 288.11 415.875C288.11 403.794 278.323 394 266.249 394C254.176 394 244.388 403.794 244.388 415.875C244.388 427.957 254.176 437.751 266.249 437.751Z" fill="#FF5000"/>
<path d="M266.249 435.409C262.388 435.412 258.613 434.268 255.401 432.123C252.19 429.978 249.685 426.928 248.207 423.358C246.727 419.789 246.339 415.862 247.091 412.071C247.843 408.282 249.701 404.801 252.431 402.067C255.16 399.335 258.639 397.472 262.426 396.718C266.212 395.964 270.138 396.35 273.705 397.828C277.273 399.306 280.322 401.809 282.468 405.022C284.613 408.235 285.759 412.012 285.759 415.876C285.753 421.052 283.695 426.016 280.039 429.678C276.382 433.339 271.422 435.4 266.249 435.409ZM266.249 397.479C262.609 397.477 259.052 398.554 256.025 400.576C252.998 402.598 250.638 405.473 249.245 408.837C247.851 412.201 247.486 415.904 248.196 419.475C248.904 423.047 250.657 426.328 253.23 428.903C255.804 431.478 259.082 433.232 262.652 433.941C266.221 434.652 269.922 434.286 273.283 432.891C276.645 431.497 279.518 429.136 281.538 426.106C283.559 423.078 284.636 419.518 284.634 415.876C284.625 411 282.685 406.325 279.239 402.878C275.794 399.429 271.122 397.488 266.249 397.479Z" fill="#FF1900"/>
<path d="M266.305 404.944L255.234 423.903H277.264L266.305 404.944ZM261.805 420.177L266.305 412.611L270.806 420.131L261.805 420.177Z" fill="white"/>
</g>
<defs>
<filter id="filter0_d" x="0" y="0" width="312.541" height="472" filterUnits="userSpaceOnUse" color-interpolation-filters="sRGB">
<feFlood flood-opacity="0" result="BackgroundImageFix"/>
<feColorMatrix in="SourceAlpha" type="matrix" values="0 0 0 0 0 0 0 0 0 0 0 0 0 0 0 0 0 0 127 0"/>
<feOffset dy="4"/>
<feGaussianBlur stdDeviation="11"/>
<feColorMatrix type="matrix" values="0 0 0 0 0 0 0 0 0 0 0 0 0 0 0 0 0 0 0.15 0"/>
<feBlend mode="normal" in2="BackgroundImageFix" result="effect1_dropShadow"/>
<feBlend mode="normal" in="SourceGraphic" in2="effect1_dropShadow" result="shape"/>
</filter>
<linearGradient id="paint0_linear" x1="49.9611" y1="373.962" x2="52.7662" y2="391.583" gradientUnits="userSpaceOnUse">
<stop stop-color="#4C54D2"/>
<stop offset="1" stop-color="#A3278F"/>
</linearGradient>
<linearGradient id="paint1_linear" x1="56.6257" y1="414.627" x2="59.4308" y2="432.248" gradientUnits="userSpaceOnUse">
<stop stop-color="#4C54D2"/>
<stop offset="1" stop-color="#A3278F"/>
</linearGradient>
<linearGradient id="paint2_linear" x1="83.7557" y1="396.239" x2="86.7263" y2="414.899" gradientUnits="userSpaceOnUse">
<stop stop-color="#4C54D2"/>
<stop offset="1" stop-color="#A3278F"/>
</linearGradient>
<linearGradient id="paint3_linear" x1="205.234" y1="395.054" x2="208.204" y2="413.714" gradientUnits="userSpaceOnUse">
<stop stop-color="#4C54D2"/>
<stop offset="1" stop-color="#A3278F"/>
</linearGradient>
<linearGradient id="paint4_linear" x1="142.427" y1="388.785" x2="145.397" y2="407.444" gradientUnits="userSpaceOnUse">
<stop stop-color="#4C54D2"/>
<stop offset="1" stop-color="#A3278F"/>
</linearGradient>
<linearGradient id="paint5_linear" x1="155.915" y1="421.486" x2="158.885" y2="440.146" gradientUnits="userSpaceOnUse">
<stop stop-color="#4C54D2"/>
<stop offset="1" stop-color="#A3278F"/>
</linearGradient>
<linearGradient id="paint6_linear" x1="192.959" y1="352.962" x2="195.764" y2="370.583" gradientUnits="userSpaceOnUse">
<stop stop-color="#4C54D2"/>
<stop offset="1" stop-color="#A3278F"/>
</linearGradient>
</defs>
</svg>
