<svg width="32" height="32" viewBox="0 0 32 32" fill="none" xmlns="http://www.w3.org/2000/svg">
<circle cx="15.9999" cy="15.9999" r="14.7692" fill="white"/>
<g filter="url(#filter0_d)">
<circle cx="16.0001" cy="16" r="10.4615" fill="url(#paint0_linear)"/>
</g>
<g filter="url(#filter1_d)">
<path d="M16 8.29157C11.7504 8.29157 8.2915 11.7504 8.2915 16C8.2915 20.2496 11.7504 23.7085 16 23.7085C20.2496 23.7085 23.7085 20.2496 23.7085 16C23.7085 13.3408 22.3582 10.9896 20.3034 9.60391L21.0399 8.65918L17.9271 8.54626L18.8255 11.5034L19.508 10.6264C21.0924 11.6622 22.1921 13.3722 22.3886 15.3589C22.2246 15.3679 22.0703 15.4394 21.9574 15.5586C21.8444 15.6778 21.7815 15.8358 21.7814 16C21.7815 16.1649 21.845 16.3234 21.9587 16.4427C22.0725 16.5621 22.2277 16.6331 22.3924 16.6412C22.0925 19.6824 19.6824 22.0925 16.6411 22.3924C16.6331 22.2277 16.562 22.0725 16.4427 21.9587C16.3234 21.845 16.1649 21.7815 16 21.7814C15.8352 21.7815 15.6767 21.845 15.5573 21.9587C15.438 22.0725 15.3669 22.2277 15.3589 22.3924C12.3176 22.0925 9.90754 19.6824 9.60762 16.6412C9.77228 16.6331 9.92754 16.5621 10.0413 16.4427C10.155 16.3234 10.2185 16.1649 10.2186 16C10.2185 15.8352 10.155 15.6767 10.0413 15.5574C9.92754 15.438 9.77228 15.367 9.60762 15.3589C9.92835 12.1066 12.6614 9.57631 16 9.57631C16.0851 9.57752 16.1696 9.56179 16.2486 9.53005C16.3276 9.49831 16.3995 9.45118 16.4601 9.39141C16.5208 9.33164 16.5689 9.26042 16.6018 9.18189C16.6346 9.10335 16.6515 9.01907 16.6515 8.93394C16.6515 8.84881 16.6346 8.76453 16.6018 8.68599C16.5689 8.60746 16.5208 8.53624 16.4601 8.47647C16.3995 8.4167 16.3276 8.36957 16.2486 8.33783C16.1696 8.30609 16.0851 8.29036 16 8.29157Z" fill="white"/>
</g>
<rect x="15.3848" y="12.9231" width="1.23077" height="6.15385" rx="0.615385" fill="#B297FF"/>
<rect x="19.0771" y="15.3846" width="1.23077" height="6.15385" rx="0.615385" transform="rotate(90 19.0771 15.3846)" fill="#B297FF"/>
<defs>
<filter id="filter0_d" x="1.53857" y="2.53845" width="28.9231" height="28.9231" filterUnits="userSpaceOnUse" color-interpolation-filters="sRGB">
<feFlood flood-opacity="0" result="BackgroundImageFix"/>
<feColorMatrix in="SourceAlpha" type="matrix" values="0 0 0 0 0 0 0 0 0 0 0 0 0 0 0 0 0 0 127 0"/>
<feOffset dy="1"/>
<feGaussianBlur stdDeviation="2"/>
<feColorMatrix type="matrix" values="0 0 0 0 0 0 0 0 0 0 0 0 0 0 0 0 0 0 0.15 0"/>
<feBlend mode="normal" in2="BackgroundImageFix" result="effect1_dropShadow"/>
<feBlend mode="normal" in="SourceGraphic" in2="effect1_dropShadow" result="shape"/>
</filter>
<filter id="filter1_d" x="4.2915" y="5.2915" width="23.417" height="23.417" filterUnits="userSpaceOnUse" color-interpolation-filters="sRGB">
<feFlood flood-opacity="0" result="BackgroundImageFix"/>
<feColorMatrix in="SourceAlpha" type="matrix" values="0 0 0 0 0 0 0 0 0 0 0 0 0 0 0 0 0 0 127 0"/>
<feOffset dy="1"/>
<feGaussianBlur stdDeviation="2"/>
<feColorMatrix type="matrix" values="0 0 0 0 0 0 0 0 0 0 0 0 0 0 0 0 0 0 0.15 0"/>
<feBlend mode="normal" in2="BackgroundImageFix" result="effect1_dropShadow"/>
<feBlend mode="normal" in="SourceGraphic" in2="effect1_dropShadow" result="shape"/>
</filter>
<linearGradient id="paint0_linear" x1="16.0001" y1="5.53845" x2="33.7864" y2="20.307" gradientUnits="userSpaceOnUse">
<stop stop-color="#8044FF"/>
<stop offset="1" stop-color="#9757FF"/>
</linearGradient>
</defs>
</svg>
