<svg width="117" height="26" viewBox="0 0 117 26" fill="none" xmlns="http://www.w3.org/2000/svg">
<path d="M116.464 9.87573H113.514V21.3216H116.464V9.87573Z" fill="black"/>
<path d="M116.464 4.39697H113.514V7.50239H116.464V4.39697Z" fill="black"/>
<path d="M110.453 4.55237V7.23637H102.911V11.9167H109.343V14.6007H102.911V21.3218H99.8501V4.55237H110.453Z" fill="black"/>
<path d="M91.6208 14.3789L97.0777 21.3218H93.506L89.6465 16.4196L88.4711 17.6396V21.344H85.5208V4.48584H88.4711V13.9353L92.9296 9.25496H96.5012L91.6208 14.3789Z" fill="black"/>
<path d="M81.9716 18.0609L82.8366 20.5453C81.5054 21.3216 80.0857 21.6987 78.5109 21.6987C76.5372 21.6765 75.0066 21.0998 73.964 19.9464C72.9213 18.7929 72.389 17.1736 72.389 15.1107C72.389 13.07 72.9213 11.495 73.964 10.3416C75.0066 9.18817 76.5372 8.61145 78.5109 8.61145C79.2207 8.61145 79.8196 8.65575 80.3301 8.7445C80.8405 8.83325 81.3727 8.98848 81.9049 9.21036V11.9831C81.3727 11.7168 80.8405 11.5394 80.3743 11.4285C79.8863 11.3176 79.3759 11.2732 78.7994 11.2732C76.559 11.2954 75.4504 12.5598 75.4504 15.0885C75.4504 17.706 76.5372 19.0147 78.7327 19.0147C79.7979 19.0147 80.8623 18.7042 81.9716 18.0609Z" fill="black"/>
<path d="M69.2613 11.8054C69.7271 12.8036 69.9711 13.8906 69.9711 15.1328C69.9711 16.375 69.7271 17.484 69.2613 18.4822C68.7954 19.4804 68.0635 20.2568 67.1319 20.8335C66.178 21.4102 65.0246 21.6986 63.6936 21.6986C62.3183 21.6986 61.1649 21.4102 60.2111 20.8335C59.2573 20.2568 58.5475 19.4804 58.0594 18.4822C57.5715 17.484 57.3497 16.375 57.3497 15.1328C57.3497 13.9128 57.5937 12.8036 58.0594 11.8054C58.5475 10.8073 59.2573 10.0309 60.2111 9.45419C61.1649 8.87747 62.3183 8.58911 63.6936 8.58911C65.0468 8.58911 66.2002 8.87747 67.1319 9.45419C68.0635 10.0309 68.7954 10.8073 69.2613 11.8054ZM66.9322 15.1328C66.9322 13.9128 66.6438 12.9368 66.0893 12.2269C65.5347 11.5171 64.7362 11.1622 63.6936 11.1622C62.6289 11.1622 61.8304 11.5171 61.2537 12.2269C60.6991 12.9368 60.4108 13.8906 60.4108 15.1328C60.4108 16.375 60.6991 17.3287 61.2537 18.0386C61.8082 18.7484 62.6289 19.1033 63.6936 19.1033C64.7362 19.1033 65.5347 18.7484 66.0893 18.0386C66.6438 17.3287 66.9322 16.3528 66.9322 15.1328Z" fill="black"/>
<path d="M55.4199 18.8152V21.3882C54.7322 21.5435 54.0889 21.6322 53.5344 21.6322C52.3144 21.61 51.4271 21.366 50.8726 20.8559C50.3181 20.3457 50.0297 19.5693 50.0297 18.5046V4.4635H52.9799V17.5286C52.9799 18.0609 53.0686 18.4381 53.2461 18.6377C53.4236 18.8373 53.7341 18.9482 54.1999 18.9482C54.6657 18.9482 55.065 18.9038 55.4199 18.8152Z" fill="black"/>
<path d="M45.8372 14.268C46.3695 14.9334 46.6135 15.732 46.6135 16.708C46.6135 18.2607 46.1256 19.4142 45.1717 20.1905C44.2179 20.9669 42.5987 21.3218 40.3361 21.3218H33.9478V4.55237H40.3361C42.3768 4.55237 43.8187 4.92945 44.6838 5.68364C45.5488 6.43782 45.9702 7.54688 45.9702 9.05524C45.9702 9.96469 45.7928 10.7189 45.4157 11.34C45.0387 11.9611 44.4397 12.4491 43.6412 12.804C44.5728 13.1145 45.3049 13.6026 45.8372 14.268ZM42.7983 18.2829C43.2863 17.9058 43.5081 17.3069 43.5081 16.4862C43.5081 15.6655 43.2419 15.0887 42.7095 14.7116C42.1772 14.3345 41.3787 14.1571 40.3361 14.1571H37.0088V18.8374H40.3361C41.4895 18.8374 42.3103 18.66 42.7983 18.2829ZM42.8427 9.2993C42.8427 8.47852 42.643 7.9018 42.266 7.54688C41.8888 7.192 41.2456 7.01455 40.3361 7.01455H37.0088V11.6727H40.3361C41.9998 11.6727 42.8427 10.8741 42.8427 9.2993Z" fill="black"/>
<path d="M24.6094 9.27691C26.6945 11.362 26.6945 14.7336 24.6094 16.7966L17.0898 24.3384C15.0046 26.4235 11.633 26.4235 9.5701 24.3384L2.0283 16.8188C-0.0567953 14.7336 -0.0567953 11.362 2.0283 9.2991L9.54791 1.7573C11.633 -0.327791 15.0046 -0.327791 17.0898 1.7573L24.6094 9.27691ZM18.9752 14.9333C20.0177 13.8907 20.0177 12.205 18.9752 11.1624L15.2043 7.39148C14.1617 6.34893 12.476 6.34893 11.4334 7.39148L7.66247 11.1624C6.61993 12.205 6.61993 13.8907 7.66247 14.9333L11.4334 18.7042C12.476 19.7467 14.1617 19.7467 15.2043 18.7042L18.9752 14.9333Z" fill="#004BEF"/>
</svg>
