<svg width="54" height="17" viewBox="0 0 54 17" fill="none" xmlns="http://www.w3.org/2000/svg">
<g clip-path="url(#clip0)">
<path d="M6.14581 0.142822H6.44905C8.0702 0.202727 9.67317 0.648087 11.1026 1.4128C10.5606 2.47539 10.0194 3.53839 9.4761 4.59973C8.77418 4.02589 7.92023 3.59003 7.00142 3.54169C6.44699 3.51401 5.84588 3.62928 5.43068 4.02341C5.04563 4.37085 4.94194 4.99923 5.21295 5.44418C5.42572 5.75031 5.75747 5.94903 6.09169 6.099C6.58498 6.3254 7.11792 6.44108 7.63104 6.61294C8.35278 6.83769 9.06173 7.12193 9.70374 7.52473C10.2259 7.85235 10.7039 8.26631 11.0477 8.78191C11.5757 9.56562 11.7612 10.5315 11.7459 11.464C11.7405 12.6406 11.3935 13.8436 10.6275 14.7534C9.87891 15.661 8.7841 16.2217 7.65376 16.4918C7.0324 16.6402 6.39287 16.7021 5.75457 16.7096H5.45464C3.55793 16.6769 1.69262 16.0341 0.146255 14.9418V14.9372C0.72919 13.8412 1.31212 12.7451 1.89547 11.6495C2.6763 12.3374 3.58148 12.929 4.6106 13.1554C5.18651 13.2776 5.79919 13.302 6.36808 13.1318C6.79113 13.007 7.14973 12.6926 7.33771 12.2948C7.5042 11.9255 7.49222 11.4797 7.31581 11.1165C7.10222 10.7187 6.68454 10.4915 6.28587 10.3155C5.39804 9.93827 4.46311 9.68874 3.56826 9.33055C2.97293 9.10663 2.41231 8.7786 1.94835 8.3415C1.55216 7.95935 1.24478 7.48672 1.0473 6.97361C0.77794 6.21716 0.753565 5.39502 0.829169 4.60262C0.957654 3.31942 1.57694 2.06845 2.60152 1.26903C3.60172 0.485725 4.88988 0.149019 6.14581 0.142822Z" fill="#2D0023"/>
<path d="M13.5504 16.2733C13.5492 11.0418 13.5496 5.81064 13.5504 0.579102C14.9109 0.579515 16.2713 0.578688 17.6322 0.579515C17.6326 4.65799 17.6322 8.73688 17.6322 12.8154C19.4715 12.8162 21.3112 12.8149 23.1504 12.8162C23.1504 13.9684 23.1504 15.1207 23.1504 16.2729C19.9503 16.2737 16.7501 16.2729 13.5504 16.2733Z" fill="#2D0023"/>
<path d="M25.1182 3.67808C25.1103 2.64524 25.1161 1.61199 25.1153 0.579148C26.0382 0.579148 26.9612 0.579148 27.8841 0.578735C29.8758 5.81069 31.8733 11.0402 33.8593 16.2742C32.4084 16.2725 30.9574 16.2738 29.5069 16.2733C29.102 15.1219 28.7067 13.9668 28.2981 12.8171C27.2371 12.8204 26.1758 12.8183 25.1149 12.8183C25.1149 11.7834 25.114 10.7489 25.1153 9.71441C25.8168 9.71482 26.5183 9.71482 27.2194 9.71441C26.5208 7.70202 25.8139 5.6917 25.1182 3.67808Z" fill="#2D0023"/>
<path d="M32.1952 0.579457C35.7924 0.579043 39.3891 0.57863 42.9859 0.579457C42.9859 1.73169 42.9863 2.88393 42.9859 4.03658C41.8679 4.03699 40.75 4.03658 39.6321 4.03658C39.6308 8.11588 39.6333 12.1948 39.6308 16.2737C38.2704 16.2724 36.9099 16.2741 35.5494 16.2728C35.5486 12.1944 35.5499 8.11547 35.549 4.03658C34.4311 4.03658 33.3131 4.03699 32.1952 4.03658C32.1948 2.88393 32.1952 1.73169 32.1952 0.579457Z" fill="#2D0023"/>
<path d="M44.9174 0.579496C47.8961 0.57867 50.8752 0.579083 53.8539 0.579083V4.03662C52.2369 4.03662 50.6199 4.03703 49.0029 4.03662C49.0016 4.90916 49.0029 5.7817 49.002 6.65424C50.6195 6.65548 52.2365 6.65424 53.8539 6.65466V10.1122C52.2365 10.1126 50.6195 10.1114 49.002 10.113C49.0025 11.0137 49.0025 11.9143 49.002 12.8149C50.6191 12.817 52.2365 12.8149 53.8539 12.8158V16.2733C50.8752 16.2733 47.8961 16.2737 44.9174 16.2729C44.9169 11.0417 44.9169 5.81062 44.9174 0.579496Z" fill="#2D0023"/>
</g>
<defs>
<clipPath id="clip0">
<rect width="54" height="16.5667" fill="white" transform="translate(-3.05176e-05 0.142822)"/>
</clipPath>
</defs>
</svg>
