<svg width="95" height="22" viewBox="0 0 95 22" fill="none" xmlns="http://www.w3.org/2000/svg">
<g clip-path="url(#clip0)">
<path d="M25.0588 0.586629C25.5101 0.541502 25.8711 0.496375 26.187 0.496375C29.4362 0.496375 32.6402 0.451248 35.8894 0.496375C37.9201 0.541502 39.7252 1.12816 41.079 2.79786C43.0646 5.27986 42.4328 9.74745 39.8154 11.0561C39.68 11.1013 39.5898 11.1464 39.2739 11.2818C41.801 12.7259 41.8913 14.9822 42.0718 17.2386C42.162 18.457 42.3877 19.6754 42.5231 20.9841C41.1241 20.9841 39.68 20.9841 38.0103 20.9841C37.875 20.2621 37.6944 19.5401 37.5591 18.818C37.3786 17.6447 37.2883 16.4263 37.0627 15.2078C36.8822 14.3053 36.3406 13.493 35.393 13.4028C33.5879 13.2223 31.7377 13.1771 29.6618 13.0869C29.6618 15.8396 29.6618 18.3668 29.6618 20.9841C27.9921 20.9841 26.548 20.9841 24.9686 20.9841C25.0588 14.1699 25.0588 7.44597 25.0588 0.586629ZM29.8423 9.6572C31.6474 9.6572 33.3622 9.70233 35.0319 9.6572C36.6565 9.61207 37.4688 8.6644 37.4237 6.94957C37.4237 5.27986 36.6565 4.42244 35.0319 4.37732C33.5427 4.33219 32.0535 4.37732 30.5192 4.37732C30.2936 4.37732 30.1131 4.46757 29.8423 4.55782C29.8423 6.1824 29.8423 7.80698 29.8423 9.6572Z" fill="black"/>
<path d="M63.8682 9.92797C66.8015 9.92797 69.5994 9.92797 72.5327 9.92797C72.5327 13.5833 72.5327 17.1935 72.5327 20.939C71.5399 20.939 70.6373 20.939 69.5994 20.939C69.4189 20.3975 69.2384 19.856 69.0579 19.2242C68.6517 19.5401 68.3358 19.8108 68.0199 20.0365C64.861 22.3831 59.8519 22.0221 56.7832 19.1339C53.4438 15.9299 52.7669 12.0038 53.8048 7.67161C55.3392 1.30867 62.018 -1.80511 67.9297 1.08303C70.1409 2.12096 71.5399 3.88092 72.1716 6.27266C72.2619 6.58855 72.2619 6.94957 72.307 7.44597C70.8178 7.44597 69.4189 7.44597 67.9748 7.44597C67.8846 7.26546 67.7492 7.08495 67.6589 6.90444C67.0271 5.27986 65.8538 4.33219 64.0487 4.19681C62.018 4.06143 60.3032 4.69321 59.3555 6.4983C57.8212 9.38644 57.8212 12.3197 59.3555 15.2079C60.258 16.9227 61.8826 17.5996 63.778 17.5545C65.4928 17.5093 66.9369 17.0129 67.7943 15.3884C68.0651 14.892 68.1553 14.3504 68.4261 13.5381C66.8015 13.5381 65.4477 13.5381 63.9585 13.5381C63.8682 12.2295 63.8682 11.1013 63.8682 9.92797Z" fill="black"/>
<path d="M94.4645 20.939C92.7046 20.939 91.2154 20.939 89.5457 20.939C89.0493 19.5401 88.5077 18.1412 88.0113 16.652C85.5293 16.652 83.0925 16.652 80.6105 16.652C80.0689 18.096 79.5725 19.495 79.031 20.939C77.4516 20.939 75.9624 20.939 74.2024 20.939C76.8198 14.0797 79.392 7.35575 82.0094 0.58667C83.634 0.58667 85.1683 0.58667 86.8831 0.58667C89.32 7.31063 91.8471 14.0797 94.4645 20.939ZM84.4463 6.45321C84.356 6.45321 84.2658 6.45321 84.1755 6.45321C83.4084 8.52906 82.6863 10.65 81.9192 12.8161C83.5437 12.8161 85.0329 12.8161 86.6575 12.8161C85.8903 10.6049 85.1683 8.52906 84.4463 6.45321Z" fill="black"/>
<path d="M52.8121 0.18042C53.4439 0.18042 53.8951 0.18042 54.6172 0.18042C51.6388 7.35565 48.7506 14.3955 45.8174 21.4353C45.2307 21.4353 44.7343 21.4353 43.9672 21.4353C46.9456 14.215 49.8788 7.22027 52.8121 0.18042Z" fill="black"/>
<path d="M20.862 0.58667H0.464478V20.9842H20.862V0.58667Z" fill="#E51837"/>
</g>
<defs>
<clipPath id="clip0">
<rect width="94" height="21.5708" fill="white" transform="translate(0.464478)"/>
</clipPath>
</defs>
</svg>
