<svg width="100" height="23" viewBox="0 0 100 23" fill="none" xmlns="http://www.w3.org/2000/svg">
<g clip-path="url(#clip0)">
<path fill-rule="evenodd" clip-rule="evenodd" d="M9.03933 19.643C9.79073 19.643 10.4936 19.5056 11.1562 19.239C11.1562 19.2633 12.5055 21.3559 12.5297 21.3639C11.3355 22.0037 9.99808 22.329 8.64343 22.3092C4.49863 22.3173 1.49304 19.5784 1.49304 15.2235C1.49304 10.8363 4.64406 8.11349 8.64343 8.11349C10.0574 8.11349 11.1804 8.42051 12.3035 9.0184L11.0107 11.1999C10.3321 10.9332 9.63722 10.8121 8.91006 10.8121C6.46196 10.8121 4.56327 12.3714 4.56327 15.2235C4.56327 17.922 6.39732 19.643 9.03933 19.643ZM19.4862 8.11349C23.5583 8.11349 26.5073 10.9979 26.5073 15.2235C26.5073 19.4248 23.5583 22.3092 19.4781 22.3092C15.4383 22.3092 12.4893 19.4248 12.4893 15.2235C12.4893 10.9979 15.4383 8.11349 19.4862 8.11349V8.11349ZM19.4862 10.7151C17.2158 10.7151 15.5595 12.4684 15.5595 15.2235C15.5595 17.9544 17.2158 19.7076 19.4862 19.7076C21.8131 19.7076 23.4451 17.9544 23.4451 15.2235C23.4451 12.4684 21.8131 10.7151 19.4862 10.7151V10.7151ZM28.4383 22.0022V8.42051H31.4762V21.9941H28.4383V22.0022ZM28.0343 4.24339C28.0658 3.76018 28.28 3.30706 28.6334 2.97598C28.9867 2.64491 29.4528 2.46067 29.9371 2.46067C30.4213 2.46067 30.8874 2.64491 31.2407 2.97598C31.5941 3.30706 31.8083 3.76018 31.8398 4.24339C31.8399 4.75074 31.6412 5.23793 31.2862 5.60044C30.9312 5.96296 30.4483 6.17191 29.9411 6.18248C29.4339 6.17191 28.951 5.96296 28.596 5.60044C28.241 5.23793 28.0423 4.75074 28.0424 4.24339H28.0343ZM34.1263 9.27694C36.1162 8.52898 38.2218 8.13522 40.3475 8.11349C43.8217 8.11349 46.0194 9.43045 46.0194 13.2602V22.0022H43.0219V13.5429C43.0219 11.5796 41.8019 10.8767 40.1132 10.8767C39.0387 10.8767 37.9641 11.0221 37.1642 11.2726V21.9941H34.1344V9.27694H34.1263ZM48.5644 1.14893H51.6023V8.78409C52.2487 8.44475 53.501 8.11349 54.6968 8.11349C58.6235 8.11349 61.5644 10.6181 61.5644 14.9811C61.5644 19.3683 58.6558 22.3092 53.6303 22.3092C51.667 22.3092 49.946 21.9053 48.5644 21.4205V1.14893V1.14893ZM51.6023 19.4248C52.1841 19.6107 52.9516 19.7076 53.7192 19.7076C56.5066 19.7076 58.5023 18.1725 58.5023 15.0457C58.5023 12.4037 56.6278 10.8444 54.3332 10.8444C53.1375 10.8444 52.2164 11.1514 51.6023 11.4907V19.4248V19.4248ZM70.3469 12.8966C70.3469 11.4261 69.2319 10.7474 67.7291 10.7474C66.1697 10.7474 64.9417 11.208 63.8105 11.8543V9.21231C65.1637 8.47694 66.682 8.09875 68.2219 8.11349C71.1952 8.11349 73.3121 9.34158 73.3121 12.7431V21.7275C72.0193 22.0669 70.1853 22.2769 68.6502 22.2769C65.1275 22.2769 62.5501 21.2104 62.5501 18.1402C62.5501 15.377 64.9093 14.0277 68.836 14.0277H70.3388V12.8966H70.3469ZM70.3469 16.0476H69.0541C66.9373 16.0476 65.5557 16.6697 65.5557 18.0513C65.5557 19.4572 66.8484 20.0066 68.6825 20.0066C69.143 20.0066 69.7894 19.95 70.3388 19.8611V16.0557L70.3469 16.0476ZM75.5178 18.326C76.7018 19.2641 78.1532 19.8017 79.6626 19.8611C81.0119 19.8611 81.9006 19.4006 81.9006 18.326C81.9006 17.2191 81.1007 16.8232 79.3556 16.3627C76.5277 15.7163 75.34 14.5852 75.34 12.2179C75.34 9.46277 77.4245 8.11349 80.1877 8.11349C81.7229 8.11349 82.9429 8.44475 84.0821 9.15575V11.9432C82.9993 11.079 81.6617 10.5962 80.2766 10.5697C78.9597 10.5697 78.2567 11.216 78.2567 12.1048C78.2567 12.9935 78.8304 13.446 80.3978 13.8823C83.5004 14.5529 84.8416 15.7163 84.8416 18.1644C84.8416 21.0246 82.6682 22.3092 79.7272 22.3092C78.2521 22.3387 76.7977 21.9583 75.5258 21.2104V18.326H75.5178ZM89.0025 15.9022V15.9587C89.1883 18.3826 91.2648 19.7076 93.3897 19.7076C95.2561 19.7076 96.6054 19.2713 97.9546 18.3826V21.0488C96.7266 21.9133 94.9167 22.3092 93.1716 22.3092C88.9379 22.3092 86.0616 19.6107 86.0616 15.3204C86.0616 10.9979 88.8813 8.11349 92.6222 8.11349C96.5811 8.11349 98.4475 10.6585 98.4475 14.3671V15.9022H88.9944H89.0025ZM95.5954 13.9388C95.5308 11.822 94.4885 10.6585 92.5252 10.6585C90.78 10.6585 89.4954 11.8866 89.0914 13.9388H95.5954Z" fill="#0667D0"/>
</g>
<defs>
<clipPath id="clip0">
<rect width="98.5704" height="22.6227" fill="white" transform="translate(0.68512 0.34082)"/>
</clipPath>
</defs>
</svg>
