<svg width="117" height="24" viewBox="0 0 117 24" fill="none" xmlns="http://www.w3.org/2000/svg">
<path d="M10.6175 0.796875L0.970215 6.36488V17.5009L10.6175 23.0689L20.2649 17.5009V6.36488L10.6175 0.796875ZM10.6175 0.796875L0.970215 6.36488V17.5009L10.6175 23.0689L20.2649 17.5009V6.36488L10.6175 0.796875Z" fill="white"/>
<path d="M14.4262 18.7189H13.0535L11.4102 17.2109V16.4375L13.1115 14.8135V12.2422L15.3349 10.7922L17.8675 12.7062L14.4262 18.7189ZM8.74222 14.6589L8.99355 12.2422L8.16222 10.0769H13.0729L12.2609 12.2422L12.4929 14.6589H10.5982H8.74222ZM9.86355 17.2109L8.22022 18.7382H6.82822L3.36755 12.7062L5.91955 10.8115L8.16222 12.2422V14.8135L9.86355 16.4375V17.2109ZM6.80888 5.61088H14.4069L15.3155 9.47755H5.91955L6.80888 5.61088ZM10.6175 0.796875L0.970215 6.36488V17.5009L10.6175 23.0689L20.2649 17.5009V6.36488L10.6175 0.796875Z" fill="#03316C"/>
<path d="M31.0915 17.0949C28.5395 17.0949 26.6642 15.1036 26.6642 12.6482C26.6642 10.1929 28.5589 8.14355 31.1109 8.14355C32.7349 8.14355 33.7402 8.74289 34.5329 9.61289L33.3149 10.9276C32.7155 10.2896 32.0775 9.86423 31.0915 9.86423C29.6609 9.86423 28.6168 11.1016 28.6168 12.6096C28.6168 14.1562 29.6802 15.3936 31.1882 15.3936C32.1162 15.3936 32.7929 14.9489 33.4115 14.3302L34.5909 15.5096C33.7402 16.4182 32.7542 17.0949 31.0915 17.0949Z" fill="#002E73"/>
<path d="M38.3222 17.0949H36.3502V8.16288H38.3222V10.2509C38.8636 8.97488 39.8496 8.08555 41.3576 8.16288V10.2509H41.2416C39.5209 10.2509 38.3222 11.3722 38.3222 13.6535V17.0949Z" fill="#002E73"/>
<path d="M51.6622 8.12415L47.3122 19.4921H45.3209L46.2682 17.0948L42.5369 8.12415H44.6442L47.1769 14.7555L49.6129 8.12415H51.6622Z" fill="#002E73"/>
<path d="M57.4622 9.84481C56.1282 9.84481 54.9682 10.9275 54.9682 12.6095C54.9682 14.2915 56.1475 15.3741 57.4622 15.3741C58.8155 15.3741 59.9175 14.3108 59.9175 12.6095C59.9175 10.9081 58.7962 9.84481 57.4622 9.84481ZM57.9069 17.0755C56.4955 17.0755 55.6062 16.3601 55.0069 15.5675V19.4921H53.0349V8.12415H55.0069V9.72881C55.6449 8.83948 56.5342 8.12415 57.9069 8.12415C59.9369 8.12415 61.9089 9.72881 61.9089 12.5901C61.9089 15.4515 59.9562 17.0755 57.9069 17.0755Z" fill="#002E73"/>
<path d="M66.2202 9.99953V14.2142C66.2202 14.9682 66.6068 15.2775 67.2835 15.2775H68.0568V17.0369H66.7035C65.2728 17.0369 64.2482 16.3989 64.2482 14.5235V9.99953H63.1655V8.31753H64.2482V5.95886H66.2202V8.31753H68.0568V9.99953H66.2202Z" fill="#002E73"/>
<path d="M74.2628 9.84489C72.6775 9.84489 71.6722 11.0822 71.6722 12.5902C71.6722 14.1176 72.7548 15.3742 74.2822 15.3742C75.8675 15.3742 76.8728 14.1369 76.8728 12.6289C76.9115 11.1016 75.8095 9.84489 74.2628 9.84489ZM74.2628 17.0949C71.6528 17.0949 69.7195 15.1036 69.7195 12.6482C69.7195 10.1736 71.6722 8.14355 74.3015 8.14355C76.9308 8.14355 78.8642 10.1349 78.8642 12.6096C78.8642 15.0456 76.9308 17.0949 74.2628 17.0949Z" fill="#002E73"/>
<path d="M97.6755 9.84489C96.0902 9.84489 95.0848 11.0822 95.0848 12.5902C95.0848 14.1176 96.1675 15.3742 97.6948 15.3742C99.2802 15.3742 100.286 14.1369 100.286 12.6289C100.305 11.1016 99.2222 9.84489 97.6755 9.84489ZM97.6755 17.0949C95.0655 17.0949 93.1322 15.1036 93.1322 12.6482C93.1322 10.1736 95.0848 8.14355 97.7142 8.14355C100.344 8.14355 102.277 10.1349 102.277 12.6096C102.277 15.0456 100.324 17.0949 97.6755 17.0949Z" fill="#002E73"/>
<path d="M113.954 8.12415C115.83 8.12415 116.97 9.30348 116.97 11.4108V17.0755H114.998V12.0101C114.998 10.6375 114.36 9.92214 113.258 9.92214C112.195 9.92214 111.422 10.6761 111.422 12.0488V17.0948H109.45V12.0101C109.45 10.6761 108.792 9.92214 107.71 9.92214C106.627 9.92214 105.873 10.7341 105.873 12.0681V17.0948H103.901V8.14347H105.873V9.61281C106.434 8.85881 107.168 8.14347 108.483 8.14347C109.72 8.14347 110.571 8.74281 111.035 9.65148C111.75 8.72348 112.659 8.12415 113.954 8.12415Z" fill="#002E73"/>
<path d="M82.4795 15.2775V16.2828L82.4216 16.3795L81.5516 16.8628H81.4355L80.5849 16.3795L80.5269 16.2828V15.2775L80.5849 15.1808L81.4355 14.6975H81.5516L82.4216 15.1808L82.4795 15.2775Z" fill="#002E73"/>
<path d="M88.4535 17.0756C85.9015 17.0176 84.0648 14.9876 84.1035 12.5323C84.1422 10.0769 86.0755 8.06627 88.6468 8.12427C90.2708 8.16294 91.2762 8.7816 92.0495 9.67094L90.8122 10.9663C90.2322 10.3283 89.5942 9.86427 88.6082 9.84494C87.1775 9.8256 86.1142 11.0243 86.0948 12.5516C86.0562 14.0983 87.1002 15.3549 88.6082 15.3743C89.5362 15.3936 90.2322 14.9683 90.8508 14.3496L92.0108 15.5483C91.1408 16.4569 90.1355 17.1143 88.4535 17.0756Z" fill="#002E73"/>
</svg>
