<svg width="117" height="24" viewBox="0 0 117 24" fill="none" xmlns="http://www.w3.org/2000/svg">
<g clip-path="url(#clip0)">
<path d="M7.9761 9.89245L12.489 5.37975L17.0043 9.89484L19.6302 7.26893L12.489 0.127563L5.35019 7.26654L7.9761 9.89245Z" fill="#F3BA2F"/>
<path d="M6.12165 11.7462L3.49579 9.12036L0.869795 11.7464L3.49566 14.3722L6.12165 11.7462Z" fill="#F3BA2F"/>
<path d="M7.97626 13.6008L12.4891 18.1135L17.0042 13.5986L19.6316 16.2231L19.6303 16.2245L12.4891 23.3657L5.35017 16.2269L5.3465 16.2233L7.97626 13.6008Z" fill="#F3BA2F"/>
<path d="M21.4826 14.3733L24.1086 11.7473L21.4827 9.12145L18.8567 11.7474L21.4826 14.3733Z" fill="#F3BA2F"/>
<path d="M15.1524 11.7453H15.1535L12.4888 9.08069L10.5196 11.0499H10.5194L10.2933 11.2762L9.82658 11.7429L9.82291 11.7466L9.82658 11.7505L12.4888 14.4127L15.1535 11.7481L15.1547 11.7466L15.1524 11.7453Z" fill="#F3BA2F"/>
<path d="M28.2018 5.75854H33.913C35.3305 5.75854 36.4024 6.12232 37.1288 6.84987C37.691 7.41334 37.972 8.11171 37.972 8.9448V8.98004C37.972 9.33207 37.9285 9.64317 37.8409 9.91298C37.7536 10.1831 37.6369 10.4263 37.4909 10.6435C37.3454 10.8608 37.1762 11.0515 36.9838 11.2156C36.7913 11.38 36.5844 11.521 36.3629 11.6381C37.0754 11.9082 37.6363 12.2748 38.0452 12.7384C38.454 13.2022 38.6586 13.8448 38.6586 14.6661V14.7012C38.6586 15.2646 38.5503 15.7574 38.3336 16.1801C38.1168 16.6025 37.8063 16.9547 37.4019 17.2364C36.9976 17.5181 36.5114 17.7292 35.9431 17.8702C35.3749 18.0109 34.7452 18.0812 34.0541 18.0812H28.2018V5.75854ZM33.342 10.7404C33.9407 10.7404 34.4161 10.638 34.7679 10.4324C35.12 10.227 35.296 9.89536 35.296 9.43779V9.40255C35.296 8.99197 35.1433 8.67812 34.8382 8.46081C34.533 8.24368 34.0929 8.13502 33.518 8.13502H30.8422V10.7404H33.342V10.7404ZM34.0639 15.705C34.6624 15.705 35.1315 15.5967 35.4722 15.3794C35.8125 15.1622 35.9828 14.8247 35.9828 14.3669V14.3319C35.9828 13.9211 35.8242 13.5955 35.5074 13.3547C35.1904 13.1145 34.68 12.9941 33.9758 12.9941H30.8422V15.7051H34.0639V15.705Z" fill="#F3BA2F"/>
<path d="M42.0603 5.75854H44.7716V18.0816H42.0603V5.75854Z" fill="#F3BA2F"/>
<path d="M48.8778 5.75854H51.3773L57.1516 13.3461V5.75854H59.8274V18.0816H57.5215L51.5535 10.2478V18.0816H48.8778V5.75854Z" fill="#F3BA2F"/>
<path d="M68.0353 5.67041H70.5349L75.8165 18.0814H72.9821L71.8553 15.3176H66.6444L65.5179 18.0814H62.7536L68.0353 5.67041ZM70.8872 12.9232L69.2498 8.92715L67.613 12.9232H70.8872Z" fill="#F3BA2F"/>
<path d="M78.7432 5.75854H81.2432L87.0172 13.3461V5.75854H89.693V18.0816H87.387L81.419 10.2478V18.0816H78.7432V5.75854V5.75854Z" fill="#F3BA2F"/>
<path d="M99.4499 18.2924C98.5458 18.2924 97.707 18.1279 96.9323 17.7996C96.1576 17.4712 95.4887 17.0221 94.9255 16.4528C94.362 15.8836 93.9217 15.2117 93.6053 14.4371C93.2883 13.6624 93.1299 12.835 93.1299 11.9548V11.9197C93.1299 11.0394 93.2883 10.2152 93.6053 9.44631C93.9219 8.67764 94.362 8.00276 94.9255 7.42186C95.4886 6.84096 96.1636 6.38302 96.9497 6.04861C97.7358 5.7142 98.6049 5.547 99.5554 5.547C100.13 5.547 100.655 5.59417 101.131 5.68777C101.606 5.78193 102.037 5.91077 102.425 6.07504C102.812 6.23949 103.17 6.439 103.499 6.67357C103.827 6.9085 104.132 7.16656 104.414 7.44829L102.689 9.4375C102.207 9.00342 101.718 8.66277 101.219 8.41646C100.72 8.17015 100.16 8.04681 99.5376 8.04681C99.0211 8.04681 98.5428 8.14666 98.1031 8.34617C97.663 8.54568 97.2843 8.82135 96.9673 9.17338C96.6507 9.52541 96.4042 9.93342 96.2279 10.3969C96.0522 10.8607 95.9643 11.3564 95.9643 11.8845V11.9195C95.9643 12.4476 96.0522 12.9466 96.2279 13.4157C96.4042 13.8854 96.6472 14.296 96.9587 14.648C97.2694 15 97.6451 15.279 98.0851 15.4844C98.5256 15.69 99.0096 15.7924 99.5376 15.7924C100.242 15.7924 100.837 15.6634 101.324 15.4051C101.811 15.1472 102.296 14.795 102.777 14.3488L104.502 16.0917C104.185 16.4322 103.856 16.7374 103.516 17.0071C103.176 17.2772 102.803 17.5089 102.398 17.7027C101.993 17.8961 101.55 18.0431 101.069 18.1426C100.588 18.2423 100.048 18.2924 99.4499 18.2924Z" fill="#F3BA2F"/>
<path d="M107.693 5.75854H116.97V8.17045H110.369V10.6703H116.178V13.082H110.369V15.6699H117.059V18.0816H107.693V5.75854Z" fill="#F3BA2F"/>
</g>
<defs>
<clipPath id="clip0">
<rect width="116" height="23.2382" fill="white" transform="translate(0.970215 0.127441)"/>
</clipPath>
</defs>
</svg>
