<svg width="95" height="21" viewBox="0 0 95 21" fill="none" xmlns="http://www.w3.org/2000/svg">
<path d="M8.58689 0.448242H12.923V14.6186C12.923 15.5017 12.7897 16.2974 12.5231 17.0055C12.2649 17.6969 11.8858 18.2885 11.386 18.7799C10.8945 19.2631 10.2988 19.6337 9.59906 19.8921C8.89095 20.142 8.09538 20.2669 7.21233 20.2669H6.16266C5.28794 20.2669 4.49652 20.142 3.78842 19.8921C3.08865 19.6337 2.48883 19.2631 1.98899 18.7799C1.49748 18.2885 1.12259 17.6969 0.864347 17.0055C0.597768 16.2974 0.464478 15.5017 0.464478 14.6186V0.448242H4.80059V14.6313C4.80059 15.256 4.93388 15.6892 5.20047 15.9308C5.45871 16.1557 5.89607 16.2682 6.51254 16.2682H6.87493C7.4914 16.2682 7.9246 16.1557 8.17452 15.9308C8.44943 15.6892 8.58689 15.256 8.58689 14.6313V0.448242ZM23.968 10.2201C24.3345 10.2201 24.626 10.1868 24.8426 10.1202C25.0676 10.0535 25.2426 9.94521 25.3676 9.79526C25.4841 9.6453 25.5675 9.44954 25.6175 9.20794C25.6591 8.99135 25.6799 8.69978 25.6799 8.33323V6.33386C25.6799 5.96731 25.6591 5.67573 25.6175 5.45914C25.5675 5.21754 25.4841 5.02178 25.3676 4.87182C25.2426 4.72188 25.0676 4.61358 24.8426 4.54693C24.626 4.48028 24.3345 4.44697 23.968 4.44697H21.9062V10.2201H23.968ZM17.5701 19.992V0.448242H24.3179C26.1672 0.448242 27.5834 0.968898 28.5666 2.01024C29.5329 3.03491 30.016 4.47612 30.016 6.33386V8.33323C30.016 10.191 29.5329 11.6321 28.5666 12.6569C27.5834 13.6981 26.1672 14.2189 24.3179 14.2189H21.9062V19.992H17.5701ZM38.087 15.9932H44.5225V19.992H33.7509V0.448242H38.087V15.9932ZM53.4805 12.7318H55.7049L54.5927 6.85869L53.4805 12.7318ZM56.7045 16.7306H52.4809L51.6686 19.992H47.2076L52.5433 0.448242H56.6545L61.9779 19.992H57.5293L56.7045 16.7306ZM73.0353 9.85773V0.448242H77.3714V19.992H73.1978L69.2491 10.5825V19.992H64.913V0.448242H69.0866L73.0353 9.85773ZM82.0185 0.448242H88.2415C90.2076 0.448242 91.7154 0.889763 92.7651 1.77282C93.8981 2.72251 94.4645 4.16372 94.4645 6.09644V14.3438C94.4645 16.2766 93.8981 17.7177 92.7651 18.6674C91.7154 19.5505 90.2076 19.992 88.2415 19.992H82.0185V0.448242ZM86.3546 4.44697V15.9932H88.2415C88.5915 15.9932 88.8705 15.9724 89.0788 15.9308C89.3287 15.8891 89.5286 15.8142 89.6785 15.7058C89.8285 15.581 89.9409 15.4143 90.016 15.206C90.0909 14.9894 90.1284 14.7062 90.1284 14.3563V6.08394C90.1284 5.73405 90.0909 5.45082 90.016 5.23421C89.9409 5.02594 89.8285 4.85934 89.6785 4.73437C89.5286 4.62608 89.3287 4.55109 89.0788 4.50944C88.8705 4.4678 88.5915 4.44697 88.2415 4.44697H86.3546Z" fill="black"/>
</svg>
