<svg width="95" height="47" viewBox="0 0 95 47" fill="none" xmlns="http://www.w3.org/2000/svg">
<path d="M41.1582 12.3691V34.3451C35.1918 38.5142 27.5206 41.6457 21.9061 46.2595V42.5536C27.0944 39.1627 32.5791 36.0127 37.9897 32.6033V17.7797C33.5241 20.5962 28.8917 22.8383 24.6485 25.6733V30.6762L21.9061 32.0289V23.4683L41.1582 12.3691Z" fill="#010101"/>
<path d="M19.6272 23.4499V34.9567C19.6272 36.5379 19.6272 38.0943 19.6272 39.6261V45.9446L0.282471 34.2526V12.2766L3.39542 14.1296V32.5108L16.7552 40.7008V25.3214L12.3081 22.7643V19.2437L19.6272 23.4499Z" fill="#010101"/>
<path d="M39.9173 10.7941L36.8229 12.6471L33.6358 10.8868L20.7949 3.93823L7.82427 10.9053L20.7949 18.3171L21.7584 17.7427L22.759 17.2053L24.964 15.9453L28.2067 17.5944L26.7984 18.4097L21.6843 21.3745L20.7208 21.9303C14.3096 18.2244 7.93545 14.5186 1.54279 10.8127C7.99104 7.21794 14.1428 3.80852 20.6652 0.528809C26.224 3.08587 31.3382 6.18029 36.6932 9.10795C37.7864 9.68236 38.8426 10.2382 39.9173 10.7941Z" fill="#010101"/>
<path d="M54.796 20.6518H58.3907C58.3179 20.8966 58.2185 21.1327 58.0943 21.3559C57.9818 21.5527 57.8516 21.7388 57.7051 21.9118C57.5636 22.0904 57.4019 22.252 57.2234 22.3936C56.4436 23.0077 55.4732 23.3289 54.481 23.3015C53.6155 23.3325 52.7559 23.1478 51.9795 22.7642C51.2654 22.3098 50.6888 21.6691 50.3119 20.9112C49.9041 20.2273 49.6866 19.4469 49.6819 18.6506C49.6954 17.908 49.9134 17.1836 50.3119 16.5568C50.7108 15.849 51.3104 15.2751 52.0351 14.9077C52.7165 14.5384 53.4739 14.3312 54.2484 14.3023C55.0229 14.2734 55.7937 14.4235 56.5007 14.7409C57.2332 15.0587 57.8995 15.5112 58.4648 16.075L58.8169 16.4642L60.466 14.8892L60.0769 14.5C59.2828 13.7297 58.3612 13.1028 57.3531 12.6471C56.8724 12.4706 56.3761 12.3403 55.8707 12.258C55.3636 12.1619 54.8489 12.1123 54.3328 12.1097C53.0953 12.0892 51.8744 12.396 50.7936 12.9991C49.7545 13.5387 48.883 14.3526 48.2736 15.3524C47.6694 16.3669 47.3494 17.5254 47.3472 18.7062C47.3377 20.2709 47.8975 21.7855 48.9222 22.968C49.5843 23.7576 50.4133 24.3904 51.3495 24.8209C52.3369 25.2237 53.3964 25.4192 54.4625 25.3954C55.3103 25.4525 56.1605 25.328 56.9563 25.03C57.7521 24.732 58.475 24.2675 59.0768 23.6675C59.6785 23.0675 60.1451 22.3459 60.4454 21.551C60.7457 20.7561 60.8728 19.9063 60.8181 19.0583V18.5395H54.796V20.6518Z" fill="black"/>
<path d="M66.988 12.4989L60.9845 25.1916H63.2822L65.1351 21.3375H69.5266L71.3795 25.1916H73.7513L67.8219 12.4989H66.988ZM68.6372 19.2066H66.2283L67.4328 16.6495L68.6372 19.2066Z" fill="black"/>
<path d="M76.8462 23.0978V12.5175H74.6782V25.2287H81.3488V25.1916V23.0978H76.8462Z" fill="black"/>
<path d="M88.2604 12.4989H87.371L81.386 25.1916H83.7948L85.6478 21.3375H90.0578L91.9107 25.1916H94.2825L88.2604 12.4989ZM89.0016 19.2066H86.5742L87.7972 16.6495L89.0016 19.2066Z" fill="black"/>
<path d="M62.5603 31.825V32.0288C62.5872 32.4552 62.5234 32.8824 62.373 33.2823C62.2226 33.6821 61.9891 34.0456 61.6878 34.3485C61.3866 34.6515 61.0246 34.8871 60.6256 35.0398C60.2266 35.1925 59.7997 35.2588 59.3732 35.2344C58.8329 35.2516 58.2953 35.1505 57.7982 34.9379C57.3318 34.732 56.9149 34.4288 56.5753 34.0485C56.0788 33.4243 55.8284 32.6399 55.8712 31.8435C55.8783 31.2548 56.0394 30.6782 56.3384 30.1711C56.6375 29.664 57.0641 29.244 57.5759 28.9529C58.1133 28.6525 58.7205 28.4991 59.3362 28.5082C59.5952 28.4881 59.8554 28.4881 60.1144 28.5082C60.367 28.5626 60.6148 28.637 60.8556 28.7306C61.3674 28.9493 61.8328 29.2638 62.2268 29.657L62.3379 29.7497L61.6523 30.3982V30.3056C61.3498 29.9907 60.9834 29.7443 60.5776 29.5829C60.2297 29.4183 59.8507 29.3299 59.4659 29.3235C59.0121 29.3218 58.5655 29.4366 58.1688 29.657C57.7704 29.8588 57.4414 30.175 57.2238 30.565C57.0011 30.921 56.8794 31.331 56.8718 31.7509C56.8768 32.1886 56.9983 32.6171 57.2238 32.9923C57.4579 33.3806 57.7902 33.7002 58.1873 33.9188C58.6032 34.1415 59.0683 34.2562 59.54 34.2523C60.0122 34.2689 60.4781 34.1395 60.8741 33.8818C60.9795 33.8101 61.0733 33.7226 61.1521 33.6223C61.2305 33.5245 61.2988 33.419 61.3559 33.3073C61.457 33.1426 61.5261 32.9603 61.5597 32.77H59.5771V31.8806L62.5603 31.825Z" fill="black"/>
<path d="M66.2287 28.7123L69.212 35.0679H68.2299L67.2664 33.0667H64.839L63.894 35.0679H62.8934L65.8952 28.7123H66.2287ZM66.8773 32.1958L66.062 30.4726L65.2467 32.1958H66.8773Z" fill="black"/>
<path d="M76.0494 28.7123L76.9574 35.0679H76.0865L75.5306 31.0655L73.5294 35.0679H73.2144L71.1947 31.0285L70.6944 35.0679H69.7679L70.6944 28.7123H70.9909L73.3812 33.5299L75.7344 28.7123H76.0494Z" fill="black"/>
<path d="M81.5159 29.6201H78.6439V31.2322H81.4974V32.1216H78.6439V34.2154H81.4974V35.0863H77.7915V28.7307H81.4974L81.5159 29.6201Z" fill="black"/>
<path d="M85.5177 32.3995C85.7169 32.6957 85.8263 33.0432 85.8327 33.4001C85.8313 33.6343 85.7812 33.8656 85.6855 34.0794C85.5898 34.2931 85.4506 34.4846 85.2768 34.6415C85.1037 34.8133 84.8983 34.9491 84.6726 35.0414C84.4468 35.1336 84.2051 35.1803 83.9612 35.1789C83.5771 35.1818 83.2015 35.0653 82.8865 34.8454C82.5151 34.5766 82.2159 34.2201 82.0156 33.8077V33.6965L82.7753 33.2333V33.363C82.9109 33.6383 83.0999 33.884 83.3312 34.0857C83.4962 34.2128 83.6974 34.2842 83.9056 34.2895C84.0846 34.2903 84.2615 34.2523 84.4245 34.1783C84.5595 34.1027 84.679 34.0021 84.7765 33.8818C84.8518 33.7459 84.8901 33.5925 84.8877 33.4371C84.888 33.2479 84.8225 33.0645 84.7024 32.9183C84.4078 32.5668 84.0572 32.2663 83.6647 32.0289C83.3074 31.7813 82.9781 31.4955 82.6827 31.1765C82.466 30.881 82.3491 30.524 82.3492 30.1574C82.3396 29.8778 82.4103 29.6013 82.553 29.3607C82.6167 29.2439 82.6979 29.1377 82.7939 29.0457L83.1459 28.8048C83.3923 28.6596 83.6755 28.5888 83.9612 28.6009C84.266 28.5976 84.5663 28.6743 84.8321 28.8233C85.1635 29.0343 85.4475 29.312 85.6659 29.6386V29.7683L84.9618 30.3057V30.1945C84.8108 29.9785 84.6299 29.7851 84.4245 29.6201C84.2812 29.5463 84.1223 29.5081 83.9612 29.5089C83.8692 29.5 83.7764 29.512 83.6898 29.5441C83.6031 29.5762 83.5249 29.6275 83.4609 29.6942C83.3953 29.7479 83.3428 29.8158 83.3075 29.8929C83.2721 29.97 83.2549 30.0541 83.2571 30.1389C83.2435 30.2497 83.2435 30.3617 83.2571 30.4724C83.3351 30.6006 83.4285 30.7188 83.535 30.8245C83.5922 30.8921 83.6613 30.9486 83.7389 30.9912L84.3133 31.4174C84.766 31.6763 85.1729 32.0081 85.5177 32.3995Z" fill="black"/>
</svg>
