<svg width="86" height="29" viewBox="0 0 86 29" fill="none" xmlns="http://www.w3.org/2000/svg">
<g clip-path="url(#clip0)">
<path d="M19.7999 15.4266C20.0878 15.2827 20.4044 15.11 20.6923 14.9661C20.8074 14.9085 21.2104 14.7646 21.268 14.6494C21.2968 14.5919 21.268 14.4192 21.268 14.3328V13.642V8.71973V3.91263V3.27935C21.268 3.25057 21.2968 3.04907 21.268 3.02029C21.2392 2.9915 21.0089 3.02029 20.9801 3.02029H20.3469C20.1166 3.02029 20.1454 3.04907 20.0014 3.22178C19.4545 3.94141 18.9076 4.66104 18.3607 5.40945C18.1016 5.75487 17.8426 6.0715 17.6123 6.41693C17.4396 6.64721 17.4396 6.67599 17.1229 6.67599L17.2093 4.77618C17.2381 4.31562 17.2381 3.85506 17.2669 3.3945C17.2669 3.22178 17.2956 3.04907 17.2956 2.87636C17.2956 2.81879 17.2669 2.64608 17.2956 2.6173C17.3532 2.53094 17.8713 2.58851 18.0153 2.58851H28.7809C28.8384 2.58851 29.0975 2.55973 29.1551 2.58851C29.2127 2.6173 29.1839 2.79001 29.1839 2.87636C29.2127 3.25057 29.2126 3.65356 29.2414 4.02777C29.2702 4.86253 29.299 5.66851 29.3566 6.50328V6.67599C29.2127 6.67599 29.0975 6.70478 28.9824 6.61842C28.8672 6.53207 28.7809 6.35936 28.6945 6.24422C28.3491 5.78365 28.0037 5.29431 27.6295 4.83375L26.5932 3.45207C26.5356 3.36571 26.4493 3.16421 26.3341 3.10664C26.2478 3.04907 26.0751 3.07786 25.9599 3.07786H25.4994C25.4418 3.07786 25.2115 3.04907 25.154 3.07786C25.1252 3.10664 25.154 3.10664 25.1252 3.16421C25.0676 3.3945 25.1252 3.68235 25.1252 3.91263V13.9298C25.1252 14.1313 25.0676 14.4192 25.1252 14.6207C25.1827 14.8222 25.6433 14.9661 25.8448 15.0524C26.0463 15.1676 26.3917 15.2539 26.5644 15.4266C26.622 15.4842 26.6796 15.7721 26.622 15.8584C26.5932 15.8872 26.4493 15.8584 26.4205 15.8584H20.0878C20.0302 15.8584 19.8287 15.8872 19.7999 15.8584C19.7712 15.7433 19.7999 15.513 19.7999 15.4266V15.4266ZM30.4792 14.9085V10.7059V3.82627V2.70365C30.4792 2.53094 30.5368 2.27188 30.4792 2.09917C30.4216 1.89767 30.0762 1.86889 29.8747 1.78253C29.7596 1.75375 29.3854 1.66739 29.3278 1.55225V1.32197H29.4141C29.5293 1.2644 29.7596 1.2644 29.9035 1.23562C30.1626 1.17805 30.4216 1.14926 30.6519 1.09169C31.2276 0.976551 31.8321 0.861411 32.4078 0.775056C32.7532 0.717486 33.0986 0.63113 33.4441 0.57356C33.5304 0.57356 33.8758 0.51599 33.9046 0.57356C33.9334 0.602345 33.9046 0.717486 33.9046 0.746271V6.70478C34.9984 5.61094 36.8983 5.00646 38.4239 5.38066C39.748 5.6973 40.1798 6.93506 40.1798 8.2016C40.2085 9.81356 40.1798 11.3967 40.1798 13.0087V14.304C40.1798 14.448 40.1222 14.7934 40.1798 14.9373C40.2085 14.9949 40.3237 15.0237 40.3813 15.0812C40.5827 15.1964 40.813 15.3115 41.0145 15.4266C41.0433 15.4554 41.1297 15.4842 41.1297 15.513C41.1585 15.5418 41.1585 15.8009 41.1297 15.8296C41.1009 15.8872 41.1009 15.8584 41.0145 15.8584C40.6979 15.916 40.3525 15.8584 40.0646 15.8584H35.9196C35.8908 15.8584 35.7469 15.8872 35.7181 15.8584C35.6893 15.8296 35.6893 15.513 35.7181 15.4842C35.8044 15.3691 36.1498 15.2539 36.265 15.1676C36.3513 15.11 36.6104 15.0237 36.668 14.9373C36.7256 14.8509 36.668 14.5343 36.668 14.448V13.2678C36.668 11.5982 36.6968 9.89992 36.668 8.23038C36.668 7.74104 36.5816 7.16534 36.0923 6.90627C35.8332 6.76235 35.4878 6.73356 35.1999 6.73356C34.9697 6.73356 34.7394 6.79113 34.5379 6.8487C34.3652 6.90627 34.0485 7.02141 33.9334 7.16534C33.847 7.28048 33.9046 7.45319 33.9046 7.59711V14.3904C33.9046 14.5343 33.847 14.8222 33.9046 14.9373C33.9334 14.9949 34.0485 15.0524 34.1349 15.0812C34.3364 15.1964 34.5955 15.3115 34.797 15.4266C34.8257 15.4554 34.8833 15.4554 34.8833 15.4842C34.9121 15.513 34.9121 15.7721 34.8833 15.8009C34.8545 15.8296 34.8257 15.8296 34.7682 15.8296C34.4515 15.8584 34.1061 15.8296 33.7895 15.8296H29.6444C29.6156 15.8296 29.4717 15.8584 29.4429 15.8296C29.4141 15.8009 29.4429 15.513 29.4717 15.4554C29.5581 15.3403 29.8747 15.2252 29.9898 15.1676C30.1913 15.0812 30.3353 14.9949 30.4792 14.9085V14.9085ZM44.1521 10.9362C44.2097 12.2027 44.6127 13.6132 45.7641 14.304C46.3685 14.6494 47.117 14.7646 47.8078 14.707C48.6426 14.6207 49.3334 14.2177 50.053 13.8435C50.053 13.9586 50.0818 14.1601 50.053 14.2752C49.9955 14.3904 49.8515 14.5343 49.7652 14.6207C49.65 14.7358 49.5061 14.8797 49.3622 14.9949C48.8728 15.3979 48.3259 15.6857 47.7502 15.8872C46.6564 16.2614 45.3899 16.2326 44.2672 15.9448C43.3749 15.7145 42.5689 15.2827 41.9644 14.5919C41.3599 13.901 41.0145 13.0087 40.8706 12.0876C40.554 10.1014 40.9282 7.82739 42.5689 6.50328C44.0082 5.35188 46.311 5.1216 48.0093 5.81244C50.0818 6.64721 50.4272 9.00758 50.4272 10.965H44.9293C44.6702 10.9362 44.4112 10.9362 44.1521 10.9362V10.9362ZM44.0945 10.4468C44.6702 10.418 45.2459 10.3893 45.8504 10.3317C46.1958 10.3029 46.57 10.3029 46.9155 10.2741C46.973 10.2741 47.117 10.2741 47.1745 10.2453C47.2609 10.1878 47.2033 9.61207 47.2033 9.49693C47.1745 8.46066 47.1457 7.19412 46.5413 6.30179C46.1095 5.66851 45.4474 5.78365 45.0444 6.35936C44.2097 7.48197 44.0945 9.15151 44.0945 10.4468V10.4468ZM0.51395 20.9534C0.51395 19.3414 0.830586 17.6719 1.72292 16.319C2.58647 14.9949 3.96816 14.1313 5.46498 13.6995C7.27844 13.1814 9.29339 13.239 11.1644 13.5844C11.5674 13.6708 11.9704 13.7571 12.3446 13.8723C12.4022 13.901 12.6612 13.9586 12.69 14.0162V14.1025C12.7764 14.448 12.7188 14.8797 12.7188 15.2252C12.7476 16.1175 12.7476 17.0386 12.7764 17.9309C12.6612 17.9309 12.4597 17.9597 12.3734 17.9309C12.3158 17.9022 12.2583 17.7582 12.2295 17.7007C11.9992 17.3552 11.7689 17.0098 11.5674 16.6356C11.0781 15.8584 10.5599 15.0812 10.0706 14.304C9.81152 13.8723 9.0919 13.8723 8.63134 13.8723C8.11321 13.8723 7.59507 13.9586 7.1633 14.2177C6.18461 14.8222 5.72405 16.0023 5.46498 17.0674C5.06199 18.7657 5.09077 20.5504 5.17713 22.2775C5.26348 23.6016 5.37863 25.0121 5.89676 26.221C6.21339 26.9695 6.76031 27.6315 7.59507 27.8042C7.85414 27.8618 8.1132 27.8618 8.40106 27.833C8.57377 27.8042 9.17825 27.7754 9.26461 27.6027C9.29339 27.5452 9.26461 27.4012 9.26461 27.3437V26.8543V23.8031V22.6229C9.26461 22.4214 9.32218 22.3351 9.14947 22.2199C8.94797 22.1048 8.71769 21.9896 8.5162 21.8457C8.37227 21.7594 8.08442 21.673 7.99806 21.5579C7.94049 21.5003 7.91171 21.1837 7.96928 21.1261C7.99806 21.0685 7.99807 21.0973 8.08442 21.0973C8.34349 21.0397 8.68891 21.0973 8.94797 21.0973H13.4097C13.6975 21.0973 14.0141 21.0685 14.302 21.0973H14.4171C14.4459 21.1261 14.4459 21.5291 14.4171 21.5866C14.3596 21.673 14.0717 21.7881 13.9566 21.8457C13.7551 21.9609 13.5248 22.076 13.3233 22.2199C13.093 22.3351 13.1218 22.3351 13.1218 22.5941V27.2861C13.1218 27.3437 13.1506 27.4876 13.1218 27.5452C13.0642 27.6891 12.4597 27.7754 12.287 27.833C11.7977 27.9769 11.2796 28.0921 10.7614 28.1784C9.75395 28.3511 8.74648 28.4087 7.739 28.3799C6.12704 28.3223 4.42872 27.9769 3.10461 26.9982C1.9532 26.1635 1.20479 24.8969 0.859371 23.5152C0.600306 22.7093 0.51395 21.8169 0.51395 20.9534ZM13.7839 18.3339C13.7839 18.2764 13.7551 18.0461 13.7839 18.0173C13.8126 17.9885 13.8414 18.0173 13.8702 17.9885C14.0429 17.9022 14.2732 17.9022 14.4747 17.8734C15.1368 17.7582 15.7988 17.6431 16.4897 17.528C17.0078 17.4416 17.5259 17.3265 18.0153 17.2689C18.1592 17.2401 18.3319 17.2401 18.4758 17.2977C18.6197 17.3265 18.5622 17.2977 18.591 17.4128C18.6485 17.7582 18.591 18.1612 18.591 18.5066V24.5227C18.591 25.2423 18.3895 26.5665 19.0803 26.9982C19.4257 27.2285 19.9151 27.2285 20.3181 27.1422C20.6347 27.0846 21.2392 26.8543 21.3543 26.5089C21.3831 26.4225 21.3543 26.3074 21.3543 26.221V25.6166V21.6154V19.7732V19.1687C21.3543 19.1111 21.3831 18.9384 21.3543 18.8809C21.268 18.7945 20.9801 18.7081 20.8938 18.6794C20.7211 18.6218 20.5771 18.5354 20.4044 18.4779C20.3469 18.4491 20.1454 18.4203 20.1166 18.3627C20.0878 18.3339 20.0878 18.0749 20.1166 18.0461C20.1454 18.0173 20.1454 18.0461 20.1741 18.0173C20.3181 17.9309 20.5771 17.9597 20.7211 17.9309C21.9012 17.7295 23.1102 17.4704 24.3192 17.2977C24.4631 17.2689 24.607 17.2689 24.751 17.2977C24.8949 17.3265 24.8373 17.2689 24.8661 17.4128C24.9237 17.7007 24.8661 18.1037 24.8661 18.4203V26.7104C24.8661 26.7967 24.8373 26.9407 24.8661 27.0558C24.8949 27.1422 24.8661 27.1134 25.01 27.1709C25.2979 27.2861 25.6145 27.43 25.9024 27.5452C25.9887 27.5739 26.0175 27.5739 26.0463 27.6315C26.0751 27.6891 26.0751 27.8906 26.0463 27.8906C25.9887 27.9481 25.7009 27.9194 25.6433 27.9481C25.01 28.0345 24.3768 28.0921 23.7147 28.1784C23.139 28.236 22.5633 28.3223 22.0164 28.3799C21.9012 28.4087 21.7861 28.4087 21.671 28.3799C21.6134 28.3799 21.4407 28.3799 21.4119 28.3511C21.3831 28.2936 21.4119 28.0633 21.4119 28.0057V27.5164C21.4119 27.43 21.4695 27.1997 21.4119 27.1134C21.3543 27.027 21.2392 27.1422 21.1528 27.1997C20.9226 27.4012 20.6635 27.6027 20.4044 27.7466C19.4545 28.3223 18.2743 28.5814 17.1805 28.3511C16.3745 28.1784 15.6837 27.7179 15.3383 26.9407C15.0792 26.3938 15.0216 25.7893 15.0216 25.2136V21.7881V19.8308V19.1687C15.0216 19.1111 15.0504 18.9384 15.0216 18.8809C14.964 18.7945 14.6186 18.7081 14.5323 18.6506C14.2444 18.5354 14.0141 18.4491 13.7839 18.3339V18.3339ZM40.9282 17.2401C40.9857 17.2401 41.2448 17.2401 41.2736 17.2977C41.3024 17.3265 41.2736 17.528 41.2736 17.5567V20.0898C41.2736 20.1762 41.2448 20.3201 41.2736 20.4065V20.464C41.3887 20.5792 41.4175 20.205 41.4463 20.1762C41.7054 19.1111 42.1947 17.8734 43.2885 17.4416C43.49 17.3552 43.6915 17.3265 43.893 17.2977C44.0657 17.2977 44.5551 17.2401 44.6414 17.384C44.6702 17.4416 44.6414 17.5855 44.6414 17.6431V20.5792C43.9506 20.4352 43.1734 20.464 42.5113 20.608C42.1947 20.6655 41.9069 20.7519 41.619 20.8958C41.4751 20.9534 41.4463 20.9246 41.4175 21.0397C41.3887 21.1549 41.4175 21.3564 41.4175 21.4715V27.027C41.4175 27.0846 41.3887 27.1709 41.4175 27.2285C41.4751 27.3149 41.6766 27.3724 41.7629 27.4012C41.9069 27.4876 42.0796 27.5739 42.2235 27.6603C42.2811 27.6891 42.3674 27.7179 42.3962 27.7754C42.425 27.8042 42.425 28.1496 42.3962 28.1784C42.3674 28.2072 42.1947 28.1784 42.1371 28.1784H37.3588C37.2149 28.1784 36.9558 28.236 36.8407 28.1784H36.7543C36.7256 28.1496 36.7543 27.833 36.7543 27.8042C36.8119 27.6315 37.1861 27.5164 37.3588 27.43C37.474 27.3724 37.7042 27.2861 37.7618 27.1709C37.7906 27.1134 37.7618 26.9407 37.7618 26.8831V26.2786V18.8809C37.7618 18.8521 37.7906 18.7081 37.7618 18.6794C37.733 18.6506 37.5891 18.6218 37.5315 18.6218C37.3588 18.5642 37.1861 18.5066 37.0134 18.4779C36.8407 18.4203 36.4089 18.3915 36.5528 18.1037C36.5816 18.0173 36.6968 18.0461 36.8119 18.0173C38.0784 17.787 39.3162 17.5567 40.5828 17.3265C40.6979 17.2689 40.813 17.2689 40.9282 17.2401V17.2401ZM51.7801 17.4992V15.1964V14.5343C51.7801 14.448 51.8089 14.2752 51.7801 14.1889C51.7514 14.1313 51.6362 14.1025 51.5499 14.0737C51.3196 13.9874 51.0893 13.901 50.8302 13.8147C50.6575 13.7571 50.5712 13.7859 50.5712 13.5844C50.5712 13.4117 50.5424 13.4693 50.6863 13.4405C51.0029 13.3253 51.3771 13.3253 51.6938 13.2678C52.6437 13.0951 53.5648 12.9223 54.5147 12.7496C54.7162 12.7209 54.9177 12.6633 55.1192 12.6921C55.3495 12.7209 55.3783 12.6633 55.3783 12.8648C55.4071 13.3253 55.3783 13.8147 55.3783 14.2752V26.8831C55.3783 26.9982 55.3495 26.9982 55.4358 27.0558C55.6085 27.1709 55.8964 27.2285 56.0691 27.2861C56.1842 27.3149 56.5009 27.3724 56.5585 27.4588C56.5872 27.4876 56.5872 27.8042 56.5585 27.833C56.5297 27.8618 56.357 27.8618 56.3282 27.8618C55.9252 27.9194 55.551 27.9769 55.148 28.0057C54.2557 28.1209 53.3633 28.236 52.4422 28.3511C52.2983 28.3799 51.9528 28.4375 51.8953 28.3223C51.8377 28.2072 51.8953 27.833 51.8953 27.7179C51.8953 27.6315 51.9528 27.2573 51.8953 27.1997C51.8377 27.1422 51.2044 27.7179 51.1181 27.7754C50.7727 28.0057 50.3985 28.1784 49.9955 28.2936C49.3622 28.4663 48.6426 28.4663 48.0093 28.3223C45.2459 27.6891 44.6702 24.4076 44.9005 22.0184C45.0157 20.7519 45.4186 19.4853 46.2822 18.5642C47.0882 17.7294 48.182 17.2977 49.3046 17.2113C50.1682 17.125 51.0029 17.1825 51.7801 17.4992V17.4992ZM51.7801 26.6816V19.6005V18.2764C51.7801 18.1037 51.7514 18.0749 51.5499 17.9597C51.1469 17.7294 50.6287 17.6431 50.197 17.8158C49.5349 18.0749 49.2183 18.8521 49.0456 19.4853C48.7001 20.6367 48.6714 21.8745 48.7001 23.0835C48.7289 24.1197 48.7577 25.3863 49.3334 26.3074C49.8515 27.1134 51.0317 27.3149 51.7801 26.6816ZM61.308 17.2401C61.4519 17.2689 61.6246 17.2113 61.6822 17.3552C61.711 17.4416 61.6822 17.6431 61.6822 17.7294V26.7392C61.6822 26.8543 61.6534 27.027 61.6822 27.1422C61.711 27.2573 61.8261 27.2861 61.9413 27.3437C62.114 27.43 62.2579 27.5164 62.4306 27.6027C62.4882 27.6315 62.6609 27.6891 62.6897 27.7754C62.6897 27.8042 62.7185 28.1496 62.6897 28.1784H62.6033C62.4306 28.2072 62.2003 28.1784 61.9988 28.1784H57.6235C57.5084 28.1784 57.1917 28.236 57.1054 28.1784C57.0478 28.1496 57.019 27.8042 57.0766 27.7466C57.1342 27.6603 57.3357 27.6027 57.422 27.5739C57.5947 27.4876 57.7674 27.3724 57.9401 27.2861C58.0841 27.1997 58.0553 27.2285 58.0553 27.1134C58.1128 26.6816 58.0553 26.1923 58.0553 25.7605V23.4865V19.3414C58.0553 19.2263 58.0841 19.0248 58.0553 18.9096C58.0265 18.7945 57.8826 18.7945 57.7674 18.7369C57.5659 18.6506 57.3932 18.593 57.1917 18.5066C57.1342 18.4779 56.9039 18.4491 56.8463 18.3627C56.8175 18.3339 56.8175 18.0461 56.8463 18.0173C56.8751 17.9885 56.9327 18.0173 56.9614 17.9885C57.1917 17.9022 57.4508 17.9022 57.7099 17.8446C58.0841 17.787 58.4295 17.7007 58.8037 17.6431C59.5233 17.528 60.2142 17.384 60.9338 17.2689C61.0777 17.2977 61.1929 17.2689 61.308 17.2401V17.2401ZM61.711 14.5631C61.6534 16.2902 59.3218 17.0386 58.2568 15.6857C57.7674 15.0524 57.7386 14.1889 58.1704 13.5268C58.6022 12.8648 59.437 12.5769 60.2142 12.7496C61.0777 12.9223 61.711 13.6708 61.711 14.5631V14.5631ZM74.3188 27.1997V20.2625V18.9384C74.3188 18.9096 74.3476 18.7657 74.3188 18.7369C74.29 18.6794 74.1173 18.6506 74.0598 18.6506L73.5416 18.4779C73.4553 18.4491 73.225 18.4203 73.1674 18.3339C73.1099 18.2764 73.1386 18.1324 73.1386 18.0461C73.1386 17.8734 73.1962 17.9022 73.3689 17.8734L75.2687 17.528L77.1686 17.1825C77.2837 17.1537 77.37 17.125 77.4852 17.125C77.5428 17.125 77.8306 17.125 77.8882 17.1537C77.917 17.1825 77.8882 17.3552 77.8882 17.4128V17.9597C77.8882 18.0461 77.8306 18.3052 77.8882 18.3915C77.9458 18.5066 78.0609 18.3915 78.1472 18.3052C78.4063 18.1037 78.6654 17.9309 78.9532 17.787C79.9895 17.2113 81.2272 16.9523 82.4074 17.125C83.2134 17.2401 83.8755 17.6719 84.1633 18.4491C84.3648 18.996 84.3936 19.5717 84.3936 20.1474V26.7104C84.3936 26.8255 84.3648 27.027 84.3936 27.1422C84.4224 27.2573 84.5087 27.2861 84.6527 27.3437C84.7966 27.43 84.9693 27.5164 85.1132 27.6027C85.1708 27.6315 85.3723 27.6891 85.4011 27.7754C85.4299 27.833 85.4299 28.1209 85.4011 28.1496C85.3723 28.2072 85.4299 28.1496 85.3435 28.1784C85.2284 28.236 84.9693 28.1784 84.8254 28.1784H80.7091C80.5364 28.1784 79.8743 28.2648 79.788 28.1496C79.7592 28.1209 79.7592 27.8042 79.788 27.7466C79.8168 27.6891 79.9895 27.6315 80.0471 27.6027C80.2198 27.5164 80.3637 27.43 80.5364 27.3437C80.594 27.3149 80.7667 27.2573 80.7955 27.1997C80.8243 27.1422 80.7955 27.027 80.7955 26.9695V26.3362V24.3212V20.4352C80.7955 19.9747 80.8243 19.4566 80.5364 19.0536C80.3061 18.7081 79.9031 18.6218 79.5001 18.593C79.1835 18.593 78.8957 18.6218 78.6078 18.7081C78.4639 18.7657 78.0321 18.8809 77.9458 19.0536C77.917 19.1111 77.9458 19.2263 77.9458 19.2838V26.7392C77.9458 26.8255 77.917 27.027 77.9458 27.1134C77.9745 27.2285 78.1472 27.2573 78.2336 27.3149C78.3775 27.4012 78.5502 27.4876 78.6942 27.5739C78.7517 27.6027 78.8669 27.6603 78.8957 27.6891C78.9244 27.7179 78.9244 28.0633 78.8957 28.0921C78.8957 28.1209 78.8669 28.0921 78.8381 28.0921C78.7229 28.1496 78.4351 28.0921 78.32 28.0921H73.4841C73.3401 28.0921 73.3114 28.1209 73.2826 28.0345C73.2538 27.9769 73.2538 27.7179 73.2826 27.6603C73.3114 27.6027 73.4841 27.5452 73.5416 27.5164C73.8295 27.4876 74.0598 27.3437 74.3188 27.1997V27.1997ZM68.2164 21.9033C68.2164 21.1549 68.2452 20.3777 68.1876 19.6005C68.1013 18.7657 67.871 17.8446 66.9211 17.6719C66.6332 17.6143 66.1151 17.528 65.9136 17.7582C65.7121 17.9597 65.5682 18.2476 65.3955 18.4779L63.9274 20.464C63.8411 20.5792 63.7547 20.8095 63.6396 20.867C63.6108 20.8958 63.3229 20.8958 63.3229 20.867C63.2942 20.8382 63.3229 20.6367 63.3229 20.5792V18.2476C63.3229 18.1612 63.2942 18.0173 63.3229 17.9309C63.3805 17.787 64.0138 17.7007 64.1577 17.6431C64.9637 17.4416 65.7985 17.2977 66.6332 17.2401C67.8134 17.1537 69.1375 17.1825 70.2314 17.7007C71.0949 18.1037 71.6418 18.8233 71.7858 19.7444C71.8721 20.205 71.8433 20.7231 71.8433 21.1837V26.9407C71.8433 27.027 71.7857 27.2573 71.8433 27.3149C71.8721 27.3437 72.016 27.3724 72.0448 27.3724C72.2751 27.43 72.4766 27.4876 72.7069 27.5452C72.8508 27.5739 72.8796 27.5739 72.8796 27.7179C72.8796 27.8618 72.9084 27.8618 72.7357 27.9194C72.5342 28.0057 72.3327 28.0921 72.1312 28.1496C71.0661 28.4663 69.3966 28.5526 68.6194 27.5739C68.5618 27.4876 68.3891 27.1134 68.3028 27.0846C68.1876 27.0558 67.8422 27.5164 67.7271 27.6027C67.2665 28.0057 66.662 28.236 66.0575 28.3223C64.9349 28.4663 63.7259 28.236 63.0351 27.2573C62.4594 26.4225 62.3443 25.1272 62.776 24.2061C63.5532 22.4502 65.856 22.2775 67.5256 21.9896C67.7271 21.9896 67.9573 21.9321 68.2164 21.9033V21.9033ZM68.2164 26.6816V22.4214C67.3529 22.479 66.4605 22.5366 66.1439 23.4865C65.9136 24.1197 65.9136 24.8681 66 25.5302C66.0575 25.9908 66.1727 26.5665 66.6044 26.8543C67.065 27.1709 67.8422 27.1134 68.2164 26.6816V26.6816ZM31.7745 21.9033C31.7745 21.1549 31.8033 20.3777 31.7457 19.6005C31.6594 18.7657 31.4291 17.8446 30.4792 17.6719C30.1913 17.6143 29.6732 17.528 29.4717 17.7582C29.2702 17.9597 29.1263 18.2476 28.9536 18.4779L27.4855 20.464C27.3992 20.5792 27.3128 20.8095 27.1977 20.867C27.1689 20.8958 26.8811 20.8958 26.8811 20.867C26.8523 20.8382 26.8811 20.6367 26.8811 20.5792V18.2764C26.8811 18.19 26.8523 18.0461 26.8811 17.9597C26.9386 17.8158 27.5431 17.7294 27.7158 17.6719C28.5218 17.4704 29.3566 17.3265 30.1626 17.2689C31.3427 17.1825 32.6669 17.2113 33.7607 17.7294C34.6242 18.1324 35.1712 18.8521 35.3151 19.7732C35.4014 20.2338 35.3727 20.7519 35.3727 21.2124V26.9695C35.3727 27.0558 35.3151 27.2861 35.3727 27.3437C35.4014 27.3724 35.5454 27.4012 35.5741 27.4012C35.8044 27.4588 36.0059 27.5164 36.2362 27.5739C36.3801 27.6027 36.4089 27.6027 36.4089 27.7466C36.4089 27.8906 36.4377 27.8906 36.265 27.9481C36.0635 28.0345 35.862 28.1209 35.6605 28.1784C34.5955 28.4951 32.9259 28.5814 32.1487 27.6027C32.0912 27.5164 31.9184 27.1422 31.8321 27.1134C31.7169 27.0846 31.3715 27.5452 31.2852 27.6315C30.8246 28.0345 30.2201 28.2648 29.6156 28.3511C28.493 28.4951 27.2841 28.2648 26.5932 27.2861C26.0175 26.4513 25.9024 25.156 26.3341 24.2349C27.1113 22.479 29.4141 22.3063 31.0549 22.0184C31.2852 21.9896 31.5155 21.9321 31.7745 21.9033V21.9033ZM31.7745 26.6816V22.4214C30.911 22.479 30.0186 22.5366 29.702 23.4865C29.4717 24.1197 29.4717 24.8681 29.5581 25.5302C29.6156 25.9908 29.7308 26.5665 30.1626 26.8543C30.6231 27.1709 31.4003 27.1134 31.7745 26.6816V26.6816Z" fill="black"/>
</g>
<defs>
<clipPath id="clip0">
<rect width="84.9159" height="27.9215" fill="white" transform="translate(0.542038 0.544922)"/>
</clipPath>
</defs>
</svg>
