<svg width="95" height="30" viewBox="0 0 95 30" fill="none" xmlns="http://www.w3.org/2000/svg">
<path d="M18.7297 15.4543C18.7297 15.1763 18.7054 14.8967 18.6925 14.6187C18.6925 14.6057 18.6925 14.588 18.6925 14.5799C18.6723 14.5517 18.6586 14.5194 18.6524 14.4853C18.6463 14.4512 18.6478 14.4161 18.6569 14.3827C18.6683 14.3035 18.6165 14.2388 18.6182 14.1661C18.6182 13.9656 18.5406 13.7781 18.5389 13.5777C18.4808 13.5147 18.5244 13.4274 18.4937 13.3643C18.4454 13.2414 18.4107 13.1134 18.3902 12.9829C18.3595 12.8455 18.303 12.7194 18.2658 12.5869C18.1534 12.2024 18.0085 11.8282 17.8326 11.4683C17.6533 11.0843 17.4368 10.7189 17.186 10.3772C17.0632 10.2156 16.9468 10.0378 16.8207 9.87293C16.6802 9.70297 16.5301 9.54108 16.3714 9.38801C16.1897 9.19047 15.9936 9.00677 15.7846 8.83844C15.6424 8.73014 15.505 8.61376 15.3579 8.51516C15.1461 8.36645 14.9182 8.23714 14.6984 8.09975C14.5044 7.9769 14.2846 7.90578 14.0939 7.77647C13.9646 7.78617 13.874 7.68433 13.7577 7.65039C13.6428 7.61773 13.5309 7.57555 13.4231 7.52431C13.2583 7.44811 13.0867 7.3875 12.9107 7.34327C12.6454 7.2704 12.3753 7.21638 12.1025 7.18163C12.0169 7.18265 11.9317 7.16954 11.8503 7.14284C11.7727 7.0992 11.7016 7.12506 11.6305 7.11051C11.5594 7.09597 11.4866 7.0798 11.4139 7.07334C11.2436 7.08676 11.0723 7.07312 10.9063 7.03293C10.5038 7.01676 10.0981 7.04909 9.7005 7.07172C9.60837 7.12829 9.49845 7.08465 9.40955 7.11536C9.24791 7.17032 9.08627 7.18163 8.92463 7.22851C8.76299 7.27539 8.60135 7.32873 8.43971 7.38207C8.27807 7.43541 8.15684 7.48067 8.01945 7.54371C7.88206 7.60675 7.72526 7.66655 7.57656 7.74091C7.48281 7.78778 7.38744 7.84436 7.29207 7.90255C7.23065 7.93811 7.16599 7.97367 7.10619 8.01246C6.87019 8.1741 6.63581 8.32281 6.41437 8.49738C6.32385 8.57012 6.25273 8.65902 6.16059 8.72368C6.06846 8.78833 5.97956 8.88531 5.88904 8.95644C5.88346 8.95985 5.87853 8.96423 5.87449 8.96937C5.81953 9.09706 5.6983 9.16657 5.61587 9.2684C5.5706 9.31176 5.53096 9.36063 5.49787 9.41388C5.4425 9.50451 5.37567 9.58763 5.29906 9.66119C5.29352 9.6639 5.28744 9.66531 5.28127 9.66531C5.27511 9.66531 5.26903 9.6639 5.26349 9.66119C5.25013 9.65146 5.23999 9.63795 5.2344 9.62239C5.2344 9.59006 5.2344 9.55774 5.2344 9.52541C5.2344 9.06635 5.2344 8.60891 5.2344 8.14986C5.23317 8.08197 5.2206 8.01478 5.19722 7.95104C5.1563 7.80613 5.06868 7.67878 4.94797 7.58876C4.82727 7.49874 4.68022 7.45108 4.52965 7.45319H1.13522C1.03378 7.46038 0.935279 7.49044 0.847102 7.54111C0.758925 7.59178 0.683356 7.66174 0.626056 7.74576C0.600194 7.78617 0.580797 7.84436 0.54362 7.86214C0.464417 7.89285 0.548469 7.98983 0.464417 7.99953V29.4281C0.548469 29.4394 0.488662 29.5218 0.532305 29.5671C0.573927 29.6121 0.612792 29.6596 0.648686 29.7093C0.706408 29.7907 0.782738 29.857 0.871308 29.9028C0.959879 29.9487 1.05812 29.9727 1.15785 29.9728H2.80496C3.52749 29.9728 4.25971 29.9728 4.97578 29.9728C5.086 29.9578 5.19435 29.9312 5.29906 29.8936C5.40923 29.8121 5.4997 29.7069 5.56377 29.5858C5.62783 29.4646 5.66387 29.3306 5.66921 29.1937C5.66921 27.0116 5.66921 24.8289 5.66921 22.6457C5.66921 22.594 5.66921 22.5422 5.66921 22.4841C5.67127 22.4762 5.67512 22.4689 5.68044 22.4627C5.68576 22.4565 5.69243 22.4517 5.69992 22.4485C5.7087 22.4485 5.71737 22.4505 5.72522 22.4545C5.73308 22.4584 5.73991 22.4641 5.74518 22.4711C5.81561 22.5888 5.9003 22.6974 5.99734 22.7944C6.18973 23.0044 6.39314 23.204 6.60672 23.3925C6.8118 23.5553 7.02783 23.7038 7.25328 23.837C7.53644 23.9914 7.83289 24.1202 8.13906 24.2217C8.36372 24.3059 8.59445 24.3729 8.82926 24.4221C9.06812 24.4813 9.31054 24.525 9.55502 24.553C9.64728 24.554 9.73905 24.5664 9.8282 24.5902C9.91849 24.6133 10.0114 24.6247 10.1046 24.6242C10.1967 24.6322 10.2873 24.6581 10.3794 24.6597C10.6186 24.6597 10.8643 24.6678 11.0971 24.6597C11.3379 24.6775 11.5799 24.6661 11.818 24.6258C11.9182 24.5999 12.0313 24.6468 12.1299 24.5838C12.2939 24.578 12.4567 24.553 12.6149 24.5094C12.794 24.4777 12.9711 24.4351 13.145 24.3817C13.4534 24.2934 13.7535 24.1788 14.0421 24.039C14.3032 23.9154 14.5554 23.7739 14.797 23.6155C14.9586 23.5056 15.1203 23.3973 15.2819 23.2923C15.4892 23.144 15.6863 22.982 15.8719 22.8073C16.1529 22.5594 16.407 22.2825 16.63 21.9814C16.7318 21.8326 16.8708 21.7082 16.9678 21.5579C17.194 21.2305 17.3965 20.8875 17.574 20.5314C17.6887 20.2825 17.8342 20.0465 17.9296 19.7879C17.9781 19.6586 18.033 19.5325 18.0799 19.4032C18.1627 19.1981 18.2329 18.9881 18.29 18.7744C18.345 18.5384 18.4517 18.3138 18.4517 18.0664C18.56 17.8482 18.5486 17.6025 18.6036 17.373C18.6505 17.1823 18.644 16.9818 18.6796 16.7863C18.7087 16.6246 18.699 16.463 18.7151 16.3013C18.7376 16.0196 18.7424 15.7367 18.7297 15.4543V15.4543ZM13.533 15.8132C13.5233 15.9166 13.533 16.0201 13.533 16.1235C13.5312 16.3058 13.5172 16.4878 13.4909 16.6683C13.4538 16.8655 13.4247 17.0659 13.3778 17.2599C13.3446 17.3875 13.303 17.5127 13.2533 17.6349C13.0737 18.0957 12.8094 18.519 12.4742 18.8827C12.4075 18.943 12.3438 19.0067 12.2835 19.0735C12.0436 19.3229 11.7583 19.5242 11.443 19.6667C11.2371 19.7646 11.0255 19.8499 10.8093 19.9221C10.734 19.9439 10.6574 19.9606 10.5798 19.9722C10.4699 19.9856 10.3616 20.01 10.2565 20.0449C10.2384 20.048 10.2198 20.048 10.2016 20.0449C10.0642 20.0578 9.92841 20.0772 9.79102 20.0821C9.65362 20.0869 9.50653 20.0821 9.36429 20.0821H9.05556C8.96702 20.1001 8.87577 20.1001 8.78724 20.0821C8.69187 20.0368 8.58195 20.0918 8.51407 20.0433C8.44618 19.9948 8.33141 20.0578 8.26999 19.9722C8.10657 19.9611 7.94632 19.9217 7.79639 19.8558C7.48807 19.7551 7.19454 19.6137 6.92353 19.4355C6.32804 19.0272 5.86504 18.4535 5.59162 17.7852C5.53886 17.6636 5.4951 17.5382 5.46069 17.4102C5.43512 17.287 5.4 17.1659 5.35563 17.0481C5.33262 16.9416 5.31749 16.8336 5.31037 16.7248C5.29906 16.6327 5.28612 16.5406 5.27158 16.45C5.25703 16.3595 5.3039 16.2722 5.23602 16.193C5.21985 16.1736 5.23602 16.13 5.23602 16.0977C5.22381 15.786 5.24004 15.4738 5.28451 15.165C5.31222 14.937 5.35817 14.7116 5.4219 14.491C5.49686 14.1879 5.60528 13.894 5.74518 13.6149C5.86665 13.3665 6.02466 13.1376 6.21393 12.936C6.30122 12.8471 6.37557 12.7388 6.46286 12.6547C6.68151 12.4459 6.9253 12.2651 7.18862 12.1165C7.40578 12.0019 7.63237 11.9062 7.86589 11.8304C8.00366 11.7867 8.14402 11.7516 8.28615 11.7253L8.46396 11.6865C8.51892 11.6768 8.58195 11.7124 8.6256 11.6526C8.6256 11.6526 8.64984 11.6526 8.66116 11.6526C8.84058 11.6817 9.0103 11.6041 9.1881 11.6122C9.36591 11.6203 9.55018 11.6122 9.73121 11.6122C9.80718 11.6122 9.86699 11.6687 9.94781 11.6542C10.0218 11.6297 10.1017 11.6297 10.1757 11.6542C10.2533 11.7027 10.326 11.6655 10.3972 11.6881C10.6881 11.777 10.9872 11.8498 11.2716 11.9597C11.5852 12.0913 11.8769 12.2701 12.1364 12.4899C12.3603 12.6789 12.5586 12.8962 12.7264 13.1364C12.8444 13.2981 12.9365 13.4807 13.0497 13.644C13.1206 13.7609 13.175 13.8871 13.2113 14.019C13.255 14.1418 13.2905 14.2695 13.3325 14.394C13.3746 14.5185 13.3859 14.6526 13.4392 14.7771C13.4665 14.8649 13.479 14.9567 13.4764 15.0486C13.5132 15.3018 13.5321 15.5573 13.533 15.8132V15.8132Z" fill="#633B93"/>
<path d="M67.8101 14.8191C67.8376 14.609 67.7568 14.4053 67.7713 14.1968C67.7698 14.1726 67.7649 14.1486 67.7568 14.1257C67.7274 14.0398 67.7079 13.9509 67.6986 13.8606C67.6986 13.6796 67.6065 13.5131 67.6178 13.3304C67.5642 13.2028 67.5257 13.0694 67.503 12.9328C67.4561 12.8035 67.4271 12.6677 67.3834 12.5368C67.2978 12.257 67.1935 11.9832 67.0714 11.7173C66.8827 11.3004 66.6628 10.8984 66.4136 10.5147C66.2351 10.2345 66.0351 9.96866 65.8155 9.71942C65.5387 9.40811 65.2399 9.11695 64.9216 8.84818C64.76 8.7124 64.5822 8.57824 64.4044 8.4554C64.0016 8.18086 63.5741 7.94439 63.1274 7.74903C62.8109 7.6097 62.4871 7.48722 62.1576 7.38211C61.8134 7.28494 61.4643 7.20617 61.1118 7.14611C60.9356 7.11379 60.7562 7.11379 60.58 7.07338C60.4724 7.06469 60.3643 7.06469 60.2567 7.07338C60.1517 7.07338 60.0466 7.0362 59.9431 7.03943C59.6702 7.03163 59.397 7.04081 59.1252 7.06691C58.9184 7.09924 58.7066 7.10894 58.4981 7.14773C58.271 7.18591 58.0468 7.23993 57.8273 7.30937C57.5186 7.40477 57.2168 7.52088 56.9237 7.6569C56.5913 7.81294 56.2709 7.99339 55.9652 8.19677C55.823 8.29537 55.6888 8.40367 55.5465 8.49904C55.4462 8.57434 55.3506 8.65586 55.2604 8.74311C55.1589 8.81741 55.0642 8.90072 54.9776 8.99204C54.9167 9.07114 54.8514 9.14669 54.782 9.21833C54.6737 9.32173 54.5811 9.44045 54.5072 9.57071C54.4852 9.60269 54.4572 9.63013 54.4248 9.65153C54.4092 9.66069 54.3909 9.66412 54.373 9.66123C54.373 9.66123 54.3569 9.64345 54.3569 9.63213C54.3569 9.59334 54.3569 9.55454 54.3569 9.51575C54.3569 9.05885 54.3569 8.60033 54.3569 8.1402C54.3563 8.04187 54.3313 7.94522 54.2841 7.85894C54.2291 7.73581 54.137 7.63294 54.0207 7.56476C53.9056 7.49467 53.7739 7.45671 53.6392 7.45485C52.5207 7.45485 51.4027 7.45485 50.2852 7.45485C50.1994 7.45274 50.1141 7.46797 50.0344 7.49964C49.9547 7.5313 49.8822 7.57874 49.8213 7.63912C49.7471 7.70789 49.6877 7.79112 49.6468 7.88368C49.606 7.97625 49.5845 8.07619 49.5837 8.17737C49.5837 11.6774 49.5837 15.1796 49.5837 18.6839V29.2018C49.5788 29.2405 49.5788 29.2796 49.5837 29.3182C49.5925 29.4662 49.6552 29.6059 49.7599 29.711C49.8148 29.7546 49.8585 29.8128 49.9118 29.8597C49.9465 29.894 49.9885 29.9199 50.0346 29.9357C50.1305 29.9595 50.2285 29.9731 50.3272 29.9761C51.5751 29.9761 52.8213 29.9761 54.0692 29.9761C54.1643 29.9773 54.2586 29.958 54.3456 29.9195C54.4326 29.881 54.5104 29.8242 54.5735 29.753C54.7064 29.6079 54.7796 29.418 54.7788 29.2212C54.7788 27.0326 54.7788 24.844 54.7788 22.6554C54.7788 22.6037 54.7788 22.552 54.7788 22.4938C54.7788 22.4776 54.7901 22.4534 54.803 22.4501C54.8159 22.4469 54.8467 22.4501 54.8515 22.4663C54.9027 22.5723 54.9747 22.6668 55.0632 22.7443C55.35 23.0721 55.6756 23.3636 56.0331 23.6123C56.2645 23.7765 56.5127 23.9157 56.7734 24.0277C57.0134 24.1379 57.2635 24.2245 57.5202 24.2864C57.656 24.313 57.7899 24.3486 57.921 24.3931C58.0593 24.4346 58.1996 24.4691 58.3413 24.4965C58.5806 24.5525 58.8237 24.5909 59.0687 24.6113C59.3393 24.6461 59.6121 24.6623 59.885 24.6598C60.1549 24.6452 60.4281 24.6598 60.6932 24.6598C60.7319 24.6598 60.7788 24.6743 60.8095 24.6598C60.9518 24.5806 61.1215 24.6678 61.2621 24.5838C61.3809 24.5916 61.5 24.5762 61.6129 24.5385C61.692 24.5324 61.7704 24.5195 61.8473 24.4997C62.0089 24.4399 62.1851 24.4157 62.3483 24.3526C62.5666 24.2702 62.7977 24.2169 63.0062 24.115C63.3663 23.9472 63.7141 23.7544 64.0472 23.538C64.3419 23.3443 64.6213 23.1281 64.8828 22.8914C65.1481 22.6502 65.398 22.3927 65.6312 22.1204C65.8171 21.8957 65.9901 21.663 66.1614 21.427C66.3599 21.1456 66.5377 20.8501 66.6932 20.5428C66.8015 20.3375 66.8985 20.1258 66.9906 19.9108C67.0828 19.6958 67.1652 19.4663 67.2509 19.2448C67.3204 19.0654 67.3705 18.8795 67.4271 18.6969C67.4836 18.5142 67.5273 18.2766 67.5984 18.0713C67.6323 17.9743 67.5984 17.8515 67.6485 17.7626C67.6986 17.6737 67.6388 17.5347 67.7196 17.4393C67.7423 17.2567 67.7762 17.0708 67.7875 16.8897C67.7988 16.7087 67.8376 16.5018 67.836 16.3062C67.836 16.0541 67.836 15.8019 67.836 15.5498C67.836 15.2976 67.8877 15.0632 67.8101 14.8191ZM62.6506 16.3111C62.615 16.5341 62.5956 16.7588 62.5472 16.9819C62.5048 17.1821 62.4509 17.3796 62.3855 17.5735C62.3036 17.8174 62.1952 18.0515 62.0622 18.2718C61.9362 18.4685 61.7992 18.6579 61.6517 18.8391C61.4446 19.0963 61.1941 19.3151 60.9114 19.4857C60.6351 19.6657 60.3332 19.803 60.0159 19.893C59.8362 19.9491 59.6525 19.9912 59.4663 20.0191C59.3611 20.0183 59.2562 20.0314 59.1543 20.0579C59.058 20.0865 58.957 20.0964 58.8569 20.087C58.7486 20.087 58.6371 20.087 58.5336 20.087C58.4302 20.087 58.3397 20.087 58.2427 20.087C58.0537 20.0891 57.8648 20.074 57.6786 20.0417C57.4798 20.0227 57.2852 19.9731 57.1015 19.8946C56.9217 19.8778 56.7475 19.8227 56.5907 19.733C56.4256 19.661 56.2667 19.5756 56.1155 19.4776C55.8176 19.2857 55.551 19.0491 55.3251 18.7761C55.089 18.4915 54.8967 18.1734 54.7545 17.8321C54.6543 17.6075 54.5764 17.3736 54.5218 17.1338C54.491 16.9722 54.4636 16.8219 54.4377 16.6651C54.4167 16.539 54.4377 16.4113 54.4021 16.2933C54.3681 16.0872 54.3572 15.8779 54.3698 15.6694C54.3698 15.4932 54.4345 15.3218 54.407 15.1424C54.4878 15.0503 54.4248 14.9291 54.4781 14.8191C54.5315 14.7092 54.4927 14.6074 54.5282 14.512C54.5764 14.3391 54.6347 14.169 54.7028 14.0029C54.761 13.8849 54.8014 13.7604 54.8644 13.644C54.9985 13.3826 55.1652 13.1392 55.3607 12.9199C55.4318 12.8407 55.4916 12.7582 55.5676 12.6774C55.8953 12.3553 56.2838 12.1015 56.7104 11.9306C56.9443 11.8249 57.191 11.7499 57.4442 11.7076C57.6333 11.6817 57.8257 11.6607 58.0116 11.6268C58.28 11.5987 58.55 11.5895 58.8197 11.5993C58.912 11.6049 59.0039 11.6167 59.0945 11.6348C59.1867 11.6445 59.2837 11.6106 59.3677 11.6736C59.6446 11.7019 59.9164 11.7671 60.1759 11.8676C60.3963 11.9457 60.609 12.0442 60.8111 12.1618C61.1419 12.3554 61.4371 12.6041 61.684 12.8972C61.8417 13.0674 61.9755 13.2583 62.0816 13.4646C62.1556 13.5885 62.2204 13.7176 62.2756 13.8509C62.3209 13.9851 62.3839 14.1144 62.4372 14.2502C62.4777 14.3585 62.4954 14.4716 62.5261 14.5735C62.5569 14.6753 62.573 14.7884 62.594 14.8967C62.5965 15.014 62.6094 15.1309 62.6328 15.2459C62.6614 15.3555 62.6712 15.4692 62.6619 15.5821C62.6716 15.7049 62.6619 15.8278 62.6619 15.9506C62.6686 16.0709 62.6648 16.1915 62.6506 16.3111V16.3111Z" fill="#633B93"/>
<path d="M90.9181 16.1009C90.9181 15.928 90.9181 15.7534 90.9181 15.5788C90.9181 15.4043 90.8777 15.2265 90.8857 15.0519C90.8954 14.8353 90.8243 14.6252 90.8421 14.4053C90.8421 14.3924 90.8421 14.373 90.8421 14.3682C90.771 14.3035 90.8195 14.2211 90.8049 14.1499C90.7904 14.0788 90.7774 14.0061 90.7677 13.9333C90.7623 13.8245 90.7471 13.7163 90.7225 13.6101C90.6869 13.505 90.6804 13.3967 90.6514 13.2868C90.6223 13.1769 90.6012 13.0621 90.5722 12.9506C90.5269 12.7889 90.48 12.616 90.4315 12.4479C90.383 12.2798 90.3216 12.1246 90.2699 11.9743C90.1899 11.7367 90.0959 11.5041 89.9886 11.2776C89.827 10.9543 89.6492 10.6408 89.4585 10.3336C89.1842 9.92051 88.8783 9.52925 88.5436 9.16337C88.4928 9.10642 88.4389 9.05245 88.3819 9.00173C88.327 8.95323 88.2607 8.91767 88.2106 8.86595C87.9861 8.65848 87.7419 8.47334 87.4816 8.31314C87.2805 8.16856 87.0681 8.04045 86.8464 7.93006C86.6847 7.85732 86.5392 7.76842 86.376 7.70699C86.2127 7.64557 86.0058 7.56798 85.8232 7.49686C85.4071 7.35412 84.9814 7.2407 84.5495 7.15742C84.4557 7.13479 84.3539 7.14772 84.2553 7.12024C84.1567 7.09276 84.0613 7.11054 83.9611 7.08306C83.8587 7.06977 83.7553 7.06706 83.6524 7.07498C83.5473 7.07498 83.4438 7.04265 83.3388 7.03942C83.1513 7.03942 82.9638 7.04912 82.7779 7.03942C82.592 7.02972 82.4029 7.08791 82.2121 7.08468C82.0168 7.0808 81.8214 7.09487 81.6286 7.12671C81.5302 7.12653 81.4323 7.14013 81.3377 7.16712C81.2423 7.22207 81.1437 7.16712 81.05 7.22692C80.9562 7.28673 80.8398 7.2447 80.7428 7.28027C80.6459 7.31583 80.565 7.31421 80.4778 7.33846L80.0074 7.46615C79.7704 7.53058 79.5373 7.60829 79.3091 7.69891C79.1265 7.77165 78.9454 7.84924 78.7628 7.92359C78.5801 7.99794 78.4395 8.07553 78.2778 8.1515C78.1097 8.22671 77.9475 8.3148 77.7929 8.41497C77.5763 8.56207 77.3533 8.70108 77.1464 8.85625C76.8763 9.04551 76.6208 9.2546 76.3818 9.4818C76.1446 9.69669 75.9226 9.92786 75.7175 10.1736C75.6156 10.3062 75.5073 10.4339 75.4039 10.5664C75.1687 10.8741 74.9559 11.1982 74.767 11.5362C74.6749 11.6979 74.5957 11.8595 74.5165 12.0325C74.4373 12.2054 74.3694 12.3865 74.2902 12.5578C74.1715 12.839 74.0737 13.1286 73.9976 13.4242C73.9224 13.6944 73.8684 13.97 73.836 14.2485C73.8344 14.3532 73.8209 14.4573 73.7956 14.5589C73.7724 14.6497 73.7615 14.7432 73.7633 14.8369C73.7452 14.9277 73.7328 15.0194 73.7261 15.1117C73.7261 15.4075 73.7261 15.7049 73.7261 16.0023C73.7108 16.3012 73.7221 16.6009 73.76 16.8978C73.7923 17.0595 73.7697 17.2211 73.8085 17.3827C73.8473 17.5444 73.8796 17.7286 73.9103 17.9C73.9411 18.0713 74.0138 18.2734 74.0542 18.4625C74.0916 18.6071 74.1369 18.7496 74.19 18.8892C74.287 19.1786 74.4163 19.455 74.5375 19.7346C74.5872 19.8098 74.6289 19.89 74.662 19.9738C74.6974 20.0636 74.7453 20.148 74.8042 20.2244C74.8656 20.3343 74.9157 20.4507 74.9852 20.5476C75.2043 20.8883 75.4423 21.2164 75.6981 21.5304C75.8322 21.692 75.9874 21.8327 76.1232 21.9927C76.2156 22.0872 76.3144 22.1753 76.419 22.2562C76.5321 22.3564 76.6372 22.4647 76.7568 22.5617C76.9616 22.7298 77.1744 22.8876 77.3953 23.0353C77.6329 23.1969 77.8721 23.3489 78.1194 23.4862C78.328 23.601 78.5526 23.6867 78.766 23.7901C79.0198 23.913 79.2849 24.0051 79.5483 24.1037C79.7069 24.1737 79.8721 24.2279 80.0413 24.2654C80.2951 24.3058 80.5263 24.427 80.7897 24.427C80.9568 24.4835 81.1298 24.5204 81.3054 24.5369C81.3887 24.558 81.4735 24.5726 81.5591 24.5805C81.6529 24.5902 81.7482 24.566 81.8339 24.621C82.0167 24.6204 82.1993 24.6328 82.3803 24.6581C82.6259 24.6662 82.8652 24.6581 83.1173 24.6581C83.3646 24.6694 83.6124 24.658 83.8576 24.6242C84.0354 24.5886 84.223 24.6096 84.4008 24.5757C84.4931 24.569 84.5849 24.556 84.6755 24.5369C84.7806 24.4997 84.8889 24.4949 84.9988 24.4658C85.1087 24.4367 85.2106 24.4141 85.3221 24.3866C85.4918 24.3429 85.6615 24.3025 85.8296 24.254C86.1833 24.1433 86.5307 24.0138 86.8706 23.8661C87.1599 23.7515 87.4389 23.6125 87.7047 23.4507C87.9568 23.289 88.2138 23.142 88.4547 22.9658C88.7189 22.7703 88.9695 22.557 89.2047 22.3273C89.258 22.2739 89.3194 22.2303 89.376 22.1818C89.4051 22.1576 89.4455 22.1366 89.4601 22.1058C89.5102 22.0182 89.5759 21.9404 89.654 21.8763C89.7139 21.8222 89.7612 21.7557 89.7927 21.6814C89.8242 21.6072 89.8392 21.527 89.8367 21.4464C89.8373 21.3497 89.8149 21.2543 89.7713 21.168C89.7277 21.0817 89.6643 21.007 89.5861 20.9501C89.4019 20.816 89.216 20.6883 89.035 20.5509C88.9121 20.4587 88.7844 20.3731 88.6616 20.2826L88.1767 19.9205C88.015 19.796 87.8421 19.6699 87.6723 19.5471C87.5026 19.4242 87.3313 19.3062 87.1664 19.1802C87.0104 19.0379 86.8069 18.959 86.5958 18.9587C86.4029 18.9604 86.2184 19.0376 86.0818 19.1737C85.8165 19.4657 85.5243 19.732 85.209 19.969C85.0528 20.0818 84.891 20.1865 84.724 20.2826C84.5602 20.3692 84.39 20.4432 84.2149 20.504C83.9085 20.6034 83.5927 20.6711 83.2725 20.706C83.1563 20.7141 83.0396 20.7141 82.9234 20.706C82.807 20.706 82.6906 20.706 82.5742 20.706C82.4612 20.7179 82.3469 20.7102 82.2364 20.6834C82.133 20.6414 82.0101 20.6963 81.9131 20.6301C81.7256 20.6142 81.5418 20.5689 81.3684 20.4959C81.1018 20.4045 80.8477 20.2802 80.6119 20.1258C80.5182 20.066 80.4325 19.9948 80.342 19.9334C80.2515 19.872 80.1561 19.7265 80.0187 19.6667C80.0012 19.658 79.987 19.6438 79.9783 19.6263C79.8975 19.493 79.7979 19.3722 79.6825 19.2675C79.5692 19.1229 79.4671 18.97 79.377 18.81C79.2643 18.6058 79.1633 18.3954 79.0747 18.1796C79.0036 18.018 78.9891 17.8305 78.9131 17.6656C78.9009 17.6223 78.9009 17.5764 78.9131 17.5331C78.9166 17.5231 78.9226 17.5141 78.9305 17.5071C78.9384 17.5 78.948 17.495 78.9583 17.4927C79.0101 17.4927 79.0618 17.4927 79.12 17.4927H84.5656C86.2531 17.4927 87.9396 17.4927 89.6249 17.4927C89.8598 17.505 90.0952 17.4947 90.3281 17.4619C90.4635 17.4312 90.5894 17.3679 90.695 17.2777C90.7782 17.1976 90.8404 17.0982 90.876 16.9883C90.9202 16.8797 90.9412 16.7629 90.9374 16.6457C90.9132 16.463 90.9181 16.282 90.9181 16.1009ZM85.7197 13.8913C85.7137 13.9086 85.7043 13.9244 85.692 13.938C85.6798 13.9516 85.6651 13.9626 85.6486 13.9705C85.6035 13.9762 85.5579 13.9762 85.5128 13.9705H79.0796C79.026 13.9786 78.9715 13.9786 78.9179 13.9705C78.884 13.9608 78.8339 13.9301 78.8614 13.8703C78.8761 13.8441 78.8864 13.8157 78.8921 13.7863C78.92 13.3907 79.0301 13.0054 79.2154 12.6548C79.3811 12.3066 79.6147 11.9951 79.9023 11.7383C80.2197 11.4634 80.5766 11.2378 80.9611 11.0691C81.1499 10.9929 81.3431 10.9281 81.5397 10.8751C81.6157 10.8509 81.7014 10.8897 81.7725 10.8283C81.9551 10.8396 82.1329 10.7684 82.3188 10.7862C82.4595 10.8008 82.6017 10.7862 82.7439 10.7862C82.9066 10.7845 83.0691 10.7991 83.2289 10.8299C83.4131 10.8784 83.5974 10.9333 83.7784 10.9915C84.0468 11.1003 84.3008 11.2414 84.5349 11.4118C84.6517 11.5053 84.7599 11.6092 84.8582 11.7221C85.0474 11.9092 85.2071 12.1239 85.3318 12.359C85.4345 12.5417 85.5154 12.736 85.5726 12.9376C85.6017 13.0427 85.6227 13.151 85.647 13.2609C85.6654 13.345 85.6768 13.4304 85.6809 13.5163C85.6809 13.602 85.7068 13.6877 85.7181 13.7717C85.7281 13.8109 85.7287 13.8519 85.7197 13.8913Z" fill="#633B93"/>
<path d="M34.8161 15.8649C34.8161 18.3251 34.8161 20.7852 34.8161 23.2454C34.8117 23.4385 34.7534 23.6265 34.6477 23.7882C34.542 23.9499 34.3932 24.0788 34.218 24.1602C34.1277 24.1947 34.0347 24.2217 33.94 24.2411C33.669 24.2777 33.3951 24.2885 33.1221 24.2734C32.8505 24.2734 32.579 24.2734 32.3139 24.2734C31.9389 24.2734 31.5639 24.2734 31.1824 24.2734C30.9997 24.2765 30.8172 24.2608 30.6377 24.2265C30.5205 24.2062 30.4097 24.1586 30.3144 24.0875C30.1625 23.9812 30.0365 23.842 29.9459 23.6802C29.8855 23.567 29.8518 23.4415 29.8473 23.3133C29.8473 22.9075 29.8473 22.5051 29.8473 22.0929C29.8505 22.0617 29.8505 22.0303 29.8473 21.9991C29.8407 21.9935 29.8329 21.9894 29.8245 21.9872C29.8161 21.9849 29.8073 21.9846 29.7988 21.9862C29.7742 22.0054 29.7534 22.029 29.7374 22.0557C29.6307 22.227 29.503 22.379 29.3882 22.5503C29.2079 22.7951 29.005 23.0224 28.7821 23.2292C28.6268 23.3709 28.4609 23.5006 28.2858 23.6171C28.0621 23.7836 27.8228 23.9281 27.5714 24.0487C27.3957 24.1385 27.213 24.2136 27.025 24.2734C26.9119 24.3073 26.8052 24.3655 26.6872 24.3946C26.4976 24.4551 26.305 24.5058 26.1102 24.5466C25.9324 24.5708 25.7546 24.5918 25.58 24.6258C25.3656 24.653 25.1494 24.6632 24.9334 24.6565C24.754 24.6565 24.573 24.6565 24.3919 24.6565C24.1511 24.6565 23.907 24.6387 23.671 24.6145C23.5936 24.5957 23.5146 24.5843 23.435 24.5805C23.3477 24.5805 23.2734 24.5272 23.1796 24.5369C23.0997 24.538 23.0202 24.5243 22.9453 24.4965C22.6717 24.4353 22.4019 24.3586 22.1371 24.2669C21.8605 24.153 21.5907 24.0235 21.3289 23.879C21.1333 23.7691 20.9571 23.6236 20.7696 23.4991C20.5525 23.3409 20.3569 23.1551 20.1877 22.9463C20.0052 22.7634 19.8534 22.5522 19.7383 22.3208C19.7118 22.2727 19.6815 22.2268 19.6478 22.1834C19.5406 22.0098 19.4924 21.8063 19.5104 21.6031C19.5249 21.465 19.5632 21.3305 19.6236 21.2055C19.7092 21.0212 19.8095 20.8434 19.8822 20.6543C19.9549 20.4652 20.018 20.2825 20.0972 20.1047C20.241 19.7814 20.3202 19.4468 20.4318 19.1187C20.4955 18.9174 20.5462 18.7123 20.5837 18.5045C20.616 18.3428 20.6516 18.1812 20.6758 18.0196C20.6754 17.9275 20.689 17.8359 20.7162 17.748C20.7615 17.6575 20.7162 17.5654 20.7518 17.491C20.7784 17.4147 20.7905 17.3341 20.7874 17.2534C20.7874 17.1613 20.8132 17.0707 20.8245 16.9786C20.821 16.8917 20.832 16.8049 20.8569 16.7216C20.8724 16.6393 20.8724 16.5549 20.8569 16.4727C20.8383 16.3251 20.8383 16.1757 20.8569 16.0282C20.8983 15.8699 20.906 15.7047 20.8795 15.5432C20.8391 15.2765 20.8633 15.0098 20.8472 14.7447C20.8276 14.6608 20.8146 14.5754 20.8084 14.4894C20.8269 14.4025 20.8137 14.3119 20.7712 14.234C20.7786 14.0898 20.7639 13.9453 20.7276 13.8056C20.7169 13.6844 20.6958 13.5644 20.6645 13.4468C20.6389 13.365 20.6237 13.2802 20.6193 13.1946C20.5991 13.0374 20.5656 12.8822 20.519 12.7307C20.4867 12.5464 20.4237 12.3686 20.38 12.1876C20.3349 12.02 20.281 11.8549 20.2184 11.693C20.1198 11.4053 19.9953 11.1272 19.8757 10.8476C19.7933 10.6553 19.706 10.4645 19.6058 10.2803C19.5056 10.096 19.3633 9.87778 19.2469 9.67249C19.1583 9.51347 19.0589 9.36064 18.9495 9.21505C18.9059 9.15686 18.8768 9.08736 18.8315 9.0324C18.6937 8.85652 18.6247 8.63641 18.6376 8.41332C18.6376 8.25168 18.6473 8.09004 18.6376 7.9284C18.6359 7.84488 18.6591 7.76276 18.7043 7.69251C18.7495 7.62226 18.8146 7.56708 18.8913 7.534C18.9801 7.47803 19.0839 7.45041 19.1888 7.4548C20.3978 7.4548 21.6058 7.4548 22.8127 7.4548C23.0039 7.45597 23.1908 7.51207 23.351 7.61644C23.5629 7.74065 23.7173 7.94331 23.7809 8.18056C23.8222 8.30881 23.8461 8.44199 23.8521 8.57658V13.9964C23.8521 14.8611 23.8521 15.7275 23.8521 16.5923C23.8521 16.8461 23.8957 17.0966 23.8957 17.352C23.8957 17.4457 23.9345 17.5443 23.928 17.6446C24.0105 17.7141 23.9458 17.8207 23.9991 17.908C24.0525 17.9953 24.0153 18.1052 24.0476 18.1974C24.1548 18.5393 24.307 18.8654 24.5002 19.1672C24.662 19.4023 24.8678 19.6038 25.1064 19.7604C25.298 19.8958 25.5201 19.9819 25.7529 20.011C25.7998 20.011 25.8451 20.0384 25.8919 20.0465C25.9388 20.0546 25.9905 20.0336 26.0358 20.0805C26.0552 20.0999 26.1085 20.0805 26.1473 20.0805C26.4124 20.0805 26.6775 20.0805 26.9426 20.0805C27.009 20.072 27.0749 20.0596 27.1398 20.0433C27.2012 20.0352 27.2804 20.0562 27.3241 20.0255C27.3677 19.9948 27.4728 20.0449 27.5148 19.9657C27.7118 19.937 27.9012 19.87 28.0725 19.7685C28.3158 19.6477 28.5349 19.4833 28.719 19.2836C28.8506 19.153 28.9623 19.0038 29.0504 18.8407C29.1342 18.6888 29.2082 18.5317 29.2718 18.3703C29.3122 18.2507 29.3575 18.1343 29.3947 18.0131C29.4186 17.8894 29.4521 17.7678 29.4949 17.6494C29.5168 17.5664 29.5298 17.4814 29.5337 17.3956C29.5692 17.234 29.5579 17.0578 29.5806 16.8897C29.6565 16.3401 29.6064 15.7889 29.6161 15.2394C29.6258 14.6898 29.6161 14.1289 29.6161 13.5745V10.2528C29.6161 9.69836 29.6161 9.14232 29.6161 8.58628C29.6051 8.3777 29.6551 8.17044 29.76 7.98983C29.8301 7.86557 29.9249 7.757 30.0386 7.67082C30.1523 7.58463 30.2825 7.52267 30.4211 7.48874C30.5095 7.46738 30.6001 7.45653 30.691 7.45642C31.7368 7.45642 32.7843 7.45642 33.8301 7.45642C33.9564 7.45338 34.0819 7.47717 34.1984 7.5262C34.3149 7.57524 34.4196 7.64842 34.5057 7.7409C34.565 7.78905 34.6192 7.84322 34.6674 7.90254C34.769 8.05563 34.8251 8.23445 34.829 8.41817C34.8204 10.9031 34.8161 13.3854 34.8161 15.8649Z" fill="#633B93"/>
<path d="M36.7544 15.8601C36.7544 13.3224 36.7544 10.7846 36.7544 8.2469C36.75 8.0935 36.7911 7.94221 36.8724 7.81209C36.9318 7.70639 37.0177 7.61808 37.1218 7.55597C37.2259 7.49386 37.3445 7.46011 37.4657 7.4581C38.7248 7.4581 39.984 7.4581 41.2448 7.4581C41.3775 7.4519 41.509 7.48612 41.6218 7.55626C41.7347 7.62639 41.8236 7.72913 41.8768 7.85089C41.925 7.94333 41.951 8.0457 41.9528 8.14992C41.9528 8.75122 41.9528 9.3509 41.9528 9.9522C41.9528 9.99584 41.9528 10.0427 41.9528 10.0864C41.9542 10.0947 41.9573 10.1026 41.9621 10.1096C41.9668 10.1166 41.973 10.1224 41.9803 10.1268C41.998 10.1267 42.0152 10.1204 42.0287 10.109C42.0449 10.0983 42.0582 10.0839 42.0675 10.067C42.191 9.81846 42.3348 9.58058 42.4975 9.35575C42.6397 9.14522 42.7929 8.94235 42.9566 8.74799C43.0843 8.60736 43.2071 8.46027 43.3461 8.33096C43.7299 7.96019 44.175 7.65884 44.6619 7.44032C44.883 7.34666 45.1117 7.27204 45.3456 7.21726C45.4888 7.1962 45.6296 7.16101 45.7659 7.11219C45.7717 7.11075 45.7778 7.11075 45.7836 7.11219C45.8418 7.11219 45.9 7.11219 45.9582 7.11219C46.0164 7.11219 46.052 7.07178 46.0972 7.07663C46.3009 7.09765 46.4981 7.02814 46.7017 7.03461C46.9054 7.04107 47.101 7.03461 47.3014 7.03461C47.4033 7.03461 47.4922 7.09118 47.5956 7.07663C47.6989 7.06774 47.8027 7.06774 47.906 7.07663C48.0723 7.10527 48.2299 7.17163 48.3666 7.2706C48.4949 7.41135 48.5718 7.59137 48.5848 7.78138C48.5784 8.87299 48.5784 9.96405 48.5848 11.0546C48.5749 11.2 48.5241 11.3396 48.4383 11.4574C48.3525 11.5752 48.2352 11.6664 48.0999 11.7205C47.9755 11.6931 47.8655 11.8046 47.7233 11.7335C47.6051 11.6947 47.4804 11.6798 47.3564 11.6898C47.2691 11.6898 47.1947 11.6333 47.101 11.6446C47.0072 11.6559 46.9216 11.6801 46.8456 11.609H45.858C45.7739 11.6817 45.6753 11.6397 45.5832 11.6478C45.5025 11.6452 45.422 11.6573 45.3456 11.6834C45.2745 11.7157 45.1839 11.672 45.1064 11.7173C45.0288 11.7626 44.9286 11.7367 44.8348 11.7609C44.4939 11.8325 44.1647 11.9517 43.8569 12.1149C43.6128 12.2462 43.3872 12.4092 43.1861 12.5999C43.0128 12.7557 42.8612 12.934 42.7351 13.13C42.6478 13.2917 42.5557 13.4404 42.4797 13.6053C42.3843 13.8138 42.3181 14.0304 42.2437 14.2518C42.2166 14.3252 42.1966 14.4009 42.1839 14.4781C42.1754 14.5935 42.1492 14.7069 42.1063 14.8143C42.1063 14.824 42.1063 14.8402 42.1063 14.8531C42.1037 15.0032 42.0897 15.1529 42.0643 15.3009C42.0287 15.4447 42.0562 15.5934 42.0239 15.7292C42.0001 15.9369 41.9882 16.1457 41.9883 16.3547C41.914 16.948 41.9641 17.5444 41.9544 18.1328C41.9447 18.7211 41.9544 19.3467 41.9544 19.9545V23.5558C41.9563 23.6711 41.9273 23.7848 41.8705 23.8851C41.8136 23.9854 41.731 24.0687 41.6311 24.1264C41.4831 24.2249 41.3109 24.2808 41.1333 24.288C39.9581 24.288 38.783 24.288 37.6063 24.288C37.5222 24.288 37.4446 24.2395 37.3719 24.2476C37.2992 24.2557 37.2232 24.1943 37.1505 24.1716C37.0736 24.1404 37.0042 24.093 36.9471 24.0328C36.89 23.9726 36.8463 23.9009 36.8191 23.8225C36.7866 23.7377 36.7649 23.6492 36.7544 23.559C36.7512 23.5268 36.7512 23.4943 36.7544 23.462V15.8601Z" fill="#633B93"/>
<path d="M72.5413 12.7663C72.5413 16.5832 72.5413 20.4 72.5413 24.2169C72.5474 24.3658 72.5061 24.5129 72.4233 24.6369C72.3405 24.761 72.2206 24.8555 72.0806 24.9071C71.9912 24.948 71.8945 24.9705 71.7961 24.9733C70.5758 24.9733 69.3538 24.9733 68.1334 24.9733C67.984 24.9801 67.8364 24.9387 67.7124 24.8552C67.5884 24.7716 67.4946 24.6504 67.4448 24.5094C67.41 24.4247 67.3908 24.3343 67.3882 24.2427C67.3882 24.0358 67.3882 23.8289 67.3882 23.622C67.3951 23.5426 67.4075 23.4637 67.4254 23.386C67.434 23.3071 67.4475 23.2289 67.4658 23.1517C67.5062 23.0078 67.5644 22.8688 67.6032 22.7233C67.6645 22.556 67.7391 22.3938 67.8263 22.2384C67.9219 22.0566 68.03 21.8817 68.1496 21.7147C68.2498 21.553 68.3484 21.3833 68.4518 21.2201C68.6086 20.9596 68.7489 20.6897 68.8721 20.4119C68.9642 20.2114 69.0547 20.0094 69.1323 19.8025C69.2503 19.4954 69.3473 19.1818 69.4556 18.8698C69.496 18.7437 69.5251 18.6144 69.5591 18.4851C69.593 18.3558 69.6205 18.2152 69.6657 18.0843C69.69 18.0131 69.6657 17.9436 69.7061 17.8677C69.7387 17.768 69.7545 17.6637 69.753 17.5589C69.7627 17.4927 69.7789 17.4264 69.7918 17.3617C69.8047 17.2971 69.7659 17.234 69.8258 17.1807C69.8355 17.171 69.8258 17.1435 69.8258 17.1257C69.8096 16.9091 69.8936 16.699 69.8646 16.4792C69.9083 16.2355 69.9208 15.9873 69.9017 15.7405C69.9017 15.4948 69.9017 15.2491 69.9017 15.0034C69.9017 14.9048 69.8726 14.8078 69.8662 14.7092C69.8749 14.6133 69.8722 14.5167 69.8581 14.4215C69.8225 14.3084 69.8484 14.1936 69.8209 14.0869C69.7692 13.8849 69.7886 13.6715 69.7094 13.4759C69.6932 13.1526 69.5477 12.8504 69.5154 12.5287C69.3716 12.2313 69.3134 11.9048 69.1808 11.6009L68.8996 10.9543C68.8398 10.8169 68.7606 10.6892 68.6975 10.5535C68.6313 10.4184 68.5573 10.2873 68.4761 10.1607C68.4017 10.029 68.3208 9.90113 68.2336 9.7776C68.1237 9.6305 68.017 9.48018 67.9103 9.32824C67.7288 9.05947 67.5892 8.7646 67.4965 8.45377C67.4582 8.31202 67.4296 8.16783 67.4109 8.02219C67.377 7.67306 67.3672 7.322 67.3818 6.97153C67.3721 6.61593 67.3818 6.26032 67.3818 5.90471C67.3818 4.38853 67.3818 2.87074 67.3818 1.35294C67.381 1.21489 67.4139 1.07873 67.4775 0.95622C67.5412 0.833713 67.6337 0.728547 67.7471 0.649811C67.8421 0.585165 67.9555 0.552859 68.0704 0.557676C69.1937 0.554443 70.3123 0.554443 71.4244 0.554443C71.5408 0.554443 71.6571 0.564142 71.7719 0.554443C71.9757 0.554498 72.173 0.625994 72.3296 0.756493C72.4136 0.918132 72.5381 1.06038 72.5381 1.27212C72.5381 5.10406 72.5391 8.93545 72.5413 12.7663Z" fill="#633B93"/>
<path d="M83.9592 9.13715C83.9301 9.0337 83.9058 8.92701 83.8816 8.82195C83.8412 8.66031 83.7911 8.49867 83.6003 8.4324C83.5899 8.42767 83.5802 8.4217 83.5712 8.41462C83.5804 8.40666 83.5908 8.40013 83.6019 8.39522C83.6967 8.36261 83.7794 8.30237 83.8396 8.22227C83.8916 8.14949 83.9204 8.06267 83.9221 7.97323C83.9238 7.88378 83.8984 7.79591 83.8493 7.72118C83.7986 7.65443 83.733 7.6004 83.6578 7.56337C83.5827 7.52633 83.4999 7.50732 83.4161 7.50782C83.1299 7.48114 82.8415 7.49092 82.5578 7.53691C82.506 7.54985 82.4834 7.55308 82.4834 7.61288C82.4834 7.87151 82.4834 8.13013 82.4834 8.38875V9.08542C82.4834 9.24706 82.4834 9.24706 82.645 9.24706C82.7291 9.24706 82.8067 9.24706 82.8956 9.24706L82.9101 8.98197C82.9101 8.93671 82.9101 8.89145 82.9101 8.84619C82.9101 8.76376 82.9101 8.68455 82.9231 8.6005C83.018 8.5884 83.1142 8.5884 83.2092 8.6005C83.2587 8.60361 83.3059 8.62282 83.3435 8.65521C83.3812 8.68759 83.4072 8.73138 83.4177 8.77992C83.4419 8.90923 83.4953 9.03208 83.5276 9.15977C83.529 9.1736 83.5331 9.18701 83.5398 9.19923C83.5464 9.21145 83.5554 9.22223 83.5662 9.23095C83.577 9.23967 83.5895 9.24616 83.6028 9.25003C83.6162 9.25391 83.6302 9.25509 83.644 9.25353H83.8961C83.9915 9.24706 83.9899 9.24706 83.9592 9.13715ZM83.4516 8.16731C83.3969 8.2287 83.3227 8.26926 83.2415 8.28207C83.2098 8.28615 83.1778 8.28615 83.1461 8.28207L82.9182 8.26752C82.9182 8.19155 82.9182 8.11558 82.9053 8.04123C82.9053 7.98466 82.9053 7.92647 82.9053 7.86827C82.905 7.85583 82.9074 7.84348 82.9121 7.83197C82.9169 7.82047 82.9239 7.81007 82.9329 7.80143C82.9418 7.79278 82.9525 7.78607 82.9641 7.78172C82.9758 7.77737 82.9882 7.77547 83.0006 7.77614C83.1059 7.76946 83.2115 7.7815 83.3126 7.8117C83.3492 7.81941 83.3833 7.83605 83.4118 7.86014C83.4404 7.88423 83.4625 7.91502 83.4763 7.94975C83.4901 7.98449 83.495 8.02209 83.4907 8.05921C83.4864 8.09633 83.473 8.1318 83.4516 8.16246V8.16731Z" fill="#633B93"/>
<path d="M94.4143 8.8174C94.0538 6.67567 90.5139 7.29313 90.9568 9.44456C91.2413 11.7253 94.9347 11.0933 94.4143 8.8174ZM94.0199 9.21341C93.9503 10.9801 91.3722 10.8815 91.3447 9.16007C91.3916 7.37719 94.0635 7.41436 94.0199 9.21341Z" fill="#633B93"/>
<path d="M83.9592 9.13715C83.9301 9.0337 83.9058 8.92701 83.8816 8.82195C83.8412 8.66031 83.7911 8.49867 83.6003 8.4324C83.5899 8.42767 83.5802 8.4217 83.5712 8.41462C83.5804 8.40666 83.5908 8.40013 83.6019 8.39522C83.6967 8.36261 83.7794 8.30237 83.8396 8.22227C83.8916 8.14949 83.9204 8.06267 83.9221 7.97323C83.9238 7.88378 83.8984 7.79591 83.8493 7.72118C83.7986 7.65443 83.733 7.6004 83.6578 7.56337C83.5827 7.52633 83.4999 7.50732 83.4161 7.50782C83.1299 7.48114 82.8415 7.49092 82.5578 7.53691C82.506 7.54985 82.4834 7.55308 82.4834 7.61288C82.4834 7.87151 82.4834 8.13013 82.4834 8.38875V9.08542C82.4834 9.24706 82.4834 9.24706 82.645 9.24706C82.7291 9.24706 82.8067 9.24706 82.8956 9.24706L82.9101 8.98197C82.9101 8.93671 82.9101 8.89145 82.9101 8.84619C82.9101 8.76376 82.9101 8.68455 82.9231 8.6005C83.018 8.5884 83.1142 8.5884 83.2092 8.6005C83.2587 8.60361 83.3059 8.62282 83.3435 8.65521C83.3812 8.68759 83.4072 8.73138 83.4177 8.77992C83.4419 8.90923 83.4953 9.03208 83.5276 9.15977C83.529 9.1736 83.5331 9.18701 83.5398 9.19923C83.5464 9.21145 83.5554 9.22223 83.5662 9.23095C83.577 9.23967 83.5895 9.24616 83.6028 9.25003C83.6162 9.25391 83.6302 9.25509 83.644 9.25353H83.8961C83.9915 9.24706 83.9899 9.24706 83.9592 9.13715ZM83.4516 8.16731C83.3969 8.2287 83.3227 8.26926 83.2415 8.28207C83.2098 8.28615 83.1778 8.28615 83.1461 8.28207L82.9182 8.26752C82.9182 8.19155 82.9182 8.11558 82.9053 8.04123C82.9053 7.98466 82.9053 7.92647 82.9053 7.86827C82.905 7.85583 82.9074 7.84348 82.9121 7.83197C82.9169 7.82047 82.9239 7.81007 82.9329 7.80143C82.9418 7.79278 82.9525 7.78607 82.9641 7.78172C82.9758 7.77737 82.9882 7.77547 83.0006 7.77614C83.1059 7.76946 83.2115 7.7815 83.3126 7.8117C83.3492 7.81941 83.3833 7.83605 83.4118 7.86014C83.4404 7.88423 83.4625 7.91502 83.4763 7.94975C83.4901 7.98449 83.495 8.02209 83.4907 8.05921C83.4864 8.09633 83.473 8.1318 83.4516 8.16246V8.16731Z" fill="#633B93"/>
<path d="M83.9592 9.13715C83.8719 8.86882 83.8929 8.52292 83.5712 8.41462C83.5804 8.40666 83.5908 8.40013 83.6019 8.39522C83.6967 8.36261 83.7794 8.30237 83.8396 8.22227C83.8916 8.14949 83.9204 8.06267 83.9221 7.97323C83.9238 7.88378 83.8984 7.79591 83.8493 7.72118C83.7986 7.65443 83.733 7.6004 83.6578 7.56337C83.5827 7.52633 83.4999 7.50732 83.4161 7.50782C83.1299 7.48114 82.8415 7.49092 82.5578 7.53691C82.506 7.54985 82.4834 7.55308 82.4834 7.61288C82.4834 7.87151 82.4834 8.13013 82.4834 8.38875V9.08542C82.4834 9.24706 82.4834 9.24706 82.645 9.24706C82.7291 9.24706 82.8067 9.24706 82.8956 9.24706L82.9101 8.98197C82.9101 8.85428 82.9101 8.7282 82.9231 8.6005C83.018 8.5884 83.1142 8.5884 83.2092 8.6005C83.2587 8.60361 83.3059 8.62282 83.3435 8.65521C83.3812 8.68759 83.4072 8.73138 83.4177 8.77992C83.4419 8.90923 83.4953 9.03208 83.5276 9.15978C83.568 9.32141 83.7749 9.2309 83.8961 9.25353C83.9915 9.24706 83.9899 9.24706 83.9592 9.13715ZM83.4516 8.16731C83.4139 8.20994 83.3664 8.2428 83.3132 8.26307C83.26 8.28334 83.2027 8.29041 83.1461 8.28369L82.9182 8.26752C82.9182 8.19155 82.9182 8.11558 82.9053 8.04123C82.9053 7.98466 82.9053 7.92647 82.9053 7.86827C82.905 7.85583 82.9074 7.84348 82.9121 7.83197C82.9169 7.82047 82.9239 7.81007 82.9329 7.80143C82.9418 7.79278 82.9525 7.78607 82.9641 7.78172C82.9758 7.77737 82.9882 7.77547 83.0006 7.77614C83.2415 7.75028 83.6294 7.86504 83.4516 8.16246V8.16731Z" fill="#633B93"/>
</svg>
