<svg width="117" height="27" viewBox="0 0 117 27" fill="none" xmlns="http://www.w3.org/2000/svg">
<path d="M36.7718 4.60971C36.3456 3.02651 35.0973 1.77822 33.5141 1.35197C30.6217 0.560368 19.0521 0.560368 19.0521 0.560368C19.0521 0.560368 7.48258 0.560368 4.59019 1.32152C3.03743 1.74777 1.75869 3.02651 1.33244 4.60971C0.571289 7.5021 0.571289 13.5 0.571289 13.5C0.571289 13.5 0.571289 19.5283 1.33244 22.3903C1.75869 23.9735 3.00698 25.2218 4.59019 25.648C7.51302 26.4396 19.0521 26.4396 19.0521 26.4396C19.0521 26.4396 30.6217 26.4396 33.5141 25.6785C35.0973 25.2522 36.3456 24.0039 36.7718 22.4207C37.533 19.5283 37.533 13.5304 37.533 13.5304C37.533 13.5304 37.5634 7.5021 36.7718 4.60971Z" fill="#FF0000"/>
<path d="M15.3682 7.95882V19.0412L24.9892 13.5L15.3682 7.95882Z" fill="white"/>
<path d="M54.248 24.1257C53.5173 23.6386 52.9997 22.8774 52.6952 21.8118C52.3908 20.7767 52.2385 19.3761 52.2385 17.6711V15.3268C52.2385 13.5914 52.4212 12.1908 52.7561 11.1252C53.1215 10.0596 53.6695 9.29844 54.4002 8.81131C55.1614 8.32417 56.1356 8.0806 57.3535 8.0806C58.5409 8.0806 59.5152 8.32417 60.2459 8.81131C60.9766 9.29844 61.4942 10.09 61.8291 11.1252C62.164 12.1604 62.3467 13.5609 62.3467 15.3268V17.6711C62.3467 19.4066 62.1944 20.7767 61.8595 21.8423C61.5246 22.8774 61.007 23.669 60.2763 24.1562C59.5456 24.6433 58.5409 24.8869 57.2926 24.8869C56.0139 24.8564 54.9787 24.6129 54.248 24.1257ZM58.3582 21.5683C58.5713 21.0507 58.6627 20.1677 58.6627 18.9803V13.9263C58.6627 12.7693 58.5713 11.9168 58.3582 11.3688C58.1451 10.8208 57.8102 10.5772 57.2926 10.5772C56.8055 10.5772 56.4401 10.8512 56.2574 11.3688C56.0443 11.9168 55.953 12.7693 55.953 13.9263V18.9803C55.953 20.1677 56.0443 21.0507 56.2574 21.5683C56.4401 22.0858 56.8055 22.3599 57.323 22.3599C57.8102 22.3599 58.1451 22.1163 58.3582 21.5683Z" fill="black"/>
<path d="M110.452 17.7016V18.5237C110.452 19.5588 110.482 20.3504 110.543 20.868C110.604 21.3856 110.726 21.7814 110.939 21.9945C111.122 22.2381 111.426 22.3599 111.852 22.3599C112.4 22.3599 112.766 22.1468 112.979 21.7205C113.192 21.2943 113.283 20.594 113.314 19.5893L116.45 19.772C116.48 19.9242 116.48 20.1069 116.48 20.3504C116.48 21.8423 116.084 22.9688 115.262 23.6995C114.44 24.4302 113.283 24.7956 111.791 24.7956C109.995 24.7956 108.747 24.2171 108.016 23.0906C107.285 21.9641 106.92 20.2287 106.92 17.8539V15.0224C106.92 12.5867 107.285 10.8208 108.046 9.69427C108.808 8.56776 110.086 8.01973 111.883 8.01973C113.131 8.01973 114.105 8.2633 114.775 8.72C115.445 9.17669 115.902 9.9074 116.176 10.8512C116.45 11.8255 116.571 13.1651 116.571 14.8701V17.6407H110.452V17.7016ZM110.908 10.8817C110.726 11.1252 110.604 11.4906 110.543 12.0082C110.482 12.5258 110.452 13.3174 110.452 14.383V15.5399H113.131V14.383C113.131 13.3478 113.101 12.5562 113.04 12.0082C112.979 11.4602 112.826 11.0948 112.644 10.8817C112.461 10.6686 112.157 10.5468 111.791 10.5468C111.365 10.5163 111.091 10.6381 110.908 10.8817Z" fill="black"/>
<path d="M45.3577 17.3972L41.217 2.38719H44.8401L46.3016 9.17669C46.6669 10.8512 46.9409 12.2822 47.1236 13.4696H47.2149C47.3367 12.6171 47.6107 11.2166 48.037 9.20714L49.5593 2.38719H53.1824L48.9808 17.3972V24.5825H45.3882V17.3972H45.3577Z" fill="black"/>
<path d="M74.1294 8.38504V24.6129H71.2674L70.963 22.6339H70.8716C70.1105 24.1257 68.9231 24.8869 67.3703 24.8869C66.3047 24.8869 65.5131 24.5215 64.9955 23.8213C64.4779 23.121 64.2344 22.0249 64.2344 20.5026V8.38504H67.8879V20.2895C67.8879 21.0202 67.9793 21.5378 68.1315 21.8423C68.2837 22.1467 68.5577 22.299 68.9231 22.299C69.2275 22.299 69.532 22.2076 69.8365 21.9945C70.1409 21.8118 70.3541 21.5682 70.4758 21.2638V8.38504H74.1294Z" fill="black"/>
<path d="M92.895 8.12932V24.3571H90.0331L89.7286 22.3781H89.6373C88.8761 23.87 87.6887 24.6312 86.136 24.6312C85.0703 24.6312 84.2787 24.2658 83.7612 23.5655C83.2436 22.8653 83 21.7692 83 20.2469V8.12932H86.6535V20.0338C86.6535 20.7645 86.7449 21.2821 86.8971 21.5865C87.0493 21.891 87.3234 22.0432 87.6887 22.0432C87.9932 22.0432 88.2976 21.9519 88.6021 21.7388C88.9066 21.5561 89.1197 21.3125 89.2415 21.0081V8.12932H92.895Z" fill="black"/>
<path d="M84.0547 5.34047H80.4316V24.5825H76.8694V5.34047H73.2463V2.38719H84.0547V5.34047Z" fill="black"/>
<path d="M104.941 10.973C104.728 9.9378 104.362 9.20709 103.875 8.7504C103.388 8.29371 102.688 8.05014 101.835 8.05014C101.166 8.05014 100.526 8.23282 99.9477 8.62862C99.3693 8.99397 98.9126 9.51156 98.6081 10.1205H98.5777V1.5651H95.0459V24.5824H98.0601L98.4254 23.0601H98.5168C98.7908 23.6081 99.217 24.0344 99.7955 24.3693C100.374 24.6738 100.983 24.8564 101.683 24.8564C102.931 24.8564 103.814 24.278 104.393 23.1515C104.971 22.0249 105.276 20.2286 105.276 17.8234V15.2659C105.245 13.4087 105.154 11.9777 104.941 10.973ZM101.592 17.5798C101.592 18.7672 101.531 19.6806 101.44 20.3504C101.348 21.0202 101.166 21.5074 100.952 21.7814C100.709 22.0554 100.404 22.2076 100.039 22.2076C99.7346 22.2076 99.4606 22.1467 99.217 21.9945C98.9735 21.8423 98.7603 21.6291 98.6081 21.3551V12.1604C98.7299 11.7341 98.943 11.3688 99.2475 11.0643C99.5519 10.7903 99.8868 10.6381 100.222 10.6381C100.587 10.6381 100.892 10.7903 101.074 11.0643C101.287 11.3688 101.409 11.8559 101.5 12.5257C101.592 13.226 101.622 14.2003 101.622 15.4486V17.5798H101.592Z" fill="black"/>
</svg>
