<svg width="75" height="25" viewBox="0 0 75 25" fill="none" xmlns="http://www.w3.org/2000/svg">
<path d="M37.2799 8.89407L32.8507 13.3334C33.3598 14.0147 34.5639 14.0546 35.2705 13.4599C35.7835 13.0268 36.0109 12.4447 36.0545 11.7945C36.0864 11.3274 36.0613 10.8563 36.0613 10.3618L37.3902 9.0644C37.458 9.14293 37.5159 9.22956 37.5625 9.32232C38.1801 11.05 38.0842 12.7134 36.976 14.2093C35.5434 16.1472 32.4161 16.0586 31.0455 14.0779C30.9565 13.9485 30.8868 13.8054 30.7861 13.6312L35.2627 9.11987C34.4516 8.32078 33.0172 8.51739 32.4703 9.5092C32.2302 9.94427 32.1489 10.4825 32.0628 10.9828C32.0008 11.3449 32.0502 11.7254 32.0502 12.0953L30.6574 13.4832C30.518 13.0053 30.335 12.5936 30.2847 12.1654C30.1724 11.2125 30.1734 10.2548 30.5509 9.34276C31.0978 8.021 32.0173 7.14599 33.4702 6.95425C35.0043 6.7518 36.2607 7.23164 37.157 8.54173C37.1939 8.59534 37.2263 8.652 37.2538 8.71108C37.2684 8.77107 37.2771 8.83236 37.2799 8.89407V8.89407Z" fill="#111D28"/>
<path d="M56.0131 9.20755L54.3908 9.64067C53.0106 8.54861 51.8607 8.37536 50.8502 9.09464C49.9103 9.76623 49.6248 10.9225 49.9655 12.1518C50.4862 14.3301 54.113 14.48 54.7335 12.2949C53.9659 12.2569 53.3 12.2453 52.5305 12.254V10.8125H56.1728V15.3443H54.7693C54.7403 15.137 54.7151 14.9501 54.6812 14.7068C52.6389 16.3663 49.4544 15.4922 48.4217 13.1281C47.3966 10.8515 48.3723 8.19822 50.5733 7.28233C52.9177 6.30804 55.3104 7.55097 56.0131 9.20755Z" fill="#111D28"/>
<path d="M67.2489 15.3594H65.6567C64.411 13.6502 63.1459 11.9148 61.8131 10.0879V15.3535H60.1289V7.16895H61.756L65.5009 12.2409L65.5861 12.2234V7.16992H67.2489V15.3594Z" fill="#111D28"/>
<path d="M43.1797 12.3107C43.3171 12.2134 43.3926 12.1569 43.4701 12.1044C45.6663 10.6668 44.6316 7.2154 41.9727 7.15116C40.8179 7.12001 39.6884 7.10736 38.5288 7.16284V15.3387H40.2285V12.6134H41.4529L43.0548 15.3572H44.9907L43.1797 12.3107ZM41.8401 11.022C41.3484 11.0658 40.8499 11.0308 40.2817 11.0308C40.2817 10.259 40.2275 9.5533 40.2275 8.77465C40.8702 8.77465 41.4161 8.73182 41.9524 8.7873C42.5157 8.84472 42.8535 9.32944 42.8428 9.92705C42.8322 10.5247 42.4654 10.9656 41.8401 11.022Z" fill="#111D28"/>
<path d="M45.668 7.16699H47.2883V15.3428H45.668V7.16699Z" fill="#111D28"/>
<path d="M57.2908 7.16797H58.9246V15.336H57.2908V7.16797Z" fill="#111D28"/>
<path d="M11.751 0.261719C17.8261 0.261719 22.751 5.18658 22.751 11.2617C22.751 17.3369 17.8261 22.2617 11.751 22.2617C5.67583 22.2617 0.750977 17.3369 0.750977 11.2617C0.750977 5.18658 5.67583 0.261719 11.751 0.261719Z" fill="#1A82FF"/>
<path d="M15.7726 15.7914C14.8204 16.958 13.4811 17.5413 11.7548 17.5413C10.0286 17.5413 8.68907 16.958 7.73636 15.7914C6.78345 14.6241 6.3072 13.1154 6.30762 11.2651C6.30804 9.41475 6.78407 7.90618 7.73573 6.73934C8.68802 5.57208 10.0275 4.98856 11.7542 4.98877C13.4809 4.98898 14.8202 5.5725 15.772 6.73934C16.7243 7.90597 17.2006 9.41454 17.2008 11.2651C17.201 13.1156 16.7249 14.6244 15.7726 15.7914Z" fill="white"/>
<path d="M11.7346 15.1018C12.1891 15.1018 12.5754 14.978 12.8937 14.7304C13.212 14.4827 13.4425 14.1468 13.5851 13.7228C13.7276 13.2985 13.8282 12.8918 13.8869 12.5027C13.9455 12.1136 13.9746 11.7011 13.9742 11.265C13.9742 10.7282 13.9417 10.2478 13.8768 9.82373L9.96143 13.9038C10.3235 14.7021 10.9145 15.1014 11.7346 15.1018Z" fill="#1A82FF"/>
<path d="M11.7735 7.42822C11.3191 7.42822 10.9327 7.55205 10.6145 7.79971C10.2962 8.04737 10.0657 8.38323 9.92302 8.80731C9.77971 9.23159 9.67914 9.63828 9.62131 10.0274C9.56264 10.4165 9.53352 10.829 9.53394 11.265C9.53394 11.5523 9.54316 11.8234 9.5616 12.0784L13.2959 8.18754C12.9333 7.68154 12.4258 7.42843 11.7735 7.42822V7.42822Z" fill="#1A82FF"/>
<path d="M6.61172 15.1544L6.13086 14.693L9.7772 10.8921L10.2581 11.3534L6.61172 15.1544ZM13.482 11.1881L13.0011 10.7268L16.6475 6.92578L17.1283 7.38715L13.482 11.1881Z" fill="#1A82FF"/>
</svg>
