<svg width="80" height="24" viewBox="0 0 80 24" fill="none" xmlns="http://www.w3.org/2000/svg">
<g clip-path="url(#clip0)">
<path d="M18.0292 11.6635C17.9506 13.3888 16.7449 15.7522 14.4145 18.7516C12.0055 21.8842 9.96678 23.4511 8.29846 23.4511C7.26601 23.4511 6.39196 22.4973 5.67746 20.5885C5.20112 18.8393 4.72364 17.0912 4.2473 15.342C3.71741 13.4343 3.14876 12.4794 2.54024 12.4794C2.40805 12.4794 1.94311 12.7586 1.14883 13.3147L0.315807 12.2401C1.18985 11.472 2.0525 10.7028 2.90148 9.93246C4.06839 8.92509 4.94358 8.39405 5.52817 8.34049C6.90705 8.2083 7.75602 9.15186 8.0751 11.17C8.41925 13.3489 8.65742 14.7038 8.79075 15.2337C9.18845 17.0411 9.62605 17.9436 10.1035 17.9436C10.475 17.9436 11.0323 17.3567 11.7753 16.1853C12.5171 15.0126 12.9148 14.1204 12.9684 13.5084C13.0744 12.4965 12.6767 11.9894 11.7753 11.9894C11.3502 11.9894 10.9126 12.0862 10.4636 12.28C11.3343 9.4265 12.998 8.03965 15.4549 8.11828C17.2759 8.17184 18.134 9.35356 18.0292 11.6635" fill="#1AB7EA"/>
<path d="M25.5057 3.10174C25.4795 3.76268 25.1479 4.39628 24.5097 5.00367C23.7941 5.68969 22.9451 6.0327 21.964 6.0327C20.4518 6.0327 19.7213 5.37289 19.7749 4.05327C19.7999 3.36726 20.2056 2.70631 20.9874 2.07271C21.7702 1.44025 22.6386 1.12231 23.5947 1.12231C24.1519 1.12231 24.6157 1.34111 24.9884 1.77642C25.3587 2.21174 25.5319 2.65389 25.5057 3.10174V3.10174ZM28.9677 17.254C28.2247 18.6579 27.2037 19.9308 25.9034 21.0704C24.1257 22.6077 22.3491 23.3769 20.5714 23.3769C19.7475 23.3769 19.1185 23.1113 18.6809 22.5803C18.2433 22.0504 18.037 21.3621 18.0644 20.5131C18.0894 19.6391 18.3618 18.2864 18.8792 16.4563C19.3965 14.6273 19.6563 13.6461 19.6563 13.5139C19.6563 12.8245 19.417 12.4792 18.9396 12.4792C18.7812 12.4792 18.3288 12.7584 17.5858 13.3145L16.6707 12.2399C17.5197 11.4718 18.3686 10.7026 19.2176 9.93228C20.3583 8.92491 21.2073 8.39387 21.7657 8.34031C22.6409 8.26168 23.2836 8.51922 23.695 9.11408C24.1052 9.71007 24.2579 10.4816 24.1531 11.4331C23.8078 13.0456 23.4363 15.0934 23.0386 17.5776C23.0112 18.7149 23.4226 19.2824 24.2716 19.2824C24.6431 19.2824 25.3063 18.8904 26.2613 18.1052C27.0578 17.4511 27.7074 16.8358 28.2122 16.2591L28.9677 17.254" fill="#1AB7EA"/>
<path d="M53.8193 17.2528C53.0763 18.6579 52.0553 19.9297 50.755 21.0692C48.9773 22.6065 47.1996 23.3757 45.423 23.3757C43.6977 23.3757 42.8624 22.4219 42.916 20.512C42.9411 19.663 43.1074 18.6442 43.4128 17.4511C43.7171 16.2569 43.8835 15.3292 43.9097 14.666C43.937 13.6598 43.6305 13.155 42.9912 13.155C42.2995 13.155 41.4744 13.9777 40.5161 15.6221C39.5053 17.3474 38.9583 19.018 38.8796 20.6362C38.8227 21.778 38.9366 22.6532 39.2135 23.2629C37.3629 23.3165 36.0661 23.011 35.3265 22.3478C34.6633 21.7644 34.3601 20.7969 34.4137 19.4431C34.4365 18.5941 34.5687 17.7451 34.8046 16.8961C35.0382 16.0472 35.1681 15.2916 35.1943 14.6273C35.2513 13.6461 34.8889 13.155 34.1185 13.155C33.4542 13.155 32.7363 13.9116 31.9671 15.4238C31.1967 16.9349 30.7716 18.5143 30.6919 20.1587C30.6349 21.6459 30.7375 22.6794 30.9768 23.2629C29.1557 23.3165 27.8623 22.9324 27.0977 22.1119C26.4618 21.4248 26.1724 20.3798 26.2259 18.977C26.2487 18.2898 26.3729 17.3303 26.5917 16.1007C26.8105 14.87 26.9325 13.9116 26.9575 13.2233C27.0145 12.7481 26.8892 12.5088 26.5997 12.5088C26.4402 12.5088 25.9889 12.7778 25.2459 13.3145L24.2909 12.2399C24.4243 12.135 25.2584 11.3647 26.798 9.93227C27.9125 8.89869 28.668 8.36765 29.0657 8.34144C29.7563 8.28788 30.3124 8.57277 30.7375 9.19611C31.1614 9.81945 31.3745 10.5431 31.3745 11.3647C31.3745 11.6302 31.3517 11.8821 31.2947 12.1214C31.6924 11.5117 32.1562 10.9795 32.6873 10.5283C33.9077 9.46847 35.2741 8.8702 36.7863 8.73801C38.0865 8.63203 39.0141 8.93629 39.5725 9.65308C40.0226 10.2365 40.2346 11.073 40.2084 12.1601C40.3941 12.0017 40.5936 11.8285 40.8067 11.6428C41.4152 10.9271 42.0123 10.3573 42.5958 9.93227C43.5769 9.21549 44.6003 8.81778 45.6601 8.73801C46.9341 8.63203 47.8492 8.93515 48.4064 9.64966C48.8827 10.2308 49.0958 11.0639 49.0434 12.1464C49.0161 12.8872 48.8372 13.964 48.5055 15.3782C48.1728 16.7924 48.0087 17.6038 48.0087 17.8158C47.9813 18.3719 48.0349 18.7548 48.1671 18.9656C48.3004 19.1776 48.6172 19.2824 49.1221 19.2824C49.4935 19.2824 50.1556 18.8904 51.1117 18.1041C51.9071 17.4511 52.5578 16.8358 53.0627 16.2591L53.8193 17.2528" fill="#1AB7EA"/>
<path d="M59.7088 13.0571C59.7338 12.3449 59.4433 11.9882 58.8347 11.9882C58.0393 11.9882 57.2314 12.5363 56.4109 13.6315C55.5892 14.7266 55.1653 15.7761 55.1391 16.7789C55.1243 16.7789 55.1243 16.951 55.1391 17.294C56.4371 16.8188 57.563 16.0941 58.5168 15.1163C59.2849 14.2719 59.6814 13.5847 59.7088 13.0571V13.0571ZM68.7421 17.212C67.9729 18.4849 66.4607 19.7555 64.2055 21.0272C61.3942 22.6431 58.5407 23.4499 55.6496 23.4499C53.5016 23.4499 51.9609 22.7343 51.0333 21.3019C50.37 20.3207 50.0521 19.1538 50.0783 17.8011C50.1045 15.653 51.0606 13.6109 52.9443 11.6737C55.0126 9.55182 57.4536 8.48975 60.266 8.48975C62.8665 8.48975 64.2454 9.54954 64.4049 11.6657C64.5109 13.015 63.7679 14.4052 62.1759 15.8342C60.478 17.3966 58.3413 18.388 55.7693 18.8108C56.2456 19.4729 56.9613 19.8033 57.9174 19.8033C59.8273 19.8033 61.9104 19.3179 64.1656 18.3458C65.7838 17.6632 67.0578 16.9544 67.9866 16.2194L68.7421 17.212" fill="#1AB7EA"/>
<path d="M75.0474 14.395C75.0736 13.6771 74.9744 13.0196 74.7488 12.4213C74.5232 11.8242 74.1973 11.5233 73.7745 11.5233C72.4207 11.5233 71.3062 12.2549 70.4322 13.717C69.688 14.9135 69.2892 16.1898 69.2379 17.5436C69.2105 18.2091 69.3302 18.7949 69.5957 19.2986C69.8863 19.8843 70.2977 20.176 70.8299 20.176C72.023 20.176 73.0452 19.4729 73.8941 18.0633C74.6098 16.8929 74.9938 15.6702 75.0474 14.395V14.395ZM79.5441 14.5454C79.4381 16.983 78.5367 19.0889 76.8388 20.8632C75.1408 22.6375 73.0304 23.5252 70.5108 23.5252C68.4151 23.5252 66.8231 22.8494 65.736 21.4979C64.9406 20.4917 64.5019 19.2336 64.4232 17.7248C64.2888 15.4457 65.1115 13.3535 66.8904 11.4458C68.8003 9.32737 71.2002 8.26758 74.0924 8.26758C75.9488 8.26758 77.355 8.89092 78.3111 10.1353C79.2136 11.2749 79.6239 12.7449 79.5441 14.5454" fill="#1AB7EA"/>
</g>
<defs>
<clipPath id="clip0">
<rect width="79.7695" height="22.7913" fill="white" transform="translate(0.11525 0.916138)"/>
</clipPath>
</defs>
</svg>
