<svg width="50" height="25" viewBox="0 0 50 25" fill="none" xmlns="http://www.w3.org/2000/svg">
<path d="M5.86289 15.7872L7.72648 13.8588L5.40914 10.7312L2.4598 6.55841C1.38216 8.3977 0.814981 10.4882 0.823084 12.6191C0.823084 16.2815 2.4598 19.5549 5.04453 21.7588L8.78791 19.1093C7.51581 18.3153 6.49489 17.1647 5.86289 15.7872ZM9.65489 5.65903L11.5833 7.52262L14.7109 5.20528L18.8837 2.25595C17.0444 1.1783 14.954 0.611124 12.823 0.619226C9.16063 0.619226 5.88719 2.25595 3.68329 4.84067L6.33283 8.58406C7.12689 7.30385 8.28555 6.28293 9.65489 5.65903ZM17.9276 11.3794L20.245 14.507L23.1943 18.6799C24.2719 16.8406 24.8391 14.7501 24.831 12.6191C24.831 8.95678 23.1943 5.68334 20.6096 3.47944L16.8662 6.12898C18.1464 6.92303 19.1673 8.0817 19.7912 9.45103L17.9276 11.3794ZM21.9708 20.3976L19.3213 16.6542C18.5272 17.9344 17.3685 18.9554 15.9992 19.5793L14.0708 17.7157L10.9432 20.033L6.77037 22.9823C8.60966 24.06 10.7001 24.6272 12.8311 24.6191C16.4854 24.6191 19.7669 22.9823 21.9708 20.3976Z" fill="black"/>
<path d="M31.8721 12.4329C31.8721 8.55175 33.4926 6.61523 36.0206 6.61523C38.5324 6.61523 40.1934 8.57606 40.1934 12.4329C40.1934 16.2816 38.5405 18.2343 36.0206 18.2343C33.5007 18.2343 31.8721 16.2816 31.8721 12.4329ZM36.0044 7.87924C34.1813 7.87924 33.2738 9.57267 33.2738 12.441C33.2738 13.7941 33.4764 14.8475 33.8572 15.6091L37.4467 8.35729C37.0334 8.03319 36.5554 7.87924 36.0044 7.87924ZM34.5945 16.5328C34.9997 16.8407 35.4615 16.9946 36.0125 16.9946C37.8356 16.9946 38.7593 15.2931 38.7593 12.441C38.7593 11.1203 38.5648 10.075 38.1759 9.28908L34.5945 16.5328ZM49.2278 9.9778L46.9186 13.8589L49.4466 18.0399H47.899L45.8733 14.6611H45.2981L43.2319 18.0399H41.7248L44.2609 13.9157L41.9841 9.9778H43.4507L45.3143 13.1783H45.8977L47.8099 9.9778H49.2278Z" fill="black"/>
</svg>