<svg fill="none" xmlns="http://www.w3.org/2000/svg" viewBox="0 0 34 34"><circle opacity=".4" cx="17.035" cy="16.727" r="15.5" stroke="#737ADE"/><g clip-path="url(#clip0)"><path d="M24.977 16.578a1.9 1.9 0 00-1.9-1.9c-.45 0-.9.15-1.2.45-1.15-.75-2.65-1.2-4.25-1.25l.85-2.65 2.25.5c.05.85.75 1.5 1.6 1.5.9 0 1.6-.7 1.6-1.6 0-.9-.7-1.6-1.6-1.6-.6 0-1.15.35-1.45.85l-2.65-.65c-.2-.05-.45.1-.5.3l-1.05 3.25c-1.7.05-3.35.5-4.6 1.25-.35-.25-.75-.4-1.2-.4a1.9 1.9 0 00-1.9 1.9c0 .65.35 1.25.85 1.6 0 .15-.05.3-.05.45 0 1.35.75 2.55 2.15 3.45 1.35.9 3.1 1.35 5 1.35s3.65-.5 5-1.35c1.4-.9 2.15-2.15 2.15-3.45 0-.15 0-.3-.05-.4.6-.3.95-.9.95-1.6zm-2.65-5.7c.4 0 .75.35.75.75s-.35.75-.75.75-.75-.35-.75-.75.35-.75.75-.75zm-8.8 6.9c0-.6.5-1.1 1.1-1.1.6 0 1.1.5 1.1 1.1 0 .6-.5 1.1-1.1 1.1-.6 0-1.1-.5-1.1-1.1zm6.1 3.2c-.55.55-1.4.85-2.65.85-1.2 0-2.05-.25-2.65-.85a.456.456 0 010-.6c.15-.15.45-.15.6 0 .4.4 1.05.55 2 .55s1.6-.2 2-.55c.15-.15.45-.15.6 0 .25.15.25.4.1.6zm-.25-2.1c-.6 0-1.1-.5-1.1-1.1 0-.6.5-1.1 1.1-1.1.6 0 1.1.5 1.1 1.1 0 .6-.5 1.1-1.1 1.1z" fill="#4C54D2"/></g><defs><clipPath id="clip0"><path fill="#fff" transform="translate(8.977 8.728)" d="M0 0h16v16H0z"/></clipPath></defs></svg>