<svg fill="none" xmlns="http://www.w3.org/2000/svg" viewBox="0 0 33 34"><circle opacity=".4" cx="16.943" cy="16.549" r="15.5" stroke="#135" stroke-opacity=".8"/><path d="M8.655 15.78l9.53-3.926c.94-.41 4.13-1.718 4.13-1.718s1.473-.573 1.35.818c-.04.572-.367 2.577-.695 4.744l-1.022 6.422s-.082.94-.779 1.104c-.696.163-1.84-.573-2.044-.736-.164-.123-3.068-1.963-4.132-2.863-.286-.246-.613-.737.041-1.31a155.963 155.963 0 004.295-4.09c.49-.49.982-1.635-1.064-.245l-5.767 3.886s-.654.409-1.881.041c-1.227-.368-2.659-.859-2.659-.859s-.981-.613.696-1.268z" fill="#4C54D2"/></svg>