<svg width="24" height="20" viewBox="0 0 24 20" fill="none" xmlns="http://www.w3.org/2000/svg">
<path d="M24 2.31793C23.1628 2.7432 22.186 3.02671 21.2093 3.16847C22.2558 2.53056 23.0233 1.53826 23.4419 0.333323C22.4651 0.900352 21.4186 1.32562 20.3023 1.53826C18.7428 -0.0844436 16.3163 -0.466884 14.3461 0.599511C12.376 1.66591 11.3349 3.92525 11.7907 6.14538C7.88372 5.93274 4.11628 4.08989 1.67442 0.900352C1.00332 1.98931 0.787951 3.3054 1.07614 4.55638C1.36433 5.80735 2.13223 6.88966 3.2093 7.56295C2.44186 7.56295 1.67442 7.42119 0.976744 7.0668C1.04651 9.4058 2.65116 11.4613 4.88372 11.9574C4.18605 12.1701 3.4186 12.1701 2.65116 12.0283C3.34884 14.0838 5.23256 15.5014 7.32558 15.5722C5.30233 17.2733 2.5814 18.053 0 17.6277C4.40067 20.611 10.0877 20.7942 14.6656 18.1C19.2434 15.4059 21.9162 10.3028 21.5581 4.94044C22.5349 4.23165 23.3721 3.38111 24 2.31793Z" fill="#1DA1F3"/>
</svg>
