<svg width="51" height="51" viewBox="0 0 51 51" fill="none" xmlns="http://www.w3.org/2000/svg">
<circle cx="25.5" cy="25.5" r="25.5" fill="#EDF1F4"/>
<g opacity="0.7">
<path fill-rule="evenodd" clip-rule="evenodd" d="M24.8333 12.9151C26.3626 12.9151 27.7828 13.5546 28.7897 14.6316C29.5481 14.2275 30.414 13.9984 31.3333 13.9984C34.3249 13.9984 36.75 16.4236 36.75 19.4151C38.5449 19.4151 40 20.8702 40 22.6651V33.4984C40 35.2934 38.5449 36.7484 36.75 36.7484H17.25C15.4551 36.7484 14 35.2934 14 33.4984V19.4151C14 19.3488 14.0059 19.284 14.0173 19.221C14.0058 19.1089 14 18.9931 14 18.8734C14 17.3777 15.2126 16.1651 16.7083 16.1651H19.8674C20.7032 14.252 22.6122 12.9151 24.8333 12.9151ZM19.4167 18.3318H16.7083C16.4092 18.3318 16.1667 18.5743 16.1667 18.8734C16.1667 19.2797 16.3472 19.4151 17.25 19.4151H19.4167H19.5252C19.4535 19.0618 19.4167 18.6993 19.4167 18.3318ZM19.4167 21.5818H17.25C16.8596 21.5818 16.4971 21.5451 16.1667 21.4729V33.4984C16.1667 34.0967 16.6517 34.5818 17.25 34.5818H36.75C37.3483 34.5818 37.8333 34.0967 37.8333 33.4984V22.6651C37.8333 22.0668 37.3483 21.5818 36.75 21.5818H19.4167ZM21.7679 19.4151L25.9167 19.4151C25.9167 18.1282 26.3655 16.9461 27.115 16.0168C26.5177 15.4276 25.7057 15.0818 24.8333 15.0818C23.0384 15.0818 21.5833 16.5368 21.5833 18.3318C21.5833 18.7069 21.6466 19.0717 21.7679 19.4151ZM28.0833 19.4151H34.5833C34.5833 17.6202 33.1283 16.1651 31.3333 16.1651C29.5384 16.1651 28.0833 17.6202 28.0833 19.4151ZM33.5 30.2484C34.6966 30.2484 35.6667 29.2784 35.6667 28.0818C35.6667 26.8851 34.6966 25.9151 33.5 25.9151C32.3034 25.9151 31.3333 26.8851 31.3333 28.0818C31.3333 29.2784 32.3034 30.2484 33.5 30.2484Z" fill="#000FF8"/>
</g>
</svg>
