<svg width="24" height="25" viewBox="0 0 24 25" fill="none" xmlns="http://www.w3.org/2000/svg">
<path fill-rule="evenodd" clip-rule="evenodd" d="M22 21.8589H14V23.8585C14 24.1741 13.852 24.4707 13.6 24.659C13.424 24.7902 13.213 24.8594 13 24.8594C12.906 24.8594 12.811 24.8454 12.719 24.8183L2.719 21.8859C2.292 21.7607 2 21.37 2 20.9261V4.79248C2 4.34766 2.292 3.95694 2.719 3.83271L12.719 0.900319C13.02 0.811155 13.347 0.869262 13.6 1.05861C13.852 1.24696 14 1.5445 14 1.85908V3.85976H22C22.552 3.85976 23 4.30658 23 4.8596V20.859C23 21.411 22.552 21.8589 22 21.8589ZM12 3.19454L4 5.54085V20.1778L12 22.5231V3.19454ZM21 5.85944H14V8.85895H18C18.552 8.85895 19 9.30678 19 9.85979C19 10.4108 18.552 10.8596 18 10.8596H14V11.8595H18C18.552 11.8595 19 12.3073 19 12.8593C19 13.4113 18.552 13.8591 18 13.8591H14V14.859H18C18.552 14.859 19 15.3068 19 15.8588C19 16.4108 18.552 16.8587 18 16.8587H14V19.8592H21V5.85944Z" fill="#495057"/>
</svg>
