<svg width="121" height="121" viewBox="0 0 121 121" fill="none" xmlns="http://www.w3.org/2000/svg">
<circle cx="60.5" cy="60.5" r="60.5" fill="white" fill-opacity="0.16"/>
<circle cx="60.4999" cy="60.5" r="44.8148" fill="white"/>
<path fill-rule="evenodd" clip-rule="evenodd" d="M84.7918 50.9925L83.1018 46.4931L84.2759 43.9084C84.4267 43.5757 84.3541 43.1852 84.093 42.927L80.8987 39.758C79.5018 38.3732 77.4176 37.8971 75.5403 38.5357L74.6473 38.8393L69.9818 33.6111H63.1184H58.7687H52.8268L48.221 38.9026L47.3526 38.6029C45.4581 37.9492 43.3488 38.4304 41.9427 39.837L38.6919 43.0654C38.4833 43.2721 38.4262 43.5824 38.5473 43.8474L39.7739 46.5301L38.0925 51.0273L39.1809 55.0819L44.1378 73.563C44.7085 75.6939 46.0237 77.5599 47.8531 78.8377C47.8531 78.8377 53.8715 82.9998 59.8104 86.78C60.3326 87.1127 60.8788 87.3558 61.465 87.3469C62.0512 87.3547 62.5974 87.1127 63.1184 86.7783C69.7887 82.4912 75.0661 78.8209 75.0661 78.8209C76.8937 77.5408 78.2066 75.6726 78.7751 73.5411L83.7085 55.0528L84.7918 50.9925Z" fill="url(#paint0_linear)"/>
<path fill-rule="evenodd" clip-rule="evenodd" d="M79.5177 51.8848L79.4404 52.1257L79.3174 52.5577C78.989 52.9588 78.2966 53.7286 77.7782 54.2693L73.013 59.2356C72.4946 59.7757 72.2021 60.4531 72.498 61.1355L73.1406 62.6886C73.4359 63.3704 73.4651 64.4988 73.1818 65.2563C72.894 66.0272 72.3985 66.7085 71.7491 67.2279L71.2519 67.6252C70.6654 68.0941 69.6263 68.2174 68.9425 67.8986L66.7476 66.8777C66.0644 66.5601 65.0448 65.8939 64.4817 65.3975L62.4053 63.5676C62.0002 63.2102 61.9773 62.5961 62.3543 62.2118L67.4113 58.8669C68.0385 58.4523 68.3704 57.6853 68.014 57.0314L66.216 53.8244C65.8596 53.17 65.7171 52.3011 65.899 51.8926C66.0816 51.4842 66.8094 50.9351 67.5178 50.6723L73.3879 48.5343C74.0957 48.2716 74.058 48.0004 73.3044 47.9309L69.5535 47.6575C68.7993 47.588 68.2467 47.6956 67.5178 47.895L64.6788 48.5836C63.9498 48.7831 63.7957 49.5434 63.9324 50.2717L65.1037 56.4975C65.241 57.2264 65.308 57.9604 65.253 58.129C65.1981 58.2977 64.5493 58.5694 63.8111 58.7336L62.8401 58.9493C62.102 59.1134 60.8924 59.1207 60.1526 58.9667L58.9779 58.7213C58.2375 58.5666 57.5869 58.3022 57.5314 58.1341C57.4765 57.9654 57.5428 57.2304 57.6796 56.502L58.8434 50.2751C58.9802 49.5462 58.8249 48.787 58.0959 48.5881L55.2558 47.9029C54.5268 47.704 53.9737 47.5987 53.2201 47.6681L49.4692 47.9449C48.7156 48.0149 48.6784 48.2861 49.3862 48.5478L55.2598 50.6796C55.9676 50.9418 56.6966 51.4898 56.8791 51.8982C57.0622 52.3061 56.9203 53.1751 56.565 53.8295L54.7705 57.0376C54.4151 57.692 54.7477 58.459 55.3754 58.8731L60.437 62.2129C60.8146 62.5967 60.7923 63.2113 60.3877 63.5688L58.313 65.4014C57.7511 65.8984 56.732 66.5651 56.0489 66.8845L53.8557 67.9081C53.1725 68.2269 52.1328 68.1053 51.5463 67.6375L51.0491 67.2408C50.3985 66.722 49.9018 66.0413 49.59 65.2092C49.3291 64.5128 49.3566 63.3855 49.6507 62.7026L50.2922 61.1495C50.5869 60.4666 50.2932 59.7891 49.7742 59.2496L45.0034 54.2889C44.485 53.7494 43.7915 52.9801 43.463 52.5801L43.3389 52.1475L43.2616 51.9066C43.2542 51.6293 43.3555 50.7452 43.4705 50.5059C43.5855 50.2678 44.0261 49.5697 44.45 48.9557L45.4708 47.476C45.8948 46.8619 46.6278 45.8853 47.0993 45.3055L48.5955 43.4678C49.067 42.8884 49.4693 42.4167 49.5299 42.4206C49.5328 42.4167 50.1433 42.5282 50.8866 42.6677L53.153 43.094C53.8963 43.2336 54.7162 43.3871 54.9754 43.4347C55.2341 43.4829 56.0351 43.335 56.7555 43.1064L58.3857 42.5892C59.1055 42.3601 60.1983 42.0587 60.8134 41.9186L61.3833 41.927L61.9532 41.918C62.5683 42.057 63.6612 42.3573 64.3816 42.5853L66.0129 43.1008C66.7333 43.3288 67.5344 43.4756 67.793 43.4274C68.0155 43.386 68.6511 43.2658 69.2968 43.1436L69.6148 43.0834L71.8807 42.6554C72.624 42.5147 73.2345 42.4027 73.278 42.406C73.298 42.4027 73.7002 42.8727 74.1729 43.4526L75.6714 45.2886C76.1441 45.8674 76.8776 46.8429 77.3027 47.4569L78.3252 48.9349C78.7498 49.5484 79.413 50.6651 79.4542 50.9189C79.4965 51.1727 79.5245 51.6074 79.5177 51.8848ZM61.6924 66.7049C61.7588 66.7049 62.3859 66.9363 63.0851 67.2203L63.734 67.4837C64.4332 67.7672 65.5581 68.2736 66.2327 68.6093L68.1473 69.5617C68.8219 69.8968 68.8705 70.5243 68.2548 70.9557L66.6218 72.0998C66.0061 72.5312 65.038 73.2797 64.471 73.7649C64.3156 73.8977 64.1335 74.0534 63.9392 74.2194C63.4234 74.6603 62.8223 75.1741 62.4117 75.5253C61.8463 76.0088 60.9303 76.0111 60.3758 75.5315C59.8208 75.0513 58.9024 74.2652 58.3342 73.7851C57.7666 73.3044 56.7962 72.5614 56.1777 72.1345L54.5504 71.0084C53.9318 70.5803 53.9759 69.95 54.6471 69.6077L56.5719 68.6261C57.2431 68.2832 58.364 67.77 59.0632 67.4865L59.7121 67.222C60.4107 66.938 61.0373 66.7049 61.1042 66.7049H61.3983H61.6924Z" fill="url(#paint1_linear)"/>
<defs>
<linearGradient id="paint0_linear" x1="38.0925" y1="87.7262" x2="84.7918" y2="87.7262" gradientUnits="userSpaceOnUse">
<stop stop-color="#FF5500"/>
<stop offset="0.409877" stop-color="#FF5500"/>
<stop offset="0.49434" stop-color="#FF4530"/>
<stop offset="0.572365" stop-color="#FF2000"/>
<stop offset="1" stop-color="#FF2000"/>
</linearGradient>
<linearGradient id="paint1_linear" x1="61.39" y1="83.8333" x2="78.3466" y2="83.8333" gradientUnits="userSpaceOnUse">
<stop stop-color="white"/>
<stop offset="1" stop-color="#F4F4F4"/>
</linearGradient>
</defs>
</svg>
