<svg width="1369" height="368" viewBox="0 0 1369 368" fill="none" xmlns="http://www.w3.org/2000/svg">
<g filter="url(#filter0_f)">
<rect x="981" y="27.4135" width="116" height="116" rx="8" fill="#F0DCFF" fill-opacity="0.24"/>
</g>
<g filter="url(#filter1_f)">
<rect x="1236.15" y="64.3316" width="116" height="116" rx="8" fill="#F0DCFF" fill-opacity="0.24"/>
</g>
<g filter="url(#filter2_f)">
<rect x="282.274" y="149.226" width="116" height="116" rx="8" fill="#F0DCFF" fill-opacity="0.16"/>
</g>
<g filter="url(#filter3_f)">
<rect x="142.993" y="28.8868" width="116" height="116" rx="8" fill="#F0DCFF" fill-opacity="0.24"/>
</g>
<g filter="url(#filter4_f)">
<rect x="619" y="61.6809" width="116" height="116" rx="8" fill="#F0DCFF" fill-opacity="0.16"/>
</g>
<g filter="url(#filter5_d)">
<rect x="518" y="44" width="180.593" height="180.593" rx="10.1743" fill="#F0DCFF" fill-opacity="0.75"/>
</g>
<path d="M563.199 134.593C563.199 134.157 563.161 133.718 563.141 133.282C563.141 133.262 563.141 133.234 563.141 133.221C563.109 133.177 563.088 133.126 563.078 133.073C563.068 133.019 563.071 132.964 563.085 132.912C563.103 132.787 563.022 132.686 563.024 132.572C563.024 132.257 562.902 131.963 562.9 131.648C562.808 131.549 562.877 131.412 562.829 131.313C562.753 131.12 562.698 130.92 562.666 130.715C562.618 130.499 562.529 130.301 562.471 130.093C562.295 129.49 562.067 128.902 561.791 128.338C561.51 127.735 561.17 127.161 560.776 126.625C560.584 126.372 560.401 126.093 560.203 125.834C559.983 125.567 559.747 125.313 559.498 125.073C559.213 124.763 558.905 124.474 558.577 124.21C558.354 124.04 558.138 123.858 557.907 123.703C557.575 123.469 557.217 123.267 556.872 123.051C556.568 122.858 556.223 122.746 555.924 122.544C555.721 122.559 555.579 122.399 555.396 122.346C555.216 122.294 555.04 122.228 554.871 122.148C554.612 122.028 554.343 121.933 554.067 121.864C553.65 121.749 553.226 121.665 552.798 121.61C552.664 121.612 552.53 121.591 552.402 121.549C552.281 121.481 552.169 121.521 552.057 121.498C551.946 121.476 551.832 121.45 551.717 121.44C551.45 121.461 551.181 121.44 550.921 121.377C550.289 121.351 549.652 121.402 549.028 121.437C548.884 121.526 548.711 121.458 548.572 121.506C548.318 121.592 548.064 121.61 547.811 121.684C547.557 121.757 547.303 121.841 547.05 121.925C546.796 122.008 546.606 122.079 546.39 122.178C546.174 122.277 545.928 122.371 545.695 122.488C545.548 122.561 545.398 122.65 545.249 122.741C545.152 122.797 545.051 122.853 544.957 122.914C544.586 123.168 544.219 123.401 543.871 123.675C543.729 123.789 543.617 123.929 543.473 124.03C543.328 124.132 543.189 124.284 543.047 124.395C543.038 124.401 543.03 124.408 543.024 124.416C542.937 124.616 542.747 124.725 542.618 124.885C542.547 124.953 542.485 125.03 542.433 125.113C542.346 125.256 542.241 125.386 542.121 125.501C542.112 125.506 542.102 125.508 542.093 125.508C542.083 125.508 542.074 125.506 542.065 125.501C542.044 125.486 542.028 125.465 542.019 125.441C542.019 125.39 542.019 125.339 542.019 125.288C542.019 124.568 542.019 123.85 542.019 123.13C542.017 123.023 541.997 122.918 541.961 122.818C541.897 122.59 541.759 122.39 541.57 122.249C541.38 122.108 541.149 122.033 540.913 122.036H535.586C535.427 122.047 535.272 122.095 535.134 122.174C534.995 122.254 534.877 122.363 534.787 122.495C534.746 122.559 534.716 122.65 534.657 122.678C534.533 122.726 534.665 122.878 534.533 122.894V156.524C534.665 156.542 534.571 156.672 534.64 156.743C534.705 156.813 534.766 156.888 534.822 156.966C534.913 157.093 535.033 157.198 535.172 157.27C535.311 157.341 535.465 157.379 535.621 157.379H538.206C539.34 157.379 540.489 157.379 541.613 157.379C541.786 157.356 541.956 157.314 542.121 157.255C542.294 157.127 542.436 156.962 542.536 156.772C542.637 156.582 542.693 156.371 542.702 156.157C542.702 152.732 542.702 149.306 542.702 145.88C542.702 145.799 542.702 145.718 542.702 145.626C542.705 145.614 542.711 145.602 542.719 145.593C542.728 145.583 542.738 145.575 542.75 145.57C542.764 145.57 542.777 145.574 542.789 145.58C542.802 145.586 542.813 145.595 542.821 145.606C542.931 145.791 543.064 145.961 543.217 146.113C543.518 146.443 543.838 146.756 544.173 147.052C544.495 147.307 544.834 147.54 545.188 147.75C545.632 147.992 546.097 148.194 546.578 148.353C546.93 148.485 547.293 148.591 547.661 148.668C548.036 148.761 548.416 148.829 548.8 148.873C548.945 148.875 549.089 148.894 549.229 148.932C549.371 148.968 549.516 148.986 549.663 148.985C549.807 148.998 549.949 149.038 550.094 149.041C550.469 149.041 550.855 149.053 551.22 149.041C551.598 149.069 551.978 149.051 552.352 148.987C552.509 148.947 552.687 149.02 552.841 148.922C553.099 148.912 553.354 148.873 553.602 148.805C553.884 148.755 554.161 148.688 554.434 148.604C554.918 148.466 555.389 148.286 555.842 148.067C556.252 147.873 556.648 147.651 557.027 147.402C557.281 147.229 557.534 147.059 557.788 146.895C558.113 146.662 558.423 146.408 558.714 146.134C559.155 145.744 559.554 145.31 559.904 144.837C560.064 144.604 560.282 144.409 560.434 144.173C560.789 143.659 561.107 143.121 561.385 142.562C561.565 142.171 561.794 141.801 561.943 141.395C562.02 141.192 562.106 140.994 562.179 140.791C562.309 140.469 562.419 140.14 562.509 139.804C562.595 139.434 562.763 139.081 562.763 138.693C562.933 138.351 562.915 137.965 563.001 137.605C563.075 137.305 563.065 136.991 563.121 136.684C563.166 136.43 563.151 136.176 563.176 135.923C563.212 135.481 563.219 135.037 563.199 134.593ZM555.043 135.157C555.028 135.319 555.043 135.481 555.043 135.644C555.04 135.93 555.018 136.215 554.977 136.499C554.919 136.808 554.873 137.123 554.8 137.427C554.748 137.627 554.682 137.824 554.604 138.016C554.322 138.739 553.908 139.403 553.382 139.974C553.277 140.069 553.177 140.169 553.082 140.273C552.706 140.665 552.258 140.981 551.763 141.204C551.44 141.358 551.108 141.492 550.769 141.605C550.651 141.64 550.53 141.666 550.408 141.684C550.236 141.705 550.066 141.743 549.901 141.798C549.873 141.803 549.843 141.803 549.815 141.798C549.599 141.818 549.386 141.849 549.17 141.856C548.955 141.864 548.724 141.856 548.501 141.856H548.016C547.877 141.885 547.734 141.885 547.595 141.856C547.445 141.785 547.273 141.872 547.166 141.796C547.06 141.719 546.88 141.818 546.783 141.684C546.527 141.667 546.275 141.605 546.04 141.501C545.556 141.343 545.095 141.121 544.67 140.842C543.736 140.201 543.009 139.3 542.58 138.252C542.497 138.061 542.428 137.864 542.374 137.663C542.334 137.47 542.279 137.28 542.209 137.095C542.173 136.928 542.15 136.758 542.138 136.587C542.121 136.443 542.1 136.298 542.077 136.156C542.055 136.014 542.128 135.877 542.022 135.753C541.996 135.722 542.022 135.654 542.022 135.603C542.003 135.114 542.028 134.624 542.098 134.139C542.141 133.782 542.213 133.428 542.313 133.082C542.431 132.606 542.601 132.145 542.821 131.707C543.011 131.317 543.259 130.958 543.556 130.641C543.693 130.502 543.81 130.332 543.947 130.2C544.29 129.872 544.673 129.588 545.086 129.355C545.427 129.175 545.783 129.025 546.149 128.906C546.365 128.837 546.586 128.782 546.809 128.741L547.088 128.68C547.174 128.665 547.273 128.721 547.341 128.627C547.341 128.627 547.379 128.627 547.397 128.627C547.679 128.673 547.945 128.551 548.224 128.563C548.503 128.576 548.792 128.563 549.077 128.563C549.196 128.563 549.29 128.652 549.417 128.629C549.533 128.591 549.658 128.591 549.774 128.629C549.896 128.706 550.01 128.647 550.122 128.683C550.578 128.822 551.048 128.936 551.494 129.109C551.986 129.315 552.444 129.596 552.851 129.941C553.203 130.238 553.514 130.579 553.777 130.956C553.963 131.209 554.107 131.496 554.285 131.752C554.396 131.936 554.481 132.134 554.538 132.341C554.607 132.534 554.663 132.734 554.729 132.929C554.795 133.125 554.812 133.335 554.896 133.531C554.939 133.668 554.959 133.812 554.954 133.957C555.012 134.354 555.042 134.755 555.043 135.157Z" fill="#633B93"/>
<path d="M640.228 133.597C640.271 133.267 640.144 132.947 640.167 132.62C640.164 132.582 640.157 132.544 640.144 132.508C640.098 132.373 640.067 132.234 640.053 132.092C640.053 131.808 639.908 131.547 639.926 131.26C639.842 131.06 639.781 130.85 639.746 130.636C639.672 130.433 639.627 130.22 639.558 130.015C639.424 129.575 639.26 129.146 639.068 128.728C638.772 128.074 638.427 127.443 638.036 126.841C637.756 126.401 637.442 125.984 637.097 125.593C636.663 125.104 636.194 124.647 635.694 124.226C635.441 124.012 635.162 123.802 634.883 123.609C634.25 123.178 633.58 122.807 632.879 122.5C632.382 122.282 631.874 122.09 631.356 121.925C630.816 121.772 630.268 121.648 629.715 121.554C629.439 121.503 629.157 121.503 628.88 121.44C628.712 121.426 628.542 121.426 628.373 121.44C628.208 121.44 628.043 121.382 627.881 121.387C627.453 121.375 627.024 121.389 626.597 121.43C626.273 121.481 625.94 121.496 625.613 121.557C625.257 121.617 624.905 121.701 624.56 121.81C624.076 121.96 623.602 122.142 623.142 122.356C622.621 122.601 622.118 122.884 621.638 123.203C621.415 123.358 621.204 123.528 620.981 123.678C620.823 123.796 620.673 123.924 620.532 124.061C620.372 124.177 620.224 124.308 620.088 124.451C619.992 124.575 619.89 124.694 619.781 124.806C619.611 124.969 619.466 125.155 619.35 125.359C619.315 125.41 619.271 125.453 619.22 125.486C619.196 125.501 619.167 125.506 619.139 125.502C619.139 125.502 619.114 125.474 619.114 125.456C619.114 125.395 619.114 125.334 619.114 125.273C619.114 124.556 619.114 123.837 619.114 123.114C619.113 122.96 619.074 122.808 619 122.673C618.913 122.48 618.769 122.318 618.586 122.211C618.405 122.101 618.199 122.042 617.987 122.039C616.232 122.039 614.477 122.039 612.723 122.039C612.589 122.035 612.455 122.059 612.33 122.109C612.205 122.159 612.091 122.233 611.995 122.328C611.879 122.436 611.786 122.567 611.722 122.712C611.657 122.857 611.624 123.014 611.622 123.173C611.622 128.666 611.622 134.162 611.622 139.662V156.169C611.615 156.23 611.615 156.291 611.622 156.352C611.636 156.584 611.735 156.804 611.899 156.968C611.985 157.037 612.054 157.128 612.137 157.202C612.192 157.256 612.258 157.296 612.33 157.321C612.481 157.358 612.634 157.38 612.789 157.384C614.748 157.384 616.704 157.384 618.662 157.384C618.811 157.386 618.959 157.356 619.096 157.296C619.233 157.235 619.355 157.146 619.454 157.034C619.662 156.807 619.777 156.509 619.776 156.2C619.776 152.765 619.776 149.33 619.776 145.895C619.776 145.814 619.776 145.733 619.776 145.641C619.776 145.616 619.794 145.578 619.814 145.573C619.834 145.568 619.882 145.573 619.89 145.598C619.97 145.765 620.083 145.913 620.222 146.035C620.672 146.549 621.183 147.007 621.744 147.397C622.108 147.655 622.497 147.873 622.906 148.049C623.283 148.222 623.675 148.358 624.078 148.455C624.291 148.497 624.502 148.552 624.707 148.622C624.924 148.687 625.145 148.742 625.367 148.785C625.743 148.873 626.124 148.933 626.509 148.965C626.933 149.019 627.361 149.045 627.79 149.041C628.213 149.018 628.642 149.041 629.058 149.041C629.119 149.041 629.193 149.064 629.241 149.041C629.464 148.916 629.73 149.053 629.951 148.922C630.137 148.934 630.324 148.91 630.502 148.851C630.626 148.841 630.749 148.821 630.869 148.79C631.123 148.696 631.4 148.658 631.656 148.559C631.998 148.429 632.361 148.346 632.688 148.186C633.253 147.923 633.799 147.62 634.322 147.28C634.785 146.976 635.223 146.637 635.634 146.266C636.05 145.887 636.442 145.483 636.808 145.055C637.1 144.703 637.371 144.338 637.64 143.967C637.952 143.525 638.231 143.062 638.475 142.579C638.645 142.257 638.797 141.925 638.942 141.588C639.086 141.25 639.216 140.89 639.35 140.542C639.459 140.261 639.538 139.969 639.627 139.682C639.715 139.396 639.784 139.023 639.895 138.701C639.949 138.548 639.895 138.356 639.974 138.216C640.053 138.077 639.959 137.858 640.086 137.709C640.121 137.422 640.174 137.13 640.192 136.846C640.21 136.562 640.271 136.237 640.268 135.93C640.268 135.535 640.268 135.139 640.268 134.743C640.268 134.347 640.35 133.98 640.228 133.597ZM632.13 135.938C632.074 136.288 632.044 136.641 631.968 136.991C631.901 137.305 631.817 137.615 631.714 137.919C631.586 138.302 631.415 138.67 631.207 139.015C631.009 139.324 630.794 139.621 630.562 139.906C630.237 140.309 629.844 140.653 629.401 140.92C628.967 141.203 628.493 141.418 627.995 141.56C627.713 141.648 627.425 141.714 627.133 141.758C626.967 141.756 626.803 141.777 626.643 141.818C626.492 141.863 626.333 141.879 626.176 141.864C626.006 141.864 625.831 141.864 625.669 141.864C625.507 141.864 625.364 141.864 625.212 141.864C624.916 141.867 624.619 141.844 624.327 141.793C624.015 141.763 623.709 141.685 623.421 141.562C623.139 141.536 622.866 141.449 622.62 141.309C622.36 141.196 622.111 141.062 621.874 140.908C621.406 140.607 620.988 140.235 620.633 139.807C620.263 139.36 619.961 138.861 619.738 138.325C619.581 137.973 619.458 137.606 619.372 137.229C619.324 136.976 619.281 136.74 619.241 136.494C619.208 136.296 619.241 136.095 619.185 135.91C619.131 135.587 619.114 135.258 619.134 134.931C619.134 134.654 619.235 134.386 619.192 134.104C619.319 133.959 619.22 133.769 619.304 133.597C619.388 133.424 619.327 133.264 619.383 133.115C619.458 132.843 619.55 132.576 619.657 132.315C619.748 132.13 619.811 131.935 619.91 131.752C620.121 131.342 620.382 130.96 620.689 130.616C620.801 130.491 620.895 130.362 621.014 130.235C621.528 129.73 622.138 129.331 622.807 129.063C623.174 128.897 623.562 128.78 623.959 128.713C624.256 128.673 624.558 128.64 624.849 128.586C625.271 128.542 625.695 128.528 626.118 128.543C626.263 128.552 626.407 128.571 626.549 128.599C626.694 128.614 626.846 128.561 626.978 128.66C627.412 128.704 627.839 128.807 628.246 128.964C628.592 129.087 628.926 129.241 629.243 129.426C629.762 129.73 630.226 130.12 630.613 130.58C630.861 130.847 631.071 131.147 631.237 131.471C631.353 131.665 631.455 131.868 631.542 132.077C631.613 132.288 631.712 132.491 631.795 132.704C631.859 132.874 631.887 133.051 631.935 133.211C631.983 133.371 632.008 133.548 632.041 133.718C632.045 133.902 632.066 134.086 632.102 134.266C632.147 134.438 632.163 134.617 632.148 134.794C632.163 134.987 632.148 135.18 632.148 135.372C632.158 135.561 632.153 135.75 632.13 135.938Z" fill="#633B93"/>
<path d="M676.494 135.608C676.494 135.337 676.494 135.063 676.494 134.789C676.494 134.515 676.431 134.236 676.444 133.962C676.459 133.622 676.347 133.292 676.375 132.947C676.375 132.927 676.375 132.896 676.375 132.889C676.263 132.787 676.34 132.658 676.317 132.546C676.294 132.435 676.274 132.32 676.258 132.206C676.25 132.035 676.226 131.866 676.187 131.699C676.132 131.534 676.121 131.364 676.076 131.192C676.03 131.019 675.997 130.839 675.951 130.664C675.88 130.41 675.807 130.139 675.731 129.875C675.655 129.611 675.558 129.368 675.477 129.132C675.351 128.759 675.204 128.394 675.036 128.038C674.782 127.531 674.503 127.039 674.204 126.557C673.773 125.908 673.293 125.294 672.768 124.72C672.688 124.631 672.603 124.546 672.514 124.466C672.428 124.39 672.324 124.335 672.245 124.253C671.893 123.928 671.51 123.637 671.101 123.386C670.785 123.159 670.452 122.958 670.104 122.785C669.85 122.67 669.622 122.531 669.366 122.434C669.11 122.338 668.785 122.216 668.498 122.105C667.845 121.881 667.177 121.703 666.499 121.572C666.352 121.536 666.192 121.557 666.037 121.514C665.883 121.47 665.733 121.498 665.576 121.455C665.415 121.434 665.253 121.43 665.091 121.443C664.926 121.443 664.764 121.392 664.599 121.387C664.305 121.387 664.011 121.402 663.719 121.387C663.427 121.372 663.13 121.463 662.831 121.458C662.524 121.452 662.218 121.474 661.915 121.524C661.761 121.523 661.607 121.545 661.458 121.587C661.309 121.673 661.154 121.587 661.007 121.681C660.86 121.775 660.677 121.709 660.525 121.765C660.373 121.821 660.246 121.818 660.109 121.856L659.371 122.056C658.999 122.158 658.633 122.28 658.275 122.422C657.988 122.536 657.704 122.658 657.417 122.774C657.131 122.891 656.91 123.013 656.656 123.132C656.392 123.25 656.138 123.388 655.895 123.546C655.555 123.776 655.205 123.995 654.88 124.238C654.457 124.535 654.056 124.863 653.681 125.22C653.308 125.557 652.96 125.92 652.638 126.306C652.478 126.514 652.308 126.714 652.146 126.922C651.777 127.405 651.443 127.914 651.146 128.444C651.002 128.698 650.877 128.952 650.753 129.223C650.629 129.494 650.522 129.779 650.398 130.047C650.212 130.489 650.058 130.943 649.939 131.407C649.821 131.831 649.736 132.264 649.685 132.701C649.683 132.865 649.661 133.029 649.622 133.188C649.585 133.331 649.568 133.477 649.571 133.624C649.543 133.767 649.523 133.911 649.513 134.056C649.513 134.52 649.513 134.987 649.513 135.453C649.489 135.923 649.506 136.393 649.566 136.859C649.617 137.113 649.581 137.366 649.642 137.62C649.703 137.874 649.754 138.163 649.802 138.432C649.85 138.701 649.964 139.018 650.028 139.315C650.086 139.541 650.157 139.765 650.241 139.984C650.393 140.438 650.596 140.872 650.786 141.311C650.864 141.429 650.93 141.555 650.981 141.686C651.037 141.827 651.112 141.96 651.205 142.08C651.301 142.252 651.38 142.435 651.489 142.587C651.833 143.122 652.206 143.637 652.607 144.129C652.818 144.383 653.062 144.604 653.275 144.855C653.42 145.003 653.575 145.141 653.739 145.268C653.916 145.426 654.081 145.596 654.269 145.748C654.59 146.012 654.924 146.26 655.271 146.491C655.644 146.745 656.02 146.983 656.408 147.199C656.735 147.379 657.088 147.514 657.422 147.676C657.821 147.869 658.237 148.013 658.65 148.168C658.899 148.278 659.158 148.363 659.424 148.422C659.822 148.485 660.185 148.675 660.599 148.675C660.861 148.764 661.132 148.822 661.408 148.848C661.539 148.881 661.672 148.904 661.806 148.916C661.953 148.932 662.103 148.894 662.237 148.98C662.524 148.979 662.811 148.998 663.095 149.038C663.48 149.051 663.856 149.038 664.252 149.038C664.64 149.056 665.029 149.038 665.413 148.985C665.692 148.929 665.987 148.962 666.266 148.909C666.411 148.898 666.555 148.878 666.697 148.848C666.862 148.79 667.032 148.782 667.204 148.736C667.377 148.691 667.537 148.655 667.712 148.612C667.978 148.544 668.245 148.48 668.508 148.404C669.063 148.23 669.609 148.027 670.142 147.795C670.596 147.615 671.034 147.397 671.451 147.143C671.847 146.889 672.25 146.659 672.628 146.382C673.043 146.075 673.436 145.741 673.805 145.38C673.889 145.296 673.985 145.228 674.074 145.152C674.12 145.114 674.183 145.081 674.206 145.033C674.285 144.895 674.388 144.773 674.51 144.672C674.604 144.587 674.679 144.483 674.728 144.366C674.778 144.25 674.801 144.124 674.797 143.998C674.798 143.846 674.763 143.696 674.695 143.561C674.626 143.425 674.527 143.308 674.404 143.219C674.115 143.008 673.823 142.808 673.539 142.592C673.346 142.448 673.146 142.313 672.953 142.171L672.192 141.603C671.938 141.407 671.667 141.21 671.4 141.017C671.134 140.824 670.865 140.639 670.606 140.441C670.361 140.218 670.042 140.094 669.711 140.093C669.408 140.096 669.118 140.217 668.904 140.431C668.488 140.889 668.029 141.307 667.534 141.679C667.289 141.856 667.035 142.02 666.773 142.171C666.516 142.307 666.249 142.423 665.974 142.519C665.493 142.675 664.998 142.781 664.495 142.836C664.313 142.848 664.13 142.848 663.947 142.836C663.764 142.836 663.582 142.836 663.399 142.836C663.222 142.854 663.042 142.842 662.869 142.8C662.707 142.734 662.514 142.82 662.362 142.716C662.067 142.691 661.779 142.62 661.507 142.506C661.088 142.362 660.689 142.167 660.319 141.925C660.172 141.831 660.038 141.719 659.896 141.623C659.754 141.527 659.604 141.298 659.388 141.204C659.361 141.191 659.339 141.169 659.325 141.141C659.198 140.932 659.042 140.742 658.861 140.578C658.683 140.351 658.523 140.111 658.381 139.86C658.204 139.539 658.046 139.209 657.907 138.871C657.795 138.617 657.772 138.323 657.653 138.064C657.634 137.996 657.634 137.924 657.653 137.856C657.659 137.84 657.668 137.826 657.681 137.815C657.693 137.804 657.708 137.796 657.724 137.792C657.805 137.792 657.887 137.792 657.978 137.792H666.525C669.173 137.792 671.82 137.792 674.465 137.792C674.833 137.812 675.203 137.796 675.568 137.744C675.781 137.696 675.979 137.597 676.144 137.455C676.275 137.329 676.372 137.173 676.428 137.001C676.498 136.83 676.531 136.647 676.525 136.463C676.487 136.176 676.494 135.892 676.494 135.608ZM668.336 132.14C668.326 132.167 668.312 132.192 668.292 132.214C668.273 132.235 668.25 132.252 668.224 132.265C668.153 132.274 668.082 132.274 668.011 132.265H657.915C657.83 132.277 657.745 132.277 657.661 132.265C657.608 132.249 657.529 132.201 657.572 132.107C657.595 132.066 657.611 132.022 657.62 131.975C657.664 131.355 657.837 130.75 658.128 130.2C658.388 129.653 658.754 129.164 659.206 128.761C659.704 128.33 660.264 127.976 660.867 127.711C661.164 127.591 661.467 127.49 661.776 127.407C661.895 127.369 662.029 127.429 662.141 127.333C662.428 127.351 662.707 127.239 662.998 127.267C663.219 127.29 663.442 127.267 663.666 127.267C663.921 127.264 664.176 127.287 664.427 127.336C664.716 127.412 665.005 127.498 665.289 127.589C665.71 127.76 666.109 127.981 666.476 128.249C666.66 128.396 666.829 128.559 666.984 128.736C667.281 129.029 667.531 129.367 667.727 129.735C667.888 130.022 668.015 130.327 668.105 130.644C668.151 130.809 668.184 130.978 668.222 131.151C668.251 131.283 668.268 131.417 668.275 131.552C668.275 131.686 668.316 131.821 668.333 131.953C668.349 132.014 668.35 132.078 668.336 132.14Z" fill="#633B93"/>
<path d="M588.446 135.238C588.446 139.099 588.446 142.96 588.446 146.821C588.439 147.124 588.347 147.419 588.182 147.673C588.016 147.927 587.782 148.129 587.507 148.257C587.365 148.311 587.219 148.353 587.071 148.384C586.646 148.441 586.216 148.458 585.787 148.434C585.361 148.434 584.935 148.434 584.519 148.434C583.93 148.434 583.342 148.434 582.743 148.434C582.456 148.439 582.17 148.415 581.888 148.361C581.704 148.329 581.53 148.254 581.381 148.143C581.142 147.976 580.945 147.757 580.802 147.503C580.708 147.326 580.655 147.129 580.648 146.928C580.648 146.291 580.648 145.659 580.648 145.012C580.653 144.963 580.653 144.914 580.648 144.865C580.637 144.856 580.625 144.85 580.612 144.846C580.599 144.843 580.585 144.842 580.571 144.845C580.533 144.875 580.5 144.912 580.475 144.954C580.308 145.223 580.107 145.461 579.927 145.73C579.644 146.114 579.326 146.471 578.976 146.796C578.732 147.018 578.472 147.222 578.197 147.405C577.846 147.666 577.47 147.893 577.076 148.082C576.8 148.223 576.513 148.341 576.218 148.434C576.041 148.488 575.873 148.579 575.688 148.625C575.39 148.72 575.088 148.799 574.782 148.863C574.503 148.901 574.224 148.934 573.95 148.988C573.614 149.03 573.275 149.046 572.936 149.036C572.654 149.036 572.37 149.036 572.086 149.036C571.708 149.036 571.325 149.008 570.954 148.97C570.833 148.94 570.709 148.922 570.584 148.916C570.447 148.916 570.33 148.833 570.183 148.848C570.058 148.85 569.933 148.828 569.815 148.785C569.386 148.689 568.963 148.568 568.547 148.424C568.113 148.246 567.689 148.042 567.278 147.815C566.971 147.643 566.695 147.415 566.401 147.219C566.06 146.971 565.753 146.679 565.487 146.352C565.201 146.065 564.963 145.733 564.782 145.37C564.741 145.295 564.693 145.222 564.64 145.154C564.472 144.882 564.396 144.563 564.425 144.244C564.447 144.027 564.507 143.816 564.602 143.62C564.737 143.33 564.894 143.051 565.008 142.755C565.122 142.458 565.221 142.171 565.345 141.892C565.571 141.385 565.695 140.859 565.871 140.345C565.971 140.029 566.05 139.707 566.109 139.381C566.16 139.127 566.216 138.873 566.254 138.619C566.253 138.475 566.274 138.331 566.317 138.193C566.388 138.051 566.317 137.907 566.373 137.79C566.415 137.67 566.433 137.544 566.429 137.417C566.429 137.272 566.469 137.13 566.487 136.986C566.481 136.849 566.499 136.713 566.538 136.582C566.562 136.453 566.562 136.321 566.538 136.192C566.509 135.96 566.509 135.726 566.538 135.494C566.603 135.246 566.615 134.986 566.573 134.733C566.51 134.314 566.548 133.896 566.522 133.48C566.492 133.348 566.471 133.214 566.462 133.079C566.491 132.943 566.47 132.801 566.403 132.678C566.415 132.452 566.392 132.225 566.335 132.006C566.318 131.816 566.285 131.627 566.236 131.443C566.196 131.314 566.172 131.181 566.165 131.047C566.133 130.8 566.081 130.557 566.008 130.319C565.957 130.03 565.858 129.751 565.789 129.467C565.719 129.204 565.634 128.944 565.536 128.69C565.381 128.239 565.186 127.802 564.998 127.364C564.868 127.062 564.731 126.762 564.574 126.473C564.417 126.184 564.194 125.841 564.011 125.519C563.872 125.27 563.716 125.03 563.544 124.801C563.476 124.71 563.43 124.601 563.359 124.515C563.143 124.239 563.034 123.893 563.055 123.543C563.055 123.289 563.07 123.036 563.055 122.782C563.052 122.651 563.088 122.522 563.159 122.412C563.23 122.302 563.333 122.215 563.453 122.163C563.592 122.075 563.755 122.032 563.92 122.039C565.817 122.039 567.713 122.039 569.607 122.039C569.907 122.041 570.201 122.129 570.452 122.292C570.785 122.487 571.027 122.805 571.127 123.178C571.192 123.379 571.229 123.588 571.238 123.799V132.305C571.238 133.663 571.238 135.022 571.238 136.379C571.238 136.778 571.307 137.171 571.307 137.572C571.307 137.719 571.368 137.874 571.358 138.031C571.487 138.14 571.386 138.307 571.469 138.444C571.553 138.581 571.495 138.754 571.545 138.899C571.714 139.435 571.953 139.947 572.256 140.421C572.51 140.79 572.833 141.106 573.207 141.352C573.508 141.564 573.856 141.699 574.222 141.745C574.295 141.745 574.366 141.788 574.44 141.801C574.513 141.813 574.595 141.78 574.666 141.854C574.696 141.884 574.78 141.854 574.841 141.854C575.257 141.854 575.673 141.854 576.089 141.854C576.193 141.841 576.296 141.821 576.398 141.796C576.495 141.783 576.619 141.816 576.688 141.768C576.756 141.719 576.921 141.798 576.987 141.674C577.296 141.629 577.593 141.524 577.862 141.364C578.244 141.175 578.588 140.917 578.877 140.603C579.083 140.398 579.259 140.164 579.397 139.908C579.529 139.67 579.645 139.423 579.744 139.17C579.808 138.982 579.879 138.8 579.937 138.609C579.975 138.415 580.027 138.224 580.095 138.039C580.129 137.908 580.149 137.775 580.155 137.64C580.211 137.387 580.193 137.11 580.229 136.846C580.348 135.984 580.27 135.119 580.285 134.256C580.3 133.394 580.285 132.513 580.285 131.643V126.43C580.285 125.56 580.285 124.687 580.285 123.815C580.268 123.487 580.346 123.162 580.511 122.878C580.621 122.683 580.769 122.513 580.948 122.378C581.126 122.243 581.331 122.145 581.548 122.092C581.687 122.058 581.829 122.041 581.972 122.041C583.613 122.041 585.257 122.041 586.898 122.041C587.097 122.037 587.294 122.074 587.476 122.151C587.659 122.228 587.824 122.343 587.959 122.488C588.052 122.563 588.137 122.648 588.212 122.741C588.372 122.982 588.46 123.262 588.466 123.551C588.453 127.451 588.446 131.346 588.446 135.238Z" fill="#633B93"/>
<path d="M591.488 135.23C591.488 131.247 591.488 127.265 591.488 123.282C591.481 123.041 591.545 122.804 591.673 122.599C591.766 122.433 591.901 122.295 592.065 122.197C592.228 122.1 592.414 122.047 592.604 122.044C594.58 122.044 596.557 122.044 598.535 122.044C598.744 122.034 598.95 122.088 599.127 122.198C599.304 122.308 599.444 122.469 599.527 122.66C599.603 122.805 599.644 122.966 599.646 123.13C599.646 124.073 599.646 125.014 599.646 125.958C599.646 126.027 599.646 126.1 599.646 126.169C599.649 126.182 599.654 126.194 599.661 126.205C599.668 126.216 599.678 126.225 599.69 126.232C599.717 126.232 599.744 126.222 599.766 126.204C599.791 126.187 599.812 126.165 599.827 126.138C600.02 125.748 600.246 125.375 600.501 125.022C600.725 124.692 600.965 124.373 601.222 124.068C601.422 123.847 601.615 123.617 601.833 123.414C602.435 122.832 603.134 122.359 603.898 122.016C604.245 121.869 604.604 121.752 604.971 121.666C605.196 121.633 605.417 121.578 605.631 121.501C605.64 121.499 605.65 121.499 605.659 121.501C605.75 121.501 605.841 121.501 605.933 121.501C606.024 121.501 606.08 121.437 606.151 121.445C606.47 121.478 606.78 121.369 607.1 121.379C607.419 121.389 607.726 121.379 608.041 121.379C608.201 121.379 608.34 121.468 608.502 121.445C608.665 121.431 608.827 121.431 608.99 121.445C609.251 121.49 609.498 121.594 609.713 121.75C609.914 121.97 610.035 122.253 610.055 122.551C610.045 124.264 610.045 125.977 610.055 127.688C610.039 127.916 609.96 128.136 609.825 128.32C609.69 128.505 609.506 128.648 609.294 128.733C609.099 128.69 608.926 128.865 608.703 128.754C608.517 128.693 608.322 128.67 608.127 128.685C607.99 128.685 607.873 128.596 607.726 128.614C607.579 128.632 607.445 128.67 607.325 128.558H605.775C605.643 128.673 605.489 128.607 605.344 128.619C605.217 128.615 605.091 128.634 604.971 128.675C604.86 128.726 604.718 128.657 604.596 128.728C604.474 128.799 604.317 128.759 604.17 128.797C603.634 128.909 603.118 129.096 602.635 129.352C602.252 129.558 601.898 129.814 601.582 130.113C601.31 130.358 601.072 130.638 600.874 130.946C600.737 131.199 600.593 131.433 600.473 131.691C600.324 132.019 600.22 132.359 600.103 132.706C600.061 132.821 600.029 132.94 600.009 133.061C599.996 133.242 599.955 133.42 599.887 133.589C599.887 133.604 599.887 133.63 599.887 133.65C599.883 133.885 599.861 134.12 599.821 134.353C599.766 134.578 599.809 134.812 599.758 135.025C599.721 135.351 599.702 135.678 599.702 136.007C599.586 136.938 599.664 137.874 599.649 138.797C599.634 139.72 599.649 140.702 599.649 141.656V147.308C599.652 147.489 599.606 147.668 599.517 147.825C599.428 147.982 599.298 148.113 599.142 148.204C598.909 148.358 598.639 148.446 598.36 148.457C596.516 148.457 594.672 148.457 592.825 148.457C592.693 148.457 592.571 148.381 592.457 148.394C592.343 148.407 592.224 148.31 592.109 148.275C591.989 148.226 591.88 148.151 591.79 148.057C591.701 147.962 591.632 147.85 591.589 147.727C591.538 147.594 591.504 147.455 591.488 147.313C591.483 147.263 591.483 147.212 591.488 147.161V135.23Z" fill="#633B93"/>
<path d="M647.653 130.375C647.653 136.365 647.653 142.355 647.653 148.346C647.663 148.579 647.598 148.81 647.468 149.005C647.338 149.2 647.15 149.348 646.93 149.429C646.79 149.493 646.638 149.529 646.484 149.533C644.568 149.533 642.651 149.533 640.735 149.533C640.501 149.544 640.269 149.479 640.075 149.347C639.88 149.216 639.733 149.026 639.655 148.805C639.6 148.672 639.57 148.53 639.566 148.386C639.566 148.062 639.566 147.737 639.566 147.412C639.577 147.287 639.596 147.164 639.624 147.042C639.638 146.918 639.659 146.795 639.688 146.674C639.751 146.448 639.842 146.23 639.903 146.002C639.999 145.739 640.116 145.484 640.253 145.241C640.403 144.955 640.573 144.681 640.761 144.419C640.918 144.165 641.073 143.899 641.235 143.642C641.481 143.234 641.701 142.81 641.895 142.374C642.039 142.059 642.181 141.742 642.303 141.418C642.488 140.936 642.64 140.443 642.81 139.954C642.874 139.756 642.919 139.553 642.973 139.35C643.026 139.147 643.069 138.926 643.14 138.721C643.178 138.609 643.14 138.5 643.204 138.381C643.255 138.225 643.28 138.061 643.277 137.896C643.292 137.792 643.318 137.688 643.338 137.587C643.358 137.485 643.297 137.387 643.391 137.303C643.407 137.288 643.391 137.244 643.391 137.217C643.366 136.877 643.498 136.547 643.452 136.202C643.521 135.819 643.541 135.43 643.511 135.043C643.511 134.657 643.511 134.271 643.511 133.886C643.511 133.731 643.465 133.579 643.455 133.424C643.468 133.274 643.464 133.122 643.442 132.972C643.386 132.795 643.427 132.615 643.384 132.447C643.303 132.13 643.333 131.795 643.209 131.488C643.183 130.981 642.955 130.507 642.904 130.002C642.678 129.535 642.587 129.023 642.379 128.546L641.938 127.531C641.844 127.315 641.72 127.115 641.621 126.902C641.517 126.69 641.401 126.484 641.273 126.285C641.156 126.079 641.029 125.878 640.893 125.684C640.72 125.453 640.553 125.217 640.385 124.979C640.1 124.557 639.881 124.094 639.736 123.606C639.676 123.384 639.631 123.158 639.601 122.929C639.548 122.381 639.533 121.83 639.556 121.28C639.54 120.722 639.556 120.164 639.556 119.606C639.556 117.226 639.556 114.844 639.556 112.462C639.554 112.246 639.606 112.032 639.706 111.84C639.806 111.647 639.951 111.482 640.129 111.359C640.278 111.257 640.456 111.206 640.636 111.214C642.399 111.209 644.155 111.209 645.9 111.209C646.083 111.209 646.266 111.224 646.446 111.209C646.766 111.209 647.075 111.321 647.321 111.526C647.453 111.78 647.648 112.003 647.648 112.335C647.648 118.349 647.65 124.362 647.653 130.375Z" fill="#633B93"/>
<path d="M665.573 124.679C665.527 124.517 665.489 124.349 665.451 124.184C665.388 123.931 665.309 123.677 665.01 123.573C664.993 123.566 664.978 123.556 664.964 123.545C664.978 123.533 664.995 123.522 665.012 123.515C665.161 123.463 665.291 123.369 665.385 123.243C665.467 123.129 665.512 122.993 665.515 122.852C665.517 122.712 665.477 122.574 665.4 122.457C665.321 122.352 665.218 122.267 665.1 122.209C664.982 122.151 664.852 122.121 664.72 122.122C664.271 122.08 663.819 122.095 663.373 122.168C663.292 122.188 663.257 122.193 663.257 122.287C663.257 122.693 663.257 123.099 663.257 123.504V124.598C663.257 124.852 663.257 124.852 663.51 124.852C663.642 124.852 663.764 124.852 663.903 124.852L663.926 124.435C663.926 124.364 663.926 124.293 663.926 124.222C663.926 124.093 663.926 123.969 663.947 123.837C664.096 123.818 664.247 123.818 664.396 123.837C664.473 123.842 664.547 123.872 664.607 123.923C664.666 123.973 664.706 124.042 664.723 124.118C664.761 124.321 664.845 124.514 664.895 124.715C664.898 124.736 664.904 124.757 664.914 124.776C664.925 124.796 664.939 124.813 664.956 124.826C664.973 124.84 664.993 124.85 665.013 124.856C665.034 124.862 665.056 124.864 665.078 124.862H665.474C665.623 124.852 665.621 124.852 665.573 124.679ZM664.776 123.157C664.69 123.253 664.574 123.317 664.446 123.337C664.397 123.343 664.346 123.343 664.297 123.337L663.939 123.314C663.939 123.195 663.939 123.076 663.919 122.959C663.919 122.87 663.919 122.779 663.919 122.688C663.918 122.668 663.922 122.649 663.929 122.631C663.937 122.613 663.948 122.596 663.962 122.583C663.976 122.569 663.993 122.559 664.011 122.552C664.029 122.545 664.049 122.542 664.068 122.543C664.234 122.533 664.399 122.551 664.558 122.599C664.615 122.611 664.669 122.637 664.714 122.675C664.759 122.713 664.793 122.761 664.815 122.815C664.836 122.87 664.844 122.929 664.838 122.987C664.831 123.046 664.81 123.101 664.776 123.149V123.157Z" fill="#633B93"/>
<path d="M681.981 124.177C681.415 120.816 675.86 121.785 676.555 125.162C677.001 128.741 682.798 127.749 681.981 124.177ZM681.362 124.799C681.253 127.572 677.207 127.417 677.164 124.715C677.237 121.917 681.431 121.975 681.362 124.799Z" fill="#633B93"/>
<path d="M665.573 124.679C665.527 124.517 665.489 124.349 665.451 124.184C665.388 123.931 665.309 123.677 665.01 123.573C664.993 123.566 664.978 123.556 664.964 123.545C664.978 123.533 664.995 123.522 665.012 123.515C665.161 123.463 665.291 123.369 665.385 123.243C665.467 123.129 665.512 122.993 665.515 122.852C665.517 122.712 665.477 122.574 665.4 122.457C665.321 122.352 665.218 122.267 665.1 122.209C664.982 122.151 664.852 122.121 664.72 122.122C664.271 122.08 663.819 122.095 663.373 122.168C663.292 122.188 663.257 122.193 663.257 122.287C663.257 122.693 663.257 123.099 663.257 123.504V124.598C663.257 124.852 663.257 124.852 663.51 124.852C663.642 124.852 663.764 124.852 663.903 124.852L663.926 124.435C663.926 124.364 663.926 124.293 663.926 124.222C663.926 124.093 663.926 123.969 663.947 123.837C664.096 123.818 664.247 123.818 664.396 123.837C664.473 123.842 664.547 123.872 664.607 123.923C664.666 123.973 664.706 124.042 664.723 124.118C664.761 124.321 664.845 124.514 664.895 124.715C664.898 124.736 664.904 124.757 664.914 124.776C664.925 124.796 664.939 124.813 664.956 124.826C664.973 124.84 664.993 124.85 665.013 124.856C665.034 124.862 665.056 124.864 665.078 124.862H665.474C665.623 124.852 665.621 124.852 665.573 124.679ZM664.776 123.157C664.69 123.253 664.574 123.317 664.446 123.337C664.397 123.343 664.346 123.343 664.297 123.337L663.939 123.314C663.939 123.195 663.939 123.076 663.919 122.959C663.919 122.87 663.919 122.779 663.919 122.688C663.918 122.668 663.922 122.649 663.929 122.631C663.937 122.613 663.948 122.596 663.962 122.583C663.976 122.569 663.993 122.559 664.011 122.552C664.029 122.545 664.049 122.542 664.068 122.543C664.234 122.533 664.399 122.551 664.558 122.599C664.615 122.611 664.669 122.637 664.714 122.675C664.759 122.713 664.793 122.761 664.815 122.815C664.836 122.87 664.844 122.929 664.838 122.987C664.831 123.046 664.81 123.101 664.776 123.149V123.157Z" fill="#633B93"/>
<path d="M665.573 124.679C665.436 124.258 665.469 123.715 664.964 123.545C664.978 123.533 664.995 123.522 665.012 123.515C665.161 123.463 665.291 123.369 665.385 123.243C665.467 123.129 665.512 122.993 665.515 122.852C665.517 122.712 665.477 122.574 665.4 122.457C665.321 122.352 665.218 122.267 665.1 122.209C664.982 122.151 664.852 122.121 664.72 122.122C664.271 122.08 663.819 122.095 663.373 122.168C663.292 122.188 663.257 122.193 663.257 122.287C663.257 122.693 663.257 123.099 663.257 123.504V124.598C663.257 124.852 663.257 124.852 663.51 124.852C663.642 124.852 663.764 124.852 663.903 124.852L663.926 124.435C663.926 124.235 663.926 124.037 663.947 123.837C664.096 123.818 664.247 123.818 664.396 123.837C664.473 123.842 664.547 123.872 664.607 123.923C664.666 123.973 664.706 124.042 664.723 124.118C664.761 124.321 664.845 124.514 664.895 124.715C664.959 124.968 665.284 124.826 665.474 124.862C665.623 124.852 665.621 124.852 665.573 124.679ZM664.776 123.157C664.717 123.224 664.642 123.275 664.559 123.307C664.475 123.339 664.385 123.35 664.297 123.34L663.939 123.314C663.939 123.195 663.939 123.076 663.919 122.959C663.919 122.87 663.919 122.779 663.919 122.688C663.918 122.668 663.922 122.649 663.929 122.631C663.937 122.613 663.948 122.596 663.962 122.583C663.976 122.569 663.993 122.559 664.011 122.552C664.029 122.545 664.049 122.542 664.068 122.543C664.446 122.502 665.055 122.683 664.776 123.149V123.157Z" fill="#633B93"/>
<g filter="url(#filter6_d)">
<rect x="16" y="56" width="186.5" height="186.5" rx="10.507" fill="white" fill-opacity="0.35"/>
</g>
<path d="M90.9673 166.418H92.4146V170.074H95.8426V166.418H97.2899V175.127H95.8426V171.446H92.4146V175.127H90.9673C90.9673 175.153 90.9673 166.418 90.9673 166.418Z" fill="#3E3935"/>
<path d="M99.321 170.862V170.76C99.321 168.17 100.921 166.316 103.206 166.316C105.466 166.316 107.04 168.17 107.04 170.76V170.862C107.04 173.452 105.441 175.305 103.155 175.305C100.895 175.305 99.321 173.452 99.321 170.862ZM105.517 170.836V170.76C105.517 168.881 104.526 167.611 103.155 167.611C101.784 167.611 100.794 168.83 100.794 170.709V170.785C100.794 172.664 101.784 173.934 103.155 173.934C104.577 173.934 105.517 172.715 105.517 170.836Z" fill="#3E3935"/>
<path d="M109.224 166.418H110.748L113.008 170.405L115.217 166.418H116.74V175.127H115.293V168.957L112.957 172.995H112.931L110.646 169.008V175.127H109.25V166.418H109.224Z" fill="#3E3935"/>
<path d="M119.787 166.418H125.272V167.713H121.209V170.074H124.789V171.369H121.209V173.807H125.348V175.102H119.813V166.418H119.787Z" fill="#3E3935"/>
<path d="M127.278 174.01L128.166 172.944C128.827 173.528 129.537 173.985 130.452 173.985C131.29 173.985 131.823 173.553 131.823 172.868C131.823 172.309 131.518 171.954 130.172 171.471C128.522 170.836 127.658 170.252 127.658 168.856V168.83C127.658 167.383 128.801 166.393 130.426 166.393C131.416 166.393 132.381 166.723 133.169 167.434L132.356 168.551C131.772 168.069 131.112 167.738 130.401 167.738C129.614 167.738 129.157 168.17 129.157 168.729C129.157 169.364 129.487 169.643 130.959 170.252C132.585 170.887 133.321 171.547 133.321 172.791V172.817C133.321 174.34 132.127 175.331 130.502 175.331C129.309 175.255 128.242 174.848 127.278 174.01Z" fill="#3E3935"/>
<path d="M137.003 167.764H134.718V166.418H140.735V167.738H138.45V175.077H137.003V167.764Z" fill="#3E3935"/>
<path d="M141.65 170.862V170.76C141.65 168.17 143.249 166.316 145.535 166.316C147.795 166.316 149.369 168.17 149.369 170.76V170.862C149.369 173.452 147.769 175.305 145.484 175.305C143.224 175.305 141.65 173.452 141.65 170.862ZM147.896 170.836V170.76C147.896 168.881 146.906 167.611 145.535 167.611C144.163 167.611 143.173 168.83 143.173 170.709V170.785C143.173 172.664 144.163 173.934 145.535 173.934C146.88 173.934 147.896 172.715 147.896 170.836Z" fill="#3E3935"/>
<path d="M151.172 166.418H154.32C155.311 166.418 156.123 166.723 156.656 167.231C157.088 167.662 157.393 168.348 157.393 169.16V169.186C157.393 170.506 156.656 171.369 155.59 171.725L157.647 175.077H155.996L154.142 171.979H154.066H152.67V175.051H151.222V166.418H151.172ZM154.193 170.785C155.311 170.785 155.92 170.201 155.92 169.262V169.236C155.92 168.246 155.285 167.764 154.193 167.764H152.594V170.785H154.193Z" fill="#3E3935"/>
<path d="M159.957 166.418H165.417V167.713H161.354V170.074H164.934V171.369H161.354V173.807H165.493V175.102H159.957V166.418Z" fill="#3E3935"/>
<path d="M178.874 142.524V144.302H181.566L177.579 154.611L173.364 144.302H175.573V142.524H166.534V144.302H168.057L174.964 161.213C174.05 163.65 173.516 164.564 172.425 166.012C171.384 167.307 170.647 168.018 169.174 169.008L171.866 171.37C172.171 170.989 172.425 170.659 172.602 170.405C173.974 168.526 175.472 165.606 176.564 162.787L183.699 144.327H185.425V142.55H178.9L178.874 142.524Z" fill="#3E3935"/>
<path d="M157.443 162.406C151.73 162.406 147.947 158.343 147.947 152.325C147.947 146.155 151.832 142.067 157.697 142.067C162.649 142.067 165.924 145.14 165.924 149.812V151.437H153.203C153.203 156.718 155.615 159.994 159.398 159.994C160.998 159.994 161.861 159.613 165.315 157.81L166.102 159.588C161.912 161.924 160.414 162.406 157.443 162.406ZM160.643 148.263C160.643 145.724 159.424 143.895 157.646 143.895C155.386 143.895 153.584 146.028 153.203 149.253H160.617V148.263H160.643Z" fill="#3E3935"/>
<path d="M96.2484 160.07L86.3201 132.85H83.8825L73.5479 160.07H71.8975V161.847H78.0169V160.07H76.1633L78.7533 153.163H88.4531L90.9161 160.07H89.7227V161.847H97.9497V160.07H96.2484ZM79.7182 150.573L83.7809 139.934L87.5897 150.573H79.7182Z" fill="#3E3935"/>
<path d="M107.878 150.142C103.384 148.364 102.673 147.857 102.673 146.257C102.673 144.809 103.892 143.845 105.745 143.845C107.878 143.845 110.214 145.063 110.24 146.663C110.24 146.841 110.24 147.095 110.214 147.323H112.322L112.626 142.524H110.519L110.494 143.438C109.275 142.397 107.802 141.991 105.72 141.991C101.632 141.991 98.9148 144.327 98.9148 147.857C98.9148 150.853 100.464 152.554 104.577 154.128C108.742 155.728 109.833 156.566 109.833 158.267C109.833 159.638 108.538 160.527 106.507 160.527C103.841 160.527 101.479 158.978 101.479 157.277V156.439H99.1433V161.797H101.2V160.654C102.495 161.797 104.222 162.355 106.71 162.355C111.001 162.355 113.464 160.172 113.464 156.439C113.49 153.417 112.068 151.792 107.878 150.142Z" fill="#3E3935"/>
<path d="M134.21 147.374C134.21 143.946 132.254 142.067 128.674 142.067C125.983 142.067 124.51 142.854 121.742 145.647V129.955H120.422L114.835 131.809V133.535H116.765V160.07H114.81V161.848H123.672V160.07H121.742V147.882C124.561 145.216 125.246 144.809 126.922 144.809C128.649 144.809 129.258 145.622 129.258 148.161V160.07H127.303V161.848H136.139V160.07H134.21V147.374Z" fill="#3E3935"/>
<path d="M144.9 160.07V129.93H143.706L138.171 131.758V133.51H139.897V160.07H137.993V161.848H146.804V160.07H144.9Z" fill="#3E3935"/>
<path d="M69.0029 143.616L51.0508 125.511C51.0254 125.486 51.0254 125.486 50.9746 125.511L33.0732 143.616V143.641V161.822C33.0732 161.847 33.0986 161.847 33.0986 161.847H68.9522C68.9776 161.847 68.9776 161.822 68.9776 161.822L69.0029 143.616ZM63.8992 156.312C63.8992 156.642 63.823 156.744 63.4929 156.744H38.4817C38.1009 156.744 38.1009 156.439 38.1009 156.337V146.257C38.1009 145.749 38.1009 145.698 38.431 145.368C38.7611 145.038 50.3906 133.332 50.5176 133.18C50.6953 132.951 50.8477 132.875 50.9492 132.875C51.1016 132.875 51.2031 132.977 51.3555 133.129C51.6856 133.459 63.4675 145.343 63.5691 145.47C63.7976 145.698 63.7976 145.774 63.7976 146.028V156.287H63.8992V156.312Z" fill="#FA8D29"/>
<path d="M183.8 161.543C183.47 161.873 183.064 162.025 182.607 162.025C182.124 162.025 181.718 161.873 181.388 161.543C181.058 161.213 180.906 160.806 180.906 160.324C180.906 159.816 181.083 159.41 181.413 159.08C181.743 158.775 182.15 158.597 182.607 158.597C183.089 158.597 183.496 158.775 183.826 159.105C184.156 159.435 184.333 159.841 184.333 160.324C184.308 160.806 184.13 161.213 183.8 161.543ZM181.566 159.334C181.312 159.638 181.159 159.918 181.159 160.324C181.159 160.73 181.312 161.06 181.566 161.314C181.82 161.568 182.15 161.721 182.556 161.721C182.937 161.721 183.267 161.568 183.546 161.314C183.8 161.01 183.953 160.679 183.953 160.324C183.953 159.943 183.8 159.613 183.546 159.334C183.242 159.029 182.911 158.902 182.556 158.902C182.201 158.927 181.87 159.08 181.566 159.334ZM181.82 161.289V159.41H182.327H182.734C182.886 159.41 182.988 159.435 183.115 159.511C183.292 159.588 183.369 159.765 183.369 159.943C183.369 160.095 183.343 160.197 183.216 160.273C183.14 160.349 183.038 160.375 182.886 160.375C182.988 160.4 183.115 160.451 183.14 160.476C183.242 160.552 183.318 160.705 183.318 160.883V161.06V161.136V161.213V161.238H182.835C182.835 161.162 182.81 161.086 182.81 160.984C182.81 160.883 182.81 160.806 182.785 160.756C182.759 160.679 182.708 160.654 182.632 160.603C182.607 160.603 182.531 160.578 182.454 160.578H182.353H182.251V161.238H181.82V161.289ZM182.759 159.791C182.683 159.765 182.607 159.765 182.454 159.765H182.353V160.324H182.531C182.632 160.324 182.759 160.299 182.785 160.248C182.861 160.222 182.886 160.146 182.886 160.019C182.911 159.892 182.835 159.816 182.759 159.791Z" fill="#3E3935"/>
<rect x="168" y="189" width="248" height="144.84" rx="8.34969" fill="white" fill-opacity="0.55"/>
<path d="M385.066 250.002C383.989 245.971 375.711 236.77 369.679 229.323C369.556 229.2 369.218 228.615 368.51 228.615C367.925 228.615 367.433 229.2 367.679 229.692C367.925 230.154 373.71 242.217 372.633 246.125C371.556 250.156 366.263 249.325 365.432 249.325C364.971 249.325 365.309 249.695 365.802 250.156C368.756 252.772 370.664 256.434 370.664 261.142V264.681C370.664 264.804 370.664 264.804 370.787 264.804C377.526 264.189 387.804 260.065 385.066 250.002Z" fill="#64A421"/>
<path d="M358.939 273.297C358.939 276.713 354.323 278.621 351.369 278.621C348.169 278.621 343.676 276.744 343.676 273.297V261.234C343.676 257.819 348.169 256.28 351.369 256.28C354.323 256.28 358.939 257.942 358.939 261.234V273.297ZM351.369 248.71C344.261 248.833 335.983 252.833 335.983 261.111V273.759C335.983 282.16 344.261 286.161 351.369 286.161C358.355 286.037 366.633 282.129 366.633 273.759V261.234C366.633 252.957 358.355 248.833 351.369 248.71Z" fill="#64A421"/>
<path d="M305.517 273.297C305.517 276.713 300.901 278.621 297.947 278.621C294.747 278.621 290.254 276.744 290.254 273.297V261.234C290.254 257.819 294.747 256.28 297.947 256.28C300.901 256.28 305.517 257.942 305.517 261.234V273.297ZM297.824 248.71C290.715 248.833 282.438 252.833 282.438 261.111V273.759C282.438 282.16 290.715 286.161 297.824 286.161C304.809 286.037 313.087 282.129 313.087 273.759V261.234C313.057 252.957 304.779 248.833 297.824 248.71Z" fill="#64A421"/>
<path d="M220.707 250.125C221.169 249.664 221.538 249.295 221.076 249.295C220.245 249.295 214.922 250.125 213.875 246.094C212.829 242.063 218.614 230.123 218.83 229.661C218.953 229.2 218.584 228.584 217.876 228.584C217.291 228.584 216.799 229.292 216.706 229.292C210.798 236.739 202.397 245.971 201.32 249.972C198.612 260.034 209.136 264.158 215.752 264.866C215.876 264.866 215.876 264.743 215.876 264.743V261.204C215.999 256.403 217.753 252.71 220.707 250.125Z" fill="#64A421"/>
<path d="M281.976 251.541C276.313 250.002 272.159 249.418 266.004 249.418C259.973 249.418 255.726 250.002 250.033 251.541C249.787 251.664 249.664 251.91 249.787 252.003C251.664 253.664 252.495 255.788 252.864 258.157C255.942 257.449 258.773 256.988 262.096 256.742V285.945C262.096 286.068 262.219 286.068 262.342 286.068H269.666C269.79 286.068 269.913 286.068 269.913 285.945V256.742C273.113 256.988 275.698 257.326 278.775 258.157C279.237 255.788 280.191 253.541 282.191 252.003C282.222 251.787 282.099 251.541 281.976 251.541Z" fill="#64A421"/>
<path d="M336.26 249.048C335.675 248.925 334.137 248.679 332.721 248.802C325.736 249.048 317.827 253.172 317.827 261.204V261.911V273.851V286.161C317.827 286.284 317.95 286.284 318.073 286.284H325.397C325.52 286.284 325.643 286.284 325.643 286.161V285.453V261.204C325.643 258.496 328.967 256.957 331.675 256.341C332.506 253.726 334.044 251.726 336.414 249.848C336.722 249.541 336.598 249.048 336.26 249.048Z" fill="#64A421"/>
<path d="M241.878 263.358C241.878 263.481 241.878 263.481 241.755 263.604C241.755 263.727 241.632 263.727 241.509 263.727H227.569V261.235C227.569 257.819 231.693 256.157 234.893 256.157C237.97 256.157 241.878 257.819 241.878 261.235V263.358ZM234.924 248.464C227.723 248.587 219.783 252.71 219.783 261.111V273.882C219.783 282.406 227.692 286.407 234.924 286.53C240.124 286.53 245.91 284.407 248.772 279.791C248.895 279.668 248.772 279.421 248.649 279.329C246.156 277.914 244.74 277.083 242.279 275.79C242.155 275.79 242.155 275.79 242.032 275.913C240.74 278.16 237.293 279.329 234.924 279.329C231.723 279.329 227.6 277.329 227.6 273.882V270.097H247.571C248.649 270.097 249.449 269.266 249.449 268.22V261.235C249.449 252.71 242.002 248.587 234.924 248.464Z" fill="#64A421"/>
<g filter="url(#filter7_d)">
<rect x="796.986" y="62.6027" width="248" height="130" rx="8" fill="#F0DCFF" fill-opacity="0.7"/>
</g>
<g clip-path="url(#clip0)">
<path d="M902.845 107.986C905.642 108.024 908.478 108.024 911.275 107.986C911.237 110.477 911.237 113.006 911.275 115.497C908.478 115.458 905.642 115.497 902.806 115.458C902.883 112.968 902.806 110.477 902.845 107.986ZM860.423 118.716C866.171 115.458 874.525 116.57 878.396 122.203C880.772 125.537 881.462 129.752 881.423 133.738C874.832 133.776 868.241 133.738 861.649 133.776C861.956 135.807 862.837 137.953 864.715 139.026C867.398 140.597 871.613 140.137 872.954 137.033C875.675 136.957 878.357 136.957 881.078 137.033C880.235 140.137 877.974 142.781 875.139 144.238C872.073 145.924 868.394 146.23 864.983 145.656C861.381 145.081 858.047 143.05 856.016 140.022C853.794 136.803 853.219 132.703 853.717 128.909C854.215 124.732 856.706 120.785 860.423 118.716ZM864.907 123.506C863.029 124.387 862.109 126.418 861.688 128.373H872.954C872.724 126.878 872.188 125.307 871.038 124.272C869.429 122.701 866.861 122.663 864.907 123.506ZM948.792 117.26C953.314 116.455 958.334 117.413 961.821 120.555C967.761 125.844 968.029 136.075 962.511 141.747C958.142 146.307 950.823 147.15 945.228 144.583C940.898 142.628 937.947 138.221 937.449 133.546C937.257 130.825 937.372 128.028 938.483 125.499C940.17 121.168 944.27 118.026 948.792 117.26ZM949.75 123.506C947.374 124.349 946.263 126.917 945.918 129.254C945.649 132.167 945.688 135.462 947.566 137.876C949.597 140.521 954.08 140.444 956.111 137.838C957.797 135.73 958.066 132.856 957.874 130.25C957.759 127.951 956.954 125.499 955.038 124.081C953.505 123.046 951.474 122.893 949.75 123.506ZM978.874 118.831C981.671 116.646 985.657 116.416 988.876 117.719C991.175 118.716 992.899 120.747 993.704 123.084C994.624 125.499 994.356 128.104 994.356 130.634C994.356 135.462 994.317 140.291 994.394 145.081C991.597 145.119 988.799 145.081 985.963 145.119V128.564C985.963 127.146 985.427 125.614 984.239 124.732C982.438 123.506 979.832 123.736 978.299 125.269C977.073 126.495 976.536 128.258 976.575 129.944V145.119C973.816 145.081 971.018 145.119 968.259 145.081C968.259 135.96 968.297 126.84 968.259 117.719C970.98 117.758 973.662 117.681 976.383 117.758C976.345 119.022 976.345 120.287 976.306 121.552C977.149 120.632 977.839 119.597 978.874 118.831ZM827.199 117.796H835.936C837.699 123.659 839.576 129.522 841.224 135.424C843.255 129.637 844.788 123.659 846.704 117.796C849.502 117.758 852.337 117.796 855.135 117.758C851.916 126.878 848.774 135.999 845.593 145.119C842.68 145.119 839.768 145.081 836.856 145.157C833.522 136.075 830.571 126.84 827.199 117.796ZM883.339 117.758H891.387C891.348 119.291 891.387 120.823 891.31 122.356C892 121.59 892.498 120.632 893.226 119.904C895.027 117.911 897.978 117.106 900.584 117.796C900.545 120.21 900.545 122.625 900.584 125C898.514 124.771 896.215 124.847 894.452 126.112C892.575 127.415 891.732 129.829 891.77 132.052C891.732 136.42 891.77 140.75 891.77 145.119C888.972 145.119 886.137 145.081 883.339 145.157C883.378 135.999 883.378 126.878 883.339 117.758ZM902.845 117.796C905.68 117.758 908.478 117.796 911.314 117.758C911.275 126.878 911.314 135.999 911.314 145.119C908.516 145.081 905.68 145.119 902.845 145.119V117.796ZM913.575 117.758C921.201 117.796 928.826 117.758 936.414 117.796C936.337 119.904 936.414 121.973 936.376 124.081C936.107 124.617 935.648 125 935.303 125.46C931.394 129.791 927.562 134.236 923.576 138.528C928.06 138.604 932.544 138.528 937.027 138.566V145.157C929.21 145.119 921.392 145.119 913.575 145.157V138.796C917.675 134.198 921.737 129.637 925.876 125.077C925.991 124.847 926.489 124.617 926.221 124.311C922.005 124.426 917.79 124.311 913.575 124.387V117.758Z" fill="black"/>
<path d="M1012.56 104.077C1014.01 104.001 1015.47 104.001 1016.93 104.039C1012.56 113.159 1008.34 122.356 1004.09 131.515H1000.52C998.571 126.917 996.271 122.433 994.24 117.834C995.658 117.796 997.076 117.796 998.494 117.834C999.72 120.67 1001.18 123.391 1002.29 126.227C1005.7 118.831 1009.22 111.473 1012.56 104.077Z" fill="#DA0000"/>
</g>
<g filter="url(#filter8_f)">
<rect x="71" y="217" width="116" height="116" rx="8" fill="#F0DCFF" fill-opacity="0.24"/>
</g>
<g filter="url(#filter9_b)">
<rect x="679" y="166" width="160.149" height="160.149" rx="8.31943" fill="#F0DCFF" fill-opacity="0.5"/>
</g>
<path d="M716.723 301.575C714.069 301.575 712.118 299.504 712.118 296.951C712.118 294.397 714.089 292.266 716.743 292.266C718.431 292.266 719.477 292.889 720.301 293.794L719.035 295.161C718.411 294.498 717.748 294.055 716.723 294.055C715.235 294.055 714.149 295.342 714.149 296.91C714.149 298.519 715.255 299.805 716.823 299.805C717.788 299.805 718.492 299.343 719.135 298.7L720.362 299.926C719.477 300.871 718.452 301.575 716.723 301.575Z" fill="#002E73"/>
<path d="M724.242 301.575H722.191V292.286H724.242V294.457C724.805 293.131 725.83 292.206 727.399 292.286V294.457H727.278C725.489 294.457 724.242 295.624 724.242 297.996V301.575Z" fill="#002E73"/>
<path d="M738.115 292.246L733.591 304.068H731.52L732.506 301.575L728.625 292.246H730.817L733.451 299.142L735.984 292.246H738.115Z" fill="#002E73"/>
<path d="M744.146 294.035C742.759 294.035 741.553 295.161 741.553 296.91C741.553 298.66 742.779 299.785 744.146 299.785C745.553 299.785 746.699 298.68 746.699 296.91C746.699 295.141 745.533 294.035 744.146 294.035ZM744.609 301.555C743.141 301.555 742.216 300.811 741.593 299.987V304.068H739.542V292.246H741.593V293.915C742.256 292.99 743.181 292.246 744.609 292.246C746.72 292.246 748.77 293.915 748.77 296.89C748.77 299.866 746.74 301.555 744.609 301.555Z" fill="#002E73"/>
<path d="M753.254 294.196V298.579C753.254 299.363 753.656 299.685 754.36 299.685H755.164V301.514H753.757C752.269 301.514 751.203 300.851 751.203 298.901V294.196H750.077V292.447H751.203V289.994H753.254V292.447H755.164V294.196H753.254Z" fill="#002E73"/>
<path d="M761.618 294.035C759.969 294.035 758.923 295.322 758.923 296.89C758.923 298.479 760.049 299.785 761.638 299.785C763.286 299.785 764.332 298.499 764.332 296.93C764.372 295.342 763.226 294.035 761.618 294.035ZM761.618 301.575C758.903 301.575 756.893 299.504 756.893 296.951C756.893 294.377 758.923 292.266 761.658 292.266C764.392 292.266 766.403 294.337 766.403 296.91C766.403 299.444 764.392 301.575 761.618 301.575Z" fill="#002E73"/>
<path d="M785.965 294.035C784.317 294.035 783.271 295.322 783.271 296.89C783.271 298.479 784.397 299.785 785.986 299.785C787.634 299.785 788.68 298.499 788.68 296.93C788.7 295.342 787.574 294.035 785.965 294.035ZM785.965 301.575C783.251 301.575 781.241 299.504 781.241 296.951C781.241 294.377 783.271 292.266 786.006 292.266C788.74 292.266 790.751 294.337 790.751 296.91C790.751 299.444 788.72 301.575 785.965 301.575Z" fill="#002E73"/>
<path d="M802.894 292.246C804.844 292.246 806.03 293.472 806.03 295.664V301.555H803.98V296.287C803.98 294.86 803.316 294.116 802.17 294.116C801.064 294.116 800.26 294.9 800.26 296.327V301.575H798.209V296.287C798.209 294.9 797.526 294.116 796.4 294.116C795.274 294.116 794.49 294.96 794.49 296.347V301.575H792.439V292.266H794.49V293.794C795.073 293.01 795.837 292.266 797.204 292.266C798.491 292.266 799.376 292.889 799.858 293.834C800.602 292.869 801.547 292.246 802.894 292.246Z" fill="#002E73"/>
<path d="M770.162 299.685V300.73L770.102 300.831L769.197 301.333H769.077L768.192 300.831L768.132 300.73V299.685L768.192 299.584L769.077 299.082H769.197L770.102 299.584L770.162 299.685Z" fill="#002E73"/>
<path d="M776.375 301.555C773.721 301.494 771.811 299.383 771.851 296.83C771.892 294.277 773.902 292.186 776.576 292.246C778.265 292.286 779.311 292.929 780.115 293.854L778.828 295.201C778.225 294.538 777.561 294.055 776.536 294.035C775.048 294.015 773.942 295.262 773.922 296.85C773.882 298.458 774.968 299.765 776.536 299.785C777.501 299.805 778.225 299.363 778.868 298.72L780.075 299.966C779.17 300.911 778.124 301.595 776.375 301.555Z" fill="#002E73"/>
<path d="M757.118 188.081L717.478 210.96V256.716L757.118 279.595L796.758 256.716V210.96L757.118 188.081ZM757.118 188.081L717.478 210.96V256.716L757.118 279.595L796.758 256.716V210.96L757.118 188.081Z" fill="white"/>
<path d="M772.767 261.721H767.127L760.375 255.525V252.347L767.365 245.674V235.109L776.501 229.151L786.907 237.016L772.767 261.721ZM749.412 245.039L750.445 235.109L747.029 226.212H767.206L763.87 235.109L764.823 245.039H757.038H749.412ZM754.019 255.525L747.267 261.801H741.548L727.328 237.016L737.814 229.231L747.029 235.109V245.674L754.019 252.347V255.525ZM741.468 207.861H772.688L776.421 223.749H737.814L741.468 207.861ZM757.118 188.081L717.478 210.96V256.716L757.118 279.595L796.758 256.716V210.96L757.118 188.081Z" fill="#03316C"/>
<rect x="912" y="168" width="174" height="174" rx="9.80282" fill="white" fill-opacity="0.12"/>
<path d="M946.293 241.566H952.172V260.777C952.172 261.974 951.991 263.053 951.63 264.013C951.28 264.95 950.766 265.752 950.088 266.418C949.422 267.073 948.614 267.576 947.666 267.926C946.706 268.265 945.627 268.434 944.43 268.434H943.007C941.821 268.434 940.748 268.265 939.788 267.926C938.839 267.576 938.026 267.073 937.349 266.418C936.682 265.752 936.174 264.95 935.824 264.013C935.462 263.053 935.282 261.974 935.282 260.777V241.566H941.16V260.794C941.16 261.641 941.341 262.228 941.702 262.556C942.052 262.861 942.645 263.013 943.481 263.013H943.972C944.808 263.013 945.395 262.861 945.734 262.556C946.107 262.228 946.293 261.641 946.293 260.794V241.566ZM967.146 254.814C967.643 254.814 968.038 254.768 968.331 254.678C968.636 254.588 968.874 254.441 969.043 254.238C969.201 254.034 969.314 253.769 969.382 253.441C969.438 253.148 969.467 252.752 969.467 252.256V249.545C969.467 249.048 969.438 248.653 969.382 248.359C969.314 248.032 969.201 247.766 969.043 247.563C968.874 247.36 968.636 247.213 968.331 247.122C968.038 247.032 967.643 246.987 967.146 246.987H964.35V254.814H967.146ZM958.472 268.061V241.566H967.62C970.127 241.566 972.047 242.272 973.38 243.683C974.69 245.073 975.345 247.026 975.345 249.545V252.256C975.345 254.774 974.69 256.728 973.38 258.117C972.047 259.529 970.127 260.235 967.62 260.235H964.35V268.061H958.472ZM986.287 262.64H995.012V268.061H980.408V241.566H986.287V262.64ZM1007.16 258.219H1010.17L1008.66 250.256L1007.16 258.219ZM1011.53 263.64H1005.8L1004.7 268.061H998.652L1005.89 241.566H1011.46L1018.68 268.061H1012.64L1011.53 263.64ZM1033.67 254.322V241.566H1039.55V268.061H1033.89L1028.53 255.305V268.061H1022.66V241.566H1028.31L1033.67 254.322ZM1045.85 241.566H1054.28C1056.95 241.566 1058.99 242.164 1060.41 243.362C1061.95 244.649 1062.72 246.603 1062.72 249.223V260.404C1062.72 263.024 1061.95 264.978 1060.41 266.266C1058.99 267.463 1056.95 268.061 1054.28 268.061H1045.85V241.566ZM1051.72 246.987V262.64H1054.28C1054.76 262.64 1055.13 262.612 1055.42 262.556C1055.76 262.499 1056.03 262.398 1056.23 262.251C1056.43 262.081 1056.59 261.855 1056.69 261.573C1056.79 261.279 1056.84 260.895 1056.84 260.421V249.206C1056.84 248.732 1056.79 248.348 1056.69 248.054C1056.59 247.772 1056.43 247.546 1056.23 247.377C1056.03 247.23 1055.76 247.128 1055.42 247.072C1055.13 247.015 1054.76 246.987 1054.28 246.987H1051.72Z" fill="white"/>
<rect opacity="0.33" x="296" y="15" width="158" height="158" rx="8.90141" fill="white" fill-opacity="0.75"/>
<path d="M354.932 38.6181L395.858 62.2653V86.3567L333.26 50.2195L353.352 38.6181C353.846 38.3219 354.438 38.3219 354.932 38.6181Z" fill="#3CA9E5"/>
<path d="M395.858 38.1245L375.024 50.1702L395.858 62.2159V38.1245Z" fill="#2853C3"/>
<path d="M395.858 38.1245L415.951 49.7259C416.444 50.0221 416.74 50.5651 416.74 51.1082V98.3531L395.858 86.3074V38.1245Z" fill="#1A4199"/>
<path d="M416.74 98.4024L396.648 110.004C396.154 110.3 395.562 110.3 395.019 110.004L354.093 86.3567V62.2158L416.74 98.4024Z" fill="#2853C3"/>
<path d="M333.26 50.2197V97.4646C333.26 98.057 333.556 98.6001 334.049 98.8469L354.142 110.448V62.216L333.26 50.2197Z" fill="#60BEFF"/>
<path d="M354.143 110.448L374.976 98.4025L354.143 86.3568V110.448Z" fill="#3CA9E5"/>
<path d="M376.634 139.41C376.225 134.635 372.267 130.956 367.47 130.913H367.039C365.942 130.956 364.845 131.193 363.834 131.644L363.619 131.73H363.512C360.22 133.258 358.134 136.571 358.177 140.185V140.357C358.435 145.433 362.608 149.456 367.685 149.499H372.955C373.235 149.499 373.471 149.263 373.471 148.983V146.057C373.471 145.778 373.235 145.541 372.955 145.541H367.448C365.168 145.455 363.189 143.949 362.479 141.755H375.988C376.333 141.755 376.634 141.454 376.612 141.088V139.432C376.612 139.389 376.612 139.367 376.612 139.324L376.634 139.41ZM372.245 138.399H362.522C362.995 137.087 363.963 135.99 365.211 135.387L365.405 135.28C368.05 134.226 371.084 135.517 372.138 138.162C372.181 138.249 372.202 138.335 372.224 138.421L372.245 138.399ZM346.496 130.935C344.753 130.999 343.054 131.58 341.634 132.591V131.537C341.634 131.365 341.483 131.214 341.311 131.214H337.891C337.719 131.214 337.568 131.365 337.568 131.537V149.133C337.568 149.413 337.805 149.65 338.085 149.65H341.096C341.376 149.65 341.613 149.413 341.613 149.133V140.206C341.613 137.324 343.957 134.979 346.861 134.979C347.034 134.979 347.184 134.979 347.356 135C350.067 135.323 352.11 137.625 352.089 140.378V149.133C352.089 149.413 352.325 149.65 352.605 149.65H355.66C355.939 149.65 356.176 149.413 356.176 149.133V140.228C356.155 135.086 352.003 130.956 346.861 130.956C346.711 130.913 346.603 130.913 346.496 130.935ZM394.359 131.021C394.273 130.935 394.101 130.935 394.015 131.021L387.562 137.496L381.194 131.128C381.108 131.042 380.936 131.042 380.85 131.128L378.247 133.731C378.161 133.817 378.161 133.989 378.247 134.075L384.615 140.443L378.096 146.896C378.01 146.982 378.01 147.154 378.096 147.24L380.635 149.779C380.764 149.908 380.958 149.908 381.087 149.779L387.497 143.368L393.865 149.736C393.951 149.822 394.123 149.822 394.209 149.736L396.812 147.133C396.898 147.047 396.898 146.875 396.812 146.789L390.444 140.421L396.898 133.968C396.984 133.882 396.984 133.71 396.898 133.623C396.898 133.602 394.359 131.021 394.359 131.021ZM407.266 130.848C402.018 130.827 397.737 135.043 397.694 140.292C397.672 145.541 401.888 149.822 407.137 149.865C412.386 149.886 416.667 145.67 416.71 140.421C416.71 140.4 416.71 140.378 416.71 140.357C416.71 135.129 412.494 130.891 407.266 130.848ZM407.266 145.864C404.212 145.885 401.716 143.454 401.695 140.4C401.673 137.345 404.104 134.85 407.159 134.828C410.214 134.807 412.709 137.237 412.73 140.292C412.752 143.347 410.3 145.821 407.266 145.864Z" fill="#2853C3"/>
<g filter="url(#filter10_b)">
<rect x="1071" y="89" width="142" height="142" rx="8" fill="#F0DCFF" fill-opacity="0.33"/>
</g>
<path d="M1200 159.669H1197.05V171.114H1200V159.669Z" fill="black"/>
<path d="M1200 154.19H1197.05V157.295H1200V154.19Z" fill="black"/>
<path d="M1193.99 154.345V157.029H1186.45V161.71H1192.88V164.394H1186.45V171.115H1183.39V154.345H1193.99Z" fill="black"/>
<path d="M1175.16 164.172L1180.61 171.115H1177.04L1173.18 166.212L1172.01 167.432V171.137H1169.06V154.279H1172.01V163.728L1176.47 159.048H1180.04L1175.16 164.172Z" fill="black"/>
<path d="M1165.51 167.854L1166.37 170.338C1165.04 171.114 1163.62 171.492 1162.05 171.492C1160.07 171.469 1158.54 170.893 1157.5 169.739C1156.46 168.586 1155.92 166.966 1155.92 164.904C1155.92 162.863 1156.46 161.288 1157.5 160.134C1158.54 158.981 1160.07 158.404 1162.05 158.404C1162.76 158.404 1163.35 158.449 1163.87 158.537C1164.38 158.626 1164.91 158.781 1165.44 159.003V161.776C1164.91 161.51 1164.38 161.332 1163.91 161.221C1163.42 161.11 1162.91 161.066 1162.33 161.066C1160.09 161.088 1158.99 162.353 1158.99 164.881C1158.99 167.499 1160.07 168.808 1162.27 168.808C1163.33 168.808 1164.4 168.497 1165.51 167.854Z" fill="black"/>
<path d="M1152.8 161.598C1153.26 162.596 1153.51 163.683 1153.51 164.926C1153.51 166.168 1153.26 167.277 1152.8 168.275C1152.33 169.273 1151.6 170.05 1150.67 170.626C1149.71 171.203 1148.56 171.491 1147.23 171.491C1145.85 171.491 1144.7 171.203 1143.75 170.626C1142.79 170.05 1142.08 169.273 1141.6 168.275C1141.11 167.277 1140.89 166.168 1140.89 164.926C1140.89 163.706 1141.13 162.596 1141.6 161.598C1142.08 160.6 1142.79 159.824 1143.75 159.247C1144.7 158.67 1145.85 158.382 1147.23 158.382C1148.58 158.382 1149.74 158.67 1150.67 159.247C1151.6 159.824 1152.33 160.6 1152.8 161.598ZM1150.47 164.926C1150.47 163.706 1150.18 162.73 1149.62 162.02C1149.07 161.31 1148.27 160.955 1147.23 160.955C1146.16 160.955 1145.37 161.31 1144.79 162.02C1144.23 162.73 1143.95 163.683 1143.95 164.926C1143.95 166.168 1144.23 167.122 1144.79 167.831C1145.34 168.541 1146.16 168.896 1147.23 168.896C1148.27 168.896 1149.07 168.541 1149.62 167.831C1150.18 167.122 1150.47 166.146 1150.47 164.926Z" fill="black"/>
<path d="M1138.96 168.608V171.181C1138.27 171.336 1137.62 171.425 1137.07 171.425C1135.85 171.403 1134.96 171.159 1134.41 170.649C1133.85 170.139 1133.57 169.362 1133.57 168.297V154.256H1136.52V167.321C1136.52 167.854 1136.6 168.231 1136.78 168.431C1136.96 168.63 1137.27 168.741 1137.74 168.741C1138.2 168.741 1138.6 168.697 1138.96 168.608Z" fill="black"/>
<path d="M1129.37 164.061C1129.91 164.726 1130.15 165.525 1130.15 166.501C1130.15 168.054 1129.66 169.207 1128.71 169.983C1127.75 170.76 1126.13 171.115 1123.87 171.115H1117.48V154.345H1123.87C1125.91 154.345 1127.35 154.722 1128.22 155.476C1129.08 156.231 1129.51 157.34 1129.51 158.848C1129.51 159.758 1129.33 160.512 1128.95 161.133C1128.57 161.754 1127.98 162.242 1127.18 162.597C1128.11 162.907 1128.84 163.395 1129.37 164.061ZM1126.33 168.076C1126.82 167.699 1127.04 167.1 1127.04 166.279C1127.04 165.458 1126.78 164.882 1126.25 164.504C1125.71 164.127 1124.91 163.95 1123.87 163.95H1120.54V168.63H1123.87C1125.03 168.63 1125.85 168.453 1126.33 168.076ZM1126.38 159.092C1126.38 158.271 1126.18 157.695 1125.8 157.34C1125.42 156.985 1124.78 156.807 1123.87 156.807H1120.54V161.466H1123.87C1125.54 161.466 1126.38 160.667 1126.38 159.092Z" fill="black"/>
<path d="M1108.14 159.07C1110.23 161.155 1110.23 164.526 1108.14 166.589L1100.63 174.131C1098.54 176.216 1095.17 176.216 1093.11 174.131L1085.56 166.612C1083.48 164.526 1083.48 161.155 1085.56 159.092L1093.08 151.55C1095.17 149.465 1098.54 149.465 1100.63 151.55L1108.14 159.07ZM1102.51 164.726C1103.55 163.684 1103.55 161.998 1102.51 160.955L1098.74 157.184C1097.7 156.142 1096.01 156.142 1094.97 157.184L1091.2 160.955C1090.16 161.998 1090.16 163.684 1091.2 164.726L1094.97 168.497C1096.01 169.54 1097.7 169.54 1098.74 168.497L1102.51 164.726Z" fill="#004BEF"/>
<rect x="400" y="226" width="142" height="142" rx="8" fill="white" fill-opacity="0.32"/>
<path d="M523 287.375H517.59L514.459 300.584L514.02 302.397C513.718 302.479 513.416 302.561 513.114 302.617C512.564 302.726 511.988 302.781 511.384 302.781C510.697 302.781 510.148 302.671 509.736 302.479C509.351 302.287 509.049 302.013 508.885 301.628C508.72 301.271 508.665 300.831 508.692 300.337C508.72 299.843 508.829 299.293 508.967 298.745L510.614 291.879L511.685 287.32H506.165L503.666 297.865C503.364 299.128 503.199 300.337 503.145 301.49C503.089 302.644 503.282 303.632 503.666 304.539C504.051 305.417 504.737 306.104 505.671 306.626C506.605 307.147 507.951 307.394 509.653 307.394C510.834 307.394 511.878 307.285 512.757 307.092C512.784 307.092 512.839 307.065 512.867 307.065C512.62 308.163 512.125 309.042 511.356 309.729C510.56 310.416 509.406 310.772 507.868 310.772C507.209 310.772 506.605 310.745 506.055 310.663L504.985 315.139C505.699 315.222 506.495 315.277 507.374 315.277C509.022 315.277 510.449 315.084 511.685 314.727C512.921 314.343 513.965 313.794 514.871 313.024C515.75 312.255 516.491 311.294 517.095 310.169C517.699 309.015 518.166 307.669 518.523 306.076L522.258 290.368L523 287.375ZM500.344 298.661C500.014 300.035 499.904 301.435 500.041 302.808C500.179 304.209 500.728 306.323 501.25 307.394H496.032C495.4 306.324 495.428 305.802 495.291 305.472C494.604 306.022 493.863 306.488 493.039 306.846C492.215 307.203 491.309 307.395 490.265 307.395C489.057 307.395 488.013 307.175 487.162 306.763C486.311 306.352 485.597 305.775 485.047 305.061C484.498 304.346 484.114 303.522 483.866 302.561C483.619 301.6 483.509 300.584 483.509 299.486C483.509 297.81 483.811 296.245 484.388 294.762C484.992 293.279 485.816 291.988 486.86 290.89C487.904 289.791 490.458 287.347 494.632 287.347H503.008L500.344 298.661ZM496.526 291.933C494 291.933 493.533 291.933 492.49 292.455C491.748 292.84 491.144 293.417 490.622 294.075C490.1 294.734 489.661 295.503 489.359 296.382C489.057 297.261 488.892 298.167 488.892 299.101C488.892 300.255 489.085 301.188 489.469 301.875C489.853 302.561 490.567 302.891 491.611 302.891C492.16 302.891 492.682 302.781 493.121 302.561C493.561 302.341 494.055 301.985 494.549 301.463C494.604 300.859 494.687 300.227 494.796 299.569C494.906 298.909 495.044 298.277 495.154 297.728L496.526 291.933ZM482.026 295.311C482.026 297.096 481.724 298.716 481.147 300.199C480.571 301.682 479.747 302.946 478.703 304.017C477.659 305.088 476.424 305.912 474.968 306.516C473.513 307.12 471.947 307.422 470.245 307.422C469.421 307.422 468.597 307.34 467.745 307.202L466.098 313.821H460.688L466.976 287.402H474.199C475.573 287.402 476.753 287.622 477.714 288.033C478.703 288.445 479.499 289.022 480.158 289.736C480.79 290.45 481.257 291.301 481.559 292.263C481.889 293.196 482.026 294.213 482.026 295.311ZM468.762 302.808C469.173 302.918 469.695 302.946 470.3 302.946C471.261 302.946 472.112 302.781 472.908 302.424C473.677 302.067 474.364 301.572 474.913 300.941C475.463 300.309 475.874 299.54 476.204 298.661C476.506 297.782 476.671 296.794 476.671 295.723C476.671 294.679 476.451 293.773 475.984 293.059C475.517 292.318 474.721 291.933 473.568 291.933H471.426L468.762 302.808ZM457.392 302.808C456.706 302.808 456.157 302.699 455.745 302.506C455.36 302.314 455.058 302.04 454.893 301.655C454.728 301.298 454.673 300.859 454.701 300.364C454.728 299.87 454.838 299.32 454.975 298.771L456.623 291.906H462.775L463.901 287.347H457.721L459.149 281.58L453.382 282.486L449.73 297.92C449.427 299.183 449.263 300.392 449.208 301.545C449.153 302.698 449.345 303.687 449.73 304.593C450.114 305.472 450.801 306.158 451.734 306.68C452.668 307.202 454.014 307.449 455.717 307.449C456.898 307.449 457.941 307.339 458.82 307.147C458.902 307.119 459.04 307.092 459.122 307.064L460.248 302.368C459.863 302.505 459.479 302.588 459.122 302.643C458.573 302.753 457.996 302.808 457.392 302.808ZM443.634 287.375L438.855 307.422H444.265L449.016 287.375H443.634ZM449.593 285.068L450.417 281.58H445.007L444.183 285.068H449.593ZM431.66 287.402C432.813 287.402 433.83 287.622 434.681 288.033C435.532 288.445 436.219 288.994 436.795 289.708C437.345 290.423 437.757 291.247 438.031 292.18C438.306 293.114 438.443 294.13 438.443 295.229C438.443 296.904 438.141 298.469 437.509 299.98C436.878 301.463 436.054 302.781 434.983 303.879C433.912 304.977 432.649 305.857 431.193 306.488C429.738 307.12 428.172 307.449 426.47 307.449C426.25 307.449 425.865 307.449 425.316 307.422C424.767 307.422 424.136 307.367 423.449 307.257C422.735 307.147 421.993 307.01 421.224 306.818C420.457 306.631 419.711 306.364 419 306.021L425.289 279.603L430.919 278.723L428.694 288.088C429.188 287.868 429.628 287.703 430.122 287.594C430.589 287.457 431.111 287.402 431.66 287.402ZM426.936 302.946C427.788 302.946 428.584 302.753 429.326 302.314C430.077 301.898 430.74 301.338 431.276 300.666C431.825 299.98 432.264 299.183 432.566 298.332C432.868 297.453 433.033 296.547 433.033 295.613C433.033 294.46 432.841 293.554 432.456 292.894C432.072 292.235 431.276 291.933 430.232 291.933C429.902 291.933 429.545 291.961 428.996 292.098C428.447 292.208 427.98 292.483 427.541 292.867L425.179 302.836C425.893 302.946 426.113 302.973 426.305 302.973C426.442 302.946 426.662 302.946 426.936 302.946Z" fill="#002855"/>
<defs>
<filter id="filter0_f" x="965" y="11.4135" width="148" height="148" filterUnits="userSpaceOnUse" color-interpolation-filters="sRGB">
<feFlood flood-opacity="0" result="BackgroundImageFix"/>
<feBlend mode="normal" in="SourceGraphic" in2="BackgroundImageFix" result="shape"/>
<feGaussianBlur stdDeviation="8" result="effect1_foregroundBlur"/>
</filter>
<filter id="filter1_f" x="1220.15" y="48.3316" width="148" height="148" filterUnits="userSpaceOnUse" color-interpolation-filters="sRGB">
<feFlood flood-opacity="0" result="BackgroundImageFix"/>
<feBlend mode="normal" in="SourceGraphic" in2="BackgroundImageFix" result="shape"/>
<feGaussianBlur stdDeviation="8" result="effect1_foregroundBlur"/>
</filter>
<filter id="filter2_f" x="266.274" y="133.226" width="148" height="148" filterUnits="userSpaceOnUse" color-interpolation-filters="sRGB">
<feFlood flood-opacity="0" result="BackgroundImageFix"/>
<feBlend mode="normal" in="SourceGraphic" in2="BackgroundImageFix" result="shape"/>
<feGaussianBlur stdDeviation="8" result="effect1_foregroundBlur"/>
</filter>
<filter id="filter3_f" x="126.993" y="12.8868" width="148" height="148" filterUnits="userSpaceOnUse" color-interpolation-filters="sRGB">
<feFlood flood-opacity="0" result="BackgroundImageFix"/>
<feBlend mode="normal" in="SourceGraphic" in2="BackgroundImageFix" result="shape"/>
<feGaussianBlur stdDeviation="8" result="effect1_foregroundBlur"/>
</filter>
<filter id="filter4_f" x="603" y="45.6809" width="148" height="148" filterUnits="userSpaceOnUse" color-interpolation-filters="sRGB">
<feFlood flood-opacity="0" result="BackgroundImageFix"/>
<feBlend mode="normal" in="SourceGraphic" in2="BackgroundImageFix" result="shape"/>
<feGaussianBlur stdDeviation="8" result="effect1_foregroundBlur"/>
</filter>
<filter id="filter5_d" x="502" y="28" width="212.593" height="212.593" filterUnits="userSpaceOnUse" color-interpolation-filters="sRGB">
<feFlood flood-opacity="0" result="BackgroundImageFix"/>
<feColorMatrix in="SourceAlpha" type="matrix" values="0 0 0 0 0 0 0 0 0 0 0 0 0 0 0 0 0 0 127 0"/>
<feOffset/>
<feGaussianBlur stdDeviation="8"/>
<feColorMatrix type="matrix" values="0 0 0 0 0.502158 0 0 0 0 0.227257 0 0 0 0 0.708333 0 0 0 0.16 0"/>
<feBlend mode="normal" in2="BackgroundImageFix" result="effect1_dropShadow"/>
<feBlend mode="normal" in="SourceGraphic" in2="effect1_dropShadow" result="shape"/>
</filter>
<filter id="filter6_d" x="0" y="40" width="218.5" height="218.5" filterUnits="userSpaceOnUse" color-interpolation-filters="sRGB">
<feFlood flood-opacity="0" result="BackgroundImageFix"/>
<feColorMatrix in="SourceAlpha" type="matrix" values="0 0 0 0 0 0 0 0 0 0 0 0 0 0 0 0 0 0 127 0"/>
<feOffset/>
<feGaussianBlur stdDeviation="8"/>
<feColorMatrix type="matrix" values="0 0 0 0 0.502158 0 0 0 0 0.227257 0 0 0 0 0.708333 0 0 0 0.16 0"/>
<feBlend mode="normal" in2="BackgroundImageFix" result="effect1_dropShadow"/>
<feBlend mode="normal" in="SourceGraphic" in2="effect1_dropShadow" result="shape"/>
</filter>
<filter id="filter7_d" x="780.986" y="46.6027" width="280" height="162" filterUnits="userSpaceOnUse" color-interpolation-filters="sRGB">
<feFlood flood-opacity="0" result="BackgroundImageFix"/>
<feColorMatrix in="SourceAlpha" type="matrix" values="0 0 0 0 0 0 0 0 0 0 0 0 0 0 0 0 0 0 127 0"/>
<feOffset/>
<feGaussianBlur stdDeviation="8"/>
<feColorMatrix type="matrix" values="0 0 0 0 0.502158 0 0 0 0 0.227257 0 0 0 0 0.708333 0 0 0 0.16 0"/>
<feBlend mode="normal" in2="BackgroundImageFix" result="effect1_dropShadow"/>
<feBlend mode="normal" in="SourceGraphic" in2="effect1_dropShadow" result="shape"/>
</filter>
<filter id="filter8_f" x="55" y="201" width="148" height="148" filterUnits="userSpaceOnUse" color-interpolation-filters="sRGB">
<feFlood flood-opacity="0" result="BackgroundImageFix"/>
<feBlend mode="normal" in="SourceGraphic" in2="BackgroundImageFix" result="shape"/>
<feGaussianBlur stdDeviation="8" result="effect1_foregroundBlur"/>
</filter>
<filter id="filter9_b" x="675.443" y="162.443" width="167.263" height="167.263" filterUnits="userSpaceOnUse" color-interpolation-filters="sRGB">
<feFlood flood-opacity="0" result="BackgroundImageFix"/>
<feGaussianBlur in="BackgroundImage" stdDeviation="1.77863"/>
<feComposite in2="SourceAlpha" operator="in" result="effect1_backgroundBlur"/>
<feBlend mode="normal" in="SourceGraphic" in2="effect1_backgroundBlur" result="shape"/>
</filter>
<filter id="filter10_b" x="1055" y="73" width="174" height="174" filterUnits="userSpaceOnUse" color-interpolation-filters="sRGB">
<feFlood flood-opacity="0" result="BackgroundImageFix"/>
<feGaussianBlur in="BackgroundImage" stdDeviation="8"/>
<feComposite in2="SourceAlpha" operator="in" result="effect1_backgroundBlur"/>
<feBlend mode="normal" in="SourceGraphic" in2="effect1_backgroundBlur" result="shape"/>
</filter>
<clipPath id="clip0">
<rect width="189.873" height="42" fill="white" transform="translate(827.126 104)"/>
</clipPath>
</defs>
</svg>
