<svg width="274" height="156" viewBox="0 0 274 156" fill="none" xmlns="http://www.w3.org/2000/svg">
<g opacity="0.5">
<path d="M6.58398 1.02826L6.58398 155.028" stroke="#E9E9F4" stroke-linecap="round"/>
<path d="M25.2148 1.02795L25.2148 155.028" stroke="#E9E9F4" stroke-linecap="round"/>
<path d="M43.8457 1.02795L43.8457 155.028" stroke="#E9E9F4" stroke-linecap="round"/>
<path d="M62.4766 1.02795L62.4766 155.028" stroke="#E9E9F4" stroke-linecap="round"/>
<path d="M81.1074 1.02795L81.1074 155.028" stroke="#E9E9F4" stroke-linecap="round"/>
<path d="M99.7383 1.02795L99.7383 155.028" stroke="#E9E9F4" stroke-linecap="round"/>
<path d="M118.369 1.02795L118.369 155.028" stroke="#E9E9F4" stroke-linecap="round"/>
<path d="M137 1.02795L137 155.028" stroke="#E9E9F4" stroke-linecap="round"/>
<path d="M155.631 1.02795L155.631 155.028" stroke="#E9E9F4" stroke-linecap="round"/>
<path d="M174.262 1.02795L174.262 155.028" stroke="#E9E9F4" stroke-linecap="round"/>
<path d="M192.893 1.02795L192.893 155.028" stroke="#E9E9F4" stroke-linecap="round"/>
<path d="M211.523 1.02795L211.523 155.028" stroke="#E9E9F4" stroke-linecap="round"/>
<path d="M230.154 1.02795L230.154 155.028" stroke="#E9E9F4" stroke-linecap="round"/>
<path d="M248.785 1.02795L248.785 155.028" stroke="#E9E9F4" stroke-linecap="round"/>
<path d="M267.416 1.02795L267.416 155.028" stroke="#E9E9F4" stroke-linecap="round"/>
</g>
<path d="M33.4287 122.187C38.2536 121.417 42.8397 119.06 46.2792 115.549C48.6678 113.144 50.5309 110.21 53.3016 108.334C55.9768 106.506 59.4164 105.784 62.5693 106.506C64.8145 107.035 66.8687 108.19 68.8751 109.344C73.8433 112.086 80.4836 116.992 86.4072 114.731C89.9423 113.384 92.6653 110.498 94.8628 107.42C97.0603 104.341 98.9233 100.974 101.407 98.1364C103.892 95.2984 107.14 92.7971 110.962 92.3161C114.975 91.787 118.987 92.749 123 92.3161C128.828 91.6908 134.131 87.8427 136.758 82.5997C139.004 78.0301 140.914 71.2959 146.79 70.3339C148.415 70.0933 150.087 70.1895 151.711 70.1895C158.447 70.0933 165.421 67.4478 170.342 62.7339C175.31 57.9718 175.071 50.8528 178.272 45.1288C179.705 42.6275 181.855 40.5592 184.386 39.2604C186.297 38.2984 188.495 37.7693 190.597 38.0579C201.25 39.6452 204.237 49.193 212.81 50.0351C222.604 50.9971 236.218 45.1288 242.429 27.187" stroke="#2CCD80" stroke-width="6" stroke-miterlimit="10" stroke-linecap="round"/>
<circle cx="242.429" cy="27.187" r="8" fill="#A3278F" fill-opacity="0.24"/>
<circle cx="167.778" cy="64.5583" r="8" fill="#A3278F" fill-opacity="0.24"/>
<circle cx="108.061" cy="93.6558" r="8" fill="#A3278F" fill-opacity="0.24"/>
<circle cx="44.6455" cy="117.249" r="8" fill="#A3278F" fill-opacity="0.24"/>
<circle cx="242.429" cy="27.187" r="4" fill="#A3278F"/>
<circle cx="167.778" cy="64.5583" r="4" fill="#A3278F"/>
<circle cx="108.061" cy="93.6558" r="4" fill="#A3278F"/>
<circle cx="44.6455" cy="117.249" r="4" fill="#A3278F"/>
<path d="M0 8H274V156H0V8Z" fill="url(#paint0_linear)"/>
<defs>
<linearGradient id="paint0_linear" x1="137" y1="8" x2="137" y2="156" gradientUnits="userSpaceOnUse">
<stop stop-color="white" stop-opacity="0"/>
<stop offset="0.494792" stop-color="white" stop-opacity="0.760417"/>
<stop offset="1" stop-color="white"/>
</linearGradient>
</defs>
</svg>
