<svg width="264" height="132" viewBox="0 0 264 132" fill="none" xmlns="http://www.w3.org/2000/svg">
<circle cx="178.5" cy="48.5" r="40.5" fill="#79DB89"/>
<path fill-rule="evenodd" clip-rule="evenodd" d="M182.418 69.7684C183.159 69.5367 183.936 69.9852 184.155 70.7714C184.373 71.556 183.951 72.3819 183.21 72.6136C181.72 73.0892 180.169 73.3352 178.608 73.3436H178.422C176.901 73.3436 175.342 73.0953 173.787 72.6054C173.047 72.372 172.626 71.5461 172.847 70.7599C173.067 69.9753 173.845 69.5284 174.585 69.7618C175.826 70.162 177.119 70.3696 178.422 70.3775H178.606C179.9 70.3689 181.185 70.1636 182.418 69.7684ZM192.656 39.5781C193.983 43.6779 193.508 49.1814 191.383 54.3074C188.484 61.3022 183.225 66.1601 178.567 66.1601H178.435C173.775 66.1601 168.516 61.3022 165.617 54.3074C163.491 49.1814 163.017 43.6779 164.344 39.5764C166.317 33.0434 172.005 28.6539 178.498 28.6539C184.972 28.6539 190.647 33.0203 192.636 39.5251L192.646 39.5499L192.649 39.5615L192.654 39.5764L192.656 39.5781ZM189.251 53.3127C188.397 55.3937 187.257 57.3414 185.863 59.0975C186.803 55.1748 186.351 50.1099 184.313 45.1924C183.247 42.6219 181.836 40.3097 180.195 38.4244C182.761 36.2263 185.431 35.508 187.495 36.521C188.817 37.1698 189.839 38.4972 190.446 40.361C191.596 43.8898 191.149 48.7312 189.251 53.3127ZM167.75 53.3127C165.852 48.7312 165.405 43.8898 166.556 40.361C167.163 38.4973 168.183 37.1698 169.505 36.521C171.569 35.5097 174.241 36.2264 176.804 38.4245C175.166 40.3114 173.753 42.622 172.689 45.1925C170.649 50.11 170.197 55.1765 171.138 59.0976C169.745 57.3415 168.604 55.3938 167.75 53.3127ZM180.424 63.2354C179.832 63.5267 179.184 63.6774 178.5 63.6873C177.834 63.6822 177.177 63.5279 176.576 63.2354C172.602 61.2873 171.799 53.4798 174.822 46.1872C175.78 43.8732 177.039 41.7976 178.498 40.116C179.957 41.7976 181.221 43.8716 182.18 46.1872C185.203 53.4798 184.4 61.2873 180.424 63.2354ZM178.5 64.7946L178.501 64.9022V65.0114L178.5 64.9022V64.7946ZM185.819 33.6112C183.464 33.5069 180.899 34.5745 178.502 36.7064C176.103 34.5745 173.536 33.5053 171.181 33.6096C173.29 31.9991 175.859 31.1277 178.5 31.1268C181.204 31.1268 183.742 32.0338 185.819 33.6096V33.6112Z" fill="white"/>
<circle cx="88.5" cy="72.5" r="32.5" fill="#00DCFA"/>
<path fill-rule="evenodd" clip-rule="evenodd" d="M83.8478 67.1376C84.3542 62.4548 88.3712 58.8155 93.103 58.8155C98.2483 58.8192 102.419 62.9893 102.422 68.1346C102.422 72.8648 98.7829 76.8835 94.1 77.3899C93.6094 82.0727 89.5766 85.712 84.8448 85.712C79.6995 85.7084 75.5293 81.5382 75.5256 76.3929C75.5256 71.6627 79.165 67.644 83.8478 67.1376ZM94.1798 75.3005C97.3137 74.824 99.7742 72.3635 100.253 69.2271H94.1798V75.3005ZM77.6948 75.3005L77.6968 75.2873H83.7682V69.2271C80.6329 69.7049 78.1736 72.1604 77.6968 75.2873H77.6948V75.3005ZM84.8527 83.5429C88.4384 83.5429 91.4833 80.9593 92.0107 77.4695H77.6948C78.2221 80.9593 81.2671 83.5429 84.8527 83.5429ZM92.0106 69.2271V75.3005H85.9372V69.2271H92.0106ZM85.9372 67.058H100.253C99.7257 63.5682 96.6807 60.9846 93.0951 60.9846C89.5095 60.9846 86.4645 63.5682 85.9372 67.058Z" fill="white"/>
<path d="M0 55H264V116C264 120.418 260.418 124 256 124H8C3.58172 124 0 120.418 0 116V55Z" fill="url(#paint0_linear)"/>
<defs>
<linearGradient id="paint0_linear" x1="132" y1="55" x2="132" y2="124" gradientUnits="userSpaceOnUse">
<stop stop-color="white" stop-opacity="0"/>
<stop offset="0.494792" stop-color="white" stop-opacity="0.760417"/>
<stop offset="1" stop-color="white"/>
</linearGradient>
</defs>
</svg>
