<svg width="572" height="555" viewBox="0 0 572 555" fill="none" xmlns="http://www.w3.org/2000/svg">
<path d="M294.5 -1.21299e-05C447.759 -5.43074e-06 572 124.241 572 277.5C572 430.759 447.759 555 294.5 555L277.955 555C124.696 555 0.455426 430.759 0.455432 277.5C0.455439 124.241 124.696 -1.95523e-05 277.955 -1.28531e-05L294.5 -1.21299e-05Z" fill="white" fill-opacity="0.04"/>
<path d="M473.339 265.762C473.484 268.298 473.578 270.849 473.621 273.412L472.989 273.422C473.007 274.485 473.015 275.55 473.015 276.616C473.015 277.683 473.007 278.748 472.989 279.811L473.621 279.821C473.578 282.384 473.484 284.935 473.339 287.471L472.708 287.435C472.587 289.562 472.43 291.678 472.239 293.785L472.868 293.842C472.636 296.396 472.353 298.935 472.019 301.459L471.392 301.376C471.114 303.484 470.8 305.582 470.452 307.667L471.075 307.771C470.654 310.297 470.181 312.806 469.66 315.297L469.041 315.167C468.605 317.249 468.134 319.319 467.63 321.375L468.244 321.526C467.633 324.014 466.973 326.482 466.265 328.929L465.657 328.753C465.066 330.794 464.442 332.821 463.784 334.833L464.385 335.03C463.59 337.462 462.746 339.872 461.855 342.259L461.263 342.038C460.52 344.029 459.744 346.004 458.936 347.962L459.521 348.203C458.545 350.568 457.522 352.909 456.453 355.225L455.878 354.96C454.988 356.888 454.067 358.799 453.113 360.691L453.678 360.975C452.528 363.259 451.333 365.516 450.093 367.745L449.54 367.438C448.509 369.293 447.446 371.129 446.354 372.945L446.896 373.271C445.578 375.462 444.217 377.624 442.813 379.756L442.285 379.408C441.117 381.181 439.921 382.932 438.695 384.663L439.211 385.028C437.734 387.114 436.216 389.168 434.657 391.189L434.156 390.803C432.86 392.483 431.537 394.14 430.186 395.775L430.673 396.178C429.046 398.147 427.378 400.083 425.673 401.983L425.202 401.561C423.785 403.14 422.342 404.695 420.873 406.225L421.329 406.663C419.56 408.505 417.754 410.311 415.911 412.08L415.473 411.624C413.943 413.093 412.388 414.537 410.809 415.954L411.232 416.424C409.331 418.13 407.395 419.797 405.426 421.425L405.023 420.938C403.389 422.288 401.731 423.612 400.051 424.908L400.437 425.409C398.416 426.967 396.362 428.486 394.277 429.963L393.911 429.447C392.181 430.672 390.429 431.869 388.656 433.036L389.004 433.565C386.872 434.968 384.711 436.33 382.52 437.647L382.194 437.105C380.378 438.198 378.542 439.26 376.686 440.292L376.994 440.845C374.764 442.084 372.507 443.28 370.224 444.43L369.939 443.865C368.047 444.818 366.137 445.74 364.208 446.63L364.473 447.204C362.158 448.273 359.817 449.296 357.451 450.272L357.21 449.688C355.252 450.496 353.277 451.272 351.286 452.014L351.508 452.607C349.12 453.498 346.71 454.341 344.278 455.137L344.081 454.535C342.07 455.193 340.043 455.818 338.002 456.409L338.178 457.016C335.73 457.725 333.262 458.385 330.774 458.995L330.624 458.381C328.567 458.886 326.498 459.356 324.416 459.792L324.545 460.411C322.054 460.933 319.546 461.405 317.02 461.827L316.916 461.203C314.83 461.551 312.733 461.865 310.625 462.144L310.707 462.771C308.184 463.104 305.644 463.388 303.09 463.62L303.033 462.99C300.926 463.182 298.81 463.338 296.684 463.46L296.72 464.091C294.183 464.236 291.632 464.33 289.07 464.373L289.059 463.74C287.996 463.758 286.932 463.767 285.865 463.767C284.798 463.767 283.733 463.758 282.671 463.74L282.66 464.373C280.097 464.33 277.547 464.236 275.01 464.091L275.046 463.46C272.92 463.338 270.803 463.182 268.697 462.99L268.64 463.62C266.085 463.388 263.546 463.104 261.022 462.771L261.105 462.144C258.997 461.865 256.9 461.551 254.814 461.203L254.71 461.827C252.184 461.405 249.675 460.933 247.184 460.411L247.314 459.792C245.232 459.356 243.162 458.886 241.106 458.381L240.955 458.995C238.468 458.385 236 457.725 233.552 457.016L233.728 456.409C231.687 455.818 229.66 455.193 227.648 454.535L227.452 455.137C225.02 454.341 222.609 453.498 220.222 452.607L220.443 452.014C218.452 451.271 216.478 450.496 214.52 449.688L214.278 450.272C211.913 449.296 209.572 448.273 207.256 447.204L207.521 446.63C205.593 445.74 203.683 444.818 201.79 443.865L201.506 444.43C199.222 443.28 196.965 442.084 194.736 440.845L195.043 440.292C193.188 439.26 191.352 438.198 189.536 437.105L189.21 437.647C187.019 436.33 184.857 434.968 182.726 433.565L183.074 433.036C181.301 431.869 179.549 430.672 177.819 429.447L177.453 429.963C175.368 428.486 173.314 426.967 171.292 425.409L171.679 424.908C169.998 423.612 168.341 422.288 166.707 420.938L166.304 421.425C164.334 419.797 162.399 418.13 160.498 416.424L160.92 415.954C159.341 414.537 157.786 413.093 156.256 411.624L155.818 412.08C153.976 410.311 152.17 408.505 150.401 406.663L150.857 406.225C149.388 404.695 147.945 403.14 146.528 401.561L146.057 401.983C144.351 400.083 142.684 398.147 141.056 396.178L141.544 395.775C140.193 394.14 138.869 392.483 137.574 390.803L137.073 391.189C135.514 389.168 133.995 387.114 132.518 385.028L133.035 384.663C131.809 382.932 130.612 381.181 129.445 379.408L128.917 379.756C127.513 377.624 126.152 375.462 124.834 373.271L125.376 372.945C124.284 371.129 123.221 369.293 122.189 367.438L121.637 367.745C120.397 365.516 119.202 363.259 118.051 360.975L118.616 360.691C117.663 358.799 116.741 356.888 115.851 354.96L115.277 355.225C114.208 352.909 113.185 350.568 112.209 348.203L112.794 347.962C111.986 346.004 111.21 344.029 110.467 342.038L109.874 342.259C108.984 339.872 108.14 337.462 107.345 335.03L107.946 334.833C107.288 332.821 106.663 330.794 106.072 328.753L105.465 328.929C104.756 326.482 104.096 324.013 103.486 321.526L104.1 321.375C103.596 319.319 103.125 317.249 102.689 315.167L102.07 315.297C101.548 312.806 101.076 310.297 100.654 307.771L101.278 307.667C100.93 305.582 100.616 303.484 100.338 301.376L99.7105 301.459C99.377 298.935 99.0935 296.396 98.8613 293.842L99.4912 293.784C99.2996 291.678 99.1429 289.561 99.0218 287.435L98.3903 287.471C98.2457 284.934 98.1515 282.384 98.1086 279.821L98.741 279.811C98.7232 278.748 98.7143 277.683 98.7143 276.616C98.7143 275.55 98.7232 274.485 98.741 273.422L98.1086 273.412C98.1515 270.849 98.2457 268.298 98.3903 265.762L99.0218 265.798C99.1429 263.671 99.2996 261.555 99.4912 259.448L98.8613 259.391C99.0935 256.837 99.377 254.298 99.7105 251.774L100.338 251.857C100.616 249.748 100.93 247.651 101.278 245.566L100.654 245.462C101.076 242.936 101.548 240.427 102.07 237.936L102.689 238.066C103.125 235.983 103.596 233.914 104.1 231.858L103.486 231.707C104.096 229.219 104.756 226.751 105.465 224.304L106.072 224.48C106.663 222.438 107.288 220.412 107.946 218.4L107.345 218.203C108.14 215.771 108.984 213.361 109.874 210.974L110.467 211.195C111.21 209.204 111.986 207.229 112.794 205.271L112.209 205.03C113.185 202.665 114.208 200.324 115.277 198.008L115.851 198.273C116.741 196.345 117.663 194.434 118.616 192.542L118.051 192.258C119.202 189.974 120.397 187.717 121.637 185.488L122.189 185.795C123.221 183.94 124.284 182.104 125.376 180.288L124.834 179.962C126.152 177.771 127.513 175.609 128.917 173.477L129.445 173.825C130.612 172.052 131.809 170.3 133.035 168.57L132.518 168.205C133.995 166.119 135.514 164.065 137.073 162.044L137.574 162.43C138.869 160.75 140.193 159.092 141.544 157.458L141.056 157.055C142.684 155.086 144.351 153.15 146.057 151.25L146.528 151.672C147.945 150.093 149.388 148.538 150.857 147.008L150.401 146.57C152.17 144.728 153.976 142.921 155.818 141.152L156.257 141.609C157.786 140.139 159.341 138.696 160.92 137.279L160.498 136.808C162.399 135.103 164.334 133.436 166.304 131.808L166.707 132.295C168.341 130.944 169.998 129.621 171.679 128.325L171.292 127.824C173.314 126.265 175.368 124.747 177.453 123.27L177.819 123.786C179.549 122.561 181.301 121.364 183.074 120.197L182.726 119.668C184.857 118.265 187.019 116.903 189.21 115.585L189.536 116.127C191.352 115.035 193.188 113.973 195.044 112.941L194.736 112.388C196.965 111.149 199.222 109.953 201.506 108.803L201.791 109.368C203.683 108.415 205.593 107.493 207.521 106.603L207.256 106.029C209.572 104.96 211.913 103.937 214.278 102.961L214.52 103.545C216.478 102.737 218.452 101.961 220.443 101.219L220.222 100.626C222.609 99.7352 225.02 98.8916 227.452 98.0963L227.648 98.6974C229.66 98.0396 231.687 97.4149 233.728 96.824L233.552 96.2165C236 95.508 238.468 94.8479 240.955 94.2375L241.106 94.8517C243.162 94.3471 245.232 93.8765 247.314 93.4405L247.185 92.8214C249.675 92.2999 252.184 91.8277 254.71 91.4059L254.814 92.0298C256.9 91.6815 258.997 91.3678 261.105 91.0891L261.022 90.4621C263.546 90.1286 266.085 89.8451 268.64 89.6128L268.697 90.2427C270.803 90.0512 272.92 89.8945 275.046 89.7733L275.01 89.1419C277.547 88.9973 280.097 88.9031 282.66 88.8602L282.671 89.4926C283.733 89.4748 284.798 89.4659 285.865 89.4659C286.932 89.4659 287.996 89.4748 289.059 89.4926L289.07 88.8602C291.633 88.9031 294.183 88.9973 296.72 89.1419L296.684 89.7733C298.81 89.8945 300.926 90.0512 303.033 90.2427L303.09 89.6129C305.644 89.8451 308.184 90.1286 310.707 90.4621L310.625 91.0892C312.733 91.3678 314.83 91.6816 316.916 92.0298L317.02 91.4059C319.546 91.8277 322.055 92.2999 324.545 92.8214L324.416 93.4405C326.498 93.8765 328.567 94.3471 330.624 94.8517L330.774 94.2375C333.262 94.8479 335.73 95.508 338.178 96.2165L338.002 96.824C340.043 97.4149 342.07 98.0396 344.082 98.6975L344.278 98.0963C346.71 98.8916 349.12 99.7352 351.508 100.626L351.286 101.219C353.277 101.961 355.252 102.737 357.21 103.545L357.451 102.961C359.817 103.937 362.158 104.96 364.473 106.029L364.208 106.603C366.137 107.493 368.047 108.415 369.939 109.368L370.224 108.803C372.507 109.953 374.764 111.149 376.994 112.388L376.686 112.941C378.542 113.973 380.378 115.035 382.194 116.127L382.52 115.585C384.711 116.903 386.872 118.265 389.004 119.668L388.656 120.197C390.429 121.364 392.181 122.561 393.911 123.786L394.277 123.27C396.362 124.747 398.416 126.266 400.437 127.824L400.051 128.325C401.731 129.621 403.389 130.945 405.023 132.295L405.426 131.808C407.395 133.436 409.331 135.103 411.232 136.808L410.809 137.279C412.388 138.696 413.943 140.14 415.473 141.609L415.911 141.152C417.754 142.921 419.56 144.728 421.329 146.57L420.873 147.008C422.342 148.538 423.785 150.093 425.202 151.672L425.673 151.25C427.378 153.15 429.046 155.086 430.673 157.055L430.186 157.458C431.537 159.092 432.86 160.75 434.156 162.43L434.657 162.044C436.216 164.065 437.734 166.119 439.211 168.205L438.695 168.57C439.921 170.3 441.117 172.052 442.285 173.825L442.813 173.477C444.217 175.609 445.578 177.771 446.896 179.962L446.354 180.288C447.446 182.104 448.509 183.94 449.54 185.795L450.093 185.488C451.333 187.717 452.528 189.974 453.678 192.258L453.113 192.542C454.067 194.434 454.988 196.345 455.878 198.273L456.453 198.008C457.522 200.324 458.545 202.665 459.521 205.03L458.936 205.271C459.744 207.229 460.52 209.204 461.263 211.195L461.855 210.974C462.746 213.361 463.59 215.771 464.385 218.203L463.784 218.4C464.442 220.412 465.066 222.438 465.657 224.48L466.265 224.304C466.973 226.751 467.633 229.219 468.244 231.707L467.63 231.858C468.134 233.914 468.605 235.984 469.041 238.066L469.66 237.936C470.181 240.427 470.654 242.936 471.075 245.462L470.452 245.566C470.8 247.651 471.114 249.748 471.392 251.857L472.019 251.774C472.353 254.298 472.636 256.837 472.868 259.391L472.239 259.448C472.43 261.555 472.587 263.671 472.708 265.798L473.339 265.762Z" fill="white" fill-opacity="0.08" stroke="white" stroke-width="1.26498" stroke-dasharray="6.32 7.59"/>
<circle cx="431.614" cy="394.035" r="68.9698" fill="url(#paint0_linear)" fill-opacity="0.12"/>
<circle cx="431.613" cy="394.035" r="48.9463" fill="#9E1F63"/>
<path d="M394.687 472.675H389.828L389.024 475H386.455L390.842 462.783H393.691L398.078 475H395.491L394.687 472.675ZM394.023 470.718L392.258 465.614L390.492 470.718H394.023ZM399.263 470.124C399.263 469.145 399.456 468.277 399.84 467.519C400.236 466.762 400.772 466.179 401.448 465.771C402.124 465.364 402.875 465.16 403.703 465.16C404.332 465.16 404.932 465.299 405.503 465.579C406.074 465.847 406.528 466.208 406.866 466.663V462.066H409.348V475H406.866V473.567C406.563 474.045 406.138 474.429 405.59 474.72C405.043 475.012 404.408 475.157 403.685 475.157C402.87 475.157 402.124 474.948 401.448 474.528C400.772 474.109 400.236 473.52 399.84 472.763C399.456 471.994 399.263 471.114 399.263 470.124ZM406.884 470.158C406.884 469.564 406.767 469.057 406.534 468.638C406.301 468.207 405.987 467.88 405.59 467.659C405.194 467.426 404.769 467.309 404.315 467.309C403.86 467.309 403.441 467.42 403.056 467.642C402.672 467.863 402.357 468.189 402.112 468.62C401.879 469.04 401.763 469.541 401.763 470.124C401.763 470.706 401.879 471.219 402.112 471.662C402.357 472.093 402.672 472.425 403.056 472.658C403.452 472.891 403.872 473.007 404.315 473.007C404.769 473.007 405.194 472.897 405.59 472.675C405.987 472.442 406.301 472.116 406.534 471.697C406.767 471.265 406.884 470.753 406.884 470.158ZM415.951 472.745L418.397 465.317H421.002L417.419 475H414.447L410.882 465.317H413.504L415.951 472.745ZM431.552 469.949C431.552 470.298 431.529 470.613 431.482 470.893H424.404C424.462 471.592 424.707 472.139 425.138 472.536C425.569 472.932 426.099 473.13 426.728 473.13C427.637 473.13 428.284 472.739 428.668 471.959H431.308C431.028 472.891 430.492 473.66 429.7 474.266C428.907 474.86 427.934 475.157 426.781 475.157C425.849 475.157 425.01 474.953 424.264 474.546C423.53 474.126 422.953 473.538 422.533 472.78C422.126 472.023 421.922 471.149 421.922 470.158C421.922 469.156 422.126 468.277 422.533 467.519C422.941 466.762 423.512 466.179 424.246 465.771C424.98 465.364 425.825 465.16 426.781 465.16C427.701 465.16 428.523 465.358 429.245 465.754C429.979 466.15 430.544 466.715 430.941 467.449C431.348 468.172 431.552 469.005 431.552 469.949ZM429.018 469.25C429.006 468.62 428.779 468.119 428.336 467.746C427.894 467.362 427.352 467.17 426.711 467.17C426.105 467.17 425.592 467.356 425.173 467.729C424.765 468.09 424.514 468.597 424.421 469.25H429.018ZM435.96 466.82C436.275 466.307 436.683 465.905 437.184 465.614C437.696 465.323 438.279 465.177 438.932 465.177V467.746H438.285C437.516 467.746 436.933 467.927 436.537 468.288C436.152 468.65 435.96 469.279 435.96 470.176V475H433.513V465.317H435.96V466.82ZM443.603 467.327V472.011C443.603 472.337 443.679 472.576 443.831 472.728C443.994 472.868 444.262 472.938 444.635 472.938H445.771V475H444.233C442.17 475 441.139 473.998 441.139 471.994V467.327H439.985V465.317H441.139V462.922H443.603V465.317H445.771V467.327H443.603ZM448.947 464.163C448.515 464.163 448.154 464.029 447.863 463.761C447.583 463.482 447.443 463.138 447.443 462.73C447.443 462.322 447.583 461.984 447.863 461.716C448.154 461.437 448.515 461.297 448.947 461.297C449.378 461.297 449.733 461.437 450.013 461.716C450.304 461.984 450.45 462.322 450.45 462.73C450.45 463.138 450.304 463.482 450.013 463.761C449.733 464.029 449.378 464.163 448.947 464.163ZM450.153 465.317V475H447.706V465.317H450.153ZM456.45 475.157C455.658 475.157 454.947 475.017 454.318 474.738C453.689 474.447 453.188 474.056 452.815 473.567C452.454 473.077 452.256 472.536 452.221 471.941H454.685C454.732 472.314 454.912 472.623 455.227 472.868C455.553 473.112 455.955 473.235 456.433 473.235C456.899 473.235 457.26 473.141 457.517 472.955C457.785 472.769 457.919 472.53 457.919 472.238C457.919 471.924 457.755 471.691 457.429 471.539C457.115 471.376 456.608 471.201 455.909 471.015C455.186 470.84 454.592 470.66 454.126 470.473C453.671 470.287 453.275 470.001 452.937 469.617C452.611 469.232 452.448 468.714 452.448 468.061C452.448 467.525 452.599 467.036 452.902 466.593C453.217 466.15 453.66 465.801 454.231 465.544C454.813 465.288 455.495 465.16 456.276 465.16C457.429 465.16 458.35 465.451 459.037 466.034C459.725 466.605 460.103 467.379 460.173 468.358H457.831C457.796 467.974 457.633 467.671 457.342 467.449C457.062 467.216 456.683 467.1 456.206 467.1C455.763 467.1 455.419 467.181 455.174 467.344C454.941 467.508 454.825 467.735 454.825 468.026C454.825 468.352 454.988 468.603 455.314 468.778C455.641 468.941 456.147 469.11 456.835 469.285C457.534 469.459 458.111 469.64 458.565 469.826C459.02 470.013 459.41 470.304 459.736 470.7C460.074 471.085 460.249 471.598 460.261 472.238C460.261 472.798 460.103 473.299 459.789 473.742C459.486 474.184 459.043 474.534 458.46 474.79C457.889 475.035 457.219 475.157 456.45 475.157ZM471.446 469.949C471.446 470.298 471.422 470.613 471.376 470.893H464.297C464.355 471.592 464.6 472.139 465.031 472.536C465.462 472.932 465.992 473.13 466.621 473.13C467.53 473.13 468.177 472.739 468.562 471.959H471.201C470.921 472.891 470.385 473.66 469.593 474.266C468.8 474.86 467.827 475.157 466.674 475.157C465.742 475.157 464.903 474.953 464.157 474.546C463.423 474.126 462.846 473.538 462.427 472.78C462.019 472.023 461.815 471.149 461.815 470.158C461.815 469.156 462.019 468.277 462.427 467.519C462.834 466.762 463.405 466.179 464.14 465.771C464.874 465.364 465.718 465.16 466.674 465.16C467.594 465.16 468.416 465.358 469.138 465.754C469.872 466.15 470.438 466.715 470.834 467.449C471.242 468.172 471.446 469.005 471.446 469.949ZM468.911 469.25C468.899 468.62 468.672 468.119 468.229 467.746C467.787 467.362 467.245 467.17 466.604 467.17C465.998 467.17 465.485 467.356 465.066 467.729C464.658 468.09 464.408 468.597 464.314 469.25H468.911ZM475.853 466.82C476.168 466.307 476.576 465.905 477.077 465.614C477.59 465.323 478.172 465.177 478.825 465.177V467.746H478.178C477.409 467.746 476.826 467.927 476.43 468.288C476.046 468.65 475.853 469.279 475.853 470.176V475H473.406V465.317H475.853V466.82ZM484.353 475.157C483.561 475.157 482.85 475.017 482.221 474.738C481.591 474.447 481.09 474.056 480.718 473.567C480.356 473.077 480.158 472.536 480.123 471.941H482.588C482.634 472.314 482.815 472.623 483.13 472.868C483.456 473.112 483.858 473.235 484.336 473.235C484.802 473.235 485.163 473.141 485.419 472.955C485.687 472.769 485.821 472.53 485.821 472.238C485.821 471.924 485.658 471.691 485.332 471.539C485.017 471.376 484.51 471.201 483.811 471.015C483.089 470.84 482.495 470.66 482.028 470.473C481.574 470.287 481.178 470.001 480.84 469.617C480.514 469.232 480.35 468.714 480.35 468.061C480.35 467.525 480.502 467.036 480.805 466.593C481.12 466.15 481.562 465.801 482.133 465.544C482.716 465.288 483.398 465.16 484.178 465.16C485.332 465.16 486.252 465.451 486.94 466.034C487.627 466.605 488.006 467.379 488.076 468.358H485.734C485.699 467.974 485.536 467.671 485.244 467.449C484.965 467.216 484.586 467.1 484.108 467.1C483.666 467.1 483.322 467.181 483.077 467.344C482.844 467.508 482.728 467.735 482.728 468.026C482.728 468.352 482.891 468.603 483.217 468.778C483.543 468.941 484.05 469.11 484.738 469.285C485.437 469.459 486.014 469.64 486.468 469.826C486.922 470.013 487.313 470.304 487.639 470.7C487.977 471.085 488.152 471.598 488.163 472.238C488.163 472.798 488.006 473.299 487.691 473.742C487.388 474.184 486.946 474.534 486.363 474.79C485.792 475.035 485.122 475.157 484.353 475.157Z" fill="#F0F2FF"/>
<circle cx="285.343" cy="97.5472" r="68.9698" fill="url(#paint1_linear)" fill-opacity="0.12"/>
<circle cx="285.342" cy="97.5472" r="48.9463" fill="#FB542B"/>
<path d="M264.618 171.8V179.351C264.618 180.178 264.834 180.813 265.265 181.256C265.696 181.687 266.302 181.903 267.082 181.903C267.875 181.903 268.487 181.687 268.918 181.256C269.349 180.813 269.564 180.178 269.564 179.351V171.8H272.029V179.333C272.029 180.37 271.802 181.25 271.347 181.973C270.904 182.683 270.304 183.219 269.547 183.581C268.801 183.942 267.968 184.122 267.048 184.122C266.139 184.122 265.311 183.942 264.566 183.581C263.832 183.219 263.249 182.683 262.818 181.973C262.387 181.25 262.171 180.37 262.171 179.333V171.8H264.618ZM278.273 184.157C277.481 184.157 276.77 184.017 276.141 183.738C275.512 183.447 275.011 183.056 274.638 182.567C274.277 182.077 274.079 181.536 274.044 180.941H276.508C276.555 181.314 276.735 181.623 277.05 181.868C277.376 182.112 277.778 182.235 278.256 182.235C278.722 182.235 279.083 182.141 279.34 181.955C279.608 181.769 279.742 181.53 279.742 181.238C279.742 180.924 279.578 180.691 279.252 180.539C278.938 180.376 278.431 180.201 277.732 180.015C277.009 179.84 276.415 179.66 275.949 179.473C275.494 179.287 275.098 179.001 274.76 178.617C274.434 178.232 274.271 177.714 274.271 177.061C274.271 176.525 274.422 176.036 274.725 175.593C275.04 175.15 275.483 174.801 276.054 174.544C276.636 174.288 277.318 174.16 278.099 174.16C279.252 174.16 280.173 174.451 280.86 175.034C281.548 175.605 281.926 176.379 281.996 177.358H279.654C279.619 176.974 279.456 176.671 279.165 176.449C278.885 176.216 278.506 176.1 278.029 176.1C277.586 176.1 277.242 176.181 276.997 176.344C276.764 176.508 276.648 176.735 276.648 177.026C276.648 177.352 276.811 177.603 277.137 177.778C277.464 177.941 277.97 178.11 278.658 178.285C279.357 178.459 279.934 178.64 280.388 178.826C280.843 179.013 281.233 179.304 281.559 179.7C281.897 180.085 282.072 180.598 282.084 181.238C282.084 181.798 281.926 182.299 281.612 182.742C281.309 183.184 280.866 183.534 280.283 183.79C279.712 184.035 279.042 184.157 278.273 184.157ZM293.268 178.949C293.268 179.298 293.245 179.613 293.199 179.893H286.12C286.178 180.592 286.423 181.139 286.854 181.536C287.285 181.932 287.815 182.13 288.444 182.13C289.353 182.13 290 181.739 290.385 180.959H293.024C292.744 181.891 292.208 182.66 291.416 183.266C290.623 183.86 289.65 184.157 288.497 184.157C287.565 184.157 286.726 183.953 285.98 183.546C285.246 183.126 284.669 182.538 284.25 181.78C283.842 181.023 283.638 180.149 283.638 179.158C283.638 178.156 283.842 177.277 284.25 176.519C284.657 175.762 285.228 175.179 285.962 174.771C286.697 174.364 287.541 174.16 288.497 174.16C289.417 174.16 290.239 174.358 290.961 174.754C291.695 175.15 292.261 175.715 292.657 176.449C293.065 177.172 293.268 178.005 293.268 178.949ZM290.734 178.25C290.722 177.62 290.495 177.119 290.052 176.746C289.61 176.362 289.068 176.17 288.427 176.17C287.821 176.17 287.308 176.356 286.889 176.729C286.481 177.09 286.23 177.597 286.137 178.25H290.734ZM297.676 175.82C297.991 175.307 298.399 174.905 298.9 174.614C299.413 174.323 299.995 174.177 300.648 174.177V176.746H300.001C299.232 176.746 298.649 176.927 298.253 177.288C297.869 177.65 297.676 178.279 297.676 179.176V184H295.229V174.317H297.676V175.82ZM306.176 184.157C305.384 184.157 304.673 184.017 304.044 183.738C303.414 183.447 302.913 183.056 302.541 182.567C302.179 182.077 301.981 181.536 301.946 180.941H304.411C304.457 181.314 304.638 181.623 304.953 181.868C305.279 182.112 305.681 182.235 306.159 182.235C306.625 182.235 306.986 182.141 307.242 181.955C307.51 181.769 307.644 181.53 307.644 181.238C307.644 180.924 307.481 180.691 307.155 180.539C306.84 180.376 306.333 180.201 305.634 180.015C304.912 179.84 304.317 179.66 303.851 179.473C303.397 179.287 303.001 179.001 302.663 178.617C302.337 178.232 302.173 177.714 302.173 177.061C302.173 176.525 302.325 176.036 302.628 175.593C302.943 175.15 303.385 174.801 303.956 174.544C304.539 174.288 305.221 174.16 306.001 174.16C307.155 174.16 308.075 174.451 308.763 175.034C309.45 175.605 309.829 176.379 309.899 177.358H307.557C307.522 176.974 307.359 176.671 307.067 176.449C306.788 176.216 306.409 176.1 305.931 176.1C305.489 176.1 305.145 176.181 304.9 176.344C304.667 176.508 304.551 176.735 304.551 177.026C304.551 177.352 304.714 177.603 305.04 177.778C305.366 177.941 305.873 178.11 306.561 178.285C307.26 178.459 307.836 178.64 308.291 178.826C308.745 179.013 309.136 179.304 309.462 179.7C309.8 180.085 309.975 180.598 309.986 181.238C309.986 181.798 309.829 182.299 309.514 182.742C309.211 183.184 308.769 183.534 308.186 183.79C307.615 184.035 306.945 184.157 306.176 184.157Z" fill="#F0F2FF"/>
<path fill-rule="evenodd" clip-rule="evenodd" d="M233.197 319.355L263.833 301.357L284.953 264.343V228.655C284.396 228.655 283.839 229.026 283.416 229.765L258.398 273.61L233.382 317.456C232.961 318.196 232.921 318.867 233.197 319.355Z" fill="#FF4724"/>
<path fill-rule="evenodd" clip-rule="evenodd" d="M284.953 228.655V264.343L306.073 301.357L336.709 319.355C336.986 318.867 336.946 318.196 336.524 317.456L311.507 273.61L286.489 229.765C286.066 229.025 285.509 228.655 284.953 228.655Z" fill="#9E1F63"/>
<path fill-rule="evenodd" clip-rule="evenodd" d="M336.709 319.355L306.073 301.357H263.833L233.197 319.355C233.473 319.845 234.067 320.148 234.912 320.148H334.993C335.838 320.148 336.432 319.845 336.709 319.355Z" fill="#662D91"/>
<path fill-rule="evenodd" clip-rule="evenodd" d="M263.833 301.357H306.073L284.954 264.343L263.833 301.357Z" fill="white"/>
<circle cx="140.116" cy="394.035" r="68.9698" fill="url(#paint2_linear)" fill-opacity="0.12"/>
<circle cx="140.116" cy="394.035" r="48.9463" fill="#662D91"/>
<path d="M98.5915 468.802C98.5915 467.602 98.8595 466.53 99.3955 465.586C99.9431 464.631 100.683 463.891 101.615 463.367C102.559 462.831 103.614 462.563 104.779 462.563C106.142 462.563 107.337 462.912 108.362 463.611C109.387 464.31 110.104 465.278 110.512 466.513H107.698C107.418 465.93 107.022 465.493 106.509 465.202C106.008 464.91 105.426 464.765 104.761 464.765C104.051 464.765 103.416 464.934 102.856 465.272C102.309 465.598 101.877 466.064 101.563 466.67C101.26 467.276 101.108 467.987 101.108 468.802C101.108 469.606 101.26 470.317 101.563 470.935C101.877 471.541 102.309 472.013 102.856 472.35C103.416 472.677 104.051 472.84 104.761 472.84C105.426 472.84 106.008 472.694 106.509 472.403C107.022 472.1 107.418 471.657 107.698 471.075H110.512C110.104 472.321 109.387 473.294 108.362 473.993C107.348 474.681 106.154 475.025 104.779 475.025C103.614 475.025 102.559 474.762 101.615 474.238C100.683 473.702 99.9431 472.962 99.3955 472.018C98.8595 471.075 98.5915 470.003 98.5915 468.802ZM115.224 466.74C115.538 466.227 115.946 465.825 116.447 465.534C116.96 465.243 117.542 465.097 118.195 465.097V467.666H117.548C116.779 467.666 116.197 467.847 115.8 468.208C115.416 468.569 115.224 469.199 115.224 470.096V474.92H112.777V465.237H115.224V466.74ZM129.019 469.869C129.019 470.218 128.996 470.533 128.949 470.812H121.871C121.929 471.512 122.174 472.059 122.605 472.455C123.036 472.852 123.566 473.05 124.195 473.05C125.104 473.05 125.751 472.659 126.135 471.879H128.775C128.495 472.811 127.959 473.58 127.167 474.186C126.374 474.78 125.401 475.077 124.248 475.077C123.315 475.077 122.476 474.873 121.731 474.465C120.997 474.046 120.42 473.457 120 472.7C119.593 471.943 119.389 471.069 119.389 470.078C119.389 469.076 119.593 468.196 120 467.439C120.408 466.682 120.979 466.099 121.713 465.691C122.447 465.283 123.292 465.079 124.248 465.079C125.168 465.079 125.99 465.278 126.712 465.674C127.446 466.07 128.011 466.635 128.408 467.369C128.815 468.092 129.019 468.925 129.019 469.869ZM126.485 469.169C126.473 468.54 126.246 468.039 125.803 467.666C125.36 467.282 124.819 467.089 124.178 467.089C123.572 467.089 123.059 467.276 122.64 467.649C122.232 468.01 121.981 468.517 121.888 469.169H126.485ZM130.351 470.043C130.351 469.065 130.543 468.196 130.928 467.439C131.324 466.682 131.854 466.099 132.518 465.691C133.194 465.283 133.946 465.079 134.773 465.079C135.495 465.079 136.125 465.225 136.661 465.516C137.208 465.808 137.645 466.175 137.971 466.618V465.237H140.436V474.92H137.971V473.504C137.657 473.958 137.22 474.337 136.661 474.64C136.113 474.931 135.478 475.077 134.755 475.077C133.94 475.077 133.194 474.867 132.518 474.448C131.854 474.028 131.324 473.44 130.928 472.683C130.543 471.914 130.351 471.034 130.351 470.043ZM137.971 470.078C137.971 469.484 137.855 468.977 137.622 468.558C137.389 468.127 137.074 467.8 136.678 467.579C136.282 467.346 135.857 467.229 135.402 467.229C134.948 467.229 134.528 467.34 134.144 467.561C133.759 467.783 133.445 468.109 133.2 468.54C132.967 468.96 132.85 469.461 132.85 470.043C132.85 470.626 132.967 471.139 133.2 471.581C133.445 472.013 133.759 472.345 134.144 472.578C134.54 472.811 134.959 472.927 135.402 472.927C135.857 472.927 136.282 472.817 136.678 472.595C137.074 472.362 137.389 472.036 137.622 471.616C137.855 471.185 137.971 470.673 137.971 470.078ZM145.85 467.247V471.931C145.85 472.257 145.925 472.496 146.077 472.648C146.24 472.787 146.508 472.857 146.881 472.857H148.017V474.92H146.479C144.416 474.92 143.385 473.918 143.385 471.914V467.247H142.232V465.237H143.385V462.842H145.85V465.237H148.017V467.247H145.85ZM154.251 475.077C153.319 475.077 152.48 474.873 151.735 474.465C150.989 474.046 150.4 473.457 149.969 472.7C149.55 471.943 149.34 471.069 149.34 470.078C149.34 469.088 149.556 468.214 149.987 467.457C150.429 466.699 151.03 466.116 151.787 465.709C152.544 465.289 153.389 465.079 154.321 465.079C155.254 465.079 156.098 465.289 156.856 465.709C157.613 466.116 158.207 466.699 158.639 467.457C159.081 468.214 159.303 469.088 159.303 470.078C159.303 471.069 159.075 471.943 158.621 472.7C158.178 473.457 157.572 474.046 156.803 474.465C156.046 474.873 155.195 475.077 154.251 475.077ZM154.251 472.945C154.694 472.945 155.108 472.84 155.492 472.63C155.889 472.409 156.203 472.082 156.436 471.651C156.669 471.22 156.786 470.696 156.786 470.078C156.786 469.158 156.541 468.453 156.052 467.963C155.574 467.462 154.986 467.212 154.286 467.212C153.587 467.212 152.999 467.462 152.521 467.963C152.055 468.453 151.822 469.158 151.822 470.078C151.822 470.999 152.049 471.71 152.504 472.211C152.97 472.7 153.552 472.945 154.251 472.945ZM163.719 466.74C164.034 466.227 164.442 465.825 164.943 465.534C165.456 465.243 166.038 465.097 166.691 465.097V467.666H166.044C165.275 467.666 164.692 467.847 164.296 468.208C163.912 468.569 163.719 469.199 163.719 470.096V474.92H161.272V465.237H163.719V466.74ZM172.219 475.077C171.427 475.077 170.716 474.937 170.087 474.658C169.458 474.366 168.956 473.976 168.584 473.487C168.222 472.997 168.024 472.455 167.989 471.861H170.454C170.5 472.234 170.681 472.543 170.996 472.787C171.322 473.032 171.724 473.154 172.202 473.154C172.668 473.154 173.029 473.061 173.285 472.875C173.553 472.688 173.687 472.45 173.687 472.158C173.687 471.844 173.524 471.611 173.198 471.459C172.883 471.296 172.376 471.121 171.677 470.935C170.955 470.76 170.361 470.579 169.895 470.393C169.44 470.206 169.044 469.921 168.706 469.536C168.38 469.152 168.217 468.633 168.217 467.981C168.217 467.445 168.368 466.955 168.671 466.513C168.986 466.07 169.428 465.72 169.999 465.464C170.582 465.208 171.264 465.079 172.044 465.079C173.198 465.079 174.118 465.371 174.806 465.953C175.493 466.524 175.872 467.299 175.942 468.278H173.6C173.565 467.893 173.402 467.591 173.111 467.369C172.831 467.136 172.452 467.02 171.974 467.02C171.532 467.02 171.188 467.101 170.943 467.264C170.71 467.427 170.594 467.655 170.594 467.946C170.594 468.272 170.757 468.523 171.083 468.697C171.409 468.861 171.916 469.03 172.604 469.204C173.303 469.379 173.88 469.56 174.334 469.746C174.788 469.933 175.179 470.224 175.505 470.62C175.843 471.005 176.018 471.517 176.029 472.158C176.029 472.718 175.872 473.219 175.558 473.661C175.255 474.104 174.812 474.454 174.229 474.71C173.658 474.955 172.988 475.077 172.219 475.077Z" fill="#F0F2FF"/>
<path opacity="0.5" d="M414.883 277.728C415.497 278.791 416.856 279.155 417.919 278.542C418.982 277.928 419.347 276.569 418.733 275.506L414.883 277.728ZM379.202 211.481L379.202 237.144L401.427 224.313L379.202 211.481ZM418.733 275.506L391.128 227.693L387.279 229.915L414.883 277.728L418.733 275.506Z" fill="#C3AFFF"/>
<path opacity="0.5" d="M320.859 417.124C322.087 417.124 323.082 416.129 323.082 414.902C323.082 413.674 322.087 412.679 320.859 412.679L320.859 417.124ZM245.648 414.902L267.872 427.733L267.872 402.07L245.648 414.902ZM320.859 412.679L265.65 412.679L265.65 417.124L320.859 417.124L320.859 412.679Z" fill="#C3AFFF"/>
<path opacity="0.5" d="M190.603 209.902C191.216 208.839 192.576 208.475 193.639 209.089C194.702 209.703 195.066 211.062 194.452 212.125L190.603 209.902ZM154.921 276.149L154.921 250.486L177.146 263.318L154.921 276.149ZM194.452 212.125L166.847 259.938L162.998 257.715L190.603 209.902L194.452 212.125Z" fill="#C3AFFF"/>
<g filter="url(#filter0_d)">
<circle cx="431.574" cy="394.035" r="35.8515" fill="white"/>
</g>
<mask id="mask0" mask-type="alpha" maskUnits="userSpaceOnUse" x="395" y="358" width="73" height="72">
<ellipse cx="431.613" cy="394.035" rx="36.0976" ry="35.8515" fill="white"/>
</mask>
<g mask="url(#mask0)">
<path d="M412.991 415.991C412.89 415.047 412.989 414.093 413.281 413.191C413.573 412.288 414.051 411.457 414.686 410.751C415.32 410.046 416.096 409.482 416.962 409.096C417.829 408.71 418.767 408.511 419.716 408.511H445.036C445.984 408.51 446.922 408.709 447.788 409.096C448.654 409.482 449.429 410.046 450.062 410.752C450.695 411.458 451.172 412.289 451.462 413.192C451.751 414.095 451.848 415.048 451.744 415.991L447.558 455.258C447.384 456.92 446.601 458.459 445.359 459.577C444.117 460.695 442.505 461.314 440.833 461.313H423.902C422.231 461.314 420.618 460.695 419.376 459.577C418.135 458.459 417.351 456.92 417.177 455.258L412.991 415.991Z" fill="#AB216B"/>
<path d="M432.668 413.726H444.471C444.471 413.726 440.165 409.866 438.998 406.418C438.377 404.032 438.06 401.576 438.055 399.11H426.51C426.249 401.609 425.673 404.065 424.794 406.418C423.455 408.994 421.882 411.44 420.094 413.726H431.021L431.845 414.309L432.668 413.726Z" fill="#F1DDCE"/>
<path d="M432.287 404.102C426.711 404.102 421.565 394.907 421.565 389.4C421.507 387.96 421.741 386.522 422.253 385.174C422.764 383.826 423.543 382.595 424.542 381.556C425.541 380.516 426.739 379.689 428.066 379.124C429.392 378.559 430.819 378.267 432.261 378.267C433.703 378.267 435.13 378.559 436.456 379.124C437.783 379.689 438.981 380.516 439.98 381.556C440.979 382.595 441.758 383.826 442.269 385.174C442.781 386.522 443.015 387.96 442.957 389.4C442.974 394.907 437.879 404.102 432.287 404.102Z" fill="#F6E5D9"/>
<path d="M446.321 414.979L458.141 434.912" stroke="#AB216B" stroke-width="13.8205" stroke-linecap="round"/>
<path d="M405.013 430.692C404.927 430.008 404.98 429.313 405.168 428.649C405.356 427.986 405.675 427.366 406.107 426.829C406.539 426.291 407.075 425.846 407.683 425.519C408.29 425.193 408.957 424.992 409.644 424.928H410.159C410.86 424.886 411.563 424.988 412.223 425.227C412.884 425.467 413.488 425.839 413.999 426.322C414.51 426.804 414.917 427.386 415.195 428.031C415.473 428.676 415.615 429.372 415.614 430.074V453.902C415.614 454.823 415.264 455.71 414.635 456.384C414.007 457.057 413.146 457.466 412.227 457.53C411.308 457.593 410.399 457.305 409.684 456.724C408.969 456.143 408.501 455.312 408.375 454.4L405.013 430.692Z" fill="#9E1F63"/>
<path d="M418.136 414.447L412.149 429.886" stroke="#AB216B" stroke-width="13.8205" stroke-linecap="round"/>
<path d="M440.026 408.511L431.86 414.31L436.372 419.456L442.903 408.511H440.026Z" fill="#7C194E"/>
<path d="M423.694 408.511L431.86 414.31L427.331 419.456L421.267 408.511H423.694Z" fill="#7C194E"/>
<path fill-rule="evenodd" clip-rule="evenodd" d="M424.466 380.531C425.921 379.06 427.858 378.165 429.921 378.01C431.448 377.684 433.026 377.684 434.553 378.01C436.473 378.346 438.257 379.221 439.699 380.531C439.957 380.737 440.231 380.926 440.506 381.115C441.032 381.396 441.475 381.81 441.792 382.316C442.439 382.919 442.902 383.692 443.13 384.546C443.375 385.354 443.301 386.226 442.925 386.982C442.777 387.289 442.684 387.62 442.65 387.959C441.878 388.2 440.815 387.067 440.3 385.438C440.199 385.137 440.13 384.826 440.094 384.511C439.528 384.646 438.956 384.749 438.379 384.82H437.915C437.064 384.924 436.199 384.824 435.394 384.528C434.692 384.287 433.957 384.16 433.215 384.151C432.347 384.201 431.491 384.38 430.676 384.683C429.848 385.002 428.973 385.181 428.086 385.215H426.816C425.99 385.311 425.155 385.311 424.329 385.215C424.336 385.295 424.336 385.375 424.329 385.455C423.814 387.17 422.768 388.217 421.979 387.977C421.95 387.625 421.857 387.282 421.704 386.964C421.328 386.221 421.254 385.36 421.498 384.563C421.727 383.709 422.19 382.936 422.836 382.333C423.196 381.779 423.616 381.267 424.089 380.806L424.466 380.531Z" fill="black"/>
</g>
<g filter="url(#filter1_d)">
<circle cx="285.342" cy="97.5473" r="36.0976" fill="white"/>
</g>
<mask id="mask1" mask-type="alpha" maskUnits="userSpaceOnUse" x="249" y="61" width="73" height="73">
<circle cx="285.342" cy="97.5473" r="36.0976" fill="white"/>
</mask>
<g mask="url(#mask1)">
<path d="M279.405 102.462C282.879 102.462 285.695 99.646 285.695 96.1722C285.695 92.6983 282.879 89.8822 279.405 89.8822C275.932 89.8822 273.115 92.6983 273.115 96.1722C273.115 99.646 275.932 102.462 279.405 102.462Z" fill="black"/>
<path d="M279.405 102.462C282.879 102.462 285.695 99.646 285.695 96.1722C285.695 92.6983 282.879 89.8822 279.405 89.8822C275.932 89.8822 273.115 92.6983 273.115 96.1722C273.115 99.646 275.932 102.462 279.405 102.462Z" fill="black"/>
<path d="M290.3 105.181C293.773 105.181 296.589 102.365 296.589 98.8907C296.589 95.4168 293.773 92.6007 290.3 92.6007C286.826 92.6007 284.01 95.4168 284.01 98.8907C284.01 102.365 286.826 105.181 290.3 105.181Z" fill="black"/>
<path d="M279.405 102.462C282.879 102.462 285.695 99.646 285.695 96.1722C285.695 92.6983 282.879 89.8822 279.405 89.8822C275.932 89.8822 273.115 92.6983 273.115 96.1722C273.115 99.646 275.932 102.462 279.405 102.462Z" fill="black"/>
<path d="M290.3 105.181C293.773 105.181 296.589 102.365 296.589 98.8907C296.589 95.4168 293.773 92.6007 290.3 92.6007C286.826 92.6007 284.01 95.4168 284.01 98.8907C284.01 102.365 286.826 105.181 290.3 105.181Z" fill="black"/>
<path d="M266.943 121.789C266.845 120.877 266.941 119.954 267.224 119.082C267.507 118.209 267.97 117.406 268.584 116.724C269.198 116.043 269.949 115.499 270.788 115.127C271.626 114.755 272.534 114.564 273.451 114.566H297.936C298.853 114.567 299.759 114.76 300.596 115.133C301.433 115.506 302.182 116.05 302.796 116.731C303.409 117.412 303.873 118.214 304.157 119.085C304.441 119.956 304.539 120.877 304.445 121.789L300.476 159.787C300.302 161.416 299.522 162.92 298.291 164.001C297.06 165.081 295.467 165.659 293.829 165.62H277.499C275.885 165.625 274.326 165.031 273.124 163.953C271.923 162.876 271.162 161.392 270.991 159.787L266.943 121.789Z" fill="#FF4724"/>
<path d="M290.3 105.181C293.773 105.181 296.589 102.365 296.589 98.8907C296.589 95.4168 293.773 92.6007 290.3 92.6007C286.826 92.6007 284.01 95.4168 284.01 98.8907C284.01 102.365 286.826 105.181 290.3 105.181Z" fill="black"/>
<path d="M296.926 119.606C295.41 118.088 294.078 116.396 292.958 114.566C292.566 113.94 292.24 113.275 291.986 112.582C291.413 110.27 291.12 107.899 291.113 105.518H280.378C280.129 107.927 279.596 110.298 278.791 112.582C277.562 115.071 276.107 117.442 274.445 119.665H283.414L283.711 119.943C283.97 120.204 284.256 120.437 284.565 120.638C284.899 120.833 285.279 120.936 285.666 120.936C286.053 120.936 286.433 120.833 286.767 120.638C287.058 120.416 287.33 120.171 287.581 119.903L287.759 119.725L296.926 119.606Z" fill="#F1DDCE"/>
<path d="M285.693 109.744C277.955 109.744 275.971 101.391 275.971 95.9738C275.971 93.3741 277.003 90.8809 278.842 89.0427C280.68 87.2045 283.173 86.1718 285.773 86.1718C288.372 86.1718 290.866 87.2045 292.704 89.0427C294.542 90.8809 295.575 93.3741 295.575 95.9738C295.495 101.391 293.511 109.744 285.693 109.744Z" fill="#F6E5D9"/>
<path d="M314.761 136.154C315.051 135.629 315.23 135.051 315.287 134.454C315.343 133.858 315.276 133.256 315.09 132.686C314.904 132.117 314.603 131.591 314.205 131.143C313.807 130.695 313.321 130.334 312.777 130.082L312.38 129.884C311.838 129.624 311.248 129.48 310.647 129.459C310.046 129.439 309.447 129.543 308.888 129.764C308.33 129.986 307.822 130.321 307.399 130.748C306.976 131.175 306.645 131.684 306.428 132.245L299.026 151.353C298.751 152.09 298.764 152.904 299.061 153.632C299.358 154.361 299.918 154.951 300.63 155.286C301.342 155.621 302.154 155.676 302.904 155.44C303.655 155.204 304.289 154.694 304.682 154.012L314.761 136.154Z" fill="#F1DDCE"/>
<path d="M256.724 136.154C256.434 135.629 256.256 135.051 256.199 134.454C256.143 133.858 256.209 133.256 256.396 132.686C256.582 132.117 256.883 131.591 257.281 131.143C257.679 130.695 258.165 130.334 258.709 130.082L259.105 129.884C259.648 129.624 260.238 129.48 260.839 129.459C261.44 129.439 262.038 129.543 262.597 129.764C263.156 129.986 263.663 130.321 264.087 130.748C264.51 131.175 264.841 131.684 265.058 132.245L272.479 151.353C272.754 152.09 272.742 152.904 272.445 153.632C272.148 154.361 271.588 154.951 270.876 155.286C270.164 155.621 269.352 155.676 268.601 155.44C267.851 155.204 267.216 154.694 266.824 154.012L256.724 136.154Z" fill="#F1DDCE"/>
<path d="M299.343 120.678L310.633 131.948" stroke="#FF4724" stroke-width="16.5844" stroke-linecap="round"/>
<path d="M272.143 120.678L260.853 131.948" stroke="#FF4724" stroke-width="16.5844" stroke-linecap="round"/>
<path d="M273.232 86.6872C273.943 86.2164 274.751 85.9114 275.596 85.7946C276.441 85.6779 277.301 85.7523 278.113 86.0126C281.248 86.6872 280.316 83.572 282.895 83.0164C285.455 82.7698 288.037 82.9103 290.554 83.4331C293.769 83.8101 295.019 86.1316 296.864 88.7905C298.709 91.4494 300.833 93.0169 299.642 95.6758C299.174 96.8051 298.314 97.7278 297.221 98.2746C296.128 98.8213 294.874 98.9553 293.689 98.6521C291.15 98.0171 291.943 94.6836 289.721 93.1955C286.546 91.0327 283.768 91.5684 279.959 92.4216C277.121 93.0764 275.851 95.8146 273.252 94.5249C271.109 93.4534 270.335 92.3621 270.851 90.0406C270.979 89.3416 271.258 88.6791 271.669 88.0997C272.081 87.5203 272.614 87.0382 273.232 86.6872Z" fill="black"/>
</g>
<g filter="url(#filter2_d)">
<circle cx="140.116" cy="394.034" r="36.0976" fill="white"/>
</g>
<mask id="mask2" mask-type="alpha" maskUnits="userSpaceOnUse" x="104" y="357" width="73" height="74">
<circle cx="140.116" cy="394.034" r="36.0976" fill="white"/>
</mask>
<g mask="url(#mask2)">
<path d="M140.25 404.077C147.066 404.077 152.592 398.551 152.592 391.735C152.592 384.918 147.066 379.393 140.25 379.393C133.433 379.393 127.908 384.918 127.908 391.735C127.908 398.551 133.433 404.077 140.25 404.077Z" fill="#212529"/>
<path d="M135.378 401.188H145.285C145.3 403.601 145.576 406.005 146.108 408.358C147.198 411.025 148.795 413.454 150.81 415.512H129.787C131.338 413.248 132.692 410.855 133.833 408.358C134.614 406.033 135.132 403.628 135.378 401.188Z" fill="#F1DDCE"/>
<path d="M140.247 405.537C134.772 405.537 130.339 397.141 130.339 391.6C130.284 390.264 130.5 388.93 130.974 387.679C131.447 386.428 132.169 385.286 133.095 384.321C134.021 383.355 135.133 382.588 136.363 382.063C137.594 381.538 138.917 381.268 140.255 381.268C141.593 381.268 142.916 381.538 144.147 382.063C145.377 382.588 146.489 383.355 147.415 384.321C148.341 385.286 149.063 386.428 149.536 387.679C150.01 388.93 150.226 390.264 150.171 391.6C150.171 397.007 145.738 405.537 140.247 405.537Z" fill="#F6E5D9"/>
<path d="M121.291 417.711C121.197 416.793 121.297 415.865 121.584 414.987C121.871 414.11 122.339 413.302 122.958 412.617C123.577 411.931 124.332 411.384 125.176 411.009C126.02 410.634 126.933 410.44 127.856 410.44H152.641C153.568 410.44 154.485 410.635 155.332 411.011C156.179 411.388 156.938 411.939 157.558 412.627C158.179 413.316 158.648 414.127 158.935 415.009C159.222 415.891 159.32 416.823 159.224 417.745L155.126 456.198C154.952 457.822 154.184 459.324 152.968 460.415C151.753 461.507 150.177 462.11 148.544 462.109H132.021C130.388 462.11 128.812 461.507 127.596 460.415C126.381 459.324 125.613 457.822 125.438 456.198L121.291 417.711Z" fill="#662D91"/>
<path fill-rule="evenodd" clip-rule="evenodd" d="M139.004 387.184C139.987 387.172 140.948 386.898 141.789 386.389C142.63 385.881 143.319 385.157 143.786 384.292C144.253 383.428 144.479 382.454 144.443 381.472C144.407 380.49 144.108 379.536 143.579 378.708C143.049 377.881 142.308 377.21 141.432 376.765C140.556 376.32 139.577 376.118 138.596 376.179C137.616 376.24 136.669 376.563 135.855 377.113C135.041 377.663 134.389 378.421 133.966 379.308C133.497 379.177 133.01 379.115 132.522 379.123C131.062 379.123 129.661 379.704 128.628 380.737C127.595 381.77 127.015 383.17 127.015 384.631C127.019 385.078 127.075 385.524 127.183 385.958C126.216 386.271 125.355 386.845 124.694 387.617C124.033 388.389 123.599 389.328 123.439 390.332C123.28 391.335 123.401 392.363 123.789 393.302C124.177 394.241 124.817 395.054 125.639 395.652C126.461 396.25 127.432 396.608 128.445 396.688C129.458 396.768 130.473 396.567 131.378 396.106C132.284 395.644 133.044 394.942 133.575 394.075C134.106 393.209 134.386 392.213 134.386 391.197C134.381 390.75 134.325 390.305 134.218 389.87C134.944 389.646 135.617 389.275 136.194 388.781C136.772 388.288 137.242 387.681 137.577 386.999C138.043 387.12 138.522 387.182 139.004 387.184Z" fill="#212529"/>
<path d="M162.798 433.597C162.885 433.006 162.852 432.403 162.699 431.826C162.547 431.249 162.279 430.708 161.911 430.237C161.544 429.766 161.085 429.375 160.562 429.086C160.039 428.798 159.463 428.618 158.869 428.559H158.416C157.812 428.501 157.203 428.568 156.627 428.757C156.05 428.946 155.519 429.251 155.067 429.655C154.614 430.059 154.25 430.552 153.997 431.103C153.744 431.654 153.607 432.251 153.596 432.858L153.193 453.596C153.196 454.388 153.494 455.15 154.03 455.733C154.565 456.317 155.3 456.679 156.089 456.748C156.878 456.817 157.664 456.589 158.294 456.109C158.923 455.628 159.35 454.929 159.49 454.15L162.798 433.597Z" fill="#F1DDCE"/>
<path d="M153.665 416.771L157.846 432.371" stroke="#662D91" stroke-width="14.0115" stroke-linecap="round"/>
<path fill-rule="evenodd" clip-rule="evenodd" d="M145.991 408.241C144.115 407.837 142.2 407.639 140.281 407.653C138.096 407.625 135.917 407.884 133.8 408.426C133.565 409.03 133.229 409.719 132.876 410.407H130.441C130.374 410.555 130.34 410.715 130.341 410.877C130.341 412.657 134.79 414.101 140.281 414.101C145.772 414.101 150.222 412.657 150.222 410.877C150.223 410.715 150.188 410.555 150.121 410.407H146.914C146.547 409.751 146.249 409.059 146.024 408.342L145.991 408.241Z" fill="#F1DDCE"/>
<path d="M111.284 430.742C111.048 430.186 110.928 429.588 110.932 428.984C110.937 428.38 111.065 427.784 111.309 427.231C111.553 426.679 111.907 426.182 112.351 425.772C112.794 425.363 113.317 425.048 113.887 424.848L114.306 424.697C114.881 424.499 115.491 424.421 116.097 424.468C116.703 424.516 117.293 424.687 117.83 424.972C118.367 425.257 118.84 425.65 119.219 426.125C119.597 426.601 119.875 427.149 120.032 427.736L125.305 447.769C125.49 448.537 125.381 449.346 125.001 450.039C124.621 450.731 123.996 451.257 123.248 451.513C122.501 451.769 121.685 451.737 120.96 451.424C120.235 451.11 119.652 450.537 119.327 449.817L111.284 430.742Z" fill="#F1DDCE"/>
<path d="M127.066 416.217L115.648 427.636" stroke="#662D91" stroke-width="14.0115" stroke-linecap="round"/>
</g>
<defs>
<filter id="filter0_d" x="366.099" y="343.371" width="130.951" height="130.951" filterUnits="userSpaceOnUse" color-interpolation-filters="sRGB">
<feFlood flood-opacity="0" result="BackgroundImageFix"/>
<feColorMatrix in="SourceAlpha" type="matrix" values="0 0 0 0 0 0 0 0 0 0 0 0 0 0 0 0 0 0 127 0"/>
<feOffset dy="14.812"/>
<feGaussianBlur stdDeviation="14.812"/>
<feColorMatrix type="matrix" values="0 0 0 0 0.152941 0 0 0 0 0.180392 0 0 0 0 0.25098 0 0 0 0.16 0"/>
<feBlend mode="normal" in2="BackgroundImageFix" result="effect1_dropShadow"/>
<feBlend mode="normal" in="SourceGraphic" in2="effect1_dropShadow" result="shape"/>
</filter>
<filter id="filter1_d" x="218.3" y="45.9774" width="134.084" height="134.084" filterUnits="userSpaceOnUse" color-interpolation-filters="sRGB">
<feFlood flood-opacity="0" result="BackgroundImageFix"/>
<feColorMatrix in="SourceAlpha" type="matrix" values="0 0 0 0 0 0 0 0 0 0 0 0 0 0 0 0 0 0 127 0"/>
<feOffset dy="15.4723"/>
<feGaussianBlur stdDeviation="15.4723"/>
<feColorMatrix type="matrix" values="0 0 0 0 0.152941 0 0 0 0 0.180392 0 0 0 0 0.25098 0 0 0 0.16 0"/>
<feBlend mode="normal" in2="BackgroundImageFix" result="effect1_dropShadow"/>
<feBlend mode="normal" in="SourceGraphic" in2="effect1_dropShadow" result="shape"/>
</filter>
<filter id="filter2_d" x="73.1255" y="342.49" width="133.981" height="133.981" filterUnits="userSpaceOnUse" color-interpolation-filters="sRGB">
<feFlood flood-opacity="0" result="BackgroundImageFix"/>
<feColorMatrix in="SourceAlpha" type="matrix" values="0 0 0 0 0 0 0 0 0 0 0 0 0 0 0 0 0 0 127 0"/>
<feOffset dy="15.4465"/>
<feGaussianBlur stdDeviation="15.4465"/>
<feColorMatrix type="matrix" values="0 0 0 0 0.152941 0 0 0 0 0.180392 0 0 0 0 0.25098 0 0 0 0.16 0"/>
<feBlend mode="normal" in2="BackgroundImageFix" result="effect1_dropShadow"/>
<feBlend mode="normal" in="SourceGraphic" in2="effect1_dropShadow" result="shape"/>
</filter>
<linearGradient id="paint0_linear" x1="431.614" y1="325.065" x2="431.614" y2="463.005" gradientUnits="userSpaceOnUse">
<stop stop-color="white"/>
<stop offset="1" stop-color="white" stop-opacity="0"/>
</linearGradient>
<linearGradient id="paint1_linear" x1="285.343" y1="28.5774" x2="285.343" y2="166.517" gradientUnits="userSpaceOnUse">
<stop stop-color="white"/>
<stop offset="1" stop-color="white" stop-opacity="0"/>
</linearGradient>
<linearGradient id="paint2_linear" x1="140.116" y1="325.065" x2="140.116" y2="463.005" gradientUnits="userSpaceOnUse">
<stop stop-color="white"/>
<stop offset="1" stop-color="white" stop-opacity="0"/>
</linearGradient>
</defs>
</svg>
