<svg width="117" height="27" viewBox="0 0 117 27" fill="none" xmlns="http://www.w3.org/2000/svg">
<g clip-path="url(#clip0)">
<path d="M37.0924 18.4214V12.6669C37.2685 12.3398 37.561 12.0379 37.9698 11.7612C38.3786 11.4845 38.8282 11.3461 39.3188 11.3461C39.7213 11.3461 40.0169 11.3776 40.2056 11.4405L40.4886 9.1575C40.1364 9.10719 39.8596 9.08203 39.6584 9.08203C38.4886 9.08203 37.6018 9.45309 36.9981 10.1952V9.27071H34.6396V18.4214H37.0924ZM46.2243 18.6101C47.1802 18.6101 48.0041 18.3019 48.6959 17.6856V18.4214H51.0543V9.27071H48.6016V15.214C48.0104 15.9687 47.2997 16.346 46.4696 16.346C45.8909 16.346 45.4318 16.1573 45.0922 15.78C44.7903 15.4404 44.6394 14.9184 44.6394 14.214V9.27071H42.1866V14.1196C42.1866 15.3775 42.4948 16.3837 43.1111 17.1384C43.9036 18.1196 44.9413 18.6101 46.2243 18.6101ZM56.3372 18.4214V12.4782C56.5385 12.1889 56.8435 11.9279 57.2523 11.6952C57.6611 11.4625 58.0982 11.3461 58.5636 11.3461C59.1422 11.3461 59.6013 11.5159 59.9409 11.8555C60.3057 12.2203 60.4881 12.7926 60.4881 13.5725V18.4214H62.9409V13.7612C62.9409 12.365 62.6264 11.2958 61.9975 10.5537C61.1799 9.57259 60.1233 9.08203 58.8277 9.08203C57.8592 9.08203 56.9976 9.3902 56.2429 10.0065V9.27071H53.8845V18.4214H56.3372ZM68.0351 18.4214V12.4782C68.2363 12.1889 68.5413 11.9279 68.9501 11.6952C69.3589 11.4625 69.796 11.3461 70.2614 11.3461C70.84 11.3461 71.2991 11.5159 71.6388 11.8555C72.0035 12.2203 72.1859 12.7926 72.1859 13.5725V18.4214H74.6387V13.7612C74.6387 12.365 74.3242 11.2958 73.6953 10.5537C72.8777 9.57259 71.8211 9.08203 70.5256 9.08203C69.557 9.08203 68.6954 9.3902 67.9407 10.0065V9.27071H65.5823V18.4214H68.0351ZM81.148 18.6101C82.1165 18.6101 82.9655 18.3019 83.6951 17.6856V18.4214H86.0535V9.27071H83.6951V10.0065C82.9404 9.3902 82.0473 9.08203 81.0159 9.08203C79.7706 9.08203 78.7109 9.54114 77.8367 10.4594C76.9625 11.3776 76.5254 12.5096 76.5254 13.8555C76.5254 15.0882 76.9154 16.1573 77.6952 17.063C78.5883 18.0944 79.7392 18.6101 81.148 18.6101ZM81.3932 16.346C80.7014 16.346 80.126 16.1102 79.6669 15.6385C79.2078 15.1668 78.9782 14.5725 78.9782 13.8555C78.9782 13.1763 79.1983 12.5882 79.6386 12.0914C80.0788 11.5945 80.6448 11.3461 81.3366 11.3461C82.28 11.3461 83.0347 11.7235 83.6007 12.4782V15.214C83.0724 15.9687 82.3366 16.346 81.3932 16.346ZM91.3364 18.4214V12.6669C91.5125 12.3398 91.8049 12.0379 92.2137 11.7612C92.6225 11.4845 93.0722 11.3461 93.5627 11.3461C93.9653 11.3461 94.2609 11.3776 94.4495 11.4405L94.7325 9.1575C94.3803 9.10719 94.1036 9.08203 93.9024 9.08203C92.7326 9.08203 91.8458 9.45309 91.242 10.1952V9.27071H88.8836V18.4214H91.3364ZM100.732 18.6101C102.116 18.6101 103.273 18.151 104.204 17.2328C105.135 16.3146 105.6 15.1888 105.6 13.8555C105.6 12.5222 105.135 11.3933 104.204 10.4688C103.273 9.54428 102.116 9.08203 100.732 9.08203C99.3488 9.08203 98.1916 9.54428 97.2608 10.4688C96.33 11.3933 95.8646 12.5222 95.8646 13.8555C95.8646 15.1888 96.33 16.3146 97.2608 17.2328C98.1916 18.151 99.3488 18.6101 100.732 18.6101ZM100.732 16.346C100.028 16.346 99.4494 16.107 98.9966 15.629C98.5438 15.1511 98.3174 14.5599 98.3174 13.8555C98.3174 13.1511 98.5438 12.5599 98.9966 12.082C99.4494 11.5914 100.028 11.3461 100.732 11.3461C101.437 11.3461 102.015 11.5883 102.468 12.0725C102.921 12.5568 103.147 13.1511 103.147 13.8555C103.147 14.5599 102.921 15.1511 102.468 15.629C102.015 16.107 101.437 16.346 100.732 16.346ZM111.789 18.6101C113.172 18.6101 114.33 18.151 115.26 17.2328C116.191 16.3146 116.657 15.1888 116.657 13.8555C116.657 12.5222 116.191 11.3933 115.26 10.4688C114.33 9.54428 113.172 9.08203 111.789 9.08203C110.405 9.08203 109.248 9.54428 108.317 10.4688C107.386 11.3933 106.921 12.5222 106.921 13.8555C106.921 15.1888 107.386 16.3146 108.317 17.2328C109.248 18.151 110.405 18.6101 111.789 18.6101ZM111.789 16.346C111.084 16.346 110.506 16.107 110.053 15.629C109.6 15.1511 109.374 14.5599 109.374 13.8555C109.374 13.1511 109.6 12.5599 110.053 12.082C110.506 11.5914 111.084 11.3461 111.789 11.3461C112.493 11.3461 113.072 11.5883 113.525 12.0725C113.977 12.5568 114.204 13.1511 114.204 13.8555C114.204 14.5599 113.977 15.1511 113.525 15.629C113.072 16.107 112.493 16.346 111.789 16.346Z" fill="#1168DE"/>
<path fill-rule="evenodd" clip-rule="evenodd" d="M12.2606 0.252808C18.6285 0.252808 23.7907 5.41502 23.7907 11.7829C23.7907 14.1566 23.0734 16.3627 21.8438 18.1964L27.1297 23.4826C27.8119 24.1648 27.8119 25.271 27.1297 25.9532C26.4474 26.6355 25.3413 26.6355 24.6591 25.9532L19.4797 20.7739C17.5038 22.3625 14.9932 23.3131 12.2606 23.3131C5.89268 23.3131 0.730469 18.1508 0.730469 11.7829C0.730469 5.41502 5.89268 0.252808 12.2606 0.252808ZM18.5497 10.56C17.8744 10.56 17.3269 11.1075 17.3269 11.7829C17.3269 14.5809 15.0586 16.8492 12.2606 16.8492C9.46261 16.8492 7.19432 14.5809 7.19432 11.7829C7.19432 11.1075 6.64682 10.56 5.97143 10.56C5.29605 10.56 4.74854 11.1075 4.74854 11.7829C4.74854 15.9317 8.11184 19.295 12.2606 19.295C16.4093 19.295 19.7726 15.9317 19.7726 11.7829C19.7726 11.1075 19.2251 10.56 18.5497 10.56Z" fill="#1168DE"/>
</g>
<defs>
<clipPath id="clip0">
<rect width="116" height="26.5542" fill="white" transform="translate(0.730469 0.252808)"/>
</clipPath>
</defs>
</svg>
