<svg width="72" height="24" viewBox="0 0 72 24" fill="none" xmlns="http://www.w3.org/2000/svg">
<g clip-path="url(#clip0)">
<path d="M24.0567 23.9734V0.440918H0V23.9734H24.0567Z" fill="#D62021"/>
<path d="M48.2268 23.9734V0.440918H24.0568V23.9734H48.2268Z" fill="#000005"/>
<path d="M72.0001 23.9734V0.440918H48.2268V23.9734H72.0001Z" fill="#237BBD"/>
<path d="M14.5458 18.5854V11.4591C14.5458 10.4107 14.3475 9.6456 13.9366 9.14973C13.5258 8.65387 12.874 8.42718 11.9532 8.42718C11.4715 8.44135 11.0181 8.56886 10.5931 8.78137C10.1539 8.97972 9.75716 9.29141 9.45964 9.67394V18.5996H6.58361V6.20286H8.66625L9.20463 7.36461C9.98385 6.45788 11.1456 6.00452 12.6899 6.00452C14.1633 6.00452 15.3251 6.44371 16.1751 7.32211C17.0252 8.2005 17.4502 9.43309 17.4502 11.0057V18.5996L14.5458 18.5854Z" fill="white"/>
<path d="M35.9105 18.8263C37.7948 18.8263 39.2965 18.2738 40.3875 17.1829C41.4784 16.0919 42.0309 14.5335 42.0309 12.5075C42.0309 8.15806 40.0616 5.99041 36.1088 5.99041C35.1171 5.96208 34.1537 6.33044 33.4453 7.02465V6.20293H30.5551V21.8724H33.4311V18.2879C34.2104 18.6563 35.0604 18.8405 35.9105 18.8263ZM35.2729 8.45558C36.6047 8.45558 37.5539 8.7531 38.1348 9.34815C38.7157 9.94319 38.999 10.9774 38.999 12.4367C38.999 13.811 38.7015 14.8027 38.1348 15.4402C37.5539 16.0778 36.6047 16.3895 35.2729 16.3895C34.607 16.4036 33.9553 16.177 33.4453 15.7519V9.26314C33.9128 8.7531 34.5787 8.46975 35.2729 8.45558Z" fill="white"/>
<path d="M63.5092 8.90888C62.9992 8.58303 62.4183 8.41302 61.8233 8.42718C61.1574 8.42718 60.5623 8.7247 60.0523 9.33391C59.5281 9.95729 59.2447 10.7507 59.2731 11.5582V18.5854H56.3829V6.20286H59.2731V7.39295C60.0806 6.47205 61.1432 6.00452 62.4891 6.00452C63.4667 6.00452 64.2176 6.16036 64.7418 6.45788L63.5092 8.90888Z" fill="white"/>
</g>
<defs>
<clipPath id="clip0">
<rect width="72" height="23.5325" fill="white" transform="translate(0 0.440918)"/>
</clipPath>
</defs>
</svg>
