<svg width="124" height="16" viewBox="0 0 124 16" fill="none" xmlns="http://www.w3.org/2000/svg">
<g clip-path="url(#clip0)">
<path d="M110.626 10.87C110.145 11.2638 109.051 12.2133 108.6 12.6365C108.179 12.2714 107.31 11.6055 106.769 11.2267V11.1619C106.925 11.1103 107.029 10.9701 107.029 10.6266V6.57576C106.593 6.26946 105.89 5.81393 105.424 5.52261L104.954 5.99255V10.8214L105.683 11.3561C105.683 11.3561 104.66 12.2133 104.209 12.6365C103.804 12.257 103.21 11.8147 102.67 11.4208V11.3723C102.826 11.3213 102.929 11.1649 102.929 10.8214V6.57576C102.493 6.26946 101.807 5.84627 101.341 5.55495L100.774 5.99255V10.8214L101.503 11.3561C101.503 11.3561 100.508 12.157 100.029 12.6203C99.5778 12.2265 99.0899 11.8674 98.4893 11.4208V11.3885C98.6583 11.322 98.7644 11.1188 98.7644 10.8862V6.00872L98.2141 5.53878L97.6141 6.08965L97.339 5.8139C97.7892 5.44946 98.7506 4.61329 99.3968 4.01507L100.774 5.21449V5.55495L102.637 4.01507C103.223 4.42387 104.954 5.49023 104.954 5.49023L106.737 4.01507C107.308 4.45264 108.609 5.24328 109.329 5.65209V5.71681C109.089 5.77914 109.07 6.07465 109.07 6.23529V10.6266L109.783 11.1289L110.35 10.6266L110.626 10.87V10.87ZM97.3714 2.42722C96.8906 3.08358 96.4992 3.38327 95.7188 3.38327C95.1925 3.38327 94.9078 3.23103 94.487 2.73531L93.9037 3.27L93.6442 2.96188L95.6696 1.19542C96.1959 2.23122 96.8283 2.37685 97.339 2.36247L97.3714 2.42722Z" fill="#231F20"/>
<path d="M98.0197 10.8376C97.494 11.2752 96.4576 12.1731 95.9781 12.6365C95.5273 12.2426 94.7637 11.6726 94.1636 11.2266V11.1775C94.3321 11.1109 94.4226 10.9083 94.4226 10.6758V6.00871L93.8879 5.55494L93.2561 6.10581L92.9966 5.84627C93.4473 5.48183 94.4244 4.61328 95.0712 4.01506L96.7076 5.42488V5.49022C96.5122 5.54777 96.448 5.67003 96.448 6.10581V10.6266L97.1607 11.0966L97.744 10.5781L98.0197 10.8376V10.8376ZM65.1111 10.8376C64.5848 11.2752 63.5323 12.1731 63.0527 12.6365C62.602 12.2426 61.8383 11.6726 61.2383 11.2266V11.1775C61.4067 11.1109 61.4972 10.9083 61.4972 10.6758V3.10756L60.9464 2.63762L60.347 3.15669L60.0874 2.89715C60.5382 2.53271 61.4025 1.72888 62.0481 1.13066L63.7822 2.54048V2.60524C63.5868 2.66338 63.5065 2.78567 63.5065 3.22145V10.6266L64.2522 11.1128L64.8516 10.5781L65.1111 10.8376V10.8376ZM46.4926 10.87C46.0125 11.2638 44.9018 12.2133 44.4516 12.6365C44.0308 12.2714 43.1773 11.6055 42.6366 11.2266V11.1619C42.7931 11.1103 42.9123 10.9701 42.9123 10.6266V6.57575C42.4766 6.26945 41.7734 5.83009 41.3077 5.53877C41.213 5.6071 40.8384 5.87445 40.7407 5.96016V10.8214L41.4863 11.3561C41.4863 11.3561 40.4913 12.1569 40.0118 12.6203C39.561 12.2265 39.0569 11.8674 38.4563 11.4208V11.3885C38.6247 11.322 38.7314 11.1188 38.7314 10.8862V6.00871L38.1644 5.53877L37.5973 6.00871L37.3545 5.74917C37.8047 5.38473 38.7338 4.61328 39.38 4.01506L40.7407 5.21448V5.55494L42.6042 4.01506C43.1749 4.45263 44.4756 5.24327 45.1967 5.65208V5.7168C44.9563 5.77913 44.9216 6.07464 44.9216 6.23528V10.6266L45.6343 11.1128L46.2175 10.6104L46.4926 10.87V10.87ZM121.191 11.437V9.08731C120.905 8.95603 120.582 8.77384 120.299 8.63357L118.031 10.9671L118.112 10.9833C118.465 10.7969 118.606 10.5619 119.327 10.5619C120.063 10.5619 120.806 11.0798 121.158 11.4532L121.191 11.437V11.437ZM123.507 4.22605C123.507 5.01368 122.587 6.05726 121.369 6.05726C120.567 6.05726 120.091 5.65986 119.716 5.14976L119.684 5.16593V7.12662L120.786 7.64511L121.288 7.14282C121.808 7.46231 122.885 8.02216 123.459 8.26073V8.30928C123.346 8.35543 123.216 8.48133 123.216 8.7145V10.0919C123.216 10.2898 123.354 10.421 123.459 10.4648V10.5295C122.288 11.0258 120.604 11.9214 119.781 12.6365C119.36 12.2426 118.794 11.8746 118.063 11.8746C117.378 11.8746 117.075 12.1186 117.075 12.3445C117.075 12.4854 117.366 12.4662 117.366 12.6688C117.366 12.7618 117.284 12.863 117.155 12.863C116.995 12.863 116.702 12.6412 116.702 12.3607C116.702 11.8356 117.077 11.3795 117.934 10.5133L119.44 8.99021C118.821 8.68211 117.919 8.2949 117.415 8.08271V8.01795C117.561 7.97719 117.658 7.82915 117.658 7.66131V6.41331C117.658 6.27604 117.595 6.06685 117.415 6.00871V5.94337C118.677 5.50639 120.274 4.62586 121.191 3.99947C121.396 4.22066 121.941 4.69599 122.519 4.69599C123.006 4.69599 123.119 4.45624 123.119 4.2908C123.119 4.19669 122.94 4.14513 122.94 3.99947C122.94 3.87419 123.006 3.82086 123.103 3.82086C123.246 3.82086 123.507 3.96051 123.507 4.22605" fill="#231F20"/>
<path d="M114.774 7.40221C114.353 6.83336 113.603 5.90128 113.138 5.23053L113.089 5.2467V8.43919L114.774 7.40221V7.40221ZM116.654 6.67273L113.089 8.82762V10.3022C113.54 10.4922 114.472 10.904 114.952 11.2097L115.714 10.4484C115.925 10.2368 115.905 9.86522 116.281 9.86522C116.387 9.86522 116.492 10.0241 116.492 10.1403C116.492 10.2644 116.391 10.3238 116.33 10.3837L114.012 12.6363C113.216 12.14 111.6 11.4177 110.804 11.0964V11.0317C110.933 10.9849 111.079 10.8992 111.079 10.5779V6.47791C111.079 6.14284 110.95 6.03493 110.804 6.00856V5.94322C112.006 5.56439 113.838 4.61312 114.709 4.01491C115.311 4.89006 116.083 5.97261 116.654 6.67273V6.67273ZM91.1169 11.0155V3.57793C91.027 3.58392 90.8693 3.59352 90.777 3.59352C90.2603 3.59352 89.3534 3.39751 88.7678 3.23747C87.0253 3.54317 85.0082 4.97578 85.0082 7.66116C85.0082 9.96412 86.6932 11.4369 89.0915 11.4369C89.9025 11.4369 90.6188 11.3032 91.1169 11.0155V11.0155ZM93.1915 1.60045C93.1915 2.7753 92.3876 3.36994 91.4412 3.54497V10.8375C92.658 10.1811 92.8348 9.50855 92.8348 9.16808C92.8348 9.09435 92.673 8.99365 92.673 8.86058C92.673 8.75688 92.8055 8.66576 92.8996 8.66576C93.0368 8.66576 93.0938 8.78748 93.0938 9.00626C93.0938 10.7128 91.419 13.0092 87.8441 13.0092C85.1617 13.0092 82.8857 10.9639 82.8857 8.3253C82.8857 4.56276 86.1255 3.25485 88.3788 3.12357C87.5528 2.94855 86.237 2.66981 85.1383 2.66981C83.8615 2.66981 82.8048 3.40768 82.8048 4.06404C82.8048 4.3116 83.0158 4.35837 83.0158 4.5334C83.0158 4.6299 82.9744 4.74438 82.8371 4.74438C82.6268 4.74438 82.4481 4.53099 82.4481 4.37154C82.4481 2.94193 83.5031 0.903934 85.7215 0.903934C87.9705 0.903934 89.6417 1.69755 91.3926 1.69755C92.5501 1.69755 92.8798 1.30076 92.8348 0.644396L93.0938 0.725323C93.1387 0.827823 93.1915 1.16227 93.1915 1.60045V1.60045ZM75.8048 11.4369V9.08715C75.5194 8.95588 75.1964 8.77369 74.9134 8.63342L72.6452 10.967L72.7262 10.9831C73.0786 10.7967 73.2207 10.5617 73.9418 10.5617C74.6779 10.5617 75.4206 11.0796 75.7724 11.4531L75.8048 11.4369V11.4369ZM78.1221 4.2259C78.1221 5.01353 77.2014 6.05711 75.9834 6.05711C75.1814 6.05711 74.706 5.65971 74.3302 5.14961L74.2978 5.16578V7.12647L75.4002 7.64496L75.9019 7.14267C76.4222 7.46216 77.4993 8.02201 78.0736 8.26058V8.30913C77.9609 8.35528 77.8302 8.48118 77.8302 8.71435V10.0918C77.8302 10.2896 77.9681 10.4209 78.0736 10.4646V10.5294C76.9017 11.0257 75.2179 11.9212 74.3949 12.6363C73.9748 12.2425 73.4083 11.8745 72.6776 11.8745C71.9925 11.8745 71.6892 12.1184 71.6892 12.3444C71.6892 12.4853 71.9811 12.4661 71.9811 12.6687C71.9811 12.7616 71.8984 12.8629 71.7701 12.8629C71.6101 12.8629 71.3163 12.6411 71.3163 12.3606C71.3163 11.8355 71.691 11.3793 72.5481 10.5132L74.0551 8.99006C73.4347 8.68196 72.5325 8.29475 72.0296 8.08255V8.0178C72.1759 7.97704 72.2724 7.829 72.2724 7.66116V6.41316C72.2724 6.27589 72.2095 6.0667 72.0296 6.00856V5.94322C73.2914 5.50624 74.8889 4.62571 75.8048 3.99932C76.0104 4.22051 76.5546 4.69584 77.1337 4.69584C77.621 4.69584 77.7331 4.45609 77.7331 4.29065C77.7331 4.19654 77.5551 4.14498 77.5551 3.99932C77.5551 3.87404 77.6204 3.82071 77.7169 3.82071C77.8608 3.82071 78.1221 3.96035 78.1221 4.2259Z" fill="#231F20"/>
<path d="M69.4372 7.40232C69.0164 6.83347 68.266 5.90139 67.8008 5.23064L67.7517 5.24681V8.4393L69.4372 7.40232ZM71.3164 6.67284L67.7517 8.82773V10.3023C68.2024 10.4923 69.1345 10.9041 69.6153 11.2098L70.3771 10.4485C70.5887 10.2369 70.5689 9.86533 70.9442 9.86533C71.0491 9.86533 71.1546 10.0242 71.1546 10.1404C71.1546 10.2645 71.0545 10.3239 70.9927 10.3838L68.6754 12.6364C67.8794 12.1401 66.2633 11.4178 65.4673 11.0965V11.0318C65.5956 10.985 65.7424 10.8993 65.7424 10.578V6.47802C65.7424 6.14295 65.6135 6.03504 65.4673 6.00867V5.94333C66.6691 5.56449 68.5009 4.61323 69.3725 4.01501C69.9731 4.89016 70.7458 5.97272 71.3164 6.67284V6.67284ZM58.8563 7.40232C58.4355 6.83347 57.6851 5.90139 57.2199 5.23064L57.1714 5.24681V8.4393L58.8563 7.40232V7.40232ZM60.7361 6.67284L57.1714 8.82773V10.3023C57.6221 10.4923 58.5536 10.9041 59.0344 11.2098L59.7956 10.4485C60.0072 10.2369 59.9874 9.86533 60.3633 9.86533C60.4682 9.86533 60.5736 10.0242 60.5736 10.1404C60.5736 10.2645 60.4736 10.3239 60.4118 10.3838L58.0945 12.6364C57.2984 12.1401 55.6824 11.4178 54.8864 11.0965V11.0318C55.0153 10.985 55.1621 10.8993 55.1621 10.578V6.47802C55.1621 6.14295 55.0327 6.03504 54.8864 6.00867V5.94333C56.0882 5.56449 57.92 4.61323 58.7916 4.01501C59.3922 4.89016 60.1649 5.97272 60.7361 6.67284V6.67284ZM51.3378 11.2266V6.64046C50.7522 6.31977 49.78 5.67298 49.1344 5.13351L49.102 5.14971V10.2705C49.6876 10.5325 50.6593 11.0833 51.0951 11.4046L51.3378 11.2266V11.2266ZM54.1575 11.9879C54.109 13.8401 53.1517 15.1156 51.3702 15.1156C49.9766 15.1156 48.9582 14.4191 47.6922 14.4191C46.9549 14.4191 46.5557 14.6391 46.3471 14.8884L46.25 14.8399C46.3249 13.4984 47.3008 12.7497 48.5512 12.7497C49.9286 12.7497 50.9326 13.6087 52.391 13.6087C53.3225 13.6087 53.808 13.1333 53.8979 12.6526L53.8818 12.6203C53.6864 12.7365 53.431 12.8792 53.0558 12.8792C52.3041 12.8792 51.4895 12.3751 51.354 11.4856C50.9956 11.7283 50.2002 12.3361 49.8471 12.6364C48.9672 12.0838 47.5399 11.395 46.8494 11.0965V11.0318C46.9933 10.9862 47.0928 10.813 47.0928 10.6428V6.46182C47.0928 6.21366 47.0095 6.03984 46.8332 6.00867V5.94333C48.11 5.49137 49.7386 4.65338 50.6251 3.98264C51.393 4.57306 52.8004 5.40504 53.6228 5.8624V5.94333C53.4424 6.01645 53.3471 6.13335 53.3471 6.52657V11.0318C53.3471 11.6102 53.4022 12.004 53.8332 12.004C53.9015 12.004 53.9837 11.9471 54.0436 11.8746L54.1575 11.9879V11.9879ZM33.5627 7.8393L32.0234 3.23757L30.3223 7.8393H33.5627ZM38.1483 10.789L36.1067 12.6364C35.536 12.2426 35.0451 11.9231 34.3246 11.4856V11.4046C34.4876 11.3471 34.5656 11.1876 34.5674 10.9994C34.568 10.9167 34.547 10.8274 34.5188 10.7405L33.9356 8.95779H29.9009L29.3662 10.4485C30.2006 10.4485 30.6286 10.5414 31.035 10.7075L31.4402 9.9948L31.7645 10.1566L30.3708 12.6526C29.8242 12.3505 29.2062 12.1173 28.5073 12.1173C27.6837 12.1173 27.0621 12.3259 26.7576 12.604C26.6964 12.6598 26.6083 12.6448 26.6443 12.5231C26.9746 11.3998 27.7178 10.5433 28.9934 10.4647L31.813 2.8809C31.5211 2.11904 31.2388 1.81154 30.5327 1.81154C29.8715 1.81154 29.2206 2.10947 29.2206 2.89711C29.2206 3.26155 29.5928 3.23038 29.5928 3.49652C29.5928 3.59003 29.5101 3.69134 29.3824 3.69134C29.142 3.69134 28.8963 3.38024 28.8963 2.76763C28.8963 1.38178 30.0592 0.563575 31.246 0.563575C32.3274 0.563575 32.7625 0.968785 33.0928 1.40636C33.1983 0.998156 33.5987 0.727195 33.9194 0.676844L34.0165 0.838698C33.8163 1.08026 33.7084 1.29425 33.7084 1.60055C33.7084 1.76 33.7767 2.08909 33.8223 2.21676L36.8523 10.7405L37.3708 11.048L37.9217 10.5457L38.1483 10.789V10.789ZM21.1674 11.437V9.08726C20.8821 8.95599 20.5584 8.77379 20.2761 8.63353L18.0079 10.9671L18.0888 10.9832C18.4413 10.7968 18.5827 10.5618 19.3038 10.5618C20.0399 10.5618 20.7826 11.0797 21.135 11.4532L21.1674 11.437V11.437ZM23.4842 4.226C23.4842 5.01364 22.5634 6.05722 21.3454 6.05722C20.544 6.05722 20.0681 5.65982 19.6928 5.14971L19.6605 5.16588V7.12657L20.7622 7.64506L21.2645 7.14278C21.7842 7.46227 22.8614 8.02212 23.4356 8.26069V8.30924C23.3235 8.35539 23.1928 8.48128 23.1928 8.71446V10.0919C23.1928 10.2897 23.3307 10.421 23.4356 10.4647V10.5295C22.2643 11.0258 20.5806 11.9213 19.7576 12.6364C19.3368 12.2426 18.7709 11.8746 18.0403 11.8746C17.3551 11.8746 17.0518 12.1185 17.0518 12.3445C17.0518 12.4854 17.3431 12.4662 17.3431 12.6688C17.3431 12.7617 17.2604 12.863 17.1327 12.863C16.9721 12.863 16.679 12.6412 16.679 12.3607C16.679 11.8356 17.0536 11.3794 17.9102 10.5133L19.4171 8.99017C18.7973 8.68206 17.8952 8.29486 17.3917 8.08266V8.01791C17.5379 7.97715 17.635 7.82911 17.635 7.66127V6.41327C17.635 6.276 17.5721 6.06681 17.3917 6.00867V5.94333C18.6535 5.50635 20.2509 4.62582 21.1674 3.99943C21.3724 4.22061 21.9173 4.69594 22.4957 4.69594C22.983 4.69594 23.0951 4.4562 23.0951 4.29076C23.0951 4.19665 22.9171 4.14509 22.9171 3.99943C22.9171 3.87415 22.983 3.82082 23.079 3.82082C23.2228 3.82082 23.4842 3.96046 23.4842 4.226V4.226ZM14.0865 11.4532V6.64046C13.3954 6.27602 12.3794 5.54171 11.8986 5.13351L11.8662 5.14971V10.0595C12.5274 10.4096 13.5135 11.0174 14.0541 11.4693L14.0865 11.4532ZM16.3709 10.5295C15.3663 10.9281 13.4205 11.9213 12.5796 12.6364C11.693 12.0088 10.4043 11.1816 9.58187 10.7237V10.6757C9.79226 10.6026 9.84082 10.4534 9.84082 10.2052V6.52657C9.84082 6.1885 9.76229 6.06681 9.58187 6.00867V5.94333C10.9635 5.44761 12.2619 4.74271 13.3732 3.99943C14.1392 4.55329 15.4849 5.3685 16.3709 5.87861V5.94333C16.2108 6.00626 16.0957 6.16571 16.0957 6.41327V10.0595C16.0957 10.3221 16.206 10.421 16.3709 10.4647V10.5295V10.5295ZM5.6443 10.0271V3.20519C4.65886 3.1003 4.22549 2.46553 3.89462 2.0867L2.93855 2.83235C2.94334 3.86994 3.23646 4.71093 3.6027 5.53873C3.93717 6.29519 4.31601 7.27462 4.31601 7.95256C4.31601 9.07048 3.67762 9.77599 2.1605 11.1618L2.20905 11.2098C3.11057 10.554 4.43348 10.0469 5.6443 10.0271V10.0271ZM9.35469 10.011L7.88073 12.685C7.10868 12.1623 5.86908 11.8422 4.8177 11.8422C2.74492 11.8422 1.32491 12.2 0.588824 12.6526L0.491726 12.5555C1.14929 11.9962 2.2582 11.0989 2.2582 9.05492C2.2582 8.19356 1.90096 7.21768 1.64201 6.57571C1.3429 5.83243 1.10733 5.44162 1.10733 4.40403C1.10733 2.59739 2.11254 1.57719 3.68361 0.806942L3.7975 0.952589C3.25503 1.39016 3.00268 1.95422 2.92236 2.52427L5.43391 0.482648C6.07709 1.35959 6.6831 1.69765 7.47553 1.69765C8.1253 1.69765 8.31771 1.41775 8.31771 1.19537C8.31771 1.03473 8.09112 1.01254 8.09112 0.855491C8.09112 0.706236 8.19602 0.660673 8.28533 0.660673C8.48494 0.660673 8.67436 0.910618 8.67436 1.09824C8.67436 2.32824 7.53248 3.23757 6.40617 3.23757C6.21076 3.23757 6.07648 3.25855 5.9524 3.23757V10.0271C6.92885 10.0271 7.85735 10.2945 8.59344 10.6596L9.04719 9.8815L9.35469 10.011ZM90.4528 4.226C90.4528 4.3279 90.3341 4.40403 90.2586 4.40403C90.1291 4.40403 90.0194 4.16128 89.6592 4.16128C89.1287 4.16128 88.6863 4.60184 88.6863 5.11733C88.6863 6.47381 90.0644 7.02228 90.0644 8.56877C90.0644 9.86591 88.7576 10.6176 87.4065 10.789L87.147 10.6104C87.8873 10.5169 88.2493 10.2693 88.2493 9.39539C88.2493 8.21394 86.9852 7.25245 86.9852 5.8624C86.9852 4.73849 88.0743 3.86937 89.5615 3.86937C89.851 3.86937 90.1339 3.95566 90.2903 4.03118C90.3809 4.07494 90.4528 4.13849 90.4528 4.226Z" fill="#231F20"/>
</g>
<defs>
<clipPath id="clip0">
<rect width="124" height="15.5984" fill="white"/>
</clipPath>
</defs>
</svg>
