<svg xmlns="http://www.w3.org/2000/svg" viewBox="0 0 116.33 26"><g id="Layer_2" data-name="Layer 2"><g id="Layer_1-2" data-name="Layer 1"><path d="M75,11.15a6.87,6.87,0,0,0-6.3-5.8,5.45,5.45,0,0,0-4.86,2.11c-.05.07-.08.21-.19.18s-.06-.19-.06-.28c0-.72.11-1.44.12-2.15,0-1.74,0-3.47,0-5.21H60.61V13.49c0,2.1,0,4.2,0,6.3,0,.27.06.33.33.33q1.17,0,2.34,0c.23,0,.31-.05.3-.29,0-.43,0-.85,0-1.28,0-.09,0-.21,0-.26s.17.1.23.17a5.22,5.22,0,0,0,2.73,1.86,6.57,6.57,0,0,0,7.16-2.59A8.35,8.35,0,0,0,75,11.15ZM70.5,16.7a4.29,4.29,0,0,1-3,1A3.85,3.85,0,0,1,64.2,15.5a5.1,5.1,0,0,1,.17-5.35,4,4,0,0,1,6.74-.28A5.25,5.25,0,0,1,70.5,16.7Z" fill="#0173f2"/><path d="M116.33,6A4.08,4.08,0,0,0,115.8,7q-3.93,9-7.85,18.08a.55.55,0,0,1-.62.4h-1c-.24,0-.31,0-.19-.29.81-1.75,1.57-3.52,2.44-5.25a2.19,2.19,0,0,0,0-2.15C106.87,14,105.18,10,103.45,6.14c-.12-.27-.1-.38.22-.33a1.47,1.47,0,0,0,.21,0c.42,0,.94-.13,1.25.07s.35.71.51,1.09l4.16,9.86c0,.06.06.12.09.19s.1-.15.13-.23c1.44-3.54,2.89-7.08,4.32-10.63a.47.47,0,0,1,.53-.36c.49,0,1,0,1.46,0Z" fill="#0374f2"/><path d="M59.4,11.33a7,7,0,0,0-1.93-4.08A6.58,6.58,0,0,0,53,5.36a6.74,6.74,0,0,0-5.74,2.29,7.94,7.94,0,0,0-1.87,6.59A7.42,7.42,0,0,0,59.07,17c.13-.21.11-.28-.11-.38-.7-.32-1.4-.64-2.08-1-.21-.1-.31-.08-.45.13a4.27,4.27,0,0,1-4.67,1.89A4.18,4.18,0,0,1,48.45,14c0-.3,0-.36.31-.36H59.07c.28,0,.37-.09.39-.35A9,9,0,0,0,59.4,11.33Zm-3.34-.06h-7.2c-.15,0-.32,0-.24-.22a4.06,4.06,0,0,1,6.69-2,3.38,3.38,0,0,1,1,1.9C56.35,11.22,56.29,11.27,56.06,11.27Z" fill="#0173f2"/><path d="M39.23,20.11H33.59c-.26,0-.34-.07-.33-.33,0-.65,0-1.3,0-1.95a.78.78,0,0,1,.23-.59l7.42-8.43c.07-.09.22-.16.17-.28s-.21,0-.33,0H33.83c-.27,0-.36-.07-.35-.35,0-.7,0-1.39,0-2.09,0-.19,0-.29.26-.29h11c.22,0,.26.08.25.27,0,.71,0,1.41,0,2.12a.6.6,0,0,1-.2.43l-7.41,8.44a.27.27,0,0,0-.08.07c-.05.09-.2.15-.16.25s.19,0,.29,0q3.69,0,7.38,0c.33,0,.41.09.4.41a16.67,16.67,0,0,0,0,1.87c0,.38-.12.43-.45.43C42.92,20.1,41.08,20.11,39.23,20.11Z" fill="#0173f2"/><path d="M87.88,7.76a5.82,5.82,0,0,0-6.42-1.52A6.46,6.46,0,0,0,78.25,9c-.06.1-.07.25-.22.29,0-.12,0-.23,0-.34,0-.78,0-1.56,0-2.34,0-.29-.09-.33-.36-.34h-1c-.29,0-.37.06-.37.36,0,3.16,0,6.33,0,9.49v3.15c0,2.12,0,4.25,0,6.37,0,.25,0,.36.32.33a5.13,5.13,0,0,1,1,0c.36,0,.44-.08.44-.44,0-2.8,0-5.59,0-8.39a2.48,2.48,0,0,1,0-.27c.12,0,.12.13.17.2A7.75,7.75,0,0,0,79,18.25a5.86,5.86,0,0,0,8.39.65A7.94,7.94,0,0,0,87.88,7.76Zm-1.6,9.88a4.61,4.61,0,0,1-6.55-.27,6.34,6.34,0,0,1-.22-8.29,4.7,4.7,0,0,1,7.73.61,6.41,6.41,0,0,1,1,3.58A5.88,5.88,0,0,1,86.28,17.64Z" fill="#0173f2"/><path d="M102.63,14.63c0-1.48.05-3,0-4.45A4.55,4.55,0,0,0,100,6.05a7.32,7.32,0,0,0-5-.48,5.76,5.76,0,0,0-3.24,1.91c-.14.17-.14.26,0,.38s.6.43.89.66c.1.08.17.11.28,0a5,5,0,0,1,4.6-1.63,3.89,3.89,0,0,1,3.41,3,11.15,11.15,0,0,1,.09,2.08c0,.29-.16.13-.25.07a6.14,6.14,0,0,0-2.34-.87,8.27,8.27,0,0,0-5,.47,4.19,4.19,0,0,0-1.52,6.64,5.25,5.25,0,0,0,5.2,1.51,6.43,6.43,0,0,0,3.72-2.17c0-.05.08-.18.18-.13s0,.15,0,.22c0,.49,0,1,0,1.45,0,.24,0,.34.31.32a7.69,7.69,0,0,1,1,0c.27,0,.33-.07.33-.33,0-1.5,0-3,0-4.5Zm-7.69,3.68a2.87,2.87,0,0,1-2.26-2.66,3,3,0,0,1,2-3.05,5,5,0,0,1,.92-.25A6.77,6.77,0,0,1,97,12.24a7.33,7.33,0,0,1,3.85,1c.13.08.24.15.24.34A4.91,4.91,0,0,1,94.94,18.31Z" fill="#0374f2"/><path d="M11.78.63c.18,0,.26.1.36.19L23.3,11.44Q25,13,26.67,14.64a.3.3,0,0,1,.06.47c-.23.34-.45.69-.65,1.05s-.21.21-.38,0c-1.62-1.56-3.26-3.11-4.89-4.66q-5.2-4.95-10.4-9.88c-.27-.25-.23-.38,0-.57A3,3,0,0,1,11.78.63Z" fill="#0374f2"/><path d="M8.31,8.08l.19.16,14,13.28c.16.16.2.28.07.47-.23.35-.44.7-.65,1.06s-.2.23-.38.05c-1.38-1.33-2.78-2.66-4.18-4L7.27,9.55c-.33-.31-.33-.31,0-.6l.87-.73Z" fill="#0374f2"/><path d="M3.33,20.47a4.71,4.71,0,0,1-1.06-.11A3.05,3.05,0,0,1,.36,15.92,8.23,8.23,0,0,1,2,14c.47-.5.48-.5,1,0L8.1,18.84c.07.07.31.15,0,.28A11.91,11.91,0,0,1,3.33,20.47Z" fill="#0173f2"/><path d="M24.77,18.31l-.2.33c-.18.3-.38.59-.54.91s-.24.23-.43.05l-4.26-4.06L10.28,6.92c-.23-.21-.18-.28,0-.49a5.26,5.26,0,0,1,.86-.68c.23-.14.33-.17.52,0l5.64,5.38L24.56,18C24.64,18.11,24.76,18.16,24.77,18.31Z" fill="#0374f2"/><path d="M15.53.71a12.27,12.27,0,0,1,3.27.88,5.59,5.59,0,0,1,1.15,1c3,2.81,5.91,5.63,8.88,8.44.16.16.21.26.07.46-.24.35-.45.72-.66,1.09-.11.2-.18.21-.35,0L22.3,7.34,15.58.94a.43.43,0,0,1-.15-.18C15.41.69,15.49.73,15.53.71Z" fill="#0374f2"/><path d="M12.5,17.51c0,.11-.07.09-.12.1a6.31,6.31,0,0,0-1.87.35c-.12,0-.17,0-.24-.1L4.19,12.08c-.15-.14-.15-.22,0-.35.33-.29.65-.59,1-.89.12-.12.2-.15.34,0l6.89,6.57Z" fill="#0374f2"/></g></g></svg>