<svg width="40" height="34" viewBox="0 0 40 34" fill="none" xmlns="http://www.w3.org/2000/svg">
<path d="M12.5796 33.3387C27.6747 33.3387 35.9296 20.8331 35.9296 9.98865C35.9296 9.63349 35.9223 9.27993 35.9064 8.92786C37.5088 7.76948 38.9015 6.32387 40 4.67825C38.5295 5.33193 36.9472 5.77192 35.2872 5.97031C36.9815 4.95435 38.2823 3.34713 38.896 1.43118C37.3104 2.37117 35.5544 3.05438 33.6848 3.42324C32.1872 1.82809 30.0552 0.830383 27.6944 0.830383C23.1624 0.830383 19.4872 4.50563 19.4872 9.03591C19.4872 9.67992 19.5593 10.3062 19.7001 10.9072C12.8794 10.5639 6.83132 7.29835 2.78358 2.33278C2.07876 3.54551 1.67232 4.95435 1.67232 6.45755C1.67232 9.30476 3.12117 11.8183 5.32436 13.2887C3.97793 13.2471 2.71312 12.8775 1.60763 12.2623C1.60642 12.2968 1.60642 12.3304 1.60642 12.3671C1.60642 16.3416 4.43524 19.6599 8.19036 20.4119C7.50084 20.5998 6.77521 20.7006 6.02636 20.7006C5.49845 20.7006 4.98395 20.6486 4.48396 20.5527C5.52878 23.8134 8.55841 26.1863 12.1503 26.2526C9.34149 28.4542 5.80314 29.7654 1.95756 29.7654C1.29595 29.7654 0.642407 29.7277 0 29.6517C3.63203 31.9798 7.94472 33.3381 12.58 33.3381" fill="#1DA1F2"/>
</svg>
