<svg width="117" height="30" viewBox="0 0 117 30" fill="none" xmlns="http://www.w3.org/2000/svg">
<path d="M8.95181 0.995691L24.9791 10.2564V19.691L0.464478 5.53903L8.33314 0.995691C8.52648 0.879691 8.75848 0.879691 8.95181 0.995691Z" fill="#3CA9E5"/>
<path d="M24.9792 0.802368L16.8205 5.5197L24.9792 10.237V0.802368Z" fill="#2853C3"/>
<path d="M24.9791 0.802368L32.8477 5.3457C33.0411 5.4617 33.1571 5.67437 33.1571 5.88704V24.389L24.9791 19.6717V0.802368V0.802368Z" fill="#1A4199"/>
<path d="M33.1572 24.4084L25.2885 28.9517C25.0952 29.0677 24.8632 29.0677 24.6505 28.9517L8.62317 19.6911V10.2371L33.1572 24.4084Z" fill="#2853C3"/>
<path d="M0.464478 5.53906V24.0411C0.464478 24.2731 0.580478 24.4857 0.773811 24.5824L8.64248 29.1257V10.2371L0.464478 5.53906Z" fill="#60BEFF"/>
<path d="M8.64246 29.1257L16.8011 24.4084L8.64246 19.691V29.1257Z" fill="#3CA9E5"/>
<path d="M80.4465 14.9931C80.0792 10.7011 76.5218 7.39508 72.2105 7.35642H71.8238C70.8378 7.39508 69.8518 7.60775 68.9432 8.01375L68.7498 8.09108H68.6532C65.6952 9.46375 63.8198 12.4411 63.8585 15.6891V15.8437C64.0905 20.4064 67.8412 24.0217 72.4038 24.0604H77.1405C77.3918 24.0604 77.6045 23.8477 77.6045 23.5964V20.9671C77.6045 20.7157 77.3918 20.5031 77.1405 20.5031H72.1912C70.1418 20.4258 68.3632 19.0724 67.7252 17.1004H79.8665C80.1758 17.1004 80.4465 16.8297 80.4272 16.5011V15.0124C80.4272 14.9738 80.4272 14.9544 80.4272 14.9158L80.4465 14.9931ZM76.5025 14.0844H67.7638C68.1892 12.9051 69.0592 11.9191 70.1805 11.3777L70.3545 11.2811C72.7325 10.3337 75.4585 11.4937 76.4058 13.8717C76.4445 13.9491 76.4638 14.0264 76.4832 14.1037L76.5025 14.0844ZM53.3605 7.37575C51.7945 7.43375 50.2672 7.95575 48.9912 8.86441V7.91708C48.9912 7.76242 48.8558 7.62708 48.7012 7.62708H45.6272C45.4725 7.62708 45.3372 7.76242 45.3372 7.91708V23.7317C45.3372 23.9831 45.5498 24.1958 45.8012 24.1958H48.5078C48.7592 24.1958 48.9718 23.9831 48.9718 23.7317V15.7084C48.9718 13.1177 51.0792 11.0104 53.6892 11.0104C53.8438 11.0104 53.9792 11.0104 54.1338 11.0298C56.5698 11.3198 58.4065 13.3884 58.3872 15.8631V23.7317C58.3872 23.9831 58.5998 24.1958 58.8512 24.1958H61.5965C61.8478 24.1958 62.0605 23.9831 62.0605 23.7317V15.7277C62.0412 11.1071 58.3098 7.39508 53.6892 7.39508C53.5538 7.35641 53.4572 7.35642 53.3605 7.37575ZM96.3772 7.45308C96.2998 7.37575 96.1452 7.37575 96.0678 7.45308L90.2678 13.2724L84.5452 7.54975C84.4678 7.47242 84.3132 7.47242 84.2358 7.54975L81.8965 9.88908C81.8192 9.96642 81.8192 10.1211 81.8965 10.1984L87.6192 15.9211L81.7612 21.7211C81.6838 21.7984 81.6838 21.9531 81.7612 22.0304L84.0425 24.3117C84.1585 24.4277 84.3325 24.4277 84.4485 24.3117L90.2098 18.5504L95.9325 24.2731C96.0098 24.3504 96.1645 24.3504 96.2418 24.2731L98.5812 21.9337C98.6585 21.8564 98.6585 21.7017 98.5812 21.6244L92.8585 15.9017L98.6585 10.1017C98.7358 10.0244 98.7358 9.86975 98.6585 9.79242C98.6585 9.77308 96.3772 7.45308 96.3772 7.45308ZM107.977 7.29841C103.26 7.27908 99.4125 11.0684 99.3738 15.7858C99.3545 20.5031 103.144 24.3504 107.861 24.3891C112.578 24.4084 116.426 20.6191 116.464 15.9017C116.464 15.8824 116.464 15.8631 116.464 15.8437C116.464 11.1457 112.675 7.33708 107.977 7.29841ZM107.977 20.7931C105.232 20.8124 102.989 18.6278 102.97 15.8824C102.95 13.1371 105.135 10.8944 107.88 10.8751C110.626 10.8557 112.868 13.0404 112.888 15.7858C112.907 18.5311 110.703 20.7544 107.977 20.7931Z" fill="#2853C3"/>
</svg>
