<svg width="95" height="24" viewBox="0 0 95 24" fill="none" xmlns="http://www.w3.org/2000/svg">
<path d="M30.1039 2.59912H32.0278V8.33939C32.7954 7.75465 33.7325 7.43568 34.6974 7.43072C35.2738 7.41547 35.8461 7.533 36.3698 7.77424C36.8936 8.01547 37.3549 8.37394 37.7179 8.82192C38.5311 9.83472 38.9476 11.1089 38.8898 12.4065C38.9283 13.0956 38.824 13.7853 38.5835 14.4323C38.343 15.0793 37.9716 15.6697 37.4923 16.1665C36.9919 16.6405 36.401 17.0086 35.7549 17.2488C35.1088 17.4889 34.4209 17.5961 33.7323 17.5639C33.0653 17.5594 32.4002 17.4923 31.7458 17.3634C31.1751 17.2648 30.6192 17.0943 30.0914 16.8558L30.1039 2.59912ZM32.0278 10.1818V15.4458C32.6849 15.6404 33.3666 15.7396 34.0519 15.7403C34.4454 15.7529 34.8367 15.6779 35.1976 15.5207C35.5585 15.3636 35.8799 15.1282 36.1387 14.8317C36.6929 14.1821 36.9816 13.3473 36.9471 12.4942C36.9855 11.6432 36.7164 10.8068 36.1889 10.1379C35.9538 9.84423 35.6537 9.60925 35.3122 9.45154C34.9706 9.29383 34.5971 9.21773 34.2211 9.22926C33.3986 9.26983 32.619 9.60842 32.0278 10.1818V10.1818ZM42.0106 3.55165C42.1613 3.5488 42.311 3.57616 42.4509 3.63213C42.5908 3.6881 42.7181 3.77154 42.8253 3.87752C42.9332 3.98127 43.0188 4.10588 43.077 4.24379C43.1351 4.38169 43.1646 4.52999 43.1637 4.67965C43.1604 4.98329 43.0374 5.27337 42.8215 5.48691C42.6057 5.70044 42.3143 5.82021 42.0106 5.82019C41.8639 5.82007 41.7187 5.78999 41.584 5.73181C41.4493 5.67362 41.3279 5.58854 41.2273 5.48179C41.12 5.3776 41.0347 5.2529 40.9766 5.1151C40.9184 4.9773 40.8886 4.82922 40.8889 4.67965C40.8879 4.53276 40.9174 4.38725 40.9757 4.2524C41.0339 4.11754 41.1196 3.99628 41.2273 3.89632C41.3269 3.78784 41.448 3.7012 41.5828 3.64187C41.7176 3.58255 41.8633 3.55183 42.0106 3.55165ZM41.0769 7.64379H42.9569V17.3697H41.0769V7.64379ZM44.3982 9.18539L48.0141 5.63219V7.64379H51.1035V9.37339H48.0141V14.1235C48.0141 15.2327 48.4778 15.7905 49.399 15.7905C50.1795 15.7663 50.9383 15.5278 51.5923 15.1011V16.8997C50.8532 17.3184 50.0166 17.5346 49.1671 17.5263C48.3635 17.5524 47.5791 17.2775 46.9675 16.7555C46.7895 16.6058 46.6371 16.428 46.5163 16.2291C46.3788 15.9928 46.2774 15.7372 46.2155 15.4709C46.1118 14.8836 46.0698 14.2871 46.0902 13.6911V9.37339H44.3982V9.18539ZM53.2593 2.59912H61.1302V4.47912H55.3774V8.60259H61.1302V10.4826H55.3774V17.3759H53.2593V2.59912ZM63.1794 2.59912H65.1033V17.3697H63.1794V2.59912ZM73.8578 7.64379H76.0135L69.1202 22.3266H66.9707L70.2795 15.2829L66.5195 7.64379H68.7129L71.3386 13.1397L73.8578 7.64379ZM85.6579 12.6759H78.8147C78.8257 13.5087 79.1606 14.3044 79.7485 14.8943C80.0467 15.1732 80.3978 15.3894 80.7809 15.5304C81.1641 15.6714 81.5716 15.7343 81.9794 15.7153C83.2472 15.7149 84.48 15.2988 85.4887 14.5309V16.4109C84.9483 16.7809 84.3545 17.0662 83.7278 17.2569C83.0602 17.4382 82.3703 17.5247 81.6786 17.5138C80.7652 17.5536 79.8604 17.3225 79.0779 16.8495C78.4079 16.3923 77.8611 15.7766 77.4862 15.0573C77.0776 14.25 76.8732 13.3549 76.8909 12.4503C76.8324 11.1312 77.2808 9.83973 78.1442 8.84072C78.5536 8.38417 79.0581 8.02298 79.6222 7.7826C80.1863 7.54223 80.7963 7.42853 81.4091 7.44952C81.993 7.42617 82.5746 7.53589 83.1098 7.77039C83.6451 8.0049 84.12 8.35805 84.4986 8.80312C85.3111 9.8323 85.721 11.1221 85.6517 12.4315L85.6579 12.6759ZM78.8586 11.5229H83.7529C83.7477 10.8635 83.5027 10.2287 83.0635 9.73686C82.8465 9.52498 82.5881 9.36002 82.3046 9.25221C82.0211 9.14441 81.7184 9.09607 81.4154 9.11019C80.7889 9.08739 80.1787 9.31256 79.7171 9.73686C79.2453 10.2236 78.944 10.8503 78.8586 11.5229V11.5229ZM89.8002 7.64379V9.87472L89.9067 9.70552C90.8342 8.20152 91.7867 7.44952 92.6954 7.44952C93.566 7.51577 94.379 7.90996 94.9702 8.55246L93.955 10.2445C93.4722 9.69952 92.8 9.35892 92.075 9.29192C91.7548 9.2999 91.4412 9.38494 91.1609 9.53985C90.8805 9.69475 90.6417 9.91495 90.4645 10.1818C90.0032 10.7851 89.7621 11.5281 89.7814 12.2874V17.3697H87.845V7.64379H89.8002Z" fill="#231815"/>
<path d="M0.970215 0.336914H8.00768V7.37438H0.970215V0.336914ZM9.08555 0.336914H16.123V7.37438H9.08555V0.336914ZM0.970215 8.45225H8.00768V15.4897H0.970215V8.45225ZM0.970215 16.5613H8.00768V23.5988H0.970215V16.5613Z" fill="#468CCB"/>
<path d="M12.6011 15.4584C14.5289 15.4584 16.0917 13.8956 16.0917 11.9678C16.0917 10.0401 14.5289 8.47729 12.6011 8.47729C10.6734 8.47729 9.1106 10.0401 9.1106 11.9678C9.1106 13.8956 10.6734 15.4584 12.6011 15.4584Z" fill="#EE7F4A"/>
<path d="M17.1946 0.336914H24.2321V7.37438H17.1946V0.336914Z" fill="#468CCB"/>
</svg>
