<svg width="88" height="17" viewBox="0 0 88 17" fill="none" xmlns="http://www.w3.org/2000/svg">
<path d="M13.1413 0H17.8493C17.952 0 18.0253 0.0733351 18.0253 0.176002V5.236C18.0253 5.33867 18.0986 5.412 18.1866 5.42667C18.2453 5.42667 18.304 5.412 18.3333 5.368C19.1106 4.51733 20.24 3.828 21.7506 3.828C24.3173 3.828 25.916 5.52933 25.916 8.25733V16.104C25.916 16.2067 25.8426 16.28 25.7399 16.28H21.032C20.9293 16.28 20.856 16.2067 20.856 16.104V9.88533C20.856 8.844 20.2253 8.228 19.4773 8.228C18.7293 8.228 18.0253 8.82933 18.0253 9.88533V16.104C18.0253 16.2067 17.952 16.28 17.8493 16.28H13.1413C13.0386 16.28 12.9653 16.2067 12.9653 16.104V0.176002C12.9653 0.0880018 13.0386 0 13.1413 0Z" fill="#F92586"/>
<path d="M79.3028 4.10664H84.0108C84.1134 4.10664 84.1868 4.17998 84.1868 4.28265V5.77864C84.1868 5.88131 84.2601 5.95465 84.3481 5.96931C84.4214 5.96931 84.4948 5.93998 84.5241 5.86664C85.1988 4.66398 86.2108 3.90131 87.8241 3.91598C87.9268 3.91598 88.0001 3.98931 88.0001 4.09198V9.10798C88.0001 9.21064 87.9268 9.28398 87.8241 9.28398H87.4721C85.3308 9.28398 84.2014 10.472 84.2014 13.1706V16.0893C84.2014 16.192 84.1281 16.2653 84.0254 16.2653H79.3174C79.2148 16.2653 79.1414 16.192 79.1414 16.0893V4.28265C79.1414 4.19465 79.2148 4.10664 79.3028 4.10664Z" fill="#F92586"/>
<path d="M77.3962 5.48525C76.3255 4.41458 74.7269 3.90125 72.2482 3.90125C70.2095 3.90125 68.6402 4.23858 67.2762 4.73724C67.1882 4.76658 67.1442 4.86924 67.1589 4.95724L67.9509 7.97858C67.9802 8.06658 68.0682 8.12525 68.1562 8.11058C68.1709 8.11058 68.1709 8.11058 68.1855 8.09591C69.1975 7.71458 70.1949 7.47991 71.3682 7.47991C72.9229 7.47991 73.6269 8.12524 73.6269 9.23991C73.6269 9.31324 73.5682 9.38658 73.4802 9.38658C73.4655 9.38658 73.4509 9.38658 73.4362 9.38658C72.8202 9.18124 71.6615 9.00524 70.7375 9.00524C67.9069 9.00524 66.1029 10.3692 66.1029 12.7892V12.8332C66.1029 15.2386 67.7455 16.5732 70.0922 16.5732C71.4415 16.5732 72.4829 16.1039 73.2895 15.3559C73.3629 15.2826 73.4655 15.2826 73.5389 15.3559C73.5682 15.3852 73.5975 15.4439 73.5975 15.4879V16.1039C73.5975 16.2066 73.6709 16.2799 73.7735 16.2799H78.4815C78.5842 16.2799 78.6575 16.2066 78.6575 16.1039V9.34258C78.6722 7.58258 78.3055 6.40924 77.3962 5.48525ZM72.1455 13.8599C71.3095 13.8599 70.6202 13.1706 70.6202 12.3346C70.6202 11.4986 71.3095 10.8092 72.1455 10.8092C72.9815 10.8092 73.6709 11.4986 73.6709 12.3346C73.6709 13.1706 72.9962 13.8599 72.1455 13.8599Z" fill="#F92586"/>
<path d="M66.0148 0H61.3068C61.2041 0 61.1308 0.0733351 61.1308 0.176002V5.03067C61.1308 5.13333 61.0575 5.20667 60.9695 5.22133C60.9108 5.22133 60.8668 5.20667 60.8375 5.16267C60.0895 4.42933 59.1068 3.81333 57.4788 3.81333C54.6041 3.81333 52.2868 6.38 52.2868 10.2373V10.2813C52.2868 14.0067 54.5895 16.5733 57.5228 16.5733C59.3708 16.5733 60.3095 15.6787 61.1308 14.784V16.104C61.1308 16.2067 61.2041 16.28 61.3068 16.28H66.0148C66.1175 16.28 66.1908 16.2067 66.1908 16.104V0.176002C66.1908 0.0880018 66.1175 0 66.0148 0ZM59.4148 11.8067C58.4175 11.8067 57.6255 11 57.6255 10.0173C57.6255 9.03467 58.4321 8.228 59.4148 8.228C60.4121 8.228 61.2041 9.03467 61.2041 10.0173C61.2188 11 60.4121 11.8067 59.4148 11.8067Z" fill="#F92586"/>
<path d="M52.0961 0H47.3881C47.2855 0 47.2121 0.0733351 47.2121 0.176002V5.03067C47.2121 5.13333 47.1388 5.20667 47.0508 5.22133C46.9921 5.22133 46.9481 5.20667 46.9188 5.16267C46.1708 4.42933 45.1881 3.81333 43.5601 3.81333C40.6855 3.81333 38.3681 6.38 38.3681 10.2373V10.2813C38.3681 14.0067 40.6708 16.5733 43.6041 16.5733C45.4521 16.5733 46.3908 15.6787 47.2121 14.784V16.104C47.2121 16.2067 47.2855 16.28 47.3881 16.28H52.0961C52.1988 16.28 52.2721 16.2067 52.2721 16.104V0.176002C52.2721 0.0880018 52.1988 0 52.0961 0ZM45.5988 11.8067C44.6015 11.8067 43.8095 11 43.8095 10.0173C43.8095 9.03467 44.6161 8.228 45.5988 8.228C46.5961 8.228 47.3881 9.03467 47.3881 10.0173C47.3881 11 46.5815 11.8067 45.5988 11.8067Z" fill="#F92586"/>
<path d="M37.9426 13.6988L35.4933 11.7482C35.4199 11.6895 35.3173 11.6895 35.2586 11.7628C34.4959 12.5108 33.7626 12.8922 32.8973 12.8922C31.8999 12.8922 31.0933 12.4228 30.6973 11.5135C30.6533 11.4255 30.6973 11.3228 30.7853 11.2788C30.8146 11.2642 30.8293 11.2642 30.8586 11.2642H38.4266C38.4559 11.0002 38.4559 10.6922 38.4559 10.4135C38.4559 6.7175 36.4466 3.69617 32.1199 3.69617C28.4679 3.69617 25.8573 6.4535 25.8573 10.0908V10.1348C25.8573 13.9188 28.5559 16.4415 32.5453 16.4415C35.0973 16.4415 36.7839 15.4148 37.9866 13.9335C38.0306 13.8748 38.0306 13.7722 37.9426 13.6988C37.9573 13.6988 37.9573 13.6988 37.9426 13.6988ZM32.3986 7.49483C33.2493 7.49483 33.9679 8.1255 34.0706 8.97617C34.0853 9.07883 34.0119 9.16683 33.9093 9.16683H33.8946H30.9173C30.8146 9.16683 30.7413 9.0935 30.7413 8.99083V8.97617C30.8293 8.1255 31.5479 7.49483 32.3986 7.49483Z" fill="#F92586"/>
<path d="M8.712 11.2347C8.624 11.1907 8.52133 11.2054 8.47733 11.2934C8.008 11.9827 7.50933 12.3787 6.67333 12.3787C5.72 12.3787 4.94267 11.5427 4.86933 10.3547C4.86933 10.296 4.86933 10.252 4.86933 10.1934V10.1494C4.86933 8.94671 5.676 8.00804 6.74667 8.00804C7.524 8.00804 8.03733 8.40404 8.448 9.0787C8.492 9.1667 8.60933 9.19604 8.68266 9.13737L12.012 7.26004C12.0853 7.21604 12.1293 7.11337 12.0853 7.02537C11.132 5.1187 9.25466 3.79871 6.644 3.79871C2.66933 3.79871 0 6.76137 0 10.1787V10.2227C0 10.2814 0 10.3254 0 10.384C0.088 13.728 2.75733 16.5587 6.39466 16.5587C7.612 16.5587 8.65333 16.324 9.53333 15.8987C9.62133 15.8547 9.66533 15.7667 9.62133 15.6787C9.57733 15.5614 9.56266 15.4294 9.56266 15.2974C9.57733 14.6374 10.076 14.0947 10.7213 14.036C10.956 14.0067 11.2053 14.0654 11.4107 14.1974C11.484 14.2414 11.5867 14.2267 11.6453 14.1534C11.8067 13.948 11.9533 13.728 12.0853 13.4934L12.1587 13.376C12.2027 13.288 12.188 13.1854 12.1 13.1267C12.1 13.1267 12.1 13.1267 12.0853 13.1267L8.712 11.2347Z" fill="#F92586"/>
<path d="M11.7627 15.1214C11.1027 15.1948 10.604 15.7374 10.5894 16.3828C10.5894 16.5588 10.6334 16.7348 10.7214 16.8961C11.44 16.5294 12.0707 16.0014 12.5694 15.3708C12.3494 15.1948 12.056 15.0921 11.7627 15.1214Z" fill="#F92586"/>
</svg>
