<svg width="117" height="24" viewBox="0 0 117 24" fill="none" xmlns="http://www.w3.org/2000/svg">
<path d="M11.1698 11.7005C11.1698 12.3186 11.6527 12.8015 12.2709 12.8015C12.889 12.8015 13.372 12.3186 13.372 11.7005C13.372 11.0823 12.889 10.5994 12.2709 10.5994C11.6527 10.6187 11.1698 11.1016 11.1698 11.7005ZM20.4035 10.6187C19.7853 10.6187 19.3024 11.1016 19.3024 11.7198C19.3024 12.3379 19.7853 12.8209 20.4035 12.8209C21.0216 12.8209 21.5046 12.3379 21.5046 11.7198C21.5046 11.1016 21.0216 10.6187 20.4035 10.6187ZM20.4035 18.8865C19.7853 18.8865 19.3024 19.3694 19.3024 19.9876C19.3024 20.6057 19.7853 21.0887 20.4035 21.0887C21.0216 21.0887 21.5046 20.6057 21.5046 19.9876C21.5046 19.3694 21.0216 18.8865 20.4035 18.8865Z" fill="#F3BB2D"/>
<path d="M22.7408 1.5203C21.6397 0.148775 19.6694 0.0908252 18.5103 1.1726L18.3751 1.30782L18.1047 1.5203C17.0036 2.4089 15.3616 2.33164 14.3378 1.30782V1.23054C13.9901 0.882833 13.5265 0.612392 13.0435 0.47717C12.9663 0.47717 12.831 0.399902 12.7731 0.399902H11.672C11.5947 0.399902 11.5368 0.399901 11.4595 0.47717H11.3243C11.247 0.47717 11.1891 0.554439 11.1118 0.554439C11.1118 0.554439 11.0345 0.554443 11.0345 0.631713C10.9573 0.631713 10.8993 0.708981 10.822 0.708981C10.822 0.708981 10.7448 0.70898 10.7448 0.786249C10.6675 0.863518 10.6096 0.86352 10.5323 0.921472C10.5323 0.921472 10.455 0.921471 10.455 0.998741C10.3777 1.07601 10.3198 1.07601 10.2425 1.13396L10.1653 1.21123L10.03 1.34645L9.75959 1.55894C8.65851 2.44754 7.01653 2.37027 6.06999 1.34645C6.06999 1.34645 5.99272 1.34645 5.99272 1.26918L5.85749 1.13396C5.45183 0.786246 4.9689 0.515804 4.42801 0.457852H3.19171C3.19171 0.535121 3.11444 0.535124 3.05648 0.593076H3.03717C2.68946 0.728297 2.36106 0.863516 2.0713 1.13396L1.99403 1.21123L1.78154 1.42372C1.5111 1.69416 1.37588 2.04187 1.24066 2.31232C1.24066 2.38959 1.16339 2.44754 1.16339 2.52481C1.16339 2.60208 1.08612 2.66003 1.08612 2.79525C1.00885 3.27818 1.00885 3.76111 1.16339 4.22473C1.16339 4.302 1.24066 4.35995 1.24066 4.43722V4.51449C1.24066 4.59176 1.31793 4.64971 1.31793 4.72698C1.3952 4.80425 1.3952 4.8622 1.45315 4.99742C1.58837 5.07469 1.72359 5.20992 1.80086 5.26787L1.93608 5.40309L2.0713 5.53831C3.09512 6.56213 3.09512 8.33932 1.99403 9.44041C1.85881 9.57563 1.64632 9.78812 1.58837 9.92334C1.5111 10.0006 1.5111 10.0586 1.45315 10.1938V10.2711C1.37588 10.3483 1.37588 10.4063 1.31793 10.4835V10.5608C1.31793 10.6381 1.24066 10.696 1.24066 10.7733V10.8506C1.24066 10.9278 1.24066 10.9858 1.16339 11.0631V12.0869C1.16339 12.1642 1.16339 12.2221 1.24066 12.2994V12.3766C1.37588 12.8596 1.64632 13.3425 2.05198 13.7482C3.15307 14.8493 3.15307 16.6265 2.05198 17.7082L1.97472 17.7855L1.83949 17.9207V17.998C1.76222 18.0753 1.70427 18.1332 1.70427 18.2105C1.70427 18.2105 1.70427 18.2877 1.627 18.2877C1.54973 18.365 1.54973 18.423 1.49178 18.5002L1.41451 18.5775C1.41451 18.6548 1.33724 18.6548 1.33724 18.7127C1.33724 18.7707 1.25997 18.79 1.25997 18.8479C1.25997 18.9252 1.25997 18.9252 1.18271 18.9832C1.04748 19.2536 0.970215 19.6013 0.970215 19.8718V20.4127C1.04748 20.6251 1.04748 20.8183 1.18271 20.9535C1.18271 21.0308 1.25997 21.0888 1.25997 21.0888C1.25997 21.0888 1.25997 21.166 1.33724 21.166C1.33724 21.2433 1.41451 21.3012 1.41451 21.3785C1.41451 21.3785 1.41451 21.4558 1.49178 21.4558C1.56905 21.591 1.627 21.6683 1.70427 21.7262C1.70427 21.7262 1.70427 21.8035 1.78154 21.8035C1.78154 21.8035 1.78154 21.8808 1.85881 21.8808C1.85881 21.958 1.93608 21.958 1.93608 21.958L2.01335 22.0353C2.09062 22.1126 2.14857 22.1126 2.14857 22.1705L2.22584 22.2478C2.22584 22.2478 2.30311 22.2478 2.30311 22.3251C2.38038 22.4023 2.43833 22.4603 2.5156 22.4603C2.5156 22.4603 2.59287 22.4603 2.59287 22.5376C2.67014 22.6148 2.72809 22.6148 2.80536 22.6728H2.84399C2.92126 22.75 2.97922 22.75 3.11444 22.75C3.19171 22.75 3.32693 22.8273 3.38488 22.8273H3.46215C3.53942 22.8273 3.59737 22.8273 3.67464 22.9046H4.29279C4.50528 22.9046 4.6405 22.8273 4.83368 22.8273H4.91095C4.98822 22.8273 5.04617 22.75 5.12344 22.75H5.16207C5.23934 22.75 5.29729 22.6728 5.37456 22.6728H5.45183C5.58705 22.5955 5.79954 22.4603 5.93476 22.4023L6.14725 22.1898L6.22452 22.1126C7.32561 20.9535 9.1028 20.9535 10.1846 22.1126C11.4209 23.4068 13.4685 23.3489 14.6276 21.9001C15.4389 20.8763 15.4389 19.3695 14.6276 18.2684C13.5265 16.8969 11.5561 16.8389 10.3971 17.9207L10.2618 18.0559L9.9914 18.2684C8.89031 19.157 7.24834 19.0798 6.22452 18.0559L6.0893 17.9207L5.87681 17.6503C4.98822 16.5492 5.06549 14.9072 6.0893 13.8834C6.70746 13.3425 6.9779 12.5891 6.9779 11.8358V11.6233C6.9779 10.9472 6.70746 10.2517 6.16657 9.7688C6.16657 9.69153 6.0893 9.69153 6.0893 9.63358L5.87681 9.36314C4.98822 8.26205 5.06549 6.62008 6.0893 5.59626L6.16657 5.51899L6.24384 5.44172C7.34493 4.28269 9.12212 4.28269 10.2039 5.44172L10.2812 5.51899L10.3584 5.59626L10.4936 5.73148C10.5709 5.73148 10.5709 5.80875 10.6289 5.80875C10.6868 5.80875 10.7061 5.88602 10.7641 5.88602C10.822 5.88602 10.8414 5.96329 10.8993 5.96329C10.9573 5.96329 10.9766 6.04056 11.0345 6.04056C11.0925 6.04056 11.1118 6.11783 11.1698 6.11783C11.2277 6.11783 11.247 6.1951 11.305 6.1951C11.3629 6.1951 11.3822 6.1951 11.4402 6.27237C11.5175 6.27237 11.5175 6.27237 11.5754 6.34964H12.7345C12.8117 6.34964 12.8697 6.34964 12.9469 6.27237H13.0822C13.1594 6.27237 13.2174 6.1951 13.2947 6.1951H13.3719C13.4492 6.1951 13.5072 6.11783 13.6424 6.05988C13.9128 5.92465 14.1833 5.71217 14.3957 5.51899L14.473 5.44172C15.5741 4.28269 17.3513 4.28269 18.4331 5.44172C19.5921 6.81325 21.717 6.73598 22.8181 5.3065C23.5522 4.05088 23.5522 2.54412 22.7408 1.5203Z" fill="#F3BB2D"/>
<path d="M38.3295 10.0006C37.9238 9.59489 37.5761 9.32444 37.0931 9.11195C36.6875 8.89946 36.2045 8.76424 35.5864 8.76424C35.0455 8.76424 34.4853 8.89946 34.0796 9.11195C33.674 9.32444 33.3263 9.59489 33.0558 10.0006C32.7854 10.3483 32.5729 10.7539 32.4377 11.2369C32.3025 11.7198 32.2252 12.2027 32.2252 12.6663C32.2252 13.13 32.3025 13.6322 32.4956 14.0958C32.6308 14.5788 32.9013 14.9071 33.1717 15.2549C33.4422 15.6026 33.8478 15.873 34.2728 16.0662C34.6785 16.2787 35.1614 16.3366 35.7023 16.3366C36.3205 16.3366 36.8034 16.2014 37.209 15.9889C37.6147 15.7764 38.0204 15.506 38.3681 15.1003L39.7976 16.6071C39.2567 17.2252 38.6385 17.6309 37.9431 17.9013C37.267 18.1718 36.5136 18.307 35.683 18.307C34.8717 18.307 34.041 18.1718 33.3649 17.9013C32.6888 17.6309 32.0706 17.2252 31.5877 16.7423C31.1048 16.2594 30.6991 15.6412 30.4287 14.9651C30.1582 14.289 30.023 13.4583 30.023 12.647C30.023 11.8357 30.1582 11.005 30.4287 10.3289C30.6991 9.65284 31.1048 9.03468 31.5877 8.47448C32.0706 7.99155 32.6888 7.58588 33.3649 7.31544C34.041 7.045 34.8717 6.90978 35.683 6.90978C36.4943 6.90978 37.2477 7.045 37.9431 7.31544C38.6965 7.58588 39.3146 8.06882 39.8555 8.6097L38.3295 10.0006ZM42.9656 12.5311C42.9656 13.072 43.0429 13.6322 43.2361 14.0379C43.3713 14.5208 43.6417 14.9265 43.9122 15.2742C44.1826 15.6219 44.5883 15.8923 45.0132 16.0275C45.4189 16.24 45.9791 16.298 46.52 16.298C47.0609 16.298 47.5438 16.2207 48.0267 16.0275C48.4324 15.8151 48.8381 15.5446 49.1278 15.2742C49.3983 14.9265 49.6687 14.5208 49.8039 14.0379C49.9392 13.5549 50.0744 13.072 50.0744 12.5311C50.0744 11.9902 49.9971 11.43 49.8039 11.0244C49.6687 10.5414 49.3983 10.1358 49.1278 9.78806C48.8574 9.44035 48.4517 9.16991 48.0267 9.03468C47.6211 8.82219 47.0609 8.76424 46.52 8.76424C45.9791 8.76424 45.4962 8.84151 45.0132 9.03468C44.6076 9.24718 44.2019 9.51762 43.9122 9.78806C43.6417 10.1358 43.3713 10.5414 43.2361 11.0244C43.1008 11.5073 42.9656 11.9902 42.9656 12.5311ZM40.7828 12.5311C40.7828 11.7198 40.918 10.9664 41.1884 10.271C41.4589 9.59489 41.8645 8.97673 42.4247 8.41653C42.9656 7.87564 43.5258 7.45066 44.2792 7.18022C44.9553 6.90978 45.7087 6.69729 46.5393 6.69729C47.37 6.69729 48.104 6.83251 48.7994 7.18022C49.4755 7.45066 50.0937 7.85633 50.6539 8.41653C51.1948 8.95741 51.5425 9.57557 51.8902 10.271C52.1606 10.9471 52.2959 11.7005 52.2959 12.5311C52.2959 13.3424 52.1606 14.0958 51.8902 14.7912C51.6198 15.4673 51.2141 16.0855 50.6539 16.6457C50.113 17.1866 49.5528 17.5343 48.7994 17.882C48.1233 18.1525 47.37 18.3649 46.5393 18.3649C45.728 18.3649 44.9746 18.2297 44.2792 17.882C43.6031 17.6116 42.9849 17.2059 42.4247 16.6457C41.8838 16.1048 41.5361 15.5446 41.1884 14.7912C40.9952 14.0958 40.7828 13.3424 40.7828 12.5311ZM54.4015 18.0752H56.4491V7.14158H54.4015V18.0752ZM53.9185 3.16222C53.9185 2.75655 54.0537 2.40884 54.3242 2.06113C54.5946 1.79069 54.9423 1.5782 55.348 1.5782C55.7537 1.5782 56.1014 1.71342 56.3718 2.06113C56.6423 2.33158 56.7775 2.73724 56.7775 3.16222C56.7775 3.5872 56.6423 3.91559 56.3718 4.26331C56.1014 4.53375 55.7537 4.74624 55.348 4.74624C54.9423 4.74624 54.5946 4.61102 54.3242 4.26331C54.0537 3.97355 53.9185 3.56788 53.9185 3.16222ZM59.308 7.12227H61.375V8.82219H61.4523C61.7227 8.20404 62.1284 7.72111 62.8238 7.39271C63.442 7.045 64.1953 6.85182 65.0839 6.85182C65.6248 6.85182 66.1077 6.92909 66.5907 7.12227C67.0736 7.25749 67.4793 7.52793 67.827 7.87565C68.1747 8.22336 68.4451 8.62902 68.7156 9.1699C68.9281 9.71079 69.0633 10.3289 69.0633 11.0823V18.1331H66.977V11.6425C66.977 11.1596 66.8998 10.6767 66.7645 10.3483C66.6293 10.0005 66.4168 9.67215 66.2237 9.45966C66.0112 9.24717 65.7407 9.054 65.4123 8.97673C65.1419 8.89946 64.7942 8.84151 64.4465 8.84151C64.0408 8.84151 63.6351 8.91878 63.2874 9.054C62.9397 9.18922 62.6113 9.40171 62.3216 9.7301C62.0511 10.0005 61.8386 10.4062 61.7034 10.8891C61.5682 11.3721 61.4909 11.913 61.4909 12.5311V18.2104H59.4433V7.14158L59.308 7.12227ZM76.6164 16.3559C77.1572 16.3559 77.6402 16.2787 78.1231 16.0855C78.606 15.873 78.9344 15.6026 79.2822 15.2742C79.5526 14.9265 79.823 14.5208 79.9583 14.0379C80.0935 13.5549 80.2287 13.072 80.2287 12.4732C80.2287 11.9323 80.1514 11.3721 79.9583 10.9085C79.823 10.4255 79.5526 10.0199 79.2822 9.67215C78.9344 9.32444 78.606 9.054 78.1231 8.86082C77.6402 8.64833 77.1572 8.59038 76.6164 8.59038C76.0755 8.59038 75.5925 8.66765 75.1096 8.86082C74.6267 9.07331 74.2983 9.34376 73.9506 9.67215C73.6801 10.0199 73.4097 10.4255 73.2745 10.9085C73.1392 11.3914 73.004 11.8743 73.004 12.4732C73.004 13.014 73.0813 13.5743 73.2745 14.0379C73.4097 14.5208 73.6801 14.9265 73.9506 15.2742C74.221 15.6219 74.6267 15.8923 75.1096 16.0855C75.5153 16.2207 76.0755 16.3559 76.6164 16.3559ZM82.2956 17.9979H80.248V16.4332H80.1707C79.7651 17.0514 79.2049 17.457 78.5288 17.8047C77.8527 18.1525 77.0993 18.2877 76.3459 18.2877C75.5346 18.2877 74.7039 18.1525 74.0278 17.882C73.3517 17.6116 72.7336 17.2059 72.2506 16.6457C71.7677 16.1048 71.3621 15.4867 71.1496 14.7912C70.8791 14.1151 70.7439 13.3618 70.7439 12.5311C70.7439 11.7005 70.8791 10.9664 71.1496 10.213C71.42 9.53693 71.7677 8.91878 72.2506 8.35858C72.7336 7.81769 73.3517 7.39271 74.0278 7.12227C74.7039 6.85182 75.4573 6.71661 76.3459 6.71661C77.0993 6.71661 77.8527 6.85183 78.5288 7.19954C79.2049 7.54725 79.7651 8.01086 80.0935 8.57106H80.1707V0.361206H82.2184V17.9979H82.2956ZM92.7463 11.6425C92.7463 11.1596 92.669 10.7539 92.5338 10.3483C92.3986 9.9426 92.1861 9.59489 91.9157 9.32444C91.6452 9.054 91.2975 8.84151 90.9498 8.64834C90.5441 8.51312 90.1385 8.37789 89.5783 8.37789C89.0953 8.37789 88.6124 8.45517 88.2067 8.64834C87.8011 8.86083 87.4534 9.054 87.1057 9.40171C86.8352 9.67215 86.5648 10.0199 86.4296 10.4255C86.2943 10.8312 86.1591 11.1789 86.1591 11.5266H92.727L92.7463 11.6425ZM86.1977 13.3424C86.1977 13.8254 86.333 14.231 86.5455 14.6367C86.7579 15.0424 87.0284 15.3901 87.3568 15.6605C87.7045 15.931 88.1102 16.1435 88.5158 16.2787C88.9988 16.4139 89.4044 16.4912 89.8874 16.4912C90.5055 16.4912 91.1237 16.3559 91.5873 16.0082C92.0702 15.7378 92.4759 15.3321 92.8815 14.8492L94.4462 16.0855C93.2872 17.5923 91.6452 18.3456 89.5976 18.3456C88.709 18.3456 87.9556 18.2104 87.2795 17.94C86.6034 17.6695 85.9853 17.2639 85.5023 16.7037C85.0194 16.1628 84.6137 15.6026 84.4012 14.8492C84.1308 14.1731 83.9956 13.4197 83.9956 12.5891C83.9956 11.7777 84.1308 11.0244 84.4012 10.3289C84.6717 9.65284 85.0773 9.03468 85.5603 8.47448C86.0432 7.93359 86.6614 7.58588 87.3375 7.23817C88.0136 6.96773 88.767 6.83251 89.5976 6.83251C90.5635 6.83251 91.3748 6.96773 92.0509 7.31544C92.727 7.66315 93.2872 8.06882 93.6929 8.6097C94.0985 9.15059 94.4462 9.76874 94.6587 10.4642C94.8712 11.1403 94.9292 11.8357 94.9292 12.5891V13.3424H86.1977V13.3424ZM103.004 9.86533C102.733 9.59488 102.463 9.32444 102.115 9.11195C101.768 8.89946 101.304 8.76424 100.821 8.76424C100.338 8.76424 99.9324 8.89946 99.5267 9.11195C99.179 9.32444 98.9858 9.59489 98.9858 10.0006C98.9858 10.3483 99.121 10.6187 99.3335 10.7539C99.546 10.9664 99.8165 11.1016 100.087 11.2369C100.357 11.3721 100.705 11.4493 100.975 11.5073C101.323 11.5846 101.594 11.6425 101.787 11.6425C102.192 11.7777 102.675 11.855 103.023 12.0482C103.429 12.1834 103.777 12.3959 104.047 12.6663C104.317 12.9368 104.53 13.2072 104.723 13.5549C104.858 13.9026 104.993 14.3083 104.993 14.8492C104.993 15.4673 104.858 16.0082 104.588 16.4139C104.317 16.8196 103.97 17.2252 103.564 17.515C103.158 17.8047 102.675 17.9979 102.135 18.1331C101.594 18.2684 101.033 18.3456 100.57 18.3456C99.6812 18.3456 98.8699 18.2104 98.1745 17.94C97.4984 17.6695 96.8802 17.1866 96.32 16.4332L97.8847 15.139C98.2324 15.4867 98.5608 15.7571 98.9858 16.0275C99.4108 16.298 99.8744 16.4332 100.493 16.4332C100.763 16.4332 101.033 16.4332 101.304 16.3559C101.574 16.2787 101.787 16.2207 101.98 16.0855C102.192 15.9503 102.328 15.8151 102.463 15.6798C102.598 15.4673 102.675 15.2742 102.675 15.0617C102.675 14.7912 102.598 14.5208 102.405 14.3083C102.192 14.0958 101.999 13.9606 101.729 13.8254C101.458 13.6902 101.188 13.6129 100.918 13.5549L100.106 13.3424C99.7005 13.2072 99.2176 13.13 98.8699 12.9947C98.4642 12.8595 98.1165 12.647 97.8461 12.4538C97.5756 12.2414 97.3052 11.913 97.0927 11.5652C96.8802 11.2175 96.8223 10.7539 96.8223 10.271C96.8223 9.73011 96.9575 9.1699 97.17 8.76424C97.3825 8.35857 97.7109 8.01086 98.1358 7.74042C98.5415 7.46998 98.9472 7.25749 99.4301 7.12227C99.913 6.98704 100.454 6.90978 100.937 6.90978C101.69 6.90978 102.366 7.045 103.062 7.31544C103.738 7.58588 104.298 8.06882 104.704 8.68697L103.004 9.86533ZM106.983 0.631653H109.031V11.7005L113.686 7.045H116.487L111.503 11.9709L116.97 17.8434H114.034L109.05 12.2414V17.8434H107.002V0.631653" fill="#101820"/>
</svg>
