<svg width="116" height="19" viewBox="0 0 116 19" fill="none" xmlns="http://www.w3.org/2000/svg">
<path d="M6.64846 5.69524V11.9685C7.49604 11.5108 8.08957 10.7138 8.37769 9.81512L8.44558 9.84919C8.25893 12.0873 6.73314 14.3251 4.35953 14.3251C1.96887 14.3251 0.205574 12.545 0.205574 9.69636C0.205574 7.56026 1.59582 6.22062 3.37616 5.01678C3.11602 4.94854 2.84813 4.91435 2.57919 4.91506C1.35831 4.91506 0.646274 5.74585 0.646274 6.59368H0.544555C0.527518 6.47492 0.527518 6.35642 0.527518 6.23766C0.527518 4.72866 1.32449 2.89746 3.2574 2.89746C4.49507 2.89746 5.44462 4.03341 6.88572 4.03341C7.46221 4.03341 8.17425 3.76207 8.46237 3.13472H8.51323C8.49644 4.2371 8.15746 5.37305 6.64846 5.69524V5.69524ZM7.56393 12.1211C6.71611 13.0195 5.80063 13.7827 4.61382 13.7827C2.40982 13.7827 0.714421 12.0532 0.714421 9.54378C0.714421 8.06886 1.32474 7.27214 2.00295 6.33938H1.93505C1.51114 6.76329 0.392226 7.83134 0.392226 9.6455C0.392226 12.4262 2.13849 14.1387 4.42742 14.1387C6.02111 14.1387 7.1062 13.0368 7.59801 12.1381L7.56393 12.1211V12.1211ZM8.24189 3.89812C7.95377 4.44054 7.34346 5.13553 6.10579 5.13553C4.86812 5.13553 3.73217 4.28771 2.73177 4.28771C1.81604 4.28771 1.18894 4.89827 0.951431 5.35601L0.968468 5.39008C1.29066 5.06789 1.78222 4.74569 2.57919 4.74569C3.90154 4.74569 4.74937 5.5597 6.08875 5.5597C7.51307 5.5597 8.15721 4.62694 8.27597 3.91515L8.24189 3.89812V3.89812ZM3.52849 5.06789C2.66387 5.96658 1.8669 6.94995 1.8669 8.86582C1.8669 9.91684 2.22292 11.0019 3.01989 11.6801L3.51145 11.4256V6.88205L3.05371 7.11931L2.96903 6.94969L5.34265 5.66092C4.69851 5.52562 4.12201 5.2375 3.52849 5.06789V5.06789ZM6.46181 5.72906C6.34305 5.74585 6.22455 5.74585 6.08875 5.74585C5.85149 5.74585 5.63102 5.72906 5.41054 5.67795V10.6286L3.1895 11.833C3.64724 12.1719 4.2067 12.3754 4.91873 12.3754C5.49522 12.3754 6.00382 12.2566 6.46156 12.0532V5.72906H6.46181V5.72906ZM4.0203 6.59393L3.6981 6.78033V11.3244L4.0203 11.1548V6.59393V6.59393ZM13.7693 7.23807V13.1045C13.7693 14.732 12.3282 15.8343 10.7175 16.1563L10.6837 16.0884C11.4806 15.6983 11.9384 14.9016 11.9384 14.0538V7.98392L11.0229 7.15338L10.6669 7.54322V12.2737L11.1755 12.7314V12.7655L9.80226 14.2574L8.22561 12.8163V12.7484L8.83592 12.1041V4.61015L10.633 2.69452L10.6669 2.71131V7.2551L12.142 5.66142L13.6849 7.05191L13.973 6.74651L14.1088 6.86551L13.7693 7.23807V7.23807ZM9.02207 12.7823V12.7484L9.37809 12.3922V4.32178L9.02207 4.69508V12.2228L8.47941 12.7655V12.7993L9.80176 13.9861L10.039 13.7148L9.02207 12.7823V12.7823ZM12.4808 7.71259L11.3787 6.76329L11.1414 7.01759L12.1248 7.89949V14.0031C12.1248 14.41 12.0401 14.8337 11.8875 15.0712L11.9045 15.0882C12.3285 14.7828 12.481 14.3251 12.481 13.7318V7.71259H12.4808V7.71259ZM16.4651 10.6459V11.5105L18.1097 12.7991L19.0592 11.7819L19.195 11.9174L16.991 14.274L14.7529 12.4769L14.4139 12.8329L14.2782 12.6973L14.6682 12.2905V8.00096L17.8726 5.66117L19.5513 8.37401L16.4651 10.6459V10.6459ZM15.2104 12.1381V7.83134L14.8544 8.08589V12.3077L16.9569 14.0202L17.2283 13.7321L15.2104 12.1381V12.1381ZM16.4992 6.91587L16.4651 6.93291V10.4086L17.9741 9.30652L16.4992 6.91587ZM16.9399 6.57689L16.6347 6.79711L18.1269 9.18777L18.4321 8.96729L16.9399 6.57689V6.57689ZM30.6028 14.2572L28.246 12.2226L26.4489 14.2572L24.0074 12.1547V8.83175H23.5326C23.1087 8.83175 22.8885 9.10309 22.7865 9.42503H22.7356C22.6815 9.21452 22.6531 8.99823 22.6509 8.78089C22.6509 8.33994 22.7697 7.18721 24.0074 7.18721V4.27092C24.0074 3.71147 23.3462 3.49099 23.3462 2.74488C23.3462 1.7788 24.2617 0.829253 25.9403 0.235474L26.0082 0.286333C25.3979 0.642601 25.0757 0.981582 25.0757 1.71065C25.0757 2.82981 26.1608 2.54144 26.1608 4.30474V4.98296L28.1445 2.89746L30.23 4.94888L32.1968 2.89746L34.0956 4.76248V11.0358L30.6028 14.2572V14.2572ZM24.55 11.8836V8.30637H23.6005C23.1087 8.30637 22.8885 8.62831 22.8544 8.91668L22.8712 8.93372C23.0408 8.74732 23.2104 8.6456 23.6002 8.6456H24.1935V12.0705L26.4316 14.0034L26.6859 13.698L24.55 11.8836V11.8836ZM24.55 4.10131C24.55 3.40631 23.9397 3.1688 23.9397 2.7281C23.9397 2.11753 24.177 1.60918 24.55 1.13441L24.5162 1.11762C24.0076 1.50772 23.5328 2.13507 23.5328 2.74513C23.5328 3.3557 24.194 3.64382 24.194 4.18649V7.18746H24.55V4.10131ZM28.1275 5.79696L26.839 4.54226L26.1608 5.23725V11.2392L27.7036 12.5448L28.1275 12.07V5.79696ZM28.6699 11.8498V5.5597L27.2288 4.13538L26.9575 4.40671L28.3139 5.71203V12.0362L30.6028 14.0199L30.8742 13.7654L28.6699 11.8498ZM31.9593 5.57648L30.8912 4.55904L30.2809 5.18639V11.2224L31.9425 12.6803L31.9593 12.6635V5.57648V5.57648ZM32.5017 5.33922L31.264 4.13538L31.0097 4.40671L32.1457 5.4918V12.5788L32.5017 12.2396V5.33922V5.33922ZM39.706 14.2572L38.0952 12.7991L36.6541 14.2572L34.8908 12.6973L34.6533 12.9516L34.5178 12.8161L34.8229 12.4939V7.95035L38.0105 5.64438L39.8417 7.0687L40.1639 6.72947L40.2997 6.86526L39.9267 7.2551V11.9517L40.8251 12.7823L41.1135 12.4771L41.249 12.5959L39.706 14.2572V14.2572ZM35.3656 12.3754V7.79752L35.0096 8.05182V12.545L36.6373 14.0031L36.9087 13.7318L35.3656 12.3754V12.3754ZM38.0952 7.91628L36.705 6.83119L36.6541 6.86526V11.7989L37.8071 12.7991L38.0952 12.5109V7.91628V7.91628ZM38.6379 12.528V7.66198L37.1968 6.49196L36.8578 6.72922L38.2819 7.84838V12.6973L39.7062 13.9859L39.9605 13.7145L38.6379 12.528V12.528ZM44.6398 8.73003H46.3861V12.3584L43.6903 14.2572C43.3343 13.8503 42.8254 13.5622 42.1983 13.5622C41.6897 13.5622 41.2826 13.7318 40.7402 14.1895L40.6555 14.1555L42.9615 10.7985H41.5371V7.64494L44.3688 5.6782C44.7077 5.94954 44.962 6.10187 45.403 6.10187C45.7422 6.10187 46.2338 6.03397 46.6068 5.72906L46.6747 5.76289L44.6398 8.73003V8.73003ZM42.741 13.0704C42.2492 13.0704 41.8593 13.24 41.5201 13.4773V13.5113C41.7914 13.3926 42.0628 13.3588 42.3171 13.3588C42.7069 13.3588 43.3175 13.5454 43.7244 14.0202L44.1145 13.7321C43.792 13.3588 43.4022 13.0704 42.741 13.0704V13.0704ZM44.5549 10.222H43.6054L41.6216 13.0877L41.6386 13.1215C42.1302 12.7655 42.6049 12.5282 43.1814 12.5282C43.69 12.5282 44.2157 12.7655 44.5379 13.1724L44.5549 13.1556V10.222ZM42.0796 10.222V7.49261L41.7236 7.74691V10.5953H43.0968L43.3681 10.2222H42.0796V10.222ZM45.6232 6.89883C45.2672 7.15338 45.0637 7.28893 44.4702 7.28893C44.131 7.28893 43.7241 7.13635 43.4022 6.79711L43.3683 6.81415V9.28949H44.0125L45.6402 6.91562L45.6232 6.89883V6.89883ZM44.8095 6.74626C44.5043 6.74626 44.1145 6.59393 43.8599 6.2547L43.436 6.54282C43.7582 6.93291 44.0633 7.10227 44.5379 7.10227C44.843 7.10227 45.284 7.01734 45.7417 6.62725L45.7585 6.57664C45.4706 6.69565 45.1146 6.74626 44.8095 6.74626V6.74626ZM45.0976 9.66279H43.9954L43.7412 10.0188H44.7416V13.3079L45.0976 13.0536V9.66279ZM52.2355 7.23807V13.1045C52.2355 14.732 50.7943 15.8343 49.1836 16.1563L49.1498 16.0884C49.9468 15.6983 50.4045 14.9016 50.4045 14.0538V7.98392L49.489 7.15338L49.133 7.54322V12.2737L49.6416 12.7314V12.7655L48.2684 14.2574L46.6918 12.8163V12.7484L47.3021 12.1041V4.61015L49.0992 2.69452L49.133 2.71131V7.2551L50.6082 5.66142L52.151 7.05191L52.4391 6.74651L52.5749 6.86551L52.2355 7.23807V7.23807ZM47.4882 12.7823V12.7484L47.8442 12.3922V4.32178L47.4882 4.69483V12.2226L46.9456 12.7652V12.7991L48.2679 13.9859L48.5052 13.7145L47.4882 12.7823V12.7823ZM50.9469 7.71259L49.8448 6.76329L49.6075 7.01759L50.5909 7.89949V14.0031C50.5909 14.41 50.5062 14.8337 50.3536 15.0712L50.3707 15.0882C50.7946 14.7828 50.9472 14.3251 50.9472 13.7318V7.71259H50.9469ZM55.3214 14.2572L53.8632 12.9178L53.524 13.2738L53.3882 13.138L53.7783 12.7144V7.81456L53.0662 7.13635L52.7949 7.44175L52.6591 7.30596L54.1849 5.64438L55.5413 6.86526L55.8806 6.49221L56.0331 6.61096L55.6092 7.0687V12.0196L56.4232 12.7825L56.7963 12.3924L56.9318 12.5282L55.3214 14.2572V14.2572ZM54.321 12.5959V7.54322L53.4393 6.72947L53.202 7.0008L53.9649 7.72988V12.7655L55.3214 13.9861L55.5757 13.7148L54.321 12.5959V12.5959ZM54.8295 5.50884L53.4393 4.23735L54.711 2.88093L56.1013 4.15242L54.8295 5.50884ZM53.9649 3.96576L53.7106 4.22006L54.8125 5.25429L55.0668 4.96617L53.9649 3.96576V3.96576ZM62.4906 14.2572L61.0154 12.9178V7.96714L60.1167 7.15338L59.6419 7.66198V12.2396L60.1676 12.7312V12.7991L58.7773 14.2572L57.2004 12.8161V12.7652L57.811 12.1211V7.84838L57.014 7.11931L56.6918 7.47533L56.5563 7.33978L58.0991 5.66117L59.6419 7.03463V7.37361L61.2526 5.66117L62.7614 7.01759L63.1006 6.66157L63.2532 6.79711L62.8463 7.22103V12.07L63.6092 12.782L63.9823 12.3751L64.1178 12.5107L62.4906 14.2572V14.2572ZM58.0144 12.7823V12.7484C58.0144 12.7823 58.3536 12.4092 58.3536 12.4092V7.59383L57.3871 6.71218L57.1495 6.96648L57.9974 7.74641V12.2223L57.4717 12.765V12.7988L58.7773 13.9856L59.0484 13.6975L58.0144 12.7823V12.7823ZM61.5578 12.6467V7.67902L60.5068 6.72947L60.2354 7.01759L61.2018 7.8822V12.8161L62.4733 14.0029L62.7446 13.7145L61.5578 12.6467V12.6467ZM67.2716 17.309C66.7124 16.6987 66.3223 16.4444 65.7967 16.4444C65.2372 16.4444 64.5928 16.6649 63.9317 17.0209L63.8808 16.9703L66.2206 14.2574L64.559 12.9351L64.2368 13.2743L64.1013 13.1556L64.4741 12.7487V7.95035L67.6955 5.64438L69.4926 7.0687L69.7981 6.72947L69.9336 6.86526L69.5776 7.2551V13.0539C69.5776 13.9355 70.0691 13.9017 70.0691 14.5626C70.0691 15.3255 68.967 16.0375 67.2716 17.309ZM65.0168 12.6126V7.81456L64.6607 8.06911V12.7655L66.3391 14.1219L66.5936 13.8165L65.0168 12.6126V12.6126ZM66.2036 16.0037C65.6441 16.0037 65.1353 16.1733 64.6607 16.4953V16.5293C64.9659 16.4106 65.3049 16.258 65.8814 16.258C66.407 16.258 66.8477 16.5461 67.2886 17.055L67.6279 16.7836C67.2037 16.2921 66.6951 16.0037 66.2036 16.0037ZM68.272 14.3759C67.8484 14.1046 67.7464 13.8165 67.7464 13.0874V12.782L64.9318 16.0373L64.9489 16.0541C65.4913 15.7321 65.9831 15.4949 66.7801 15.4949C67.4583 15.4949 67.916 15.7659 68.4416 16.2069C68.7638 15.9356 68.9841 15.6645 68.9841 15.2406C68.9841 14.9016 68.6957 14.6473 68.272 14.3759V14.3759ZM67.7464 7.91628L66.3391 6.8144L66.305 6.84823V12.0532L67.3904 12.901L67.7464 12.4941V7.91628V7.91628ZM68.7806 14.1387C68.3397 13.7995 68.2888 13.5113 68.2888 12.7823V7.62816L66.8645 6.47517L66.5425 6.69565L67.9328 7.79752V13.0195C67.9328 13.7486 67.9669 13.9523 68.4246 14.2572C68.8315 14.5285 69.1534 14.8166 69.1534 15.2067C69.1534 15.3082 69.1366 15.4778 69.1366 15.4778L69.1534 15.4949C69.2383 15.4099 69.3401 15.2744 69.3401 15.0539C69.3403 14.6811 69.1537 14.4268 68.7806 14.1387V14.1387ZM72.8499 14.2572L71.29 13.0366L70.9678 13.3926L70.8323 13.2568L71.2051 12.8499V6.91587H70.2217L70.1876 6.88205L70.7812 6.00015H71.2048V4.86445L73.0022 2.94857L73.036 2.98264V6.0004H74.3925L74.4265 6.03447L73.833 6.91612H73.036V12.0534L73.9688 12.7657L74.3248 12.3756L74.4604 12.5112L72.8499 14.2572V14.2572ZM71.7478 4.57608L71.3917 4.96617V6.0004H71.7478V4.57608ZM71.7478 12.6805V6.91587H71.3917V12.884L72.8328 14.0031L73.0871 13.7318L71.7478 12.6805V12.6805ZM80.0046 7.40768V12.1549L77.1391 14.2742L74.9857 12.6467L74.7314 12.9348L74.5959 12.7991L74.9011 12.4601V7.81456L77.9023 5.66117L79.9028 7.22128L80.2248 6.88205L80.3606 7.01759L80.0046 7.40768V7.40768ZM75.444 12.2907V7.66198L75.0877 7.91628V12.4771L77.1223 14.037L77.4445 13.7997L75.444 12.2907V12.2907ZM78.1736 7.96714L76.7493 6.84797L76.7325 6.86501V11.9174L78.1736 13.0025V7.96714ZM78.7163 7.66198L77.1394 6.4411L76.8174 6.67836L78.3603 7.86517V13.1383L78.7163 12.8672V7.66198ZM86.4815 14.2572L85.0063 12.9178V7.96714L84.1076 7.15338L83.6329 7.66198V12.2396L84.1585 12.7312V12.7991L82.7683 14.2572L81.1914 12.8161V12.7652L81.8019 12.1211V7.84838L81.005 7.11931L80.6828 7.47533L80.5472 7.33978L82.09 5.66117L83.6329 7.03463V7.37361L85.2436 5.66117L86.7526 7.01759L87.0916 6.66157L87.2442 6.79711L86.8373 7.22103V12.07L87.6002 12.782L87.9732 12.3751L88.1088 12.5107L86.4815 14.2572V14.2572ZM82.0051 12.7823V12.7484C82.0051 12.7823 82.3443 12.4092 82.3443 12.4092V7.59383L81.378 6.71218L81.1408 6.96648L81.9886 7.74641V12.2223L81.4629 12.765V12.7988L82.7685 13.9856L83.0398 13.6975L82.0051 12.7823V12.7823ZM85.5488 12.6467V7.67902L84.4977 6.72947L84.2264 7.01759L85.1927 7.8822V12.8161L86.4642 14.0029L86.7356 13.7145L85.5488 12.6467V12.6467ZM96.9556 14.2572C96.4808 13.7486 96.3114 13.579 95.7517 13.4264V16.7496L95.7177 16.7663L95.0395 16.1558L93.0727 17.9699L93.0386 17.9532V13.3926C92.4454 13.5281 91.818 13.8335 91.2074 14.4436L91.1736 14.4268C91.2924 13.1212 91.9365 12.1549 93.0384 11.7819V8.47573H92.6824C92.1908 8.47573 91.9195 8.73003 91.6822 9.18777H91.6314C91.5805 9.03544 91.5464 8.79768 91.5464 8.40809C91.5464 7.6958 92.0721 6.94994 92.9369 6.94994H93.0384V5.11875L92.3434 4.4914L92.0042 4.83063L91.8854 4.71187L93.5979 2.89771L95.1915 4.35585V5.89868L95.5646 5.4918V3.54185H95.751V5.32219L98.0059 2.89746L99.9217 4.64397V12.0194L96.9556 14.2572V14.2572ZM93.0391 12.7652C92.3441 12.9008 91.8526 13.3247 91.5304 13.8841L91.5472 13.9182C92.0222 13.5113 92.4627 13.3249 93.0391 13.1891V12.7652V12.7652ZM93.5818 7.89949H92.6493C92.0049 7.89949 91.7506 8.30637 91.7338 8.78114L91.7506 8.79793C91.9541 8.4587 92.1575 8.34019 92.5644 8.28958H93.2258V17.5297L93.5818 17.1905V7.89949V7.89949ZM93.5818 4.84741L92.734 4.06773L92.4627 4.35585L93.2258 5.03381V6.94969H93.5818V4.84741V4.84741ZM95.5656 5.81375L95.1925 6.20384V16.0207L95.5656 16.36V5.81375V5.81375ZM97.7866 5.42391L96.7862 4.50843L95.752 5.62759V11.5955C96.6336 11.6804 97.244 11.9347 97.7696 12.5109L97.7866 12.4941V5.42391V5.42391ZM95.752 12.7652V13.2062C96.3285 13.3417 96.5657 13.5113 96.9726 13.9859L97.3627 13.6807C96.9556 13.1721 96.5487 12.8672 95.752 12.7652V12.7652ZM98.329 5.15282L97.1761 4.08452L96.9047 4.37264L97.973 5.35601V13.24L98.329 12.9687V5.15282V5.15282ZM105.84 7.40768V12.1549L102.974 14.2742L100.821 12.6467L100.567 12.9348L100.431 12.7991L100.736 12.4601V7.81456L103.737 5.66117L105.738 7.22128L106.06 6.88205L106.196 7.01759L105.84 7.40768V7.40768ZM101.279 12.2907V7.66198L100.923 7.91628V12.4771L102.958 14.037L103.28 13.7997L101.279 12.2907V12.2907ZM104.009 7.96714L102.585 6.84797L102.568 6.86501V11.9174L104.009 13.0025V7.96714ZM104.551 7.66198L102.975 6.4411L102.653 6.67836L104.195 7.86517V13.1383L104.551 12.8672V7.66198ZM109.773 8.73003H111.52V12.3584L108.824 14.2572C108.468 13.8503 107.959 13.5622 107.332 13.5622C106.823 13.5622 106.416 13.7318 105.874 14.1895L105.789 14.1555L108.095 10.7985H106.671V7.64494L109.502 5.6782C109.841 5.94954 110.095 6.10187 110.536 6.10187C110.876 6.10187 111.367 6.03397 111.74 5.72906L111.808 5.76289L109.773 8.73003ZM107.874 13.0704C107.383 13.0704 106.993 13.24 106.654 13.4773V13.5113C106.925 13.3926 107.196 13.3588 107.451 13.3588C107.841 13.3588 108.451 13.5454 108.858 14.0202L109.248 13.7321C108.926 13.3588 108.536 13.0704 107.874 13.0704V13.0704ZM109.689 10.222H108.739L106.756 13.0877L106.772 13.1215C107.264 12.7655 107.739 12.5282 108.315 12.5282C108.824 12.5282 109.35 12.7655 109.672 13.1724L109.689 13.1556V10.222H109.689ZM107.213 10.222V7.49261L106.857 7.74691V10.5953H108.23L108.502 10.2222H107.213V10.222ZM110.757 6.89883C110.401 7.15338 110.197 7.28893 109.604 7.28893C109.264 7.28893 108.857 7.13635 108.536 6.79711L108.501 6.81415V9.28949H109.146L110.773 6.91562L110.757 6.89883V6.89883ZM109.943 6.74626C109.638 6.74626 109.248 6.59393 108.994 6.2547L108.57 6.54282C108.892 6.93291 109.197 7.10227 109.672 7.10227C109.977 7.10227 110.418 7.01734 110.876 6.62725L110.892 6.57664C110.604 6.69565 110.248 6.74626 109.943 6.74626V6.74626ZM110.231 9.66279H109.129L108.875 10.0188H109.875V13.3079L110.231 13.0536V9.66279ZM114.334 14.2572L112.774 13.0366L112.452 13.3926L112.317 13.2568L112.689 12.8499V6.91587H111.706L111.672 6.88205L112.266 6.00015H112.689V4.86445L114.487 2.94857L114.521 2.98264V6.0004H115.877L115.911 6.03447L115.317 6.91612H114.521V12.0534L115.453 12.7657L115.809 12.3756L115.945 12.5112L114.334 14.2572V14.2572ZM113.232 4.57608L112.876 4.96617V6.0004H113.232V4.57608ZM113.232 12.6805V6.91587H112.876V12.884L114.317 14.0031L114.572 13.7318L113.232 12.6805Z" fill="#231F20"/>
</svg>
