<svg width="116" height="20" viewBox="0 0 116 20" fill="none" xmlns="http://www.w3.org/2000/svg">
<g clip-path="url(#clip0)">
<path d="M0.634674 4.63947C0.255479 4.83034 0.102783 5.137 0.102783 5.55564V14.0964C0.102783 14.5151 0.255479 14.7836 0.634674 15.0126L7.84192 19.1176C8.00716 19.1998 8.18923 19.2427 8.37381 19.2427C8.5584 19.2427 8.74046 19.1998 8.90571 19.1176L16.113 15.0126C16.4947 14.7836 16.6448 14.5151 16.6448 14.0964V5.55564C16.6448 5.06065 16.4145 4.79216 16.113 4.63947L8.90571 0.534489C8.74046 0.452234 8.5584 0.409424 8.37381 0.409424C8.18923 0.409424 8.00716 0.452234 7.84192 0.534489L0.634674 4.63947Z" fill="#14BF96"/>
<path d="M14.7019 8.03967C11.2815 8.05749 8.51262 10.9294 8.51262 14.472V14.6221H8.24668V14.472C8.24668 10.9294 5.4727 8.05749 2.04595 8.03967C2.02296 8.26459 2.01149 8.49054 2.0116 8.71663C2.0116 11.4868 3.70779 13.8485 6.08349 14.7545C6.81614 15.0277 7.59198 15.1669 8.37393 15.1655C9.15569 15.1649 9.93116 15.0257 10.6644 14.7545C13.0388 13.8485 14.7363 11.4868 14.7363 8.71663C14.7364 8.49054 14.7249 8.26459 14.7019 8.03967V8.03967Z" fill="white"/>
<path d="M9.81372 7.85528C10.6088 7.06019 10.6088 5.7711 9.81372 4.97602C9.01863 4.18093 7.72954 4.18093 6.93446 4.97602C6.13937 5.7711 6.13937 7.06019 6.93446 7.85528C7.72954 8.65037 9.01863 8.65037 9.81372 7.85528Z" fill="white"/>
<path d="M21.2346 4.76956C21.2339 4.72065 21.2431 4.67209 21.2617 4.62682C21.2802 4.58155 21.3078 4.5405 21.3426 4.50614C21.3774 4.47178 21.4189 4.44483 21.4644 4.4269C21.5099 4.40898 21.5586 4.40044 21.6075 4.40182H22.9537C23.051 4.40282 23.1439 4.44188 23.2127 4.51063C23.2814 4.57938 23.3205 4.67234 23.3215 4.76956V8.90126L27.1771 4.55452C27.2104 4.50819 27.2542 4.47027 27.3047 4.44377C27.3553 4.41727 27.4114 4.4029 27.4685 4.40182H28.9954C29.0602 4.39949 29.1242 4.41655 29.1793 4.45082C29.2343 4.48508 29.2779 4.535 29.3044 4.59417C29.3309 4.65335 29.3392 4.71908 29.3281 4.78297C29.317 4.84686 29.2871 4.906 29.2423 4.9528L25.2442 9.45224L29.5286 14.5777C29.5658 14.6281 29.5882 14.6878 29.5933 14.7502C29.5984 14.8126 29.586 14.8752 29.5574 14.9309C29.5288 14.9866 29.4853 15.0332 29.4316 15.0655C29.3779 15.0977 29.3163 15.1143 29.2537 15.1134H27.5881C27.5371 15.1181 27.4858 15.1109 27.4381 15.0923C27.3904 15.0738 27.3476 15.0444 27.3132 15.0066L23.3164 10.0796V14.7457C23.3154 14.8429 23.2763 14.9359 23.2076 15.0046C23.1388 15.0734 23.0459 15.1124 22.9487 15.1134H21.6075C21.559 15.1141 21.5109 15.1051 21.4659 15.0868C21.421 15.0686 21.3802 15.0415 21.3459 15.0073C21.3116 14.973 21.2846 14.9322 21.2663 14.8872C21.2481 14.8423 21.2391 14.7942 21.2397 14.7457L21.2346 4.76956Z" fill="#0A2A66"/>
<path d="M30.642 4.73894C30.6477 4.65137 30.6851 4.56887 30.7471 4.50682C30.8092 4.44477 30.8917 4.40742 30.9792 4.40173H32.2186C32.3068 4.40521 32.3905 4.44189 32.4528 4.50442C32.5151 4.56696 32.5514 4.65072 32.5546 4.73894V8.48762C32.907 8.18096 33.5191 7.89084 34.3602 7.89084C36.6099 7.89084 37.222 9.45215 37.222 11.2272V14.7774C37.2188 14.8658 37.1823 14.9498 37.1197 15.0124C37.0571 15.0749 36.9732 15.1115 36.8848 15.1146H35.6454C35.5564 15.1136 35.4713 15.0777 35.4085 15.0147C35.3457 14.9516 35.3101 14.8664 35.3095 14.7774V11.2145C35.3095 10.236 34.8654 9.63921 34.0243 9.63921C33.1832 9.63921 32.7378 10.1596 32.5546 10.8786V14.7774C32.5546 14.9772 32.4629 15.1146 32.1881 15.1146H30.9792C30.8908 15.1115 30.8069 15.0749 30.7443 15.0124C30.6817 14.9498 30.6452 14.8658 30.642 14.7774V4.73894Z" fill="#0A2A66"/>
<path d="M41.1119 10.6457C41.5734 10.651 42.0322 10.7177 42.476 10.8442C42.5066 9.94074 42.247 9.51319 41.4975 9.51319C40.8266 9.52256 40.159 9.60794 39.5074 9.76769C39.2783 9.84403 39.1409 9.67607 39.1104 9.4623L38.9551 8.66955C38.9387 8.62658 38.9316 8.58057 38.9345 8.53465C38.9374 8.48873 38.9502 8.44397 38.9719 8.40341C38.9936 8.36286 39.0238 8.32745 39.0605 8.2996C39.0971 8.27174 39.1393 8.2521 39.1842 8.242C39.9699 8.01355 40.7835 7.89494 41.6018 7.88953C43.8058 7.88953 44.2638 9.03475 44.2638 10.9651V14.7774C44.2632 14.8664 44.2276 14.9516 44.1648 15.0146C44.102 15.0777 44.0169 15.1136 43.9279 15.1146H43.4075C43.2802 15.1146 43.1937 15.0688 43.1008 14.8703L42.9023 14.3956C42.6098 14.6837 42.263 14.9107 41.8821 15.0636C41.5011 15.2165 41.0936 15.2922 40.6831 15.2864C39.2758 15.2864 38.296 14.3842 38.296 12.8687C38.296 11.6089 39.3216 10.6457 41.1119 10.6457ZM41.1578 13.8587C41.7851 13.8587 42.3361 13.3688 42.4302 13.1092V12.0683C42.0998 11.9303 41.7461 11.8565 41.3881 11.8507C40.5762 11.8507 40.1321 12.2325 40.1321 12.8598C40.1321 13.4604 40.4999 13.8587 41.1578 13.8587Z" fill="#0A2A66"/>
<path d="M45.8556 8.38073C45.856 8.29162 45.8914 8.20623 45.9543 8.1431C46.0172 8.07998 46.1025 8.04419 46.1916 8.04352H46.7731C46.8396 8.03712 46.9062 8.05554 46.96 8.09524C47.0137 8.13493 47.051 8.1931 47.0645 8.25857L47.319 8.91644C47.5966 8.5833 47.9464 8.3178 48.342 8.14009C48.7375 7.96238 49.1684 7.87713 49.6018 7.89083C51.8515 7.89083 52.433 9.40506 52.433 11.1191V14.7774C52.4296 14.8657 52.3929 14.9495 52.3304 15.012C52.2679 15.0745 52.1841 15.1112 52.0958 15.1146H50.8564C50.7674 15.1136 50.6824 15.0777 50.6195 15.0147C50.5567 14.9516 50.5212 14.8664 50.5205 14.7774V11.1191C50.5205 10.2016 50.1528 9.63538 49.2964 9.63538C48.9564 9.627 48.6231 9.7302 48.3473 9.9292C48.0716 10.1282 47.8686 10.4121 47.7694 10.7373V14.7774C47.7694 15.0383 47.6625 15.1146 47.3253 15.1146H46.1928C46.1046 15.1111 46.021 15.0745 45.9587 15.0119C45.8964 14.9494 45.86 14.8656 45.8569 14.7774L45.8556 8.38073Z" fill="#0A2A66"/>
<path d="M56.0519 14.715L60.8109 4.41694C60.832 4.36695 60.8675 4.32432 60.9127 4.29443C60.958 4.26454 61.0112 4.24873 61.0654 4.24898H61.2194C61.2743 4.24574 61.3287 4.26035 61.3746 4.29063C61.4204 4.3209 61.4553 4.36522 61.4739 4.41694L66.182 14.715C66.2051 14.7574 66.2164 14.8052 66.2147 14.8535C66.213 14.9017 66.1984 14.9487 66.1724 14.9894C66.1464 15.03 66.11 15.063 66.0669 15.0848C66.0238 15.1066 65.9757 15.1164 65.9275 15.1133H64.6054C64.3764 15.1133 64.2695 15.0217 64.1626 14.8066L63.4118 13.1524H58.8373L58.0878 14.8066C58.0553 14.8978 57.9949 14.9765 57.9152 15.0316C57.8356 15.0866 57.7406 15.1152 57.6438 15.1133H56.3128C56.2642 15.1173 56.2155 15.108 56.1717 15.0866C56.1279 15.0652 56.0907 15.0324 56.064 14.9917C56.0373 14.9509 56.0221 14.9037 56.02 14.855C56.0178 14.8063 56.0289 14.758 56.0519 14.715V14.715ZM62.6624 11.4562L61.1354 8.08928H61.0896L59.5868 11.4562H62.6624Z" fill="#0A2A66"/>
<path d="M70.1354 7.89062C71.2373 7.89062 72.0937 8.36525 72.7668 9.0842C72.9195 9.23689 72.8432 9.43667 72.6905 9.59318L72.0479 10.2969C71.8952 10.4648 71.7272 10.3885 71.5885 10.251C71.2526 9.92912 70.839 9.63899 70.1812 9.63899C69.0792 9.63899 68.3145 10.4954 68.3145 11.582C68.3145 12.6687 69.0639 13.5404 70.1659 13.5404C70.9459 13.5404 71.3595 13.1128 71.6649 12.7604C71.72 12.6989 71.796 12.6602 71.8781 12.6517C71.9602 12.6432 72.0425 12.6656 72.109 12.7145L72.7974 13.2961C72.9666 13.4488 73.043 13.6167 72.9246 13.805C72.3278 14.7378 71.3798 15.2887 70.1252 15.2887C68.0587 15.2887 66.3918 13.7134 66.3918 11.5859C66.3867 9.49775 68.0383 7.89062 70.1354 7.89062Z" fill="#0A2A66"/>
<path d="M76.6825 10.6457C77.1432 10.6512 77.601 10.718 78.0441 10.8442C78.0746 9.94074 77.815 9.51319 77.0655 9.51319C76.3947 9.52256 75.727 9.60794 75.0754 9.76769C74.8463 9.84403 74.7089 9.67607 74.6784 9.4623L74.5244 8.66955C74.5082 8.62648 74.5014 8.58043 74.5044 8.53451C74.5075 8.48859 74.5204 8.44386 74.5422 8.40334C74.5641 8.36282 74.5943 8.32745 74.631 8.29962C74.6676 8.27179 74.7098 8.25214 74.7547 8.242C75.5405 8.01355 76.3541 7.89494 77.1724 7.88953C79.3763 7.88953 79.8344 9.03475 79.8344 10.9651V14.7774C79.8338 14.8664 79.7982 14.9516 79.7354 15.0146C79.6725 15.0777 79.5875 15.1136 79.4985 15.1146H78.978C78.8508 15.1146 78.763 15.0688 78.6714 14.8703L78.4729 14.3956C78.1804 14.6837 77.8336 14.9107 77.4526 15.0636C77.0717 15.2165 76.6641 15.2922 76.2537 15.2864C74.8463 15.2864 73.8665 14.3842 73.8665 12.8687C73.8665 11.6089 74.8922 10.6457 76.6825 10.6457ZM76.7283 13.8587C77.3556 13.8587 77.9066 13.3688 78.0008 13.1092V12.0683C77.6707 11.9306 77.3175 11.8567 76.9599 11.8507C76.1494 11.8507 75.7053 12.2325 75.7053 12.8598C75.7027 13.4604 76.0692 13.8587 76.7283 13.8587V13.8587Z" fill="#0A2A66"/>
<path d="M84.5386 7.89082C85.117 7.89363 85.6909 7.99165 86.2374 8.18094V4.74528C86.243 4.65772 86.2804 4.57522 86.3424 4.51317C86.4045 4.45112 86.487 4.41377 86.5746 4.40808H87.8139C87.9021 4.41156 87.9858 4.44824 88.0481 4.51077C88.1104 4.5733 88.1467 4.65707 88.1499 4.74528V14.7774C88.1492 14.8664 88.1137 14.9516 88.0508 15.0147C87.988 15.0777 87.903 15.1136 87.8139 15.1146H87.2477C87.0785 15.1146 86.9716 14.9772 86.9105 14.7774L86.7273 14.2264C86.4408 14.5587 86.0862 14.8254 85.6874 15.0083C85.2887 15.1912 84.8552 15.2861 84.4165 15.2864C82.4887 15.2864 81.0317 13.7213 81.0317 11.5784C81.0317 9.51322 82.4314 7.89082 84.5386 7.89082ZM86.2374 10.0337C85.794 9.76788 85.2858 9.63002 84.7689 9.63537C83.6059 9.63537 83.0091 10.5834 83.0091 11.5784C83.0091 12.5735 83.5754 13.5368 84.6761 13.5368C85.5948 13.5368 86.0847 12.9552 86.2374 12.5582V10.0337Z" fill="#0A2A66"/>
<path d="M92.9395 7.89062C94.7756 7.89062 96.183 9.25216 96.183 11.1647C96.183 11.2728 96.1677 11.5172 96.1524 11.624C96.1436 11.7088 96.1049 11.7876 96.0434 11.8465C95.9819 11.9055 95.9015 11.9407 95.8165 11.946H91.2865C91.3018 12.8176 92.0207 13.5824 93.0463 13.5824C93.5967 13.5922 94.1331 13.4085 94.5618 13.0632C94.7298 12.9245 94.913 12.9092 95.0199 13.0632L95.6167 13.8585C95.649 13.8885 95.6743 13.9253 95.6905 13.9663C95.7068 14.0073 95.7138 14.0514 95.7108 14.0954C95.7079 14.1395 95.6952 14.1823 95.6736 14.2207C95.6521 14.2592 95.6222 14.2924 95.5862 14.3179C94.8548 14.9479 93.9201 15.2919 92.9547 15.2862C90.8424 15.2862 89.374 13.6027 89.374 11.5833C89.374 9.58937 90.8424 7.89062 92.9395 7.89062ZM94.2552 10.6901C94.2246 10.0004 93.6737 9.46594 92.8936 9.46594C92.036 9.46594 91.4863 9.9851 91.3934 10.6901H94.2552Z" fill="#0A2A66"/>
<path d="M97.3192 8.38063C97.3196 8.29152 97.355 8.20613 97.4179 8.143C97.4808 8.07987 97.5661 8.04409 97.6552 8.04342H98.2061C98.2705 8.03691 98.3351 8.0534 98.3884 8.08997C98.4418 8.12654 98.4804 8.18083 98.4975 8.2432L98.752 8.91634C99.0089 8.58991 99.3379 8.32743 99.7132 8.14949C100.089 7.97155 100.5 7.88298 100.915 7.89073C101.941 7.89073 102.442 8.25847 103.026 8.96214C103.333 8.64021 104.037 7.89073 105.307 7.89073C107.572 7.89073 108.106 9.32861 108.106 11.1648V14.7773C108.105 14.8227 108.095 14.8674 108.077 14.9089C108.059 14.9505 108.033 14.988 108 15.0193C107.967 15.0507 107.929 15.0752 107.886 15.0916C107.844 15.1079 107.799 15.1157 107.753 15.1145H106.529C106.44 15.1135 106.355 15.0776 106.292 15.0146C106.23 14.9515 106.194 14.8663 106.193 14.7773V11.119C106.193 10.2015 105.856 9.63528 104.969 9.63528C103.944 9.63528 103.652 10.3695 103.652 10.3695C103.652 10.3695 103.683 10.722 103.683 11.0426V14.7773C103.68 14.8655 103.643 14.9493 103.581 15.0118C103.519 15.0744 103.435 15.111 103.347 15.1145H102.092C102.048 15.1156 102.003 15.1076 101.962 15.091C101.921 15.0744 101.883 15.0496 101.851 15.0181C101.82 14.9866 101.795 14.949 101.779 14.9076C101.762 14.8662 101.754 14.8219 101.755 14.7773V11.119C101.755 10.2015 101.501 9.63528 100.592 9.63528C99.7204 9.63528 99.3985 10.2473 99.2305 10.7372V14.7773C99.2273 14.8655 99.191 14.9493 99.1287 15.0118C99.0664 15.0744 98.9828 15.111 98.8946 15.1145H97.6539C97.5659 15.1107 97.4826 15.0739 97.4206 15.0114C97.3586 14.9489 97.3224 14.8653 97.3192 14.7773V8.38063Z" fill="#0A2A66"/>
<path d="M108.838 8.50285C108.746 8.25854 108.868 8.04349 109.143 8.04349H110.613C110.677 8.03729 110.741 8.05392 110.794 8.09047C110.847 8.12702 110.886 8.18113 110.903 8.24327L112.175 12.4666H112.207L113.81 8.24327C113.917 8.05876 114.04 8.04349 114.255 8.04349H115.555C115.612 8.03726 115.669 8.04672 115.72 8.07083C115.772 8.09495 115.816 8.13279 115.848 8.18021C115.879 8.22764 115.897 8.28282 115.899 8.33973C115.902 8.39663 115.888 8.45306 115.86 8.50285L111.698 18.5413C111.672 18.6016 111.629 18.6534 111.575 18.6911C111.521 18.7288 111.457 18.751 111.392 18.7551H109.924C109.866 18.7603 109.808 18.7495 109.756 18.724C109.704 18.6984 109.659 18.6591 109.628 18.6103C109.596 18.5615 109.579 18.5049 109.577 18.4468C109.575 18.3887 109.589 18.3312 109.618 18.2805L111.04 14.6998L108.838 8.50285Z" fill="#0A2A66"/>
</g>
<defs>
<clipPath id="clip0">
<rect width="115.794" height="18.8325" fill="white" transform="translate(0.102783 0.39856)"/>
</clipPath>
</defs>
</svg>
