<svg width="104" height="35" viewBox="0 0 104 35" fill="none" xmlns="http://www.w3.org/2000/svg">
<path fill-rule="evenodd" clip-rule="evenodd" d="M101.625 12.1724L97.4652 8.01332H89.7383V2.66393H83.1999V27.0303H89.7383V14.5493H95.0862V27.0303H101.625V12.1724ZM80.8242 8.01332H70.721L66.5607 12.1724V22.8694L70.721 27.0303H80.8242V20.4937H73.0973V14.5493H80.8242V8.01332ZM64.1835 8.01332H58.8356V2.66393H52.2972V22.8694L56.4575 27.0303H64.1835V20.4937H58.8356V14.5493H64.1835V8.01332ZM49.92 2.66393H43.3834V5.63642H49.92V2.66393ZM49.92 8.01332H43.3834V27.03H49.92V8.01332ZM41.0062 8.01332H34.4689V20.4937H32.0924V8.01332H25.5548V20.4937H23.1785V8.01332H16.6401V27.0303H36.8468L41.0062 22.8694V8.01332ZM14.2629 8.01332H8.91473V2.66393H2.3775V22.8694L6.53753 27.0303H14.2629V20.4937H8.91473V14.5493H14.2629V8.01332ZM104 10.9837V28.8122L95.0862 34.7557H89.1436V31.7832L84.9836 34.7557H79.6358V31.7832L76.6651 34.7557H67.156L64.1835 31.7832L63.5885 34.7557H55.2697L51.8677 31.7832L51.6772 34.7557H42.248L41.9145 31.7832L39.362 34.7557H24.9598L21.988 33.5669V34.7557H14.2629L5.34816 29.4057L0 24.0596V0.287338H11.2922L16.6401 5.63642H41.0062V0.287338H61.2119V5.63642H66.5607V8.60708L69.5332 5.63642H75.4748L80.8242 0.287338H92.1155V5.63642H98.6531L104 10.9837Z" fill="#6441A5"/>
</svg>
