<svg width="40" height="25" viewBox="0 0 40 25" fill="none" xmlns="http://www.w3.org/2000/svg">
<g clip-path="url(#clip0)">
<path d="M22.5506 1.93876L21.9079 4.49157C22.8184 2.68856 24.2644 1.33183 25.9248 0.13562C24.7108 1.54595 23.604 2.9564 22.9255 4.36673C24.0682 2.75993 25.6035 1.86739 27.3351 1.27824C25.0321 3.33131 23.2041 5.53435 21.8115 7.74807L20.7047 7.26611C20.9009 5.49866 21.5687 3.68843 22.5506 1.93876V1.93876Z" fill="#ABCD03"/>
<path d="M19.5948 6.79675L21.7015 7.67073C21.7015 8.20642 21.658 9.84028 21.9929 10.3222C25.4966 14.8345 24.9071 23.8795 21.2832 24.1116C15.7647 24.1116 13.66 20.3627 13.66 16.917C13.66 13.775 17.4268 11.6862 19.6764 9.8296C20.2476 9.32973 20.1484 8.22499 19.5948 6.79675V6.79675Z" fill="#FFFCDB"/>
<path d="M21.7021 7.63928L22.4613 8.02658C22.3899 8.52632 22.497 9.63338 22.9967 9.91887C25.2106 11.2935 27.2992 12.7931 28.1205 14.2927C31.0483 19.5772 26.0674 24.4687 21.7649 24.0045C24.1036 22.2727 24.7821 18.7202 23.9073 14.8461C23.5503 13.3285 22.9967 11.9539 22.0147 10.4007C21.5894 9.63828 21.7379 8.69275 21.7021 7.63928Z" fill="#7D4698"/>
<path d="M21.3368 7.50879L22.9078 7.72304C22.4436 9.25834 23.8184 10.3294 24.2646 10.5795C25.2644 11.133 26.2284 11.7042 26.9961 12.4004C28.4423 13.7215 29.2635 15.5782 29.2635 17.542C29.2635 19.4879 28.3708 21.3624 26.8712 22.6121C25.4608 23.7904 23.515 24.2902 21.6225 24.2902C20.4442 24.2902 19.3909 24.2368 18.2484 23.8617C15.642 22.987 13.696 20.7555 13.5354 18.0774C13.3925 15.9887 13.8567 14.3998 15.4814 12.7395C16.3203 11.8647 18.0164 10.865 19.1769 10.0616C19.7483 9.6688 20.3552 8.56187 19.1947 6.47324L19.4269 6.29468L21.1467 7.44658L19.6947 6.84814C19.8197 7.0267 20.1589 7.8301 20.2304 8.06213C20.391 8.72265 20.3197 9.36553 20.1768 9.65102C19.4449 10.9722 18.1952 11.3292 17.2848 12.079C15.678 13.4 13.9284 14.4534 14.1248 18.0774C14.214 19.8627 15.6066 22.0407 17.6952 23.0583C18.8735 23.6297 20.2304 23.8617 21.605 23.9331C22.8368 23.9867 25.1934 23.2547 26.4788 22.1836C27.8534 21.0411 28.6211 19.3093 28.6211 17.542C28.6211 15.7566 27.907 14.0607 26.568 12.8645C25.8003 12.1683 24.5329 11.3292 23.7474 10.8828C22.9619 10.4365 21.9799 9.18683 22.3012 7.99076L21.3368 7.50879Z" fill="black"/>
<path d="M20.8547 10.151C20.6941 10.9723 20.5155 12.454 19.8014 13.0075C19.4979 13.2216 19.1943 13.436 18.873 13.6501C17.5877 14.525 16.3022 15.346 15.7132 17.4527C15.5882 17.8991 15.6954 18.3811 15.8026 18.8273C16.1239 20.1127 17.0343 21.5052 17.7485 22.3266C17.7485 22.3622 17.8913 22.4515 17.8913 22.4872C18.4805 23.1835 18.659 23.3799 20.8905 23.8796L20.837 24.1297C19.498 23.7727 18.3912 23.4514 17.6949 22.6479C17.6949 22.6301 17.5699 22.505 17.5699 22.505C16.8201 21.648 15.9095 20.2199 15.5704 18.8809C15.4455 18.3452 15.3384 17.9348 15.4811 17.3812C16.0881 15.2033 17.4092 14.3463 18.7482 13.4358C19.0517 13.2395 19.4087 13.0608 19.6943 12.8288C20.2477 12.4183 20.5511 11.1685 20.8547 10.151V10.151Z" fill="black"/>
<path d="M21.4257 13.5428C21.4436 14.4712 21.353 14.9369 21.585 15.5976C21.7278 15.9903 22.2101 16.5259 22.353 17.0437C22.5493 17.74 22.7632 18.5076 22.7451 18.9718C22.7451 19.5075 22.7117 20.5067 22.4796 21.578C22.3027 22.4631 21.8949 23.2226 21.2092 23.6531C20.5068 23.5085 19.6821 23.2616 19.1953 22.8443C18.2492 22.0231 17.4112 20.65 17.304 19.4538C17.2148 18.472 18.1239 17.0239 19.3914 16.292C20.4625 15.6672 20.7117 14.9551 20.9437 13.8125C20.6224 14.8122 20.3206 15.6503 19.2852 16.1858C17.7856 16.9713 17.0161 18.2899 17.0875 19.5396C17.1945 21.1462 17.838 22.2349 19.1054 23.1098C19.641 23.4847 20.6416 23.8809 21.2664 23.9881V23.9064C21.7402 23.8177 22.3537 23.0394 22.6594 21.9865C22.9272 21.0403 23.0328 19.8294 23.0148 19.0616C22.9968 18.6154 22.8 17.6488 22.4429 16.7741C22.2465 16.2921 21.9449 15.8102 21.7484 15.471C21.5344 15.1315 21.5329 14.3997 21.4257 13.5428Z" fill="black"/>
<path d="M21.3196 17.0437C21.3374 17.6685 21.5884 18.4691 21.6955 19.2904C21.7849 19.8975 21.746 20.5072 21.7281 21.0429C21.7105 21.6629 21.5039 22.7739 21.2216 23.3141C20.9554 23.192 20.8513 23.0528 20.6783 22.828C20.4642 22.5245 20.3187 22.221 20.1758 21.864C20.0688 21.5961 19.9436 21.2896 19.8899 20.9326C19.8185 20.397 19.8385 19.5592 20.4455 18.7022C20.9096 18.0238 21.016 17.9722 21.1767 17.1867C20.9623 17.8829 20.8025 17.9539 20.3025 18.5429C19.7492 19.1856 19.6571 20.1323 19.6571 20.8999C19.6571 21.2214 19.7852 21.578 19.9103 21.9171C20.0531 22.2742 20.1756 22.6298 20.3719 22.8975C20.6671 23.3316 21.0449 23.5784 21.2298 23.6246C21.2309 23.6249 21.2326 23.6243 21.2338 23.6246C21.2378 23.6255 21.2423 23.6279 21.2461 23.6287V23.6082C21.5925 23.2221 21.8009 22.8384 21.8711 22.4522C21.9604 21.988 21.9809 21.5228 22.0345 20.9694C22.088 20.5052 22.0492 19.8799 21.9242 19.2373C21.7458 18.4339 21.4446 17.6148 21.3196 17.0437L21.3196 17.0437Z" fill="black"/>
<path d="M21.3726 9.40125C21.3905 10.3295 21.4619 12.0614 21.7119 12.7397C21.7832 12.9717 22.4438 13.9894 22.9078 15.2211C23.2292 16.0781 23.3006 16.8636 23.3542 17.0956C23.5685 18.1133 23.3006 19.8271 22.9435 21.4517C22.7651 22.3265 22.158 23.4155 21.4618 23.844L21.319 24.0939C21.7119 24.076 22.6758 23.1299 23.015 21.9516C23.5864 19.9521 23.8184 19.0237 23.5507 16.81C23.515 16.5956 23.4257 15.8639 23.0865 15.0782C22.5866 13.882 21.8725 12.7395 21.7834 12.5074C21.6226 12.1326 21.4083 10.508 21.3726 9.40125V9.40125Z" fill="black"/>
<path d="M21.7074 8.13159C21.6545 9.08559 21.6403 9.43692 21.8187 10.1331C22.0151 10.9008 23.0149 12.0076 23.4255 13.2752C24.211 15.7032 24.0147 18.881 23.4433 21.3624C23.2292 22.2371 22.2114 23.5048 21.1939 23.9152L21.9437 24.0938C22.3543 24.0759 23.4075 23.094 23.8182 21.9693C24.4786 20.2019 24.6037 18.0954 24.3358 15.8816C24.3179 15.6674 23.9608 13.7572 23.6217 12.9538C23.1396 11.7577 22.2826 10.6865 22.1935 10.4546C22.033 10.0618 21.6802 9.24625 21.7074 8.13159Z" fill="black"/>
<path d="M21.2118 7.46021H21.1399V23.9333H21.2118V7.46021Z" fill="black"/>
<path d="M1.03818 2.47437H15.3739C15.9093 2.47437 16.3735 2.92064 16.3735 3.4741V7.70508C16.3735 8.25855 15.9093 8.70495 15.3739 8.70495H12.4282C11.7676 8.70495 11.482 9.07972 11.482 9.50822V23.3618C11.482 23.826 11.1071 24.183 10.6608 24.183H5.78706C5.34066 24.183 4.98367 23.826 4.98367 23.3618V9.38338C4.98367 8.95489 4.59086 8.70508 4.28746 8.70508H1.03818C0.484711 8.70508 0.0384369 8.25868 0.0384369 7.70521V3.4741C0.0383062 2.92064 0.484581 2.47437 1.03818 2.47437V2.47437Z" fill="#7D4698"/>
<path d="M37.8178 8.08008H39.0852C39.5494 8.08008 39.9243 8.45498 39.9243 8.90126V13.4359C39.9243 14.025 39.96 14.2571 39.2459 14.2571C37.8356 14.2571 37.1929 15.0069 37.1929 15.8281V23.4868C37.1929 23.8439 36.8537 24.1473 36.4431 24.1473H31.8906C31.48 24.1473 31.1408 23.8439 31.1408 23.4868V14.7568C31.1359 14.6033 31.1389 14.3767 31.1587 14.2571C31.4086 11.0257 33.944 8.44036 37.1571 8.11576C37.2648 8.10489 37.6459 8.08008 37.8178 8.08008V8.08008Z" fill="#7D4698"/>
</g>
<defs>
<clipPath id="clip0">
<rect width="40" height="24.183" fill="white" transform="translate(0 0.111572)"/>
</clipPath>
</defs>
</svg>
