<svg width="117" height="20" viewBox="0 0 117 20" fill="none" xmlns="http://www.w3.org/2000/svg">
<path d="M18.058 11.9267C17.7101 12.1393 17.3042 12.178 16.9949 12.004C16.6083 11.772 16.3763 11.2501 16.3763 10.5349V8.35061C16.3763 7.30678 15.9704 6.55291 15.2745 6.35961C14.0954 6.01166 13.2062 7.46142 12.8776 8.00267L10.7899 11.3468V7.22946C10.7706 6.28229 10.4613 5.72172 9.8814 5.54774C9.49479 5.43176 8.91489 5.48976 8.35432 6.34028L3.69576 13.8017C3.0772 12.6226 2.74858 11.3081 2.74858 9.97434C2.74858 5.47042 6.36332 1.81703 10.7899 1.81703C15.2165 1.81703 18.8312 5.47042 18.8312 9.97434V9.99367V10.013C18.8699 10.8829 18.5993 11.5787 18.058 11.9267ZM20.6096 9.97434V9.95501V9.93568C20.5903 4.46525 16.183 0 10.7899 0C5.37748 0 0.970215 4.46526 0.970215 9.97434C0.970215 15.4641 5.37748 19.9487 10.7899 19.9487C13.2835 19.9487 15.6418 19.0015 17.4588 17.2811C17.8261 16.9332 17.8454 16.3726 17.4975 16.0053C17.1688 15.6381 16.6083 15.6187 16.241 15.9473C16.241 15.9473 16.241 15.9473 16.2217 15.9667C14.7526 17.3584 12.7809 18.151 10.7513 18.151C8.37365 18.151 6.24734 17.1071 4.77825 15.4448L8.97288 8.71788V11.83C8.97288 13.3184 9.55278 13.8017 10.036 13.937C10.5193 14.0723 11.2538 13.9757 12.0464 12.7192L14.3467 8.9885C14.424 8.87252 14.482 8.75654 14.5593 8.67922V10.5736C14.5593 11.9653 15.1199 13.0865 16.0864 13.6277C16.9562 14.1303 18.058 14.0723 18.9666 13.5117C20.0877 12.7772 20.6869 11.5014 20.6096 9.97434ZM34.2953 6.57224C34.5273 6.70755 34.7399 7.03616 34.7399 7.32611C34.7399 7.79003 34.3533 8.17664 33.9087 8.17664C33.7927 8.17664 33.6961 8.13798 33.5994 8.11865C33.0775 7.73205 32.4203 7.48076 31.7244 7.48076C30.0814 7.48076 28.9602 8.81453 28.9602 10.4769C28.9602 12.1393 30.1007 13.4538 31.7244 13.4538C32.5363 13.4538 33.2708 13.1251 33.8121 12.6032C33.9474 12.5066 34.1214 12.4486 34.2953 12.4486C34.7399 12.4486 35.0879 12.7965 35.0879 13.2411C35.0879 13.5311 34.9139 13.7824 34.7013 13.9177C33.9087 14.5942 32.8456 15.0388 31.7438 15.0388C29.2308 15.0388 27.1818 12.9705 27.1818 10.4189C27.1818 7.86735 29.2308 5.79903 31.7438 5.79903C32.6716 5.7797 33.5608 6.06966 34.2953 6.57224ZM38.8959 8.50525C40.6163 8.50525 42.0467 9.95501 42.0467 11.7527C42.0467 13.5311 40.5969 15.0582 38.8959 15.0582C37.0982 15.0582 35.6098 13.5504 35.6098 11.7527C35.6098 9.95501 37.0982 8.50525 38.8959 8.50525ZM38.8766 13.4538C39.6304 13.4538 40.2683 12.7385 40.2683 11.772C40.2683 10.8055 39.6304 10.187 38.8766 10.187C38.0647 10.187 37.3881 10.7862 37.3881 11.772C37.3881 12.7192 38.0647 13.4538 38.8766 13.4538ZM43.1292 14.053V9.49109C43.1292 8.9885 43.5158 8.58257 44.0184 8.58257C44.5016 8.58257 44.9076 8.9885 44.9076 9.49109V14.053C44.9076 14.5556 44.5016 14.9615 44.0184 14.9615C43.5351 14.9615 43.1292 14.5362 43.1292 14.053ZM42.9939 6.86219C42.9939 6.26296 43.4578 5.79903 44.0184 5.79903C44.5983 5.79903 45.0622 6.28229 45.0622 6.86219C45.0622 7.44209 44.5983 7.90601 44.0184 7.90601C43.4385 7.88668 42.9939 7.42276 42.9939 6.86219ZM48.3097 11.5787V14.053C48.3097 14.5556 47.9037 14.9615 47.4205 14.9615C46.9372 14.9615 46.5313 14.5556 46.5313 14.053V9.27845C46.5313 8.89185 46.8406 8.58257 47.2272 8.58257C47.6138 8.58257 47.9037 8.91118 47.9037 9.27845C48.6189 8.6019 49.2568 8.50525 49.8561 8.50525C51.6344 8.50525 52.427 9.83903 52.427 11.3661V14.053C52.427 14.5556 52.021 14.9615 51.5378 14.9615C51.0545 14.9615 50.6486 14.5556 50.6486 14.053V11.5787C50.6486 10.8055 50.552 10.1483 49.4308 10.1483C48.6383 10.1483 48.3097 10.8055 48.3097 11.5787ZM58.1873 12.5259C57.9747 12.5259 57.8394 12.4293 57.7234 12.294L55.6551 10.0517V14.053C55.6551 14.5556 55.2492 14.9615 54.7659 14.9615C54.2827 14.9615 53.8767 14.5556 53.8767 14.053V6.12765C53.9347 5.99234 54.07 5.89568 54.2053 5.89568C54.36 5.89568 54.4953 6.031 54.5919 6.12765L57.8974 9.83903C57.994 9.95501 58.11 10.013 58.1873 10.013C58.2453 10.013 58.3806 9.95501 58.4773 9.83903L61.7827 6.12765C61.8794 6.031 61.9954 5.89568 62.1693 5.89568C62.324 5.89568 62.4593 5.99234 62.498 6.12765V14.053C62.498 14.5556 62.1114 14.9615 61.6088 14.9615C61.1255 14.9615 60.7196 14.5556 60.7196 14.053V10.0517L58.6513 12.294C58.4966 12.4293 58.3613 12.5259 58.1873 12.5259ZM66.7313 13.4538C67.5238 13.4538 68.2003 12.7385 68.2003 11.772C68.2003 10.8055 67.5045 10.1676 66.7313 10.1676C65.958 10.1676 65.3202 10.8249 65.3202 11.772C65.3202 12.6999 65.9387 13.4538 66.7313 13.4538ZM68.6256 14.2656L68.5869 14.053C68.239 14.7295 67.1372 15.0388 66.4413 15.0388C64.7789 15.0388 63.5418 13.5311 63.5418 11.7334C63.5418 9.95501 64.7982 8.48592 66.538 8.48592C66.8279 8.48592 67.8331 8.56324 68.6063 9.47176L68.6449 9.25912C68.6449 8.87252 68.9349 8.56324 69.3215 8.56324C69.7081 8.56324 70.0174 8.89185 70.0174 9.25912V14.2463C70.0174 14.6329 69.7081 14.9422 69.3215 14.9422C68.9156 14.9615 68.6256 14.6329 68.6256 14.2656ZM74.9079 10.1483H74.7146C73.5934 10.2063 73.3808 10.8442 73.3808 11.5787V14.053C73.3808 14.5556 72.9749 14.9615 72.4916 14.9615C72.0084 14.9615 71.6024 14.5556 71.6024 14.053V9.27845C71.6024 8.89185 71.9117 8.58257 72.2983 8.58257C72.6849 8.58257 72.9749 8.91118 72.9749 9.27845C73.6321 8.65989 74.1734 8.52458 74.7146 8.50525H74.8886C75.3138 8.50525 75.7004 8.87253 75.7004 9.33645C75.7198 9.76171 75.3332 10.1483 74.9079 10.1483ZM81.7701 13.6277C81.8474 13.763 81.9054 13.8984 81.9054 14.053C81.9054 14.5169 81.4801 14.9422 81.0162 14.9422C80.7069 14.9422 80.4363 14.7102 80.2237 14.4396L78.1747 12.062V14.0337C78.1747 14.5362 77.7687 14.9422 77.2855 14.9422C76.8022 14.9422 76.3963 14.5362 76.3963 14.0337V6.78487C76.3963 6.28229 76.7829 5.87635 77.2855 5.87635C77.7881 5.87635 78.1747 6.28229 78.1747 6.78487V11.3081L80.2237 9.0465C80.4363 8.81453 80.6876 8.56324 80.9969 8.56324C81.4415 8.56324 81.8474 8.96918 81.8474 9.4331C81.8474 9.56841 81.8087 9.72305 81.7314 9.83903L80.1077 11.6174L81.7701 13.6277ZM85.2495 10.1676C84.7663 10.1676 83.9737 10.4189 83.9737 11.1728H86.5446C86.5253 10.4189 85.7134 10.1676 85.2495 10.1676ZM87.5691 12.3133H83.9737C83.9737 13.3764 84.9982 13.5504 85.4428 13.5504C85.7714 13.5504 86.2353 13.4924 86.6026 13.3184C86.7186 13.2411 86.8926 13.1831 87.0665 13.1831C87.4531 13.1831 87.7817 13.5117 87.7817 13.9177C87.7817 14.1883 87.6078 14.4203 87.3951 14.5556C86.8539 14.9615 86.1387 15.0582 85.4621 15.0582C83.6644 15.0582 82.176 14.0917 82.176 11.83C82.176 10.0517 83.0845 8.50525 85.2108 8.50525C86.9312 8.50525 88.2263 9.6264 88.265 11.6174C88.265 11.9847 87.9557 12.3133 87.5691 12.3133ZM92.5176 15.0388H92.0344C90.6813 15.0388 89.8887 14.4396 89.8887 12.3326V10.1483H89.4248C88.9995 10.1483 88.6323 9.76171 88.6323 9.33645C88.6323 8.87253 89.0189 8.50525 89.4248 8.50525H89.8887V6.82353C89.8887 6.32095 90.2753 5.91502 90.7779 5.91502C91.2612 5.91502 91.6671 6.32095 91.6671 6.82353V8.50525H92.4016C92.8269 8.50525 93.1942 8.87253 93.1942 9.33645C93.1942 9.76171 92.8076 10.1483 92.4016 10.1483H91.6671V11.9847C91.6671 13.2025 91.7251 13.4538 92.2663 13.4538H92.5176C92.9429 13.4538 93.3102 13.8017 93.3102 14.2463C93.3102 14.6716 92.9429 15.0388 92.5176 15.0388ZM101.12 6.57224C101.351 6.70755 101.564 7.03616 101.564 7.32611C101.564 7.79003 101.178 8.17664 100.733 8.17664C100.617 8.17664 100.52 8.13798 100.424 8.11865C99.9017 7.73205 99.2445 7.48076 98.5486 7.48076C96.9056 7.48076 95.7844 8.81453 95.7844 10.4769C95.7844 12.1393 96.9249 13.4538 98.5486 13.4538C99.3605 13.4538 100.095 13.1251 100.636 12.6032C100.772 12.5066 100.946 12.4486 101.12 12.4486C101.564 12.4486 101.912 12.7965 101.912 13.2411C101.912 13.5311 101.738 13.7824 101.525 13.9177C100.733 14.5942 99.6698 15.0388 98.5679 15.0388C96.055 15.0388 94.006 12.9705 94.006 10.4189C94.006 7.86735 96.055 5.79903 98.5679 5.79903C99.4958 5.7797 100.404 6.06966 101.12 6.57224ZM105.623 13.4538C106.416 13.4538 107.093 12.7385 107.093 11.772C107.093 10.8055 106.397 10.1676 105.623 10.1676C104.831 10.1676 104.212 10.8249 104.212 11.772C104.212 12.6999 104.85 13.4538 105.623 13.4538ZM107.518 14.2656L107.479 14.053C107.131 14.7295 106.029 15.0388 105.333 15.0388C103.671 15.0388 102.434 13.5311 102.434 11.7334C102.434 9.95501 103.69 8.48592 105.43 8.48592C105.72 8.48592 106.725 8.56324 107.498 9.47176L107.537 9.25912C107.537 8.87252 107.827 8.56324 108.214 8.56324C108.6 8.56324 108.91 8.89185 108.91 9.25912V14.2463C108.91 14.6329 108.6 14.9422 108.214 14.9422C107.808 14.9615 107.518 14.6329 107.518 14.2656ZM113.761 13.4538C114.554 13.4538 115.173 12.6999 115.173 11.772C115.173 10.8055 114.535 10.1676 113.761 10.1676C112.969 10.1676 112.292 10.8055 112.292 11.772C112.292 12.7385 112.969 13.4538 113.761 13.4538ZM112.292 14.5169V16.7785C112.292 17.2811 111.886 17.6871 111.403 17.6871C110.92 17.6871 110.514 17.2811 110.514 16.7785V9.27845C110.514 8.89185 110.823 8.58257 111.21 8.58257C111.596 8.58257 111.886 8.91118 111.886 9.35577C112.544 8.67922 113.355 8.50525 113.974 8.50525C115.694 8.50525 116.97 9.95501 116.97 11.7527C116.97 13.5311 115.752 15.0582 114.071 15.0582C113.549 15.0388 112.776 14.8842 112.292 14.5169Z" fill="#17181B"/>
</svg>
