<svg width="95" height="34" viewBox="0 0 95 34" fill="none" xmlns="http://www.w3.org/2000/svg">
<path d="M94.4645 7.94912H89.5746L86.7446 19.8882L86.3478 21.5267C86.0748 21.6011 85.8018 21.6754 85.5286 21.7254C85.0321 21.8245 84.511 21.8741 83.9652 21.8741C83.3445 21.8741 82.8483 21.775 82.4759 21.6011C82.1281 21.4274 81.8551 21.1794 81.7062 20.8316C81.5572 20.5088 81.5075 20.1118 81.5323 19.6651C81.5571 19.2184 81.6564 18.7217 81.7805 18.2258L83.2698 12.0199L84.2376 7.89968H79.2485L76.9899 17.4309C76.7167 18.5724 76.5678 19.6649 76.5182 20.7076C76.4684 21.7498 76.6423 22.6436 76.9899 23.4627C77.3375 24.257 77.9577 24.8774 78.8018 25.3489C79.6457 25.8206 80.8621 26.0436 82.4013 26.0436C83.4687 26.0436 84.4117 25.9449 85.2062 25.7708C85.231 25.7708 85.2807 25.7461 85.3055 25.7461C85.0821 26.7388 84.6353 27.5329 83.94 28.1539C83.2202 28.7744 82.1775 29.0971 80.7875 29.0971C80.1917 29.0971 79.6458 29.0722 79.1492 28.9982L78.1812 33.0441C78.8268 33.1186 79.5467 33.1682 80.3408 33.1682C81.8301 33.1682 83.1207 32.9945 84.2376 32.6715C85.3547 32.3239 86.2983 31.8278 87.1171 31.1325C87.9114 30.4375 88.5816 29.5687 89.1275 28.5513C89.6735 27.5088 90.0954 26.2921 90.4181 24.8526L93.7939 10.6546L94.4645 7.94912ZM73.9866 18.1506C73.6886 19.3917 73.5893 20.6575 73.7134 21.8987C73.8375 23.1645 74.334 25.0757 74.8057 26.0437H70.0895C69.5188 25.0761 69.5438 24.6044 69.4197 24.3066C68.7989 24.8031 68.1291 25.225 67.3844 25.5478C66.6397 25.8706 65.8204 26.0443 64.8772 26.0443C63.7849 26.0443 62.8419 25.8456 62.0725 25.4734C61.303 25.1013 60.6576 24.58 60.1611 23.9344C59.6644 23.2888 59.3173 22.5441 59.0934 21.6754C58.8701 20.8066 58.7708 19.8883 58.7708 18.8956C58.7708 17.3811 59.044 15.9666 59.5655 14.6263C60.1112 13.2859 60.8559 12.119 61.7995 11.1263C62.7427 10.1335 65.0511 7.92449 68.8239 7.92449H76.3947L73.9866 18.1506V18.1506ZM70.5364 12.0693C68.253 12.0693 67.8307 12.0693 66.8879 12.5412C66.2177 12.8886 65.6713 13.41 65.1998 14.0055C64.7283 14.6011 64.3311 15.2962 64.0581 16.0907C63.7851 16.885 63.636 17.7039 63.636 18.548C63.636 19.5905 63.8101 20.4342 64.1574 21.0548C64.5046 21.6754 65.1502 21.9732 66.0934 21.9732C66.5901 21.9732 67.0612 21.8741 67.4588 21.6754C67.8557 21.4767 68.3024 21.1544 68.7495 20.6827C68.7993 20.1368 68.8735 19.5656 68.9728 18.9704C69.0719 18.3743 69.1961 17.8035 69.2956 17.307L70.5364 12.0693V12.0693ZM57.4305 15.1224C57.4305 16.7359 57.1574 18.2002 56.6361 19.5406C56.1149 20.8809 55.3703 22.0228 54.4269 22.991C53.4835 23.9592 52.3668 24.7037 51.0511 25.25C49.7357 25.7956 48.3208 26.0687 46.7818 26.0687C46.0372 26.0687 45.2925 25.9943 44.5228 25.8702L43.0339 31.8522H38.1436L43.8278 7.97356H50.3559C51.5975 7.97356 52.6644 8.17228 53.5331 8.54414C54.4267 8.91638 55.1465 9.43789 55.7423 10.0835C56.3133 10.7289 56.7349 11.4982 57.0079 12.3669C57.3065 13.2111 57.4305 14.1296 57.4305 15.1224V15.1224ZM45.4414 21.8987C45.8135 21.9978 46.2853 22.0228 46.8315 22.0228C47.7002 22.0228 48.4699 21.8737 49.1894 21.5509C49.8842 21.2283 50.505 20.7814 51.0013 20.2109C51.498 19.6399 51.8701 18.9449 52.1681 18.1506C52.441 17.3559 52.5901 16.4625 52.5901 15.4947C52.5901 14.5511 52.3914 13.7322 51.9695 13.0866C51.5475 12.4168 50.828 12.0691 49.7855 12.0691H47.8491L45.4414 21.8987V21.8987ZM35.1653 21.8987C34.5446 21.8987 34.0486 21.7995 33.676 21.6257C33.3284 21.452 33.0552 21.2039 32.9065 20.8561C32.7574 20.5335 32.7078 20.1364 32.7328 19.6895C32.7574 19.2427 32.8567 18.7462 32.9808 18.2498L34.4699 12.0445H40.03L41.0478 7.92412H35.4627L36.7534 2.71144L31.5407 3.53018L28.2394 17.4802C27.9662 18.6217 27.8174 19.7143 27.7677 20.7564C27.7179 21.7989 27.8918 22.693 28.2394 23.5118C28.5868 24.3061 29.2074 24.9265 30.0514 25.3982C30.8953 25.8698 32.1116 26.093 33.6506 26.093C34.7181 26.093 35.6611 25.9939 36.4556 25.82C36.53 25.7948 36.6541 25.7702 36.7284 25.7456L37.7462 21.5009C37.3986 21.625 37.0512 21.6998 36.7284 21.7489C36.2326 21.8489 35.7111 21.8987 35.1653 21.8987V21.8987ZM22.7297 7.94912L18.4106 26.0686H23.3005L27.5946 7.94912H22.7297ZM28.1159 5.86382L28.8606 2.71144H23.9707L23.226 5.86382H28.1159ZM11.9073 7.97356C12.9497 7.97356 13.8681 8.17228 14.6376 8.54414C15.4071 8.91638 16.0277 9.41289 16.5488 10.0585C17.0453 10.7041 17.4176 11.4487 17.6657 12.2927C17.9139 13.1362 18.038 14.055 18.038 15.0478C18.038 16.562 17.765 17.9769 17.194 19.3419C16.6231 20.6824 15.8784 21.8737 14.9106 22.8664C13.9426 23.8592 12.8007 24.6539 11.4852 25.2246C10.1696 25.7954 8.75471 26.0932 7.21593 26.0932C7.01722 26.0932 6.66979 26.0932 6.17347 26.0686C5.67697 26.0686 5.1062 26.0187 4.48561 25.9195C3.84021 25.8204 3.16999 25.6961 2.47495 25.5226C1.78136 25.354 1.10749 25.1127 0.464478 24.8028L6.14847 0.924313L11.2371 0.129639L9.22641 8.59359C9.67309 8.39525 10.0703 8.24616 10.5172 8.14709C10.9391 8.02338 11.4108 7.97356 11.9073 7.97356V7.97356ZM7.63781 22.0228C8.40729 22.0228 9.12714 21.8489 9.79736 21.452C10.4765 21.0756 11.0752 20.5696 11.5597 19.9627C12.0562 19.3419 12.4532 18.6221 12.7264 17.8524C12.9994 17.0581 13.1483 16.2394 13.1483 15.3954C13.1483 14.3528 12.9746 13.534 12.6269 12.9381C12.2795 12.3423 11.5597 12.0693 10.6165 12.0693C10.3185 12.0693 9.99589 12.0943 9.49938 12.2184C9.00287 12.3175 8.581 12.566 8.18395 12.9133L6.0492 21.9235C6.69461 22.0228 6.89314 22.0474 7.06704 22.0474C7.19112 22.0228 7.38965 22.0228 7.63781 22.0228V22.0228Z" fill="#002855"/>
</svg>
