<svg width="73" height="24" viewBox="0 0 73 24" fill="none" xmlns="http://www.w3.org/2000/svg">
<path d="M72.7932 9.26895C72.3732 7.69693 69.1451 4.10888 66.7931 1.20484C66.7451 1.15684 66.6131 0.928833 66.3371 0.928833C66.1091 0.928833 65.9171 1.15684 66.0131 1.34884C66.1091 1.52884 68.3651 6.23291 67.9451 7.75693C67.5251 9.32895 65.4611 9.00495 65.1371 9.00495C64.9571 9.00495 65.0891 9.14895 65.2811 9.32895C66.4331 10.349 67.1771 11.777 67.1771 13.613V14.993C67.1771 15.041 67.1771 15.041 67.2251 15.041C69.8532 14.801 73.8612 13.193 72.7932 9.26895Z" fill="#6AAE22"/>
<path d="M62.6054 18.3531C62.6054 19.6852 60.8053 20.4292 59.6533 20.4292C58.4053 20.4292 56.6533 19.6972 56.6533 18.3531V13.6491C56.6533 12.3171 58.4053 11.7171 59.6533 11.7171C60.8053 11.7171 62.6054 12.3651 62.6054 13.6491V18.3531ZM59.6533 8.76501C56.8813 8.81302 53.6532 10.373 53.6532 13.6011V18.5332C53.6532 21.8092 56.8813 23.3692 59.6533 23.3692C62.3774 23.3212 65.6054 21.7972 65.6054 18.5332V13.6491C65.6054 10.421 62.3774 8.81302 59.6533 8.76501Z" fill="#6AAE22"/>
<path d="M41.7732 18.3531C41.7732 19.6852 39.9732 20.4292 38.8212 20.4292C37.5731 20.4292 35.8211 19.6972 35.8211 18.3531V13.6491C35.8211 12.3171 37.5731 11.7171 38.8212 11.7171C39.9732 11.7171 41.7732 12.3651 41.7732 13.6491V18.3531ZM38.7732 8.76501C36.0011 8.81302 32.7731 10.373 32.7731 13.6011V18.5332C32.7731 21.8092 36.0011 23.3692 38.7732 23.3692C41.4972 23.3212 44.7252 21.7972 44.7252 18.5332V13.6491C44.7132 10.421 41.4852 8.81302 38.7732 8.76501Z" fill="#6AAE22"/>
<path d="M8.70045 9.31699C8.88046 9.13698 9.02446 8.99298 8.84446 8.99298C8.52045 8.99298 6.44442 9.31699 6.03642 7.74497C5.62841 6.17294 7.88444 1.51688 7.96844 1.33688C8.01644 1.15687 7.87244 0.91687 7.59644 0.91687C7.36843 0.91687 7.17643 1.19287 7.14043 1.19287C4.8364 4.09692 1.56035 7.69696 1.14035 9.25699C0.0843323 13.181 4.18839 14.7891 6.76843 15.0651C6.81643 15.0651 6.81643 15.0171 6.81643 15.0171V13.637C6.86443 11.765 7.54844 10.325 8.70045 9.31699Z" fill="#6AAE22"/>
<path d="M32.5925 9.86903C30.3844 9.26902 28.7644 9.04102 26.3644 9.04102C24.0123 9.04102 22.3563 9.26902 20.1363 9.86903C20.0403 9.91703 19.9923 10.013 20.0403 10.049C20.7723 10.697 21.0963 11.525 21.2403 12.4491C22.4403 12.1731 23.5443 11.9931 24.8404 11.8971V23.2852C24.8404 23.3332 24.8884 23.3332 24.9364 23.3332H27.7924C27.8404 23.3332 27.8884 23.3332 27.8884 23.2852V11.8971C29.1364 11.9931 30.1444 12.1251 31.3444 12.4491C31.5244 11.525 31.8965 10.649 32.6765 10.049C32.6885 9.96503 32.6405 9.86903 32.5925 9.86903Z" fill="#6AAE22"/>
<path d="M53.7613 8.89692C53.5333 8.84892 52.9333 8.75292 52.3813 8.80092C49.6573 8.89693 46.5732 10.5049 46.5732 13.637V13.913V18.5691V23.3691C46.5732 23.4171 46.6212 23.4171 46.6692 23.4171H49.5253C49.5733 23.4171 49.6213 23.4171 49.6213 23.3691V23.0931V13.637C49.6213 12.581 50.9173 11.981 51.9733 11.741C52.2973 10.721 52.8973 9.94094 53.8213 9.20893C53.9413 9.08893 53.8933 8.89692 53.7613 8.89692Z" fill="#6AAE22"/>
<path d="M16.9565 14.477C16.9565 14.525 16.9565 14.525 16.9085 14.573C16.9085 14.621 16.8605 14.621 16.8125 14.621H11.3764V13.649C11.3764 12.317 12.9844 11.669 14.2324 11.669C15.4324 11.669 16.9565 12.317 16.9565 13.649V14.477ZM14.2444 8.66895C11.4364 8.71695 8.34033 10.325 8.34033 13.601V18.5811C8.34033 21.9051 11.4244 23.4652 14.2444 23.5132C16.2724 23.5132 18.5285 22.6851 19.6445 20.8851C19.6925 20.8371 19.6445 20.7411 19.5965 20.7051C18.6245 20.1531 18.0725 19.8291 17.1125 19.3251C17.0645 19.3251 17.0645 19.3251 17.0165 19.3731C16.5124 20.2491 15.1684 20.7051 14.2444 20.7051C12.9964 20.7051 11.3884 19.9251 11.3884 18.5811V17.1051H19.1765C19.5965 17.1051 19.9085 16.7811 19.9085 16.3731V13.649C19.9085 10.325 17.0045 8.71695 14.2444 8.66895Z" fill="#6AAE22"/>
</svg>
