<svg width="32" height="32" viewBox="0 0 32 32" fill="none" xmlns="http://www.w3.org/2000/svg">
<circle cx="15.9999" cy="15.9999" r="14.7692" fill="white"/>
<g filter="url(#filter0_d)">
<rect x="8" y="12.3077" width="16" height="8" fill="white"/>
<path d="M15.9999 6.8103C15.2746 6.8103 14.6871 7.39779 14.6871 8.12312V9.43594C14.6871 8.71061 14.0996 8.12312 13.3742 8.12312C12.6489 8.12312 12.0614 8.71061 12.0614 9.43594V9.61799C11.8677 9.5054 11.6453 9.43594 11.405 9.43594C10.6797 9.43594 10.0922 10.0234 10.0922 10.7488V11.4052H8.77937C8.69413 11.4055 8.60911 11.414 8.52553 11.4308C8.51857 11.4322 8.51193 11.4344 8.50501 11.4359C8.21142 11.4987 7.9482 11.6602 7.75923 11.8935C7.57026 12.1268 7.46696 12.4178 7.46655 12.718V19.9385C7.46655 20.656 8.06188 21.2513 8.77937 21.2513H10.0922C10.0922 23.4267 11.8553 25.1898 14.0307 25.1898H16.4499C17.8428 25.1898 19.1794 24.6359 20.164 23.6513L22.2358 21.5795L25.1883 20.2577C25.1831 19.004 24.2024 18.6257 23.2204 18.6257C22.3743 18.6257 21.6135 18.7576 19.9383 19.6103L19.2819 19.9385H11.405H8.77937V14.0308C9.12755 14.0308 9.46148 13.8925 9.70768 13.6463C9.95388 13.4001 10.0922 13.0662 10.0922 12.718H21.9076C21.9076 13.0662 22.0459 13.4001 22.2921 13.6463C22.5383 13.8925 22.8722 14.0308 23.2204 14.0308V17.3129H24.5332V12.718C24.5329 12.6327 24.5243 12.5477 24.5076 12.4641C24.5062 12.4572 24.504 12.4506 24.5024 12.4436C24.4397 12.15 24.2782 11.8868 24.0449 11.6978C23.8116 11.5089 23.5206 11.4056 23.2204 11.4052H19.9383V8.77953C19.9383 8.0542 19.3509 7.46671 18.6255 7.46671C17.9002 7.46671 17.3127 8.0542 17.3127 8.77953V8.12312C17.3127 7.39779 16.7252 6.8103 15.9999 6.8103ZM25.1883 20.2577C25.1883 20.261 25.1896 20.2641 25.1896 20.2667V20.2577H25.1883Z" fill="url(#paint0_linear)"/>
<path d="M13.3743 16.9846C13.3743 15.3534 14.55 14.0308 16 14.0308C17.45 14.0308 18.6256 15.3534 18.6256 16.9846C18.6256 17.599 18.4433 18.1556 18.1551 18.6256H13.8448C13.5567 18.1556 13.3743 17.599 13.3743 16.9846Z" fill="#B297FF"/>
<path d="M10.2845 16.1923C10.4076 16.0691 10.5746 16 10.7487 16C10.9228 16 11.0897 16.0691 11.2128 16.1923C11.3359 16.3154 11.4051 16.4823 11.4051 16.6564C11.4051 16.8305 11.3359 16.9975 11.2128 17.1206C11.0897 17.2437 10.9228 17.3128 10.7487 17.3128C10.5746 17.3128 10.4076 17.2437 10.2845 17.1206C10.1614 16.9975 10.0923 16.8305 10.0923 16.6564C10.0923 16.4823 10.1614 16.3154 10.2845 16.1923Z" fill="#B297FF"/>
<path d="M20.7871 16.1923C20.9102 16.0691 21.0772 16 21.2513 16C21.4253 16 21.5923 16.0691 21.7154 16.1923C21.8385 16.3154 21.9077 16.4823 21.9077 16.6564C21.9077 16.8305 21.8385 16.9975 21.7154 17.1206C21.5923 17.2437 21.4253 17.3128 21.2513 17.3128C21.0772 17.3128 20.9102 17.2437 20.7871 17.1206C20.664 16.9975 20.5948 16.8305 20.5948 16.6564C20.5948 16.4823 20.664 16.3154 20.7871 16.1923Z" fill="#B297FF"/>
</g>
<defs>
<filter id="filter0_d" x="3.46655" y="3.8103" width="25.7231" height="26.3795" filterUnits="userSpaceOnUse" color-interpolation-filters="sRGB">
<feFlood flood-opacity="0" result="BackgroundImageFix"/>
<feColorMatrix in="SourceAlpha" type="matrix" values="0 0 0 0 0 0 0 0 0 0 0 0 0 0 0 0 0 0 127 0"/>
<feOffset dy="1"/>
<feGaussianBlur stdDeviation="2"/>
<feColorMatrix type="matrix" values="0 0 0 0 0 0 0 0 0 0 0 0 0 0 0 0 0 0 0.15 0"/>
<feBlend mode="normal" in2="BackgroundImageFix" result="effect1_dropShadow"/>
<feBlend mode="normal" in="SourceGraphic" in2="effect1_dropShadow" result="shape"/>
</filter>
<linearGradient id="paint0_linear" x1="16.3281" y1="6.8103" x2="31.8381" y2="19.2289" gradientUnits="userSpaceOnUse">
<stop stop-color="#8044FF"/>
<stop offset="1" stop-color="#9757FF"/>
</linearGradient>
</defs>
</svg>
