<svg fill="none" xmlns="http://www.w3.org/2000/svg" viewBox="0 0 34 33"><circle opacity=".4" cx="17.059" cy="16.503" r="15.5" stroke="#737ADE"/><g clip-path="url(#clip0)"><path d="M24.977 11.553c-.6.25-1.2.45-1.9.5.7-.4 1.2-1.05 1.45-1.8-.65.4-1.35.65-2.1.8a3.22 3.22 0 00-2.35-1.05c-1.8 0-3.3 1.45-3.3 3.3 0 .25.05.5.1.75-2.75-.15-5.15-1.45-6.8-3.45-.3.5-.45 1.05-.45 1.65 0 1.15.6 2.15 1.45 2.75-.55 0-1.05-.15-1.5-.4v.05c0 1.6 1.15 2.9 2.65 3.2-.3.05-.55.1-.85.1-.2 0-.4 0-.6-.05.4 1.3 1.65 2.25 3.05 2.3-1.1.9-2.55 1.4-4.1 1.4-.25 0-.55 0-.8-.05 1.5.9 3.25 1.45 5.1 1.45 6.05 0 9.35-5 9.35-9.35v-.4c.6-.5 1.15-1.05 1.6-1.7z" fill="#4C54D2"/></g><defs><clipPath id="clip0"><path fill="#fff" transform="translate(8.977 8.503)" d="M0 0h16v16H0z"/></clipPath></defs></svg>