<svg width="32" height="32" viewBox="0 0 32 32" fill="none" xmlns="http://www.w3.org/2000/svg">
<circle cx="15.9999" cy="15.9999" r="14.7692" fill="white"/>
<g filter="url(#filter0_d)">
<path d="M8.71551 8.00009C8.523 8.0031 8.33955 8.08236 8.20542 8.22049C8.07128 8.35862 7.99743 8.54432 8.00007 8.73684V22.5463C8.00007 23.3408 8.65923 23.9999 9.45367 23.9999H23.2628C23.3592 24.0013 23.4548 23.9835 23.5442 23.9476C23.6335 23.9117 23.7149 23.8583 23.7835 23.7907C23.852 23.7231 23.9065 23.6425 23.9437 23.5537C23.9809 23.4648 24 23.3694 24 23.2731C24 23.1768 23.9809 23.0814 23.9437 22.9926C23.9065 22.9037 23.852 22.8231 23.7835 22.7555C23.7149 22.6879 23.6335 22.6346 23.5442 22.5986C23.4548 22.5627 23.3592 22.5449 23.2628 22.5463H9.45367V8.73684C9.455 8.6396 9.4368 8.54308 9.40016 8.453C9.36352 8.36292 9.30917 8.28111 9.24034 8.21241C9.17151 8.14371 9.0896 8.08952 8.99945 8.05305C8.9093 8.01658 8.81275 7.99857 8.71551 8.00009ZM23.2487 11.637C23.0598 11.6426 22.8806 11.7215 22.749 11.857L19.6289 14.9772L16.5087 11.857C16.3724 11.7208 16.1876 11.6442 15.9949 11.6442C15.8021 11.6442 15.6173 11.7208 15.481 11.857L10.3934 16.9447C10.3236 17.0117 10.268 17.0919 10.2296 17.1807C10.1912 17.2694 10.171 17.365 10.17 17.4617C10.169 17.5584 10.1873 17.6543 10.2239 17.7438C10.2604 17.8333 10.3145 17.9147 10.3828 17.983C10.4512 18.0514 10.5325 18.1055 10.6221 18.142C10.7116 18.1786 10.8075 18.1969 10.9042 18.1959C11.0009 18.1949 11.0964 18.1747 11.1852 18.1363C11.2739 18.0979 11.3542 18.0422 11.4211 17.9725L15.9949 13.3987L19.115 16.5189C19.2513 16.6551 19.4361 16.7317 19.6289 16.7317C19.8216 16.7317 20.0064 16.6551 20.1427 16.5189L23.7767 12.8848C23.8817 12.7827 23.9535 12.6513 23.9825 12.5077C24.0116 12.3641 23.9966 12.2152 23.9395 12.0803C23.8824 11.9454 23.7859 11.8309 23.6626 11.7518C23.5393 11.6727 23.3951 11.6327 23.2487 11.637Z" fill="url(#paint0_linear)"/>
</g>
<path d="M11.8037 8.01001C11.6109 8.01001 11.4261 8.08658 11.2898 8.22289C11.1535 8.35919 11.0769 8.54406 11.0769 8.73682C11.0769 8.92959 11.1535 9.11445 11.2898 9.25076C11.4261 9.38706 11.6109 9.46364 11.8037 9.46364C11.9965 9.46364 12.1813 9.38706 12.3176 9.25076C12.4539 9.11445 12.5305 8.92959 12.5305 8.73682C12.5305 8.54406 12.4539 8.35919 12.3176 8.22289C12.1813 8.08658 11.9965 8.01001 11.8037 8.01001ZM15.4377 8.01001C15.2449 8.01001 15.0601 8.08658 14.9238 8.22289C14.7875 8.35919 14.7109 8.54406 14.7109 8.73682C14.7109 8.92959 14.7875 9.11445 14.9238 9.25076C15.0601 9.38706 15.2449 9.46364 15.4377 9.46364C15.6305 9.46364 15.8153 9.38706 15.9516 9.25076C16.0879 9.11445 16.1645 8.92959 16.1645 8.73682C16.1645 8.54406 16.0879 8.35919 15.9516 8.22289C15.8153 8.08658 15.6305 8.01001 15.4377 8.01001ZM19.0717 8.01001C18.8789 8.01001 18.6941 8.08658 18.5578 8.22289C18.4215 8.35919 18.3449 8.54406 18.3449 8.73682C18.3449 8.92959 18.4215 9.11445 18.5578 9.25076C18.6941 9.38706 18.8789 9.46364 19.0717 9.46364C19.2645 9.46364 19.4493 9.38706 19.5856 9.25076C19.7219 9.11445 19.7985 8.92959 19.7985 8.73682C19.7985 8.54406 19.7219 8.35919 19.5856 8.22289C19.4493 8.08658 19.2645 8.01001 19.0717 8.01001ZM22.7057 8.01001C22.5129 8.01001 22.3281 8.08658 22.1918 8.22289C22.0555 8.35919 21.9789 8.54406 21.9789 8.73682C21.9789 8.92959 22.0555 9.11445 22.1918 9.25076C22.3281 9.38706 22.5129 9.46364 22.7057 9.46364C22.8984 9.46364 23.0833 9.38706 23.2196 9.25076C23.3559 9.11445 23.4325 8.92959 23.4325 8.73682C23.4325 8.54406 23.3559 8.35919 23.2196 8.22289C23.0833 8.08658 22.8984 8.01001 22.7057 8.01001ZM11.8037 11.6441C11.6109 11.6441 11.4261 11.7207 11.2898 11.857C11.1535 11.9933 11.0769 12.1781 11.0769 12.3709C11.0769 12.5637 11.1535 12.7485 11.2898 12.8848C11.4261 13.0211 11.6109 13.0977 11.8037 13.0977C11.9965 13.0977 12.1813 13.0211 12.3176 12.8848C12.4539 12.7485 12.5305 12.5637 12.5305 12.3709C12.5305 12.1781 12.4539 11.9933 12.3176 11.857C12.1813 11.7207 11.9965 11.6441 11.8037 11.6441ZM19.0717 11.6441C18.8789 11.6441 18.6941 11.7207 18.5578 11.857C18.4215 11.9933 18.3449 12.1781 18.3449 12.3709C18.3449 12.5637 18.4215 12.7485 18.5578 12.8848C18.6941 13.0211 18.8789 13.0977 19.0717 13.0977C19.2645 13.0977 19.4493 13.0211 19.5856 12.8848C19.7219 12.7485 19.7985 12.5637 19.7985 12.3709C19.7985 12.1781 19.7219 11.9933 19.5856 11.857C19.4493 11.7207 19.2645 11.6441 19.0717 11.6441ZM15.4377 15.2781C15.2449 15.2781 15.0601 15.3547 14.9238 15.491C14.7875 15.6273 14.7109 15.8122 14.7109 16.005C14.7109 16.1977 14.7875 16.3826 14.9238 16.5189C15.0601 16.6552 15.2449 16.7318 15.4377 16.7318C15.6305 16.7318 15.8153 16.6552 15.9516 16.5189C16.0879 16.3826 16.1645 16.1977 16.1645 16.005C16.1645 15.8122 16.0879 15.6273 15.9516 15.491C15.8153 15.3547 15.6305 15.2781 15.4377 15.2781ZM22.7057 15.2781C22.5129 15.2781 22.3281 15.3547 22.1918 15.491C22.0555 15.6273 21.9789 15.8122 21.9789 16.005C21.9789 16.1977 22.0555 16.3826 22.1918 16.5189C22.3281 16.6552 22.5129 16.7318 22.7057 16.7318C22.8984 16.7318 23.0833 16.6552 23.2196 16.5189C23.3559 16.3826 23.4325 16.1977 23.4325 16.005C23.4325 15.8122 23.3559 15.6273 23.2196 15.491C23.0833 15.3547 22.8984 15.2781 22.7057 15.2781ZM11.8037 18.9122C11.6109 18.9122 11.4261 18.9888 11.2898 19.1251C11.1535 19.2614 11.0769 19.4463 11.0769 19.639C11.0769 19.8318 11.1535 20.0167 11.2898 20.153C11.4261 20.2893 11.6109 20.3658 11.8037 20.3658C11.9965 20.3658 12.1813 20.2893 12.3176 20.153C12.4539 20.0167 12.5305 19.8318 12.5305 19.639C12.5305 19.4463 12.4539 19.2614 12.3176 19.1251C12.1813 18.9888 11.9965 18.9122 11.8037 18.9122ZM15.4377 18.9122C15.2449 18.9122 15.0601 18.9888 14.9238 19.1251C14.7875 19.2614 14.7109 19.4463 14.7109 19.639C14.7109 19.8318 14.7875 20.0167 14.9238 20.153C15.0601 20.2893 15.2449 20.3658 15.4377 20.3658C15.6305 20.3658 15.8153 20.2893 15.9516 20.153C16.0879 20.0167 16.1645 19.8318 16.1645 19.639C16.1645 19.4463 16.0879 19.2614 15.9516 19.1251C15.8153 18.9888 15.6305 18.9122 15.4377 18.9122ZM19.0717 18.9122C18.8789 18.9122 18.6941 18.9888 18.5578 19.1251C18.4215 19.2614 18.3449 19.4463 18.3449 19.639C18.3449 19.8318 18.4215 20.0167 18.5578 20.153C18.6941 20.2893 18.8789 20.3658 19.0717 20.3658C19.2645 20.3658 19.4493 20.2893 19.5856 20.153C19.7219 20.0167 19.7985 19.8318 19.7985 19.639C19.7985 19.4463 19.7219 19.2614 19.5856 19.1251C19.4493 18.9888 19.2645 18.9122 19.0717 18.9122ZM22.7057 18.9122C22.5129 18.9122 22.3281 18.9888 22.1918 19.1251C22.0555 19.2614 21.9789 19.4463 21.9789 19.639C21.9789 19.8318 22.0555 20.0167 22.1918 20.153C22.3281 20.2893 22.5129 20.3658 22.7057 20.3658C22.8984 20.3658 23.0833 20.2893 23.2196 20.153C23.3559 20.0167 23.4325 19.8318 23.4325 19.639C23.4325 19.4463 23.3559 19.2614 23.2196 19.1251C23.0833 18.9888 22.8984 18.9122 22.7057 18.9122Z" fill="#B297FF"/>
<defs>
<filter id="filter0_d" x="4" y="5" width="24" height="24" filterUnits="userSpaceOnUse" color-interpolation-filters="sRGB">
<feFlood flood-opacity="0" result="BackgroundImageFix"/>
<feColorMatrix in="SourceAlpha" type="matrix" values="0 0 0 0 0 0 0 0 0 0 0 0 0 0 0 0 0 0 127 0"/>
<feOffset dy="1"/>
<feGaussianBlur stdDeviation="2"/>
<feColorMatrix type="matrix" values="0 0 0 0 0 0 0 0 0 0 0 0 0 0 0 0 0 0 0.15 0"/>
<feBlend mode="normal" in2="BackgroundImageFix" result="effect1_dropShadow"/>
<feBlend mode="normal" in="SourceGraphic" in2="effect1_dropShadow" result="shape"/>
</filter>
<linearGradient id="paint0_linear" x1="16" y1="8" x2="29.6012" y2="19.2936" gradientUnits="userSpaceOnUse">
<stop stop-color="#8044FF"/>
<stop offset="1" stop-color="#9757FF"/>
</linearGradient>
</defs>
</svg>
